<?xml version="1.0" encoding="UTF-8" standalone="no"?>
<svg
   xmlns:dc="http://purl.org/dc/elements/1.1/"
   xmlns:cc="http://creativecommons.org/ns#"
   xmlns:rdf="http://www.w3.org/1999/02/22-rdf-syntax-ns#"
   xmlns:svg="http://www.w3.org/2000/svg"
   xmlns="http://www.w3.org/2000/svg"
   xmlns:sodipodi="http://sodipodi.sourceforge.net/DTD/sodipodi-0.dtd"
   xmlns:inkscape="http://www.inkscape.org/namespaces/inkscape"
   version="1.1"
   id="Layer_1"
   x="0px"
   y="0px"
   width="700"
   height="1024"
   viewBox="0 0 700 1024"
   enable-background="new 0 0 512 512"
   xml:space="preserve"
   inkscape:version="0.48.0 r9654"
   sodipodi:docname=".missing-glyph.svg"><title
   id="title3743">Sinai 357</title><metadata
   id="metadata72"><rdf:RDF><cc:Work
       rdf:about=""><dc:format>image/svg+xml</dc:format><dc:type
         rdf:resource="http://purl.org/dc/dcmitype/StillImage" /><dc:title>Sinai 357</dc:title><dc:date>2017</dc:date><dc:creator><cc:Agent><dc:title>Celeste Claire Horner</dc:title></cc:Agent></dc:creator><dc:publisher><cc:Agent><dc:title>beitdina.net</dc:title></cc:Agent></dc:publisher></cc:Work></rdf:RDF></metadata><defs
   id="defs70" /><sodipodi:namedview
   pagecolor="#ffffff"
   bordercolor="#666666"
   borderopacity="1"
   objecttolerance="10"
   gridtolerance="10"
   guidetolerance="10"
   inkscape:pageopacity="0"
   inkscape:pageshadow="2"
   inkscape:window-width="1152"
   inkscape:window-height="814"
   id="namedview68"
   showgrid="false"
   inkscape:zoom="0.22533121"
   inkscape:cx="-221.14077"
   inkscape:cy="397.21224"
   inkscape:window-x="-8"
   inkscape:window-y="-8"
   inkscape:window-maximized="1"
   inkscape:current-layer="Layer_1"
   showguides="true"
   inkscape:guide-bbox="true" />
   
	
	


<g
   transform="matrix(4.4637923,0,0,4.9975799,-3306.2811,-1632.7003)"
   id="g2991"><g
     id="g4784" /><g
     id="g4634"><g
       id="g4519"
       transform="translate(477.65623,235.79285)"><g
         id="Grid"
         transform="matrix(0.30374688,0,0,0.40028531,263.75757,91.926833)"><rect
           x="-1.1806283"
           stroke-miterlimit="10"
           width="513.18066"
           height="514.00049"
           id="rect4"
           y="-2.0005047"
           style="fill:none;stroke:#a9ccdb;stroke-miterlimit:10"
           ry="0" /><line
           stroke-miterlimit="10"
           x1="0"
           y1="32"
           x2="512"
           y2="32"
           id="line6"
           style="fill:none;stroke:#a9ccdb;stroke-miterlimit:10" /><line
           stroke-miterlimit="10"
           x1="0"
           y1="64"
           x2="512"
           y2="64"
           id="line8"
           style="fill:none;stroke:#a9ccdb;stroke-miterlimit:10" /><line
           stroke-miterlimit="10"
           x1="0"
           y1="96"
           x2="512"
           y2="96"
           id="line10"
           style="fill:none;stroke:#a9ccdb;stroke-miterlimit:10" /><line
           stroke-miterlimit="10"
           x1="0"
           y1="128"
           x2="512"
           y2="128"
           id="line12"
           style="fill:none;stroke:#a9ccdb;stroke-miterlimit:10" /><line
           stroke-miterlimit="10"
           x1="0"
           y1="160"
           x2="512"
           y2="160"
           id="line14"
           style="fill:none;stroke:#a9ccdb;stroke-miterlimit:10" /><line
           stroke-miterlimit="10"
           x1="0"
           y1="192"
           x2="512"
           y2="192"
           id="line16"
           style="fill:none;stroke:#a9ccdb;stroke-miterlimit:10" /><line
           stroke-miterlimit="10"
           x1="0"
           y1="224"
           x2="512"
           y2="224"
           id="line18"
           style="fill:none;stroke:#a9ccdb;stroke-miterlimit:10" /><line
           stroke-miterlimit="10"
           x1="0"
           y1="256"
           x2="512"
           y2="256"
           id="line20"
           style="fill:none;stroke:#a9ccdb;stroke-miterlimit:10" /><line
           stroke-miterlimit="10"
           x1="0"
           y1="288"
           x2="512"
           y2="288"
           id="line22"
           style="fill:none;stroke:#a9ccdb;stroke-miterlimit:10" /><line
           stroke-miterlimit="10"
           x1="0"
           y1="320"
           x2="512"
           y2="320"
           id="line24"
           style="fill:none;stroke:#a9ccdb;stroke-miterlimit:10" /><line
           stroke-miterlimit="10"
           x1="0"
           y1="352"
           x2="512"
           y2="352"
           id="line26"
           style="fill:none;stroke:#a9ccdb;stroke-miterlimit:10" /><line
           stroke-miterlimit="10"
           x1="0"
           y1="384"
           x2="512"
           y2="384"
           id="line28"
           style="fill:none;stroke:#a9ccdb;stroke-miterlimit:10" /><line
           stroke-miterlimit="10"
           x1="0"
           y1="416"
           x2="512"
           y2="416"
           id="line30"
           style="fill:none;stroke:#a9ccdb;stroke-miterlimit:10" /><line
           stroke-miterlimit="10"
           x1="0"
           y1="448"
           x2="512"
           y2="448"
           id="line32"
           style="fill:none;stroke:#ff0000;stroke-miterlimit:10" /><line
           stroke-miterlimit="10"
           x1="0"
           y1="480"
           x2="512"
           y2="480"
           id="line34"
           style="fill:none;stroke:#a9ccdb;stroke-miterlimit:10" /><line
           stroke-miterlimit="10"
           x1="32"
           y1="0"
           x2="32"
           y2="512"
           id="line36"
           style="fill:none;stroke:#a9ccdb;stroke-miterlimit:10" /><line
           stroke-miterlimit="10"
           x1="64"
           y1="0"
           x2="64"
           y2="512"
           id="line38"
           style="fill:none;stroke:#a9ccdb;stroke-miterlimit:10" /><line
           stroke-miterlimit="10"
           x1="96"
           y1="0"
           x2="96"
           y2="512"
           id="line40"
           style="fill:none;stroke:#a9ccdb;stroke-miterlimit:10" /><line
           stroke-miterlimit="10"
           x1="128"
           y1="0"
           x2="128"
           y2="512"
           id="line42"
           style="fill:none;stroke:#a9ccdb;stroke-miterlimit:10" /><line
           stroke-miterlimit="10"
           x1="160"
           y1="0"
           x2="160"
           y2="512"
           id="line44"
           style="fill:none;stroke:#a9ccdb;stroke-miterlimit:10" /><line
           stroke-miterlimit="10"
           x1="192"
           y1="0"
           x2="192"
           y2="512"
           id="line46"
           style="fill:none;stroke:#a9ccdb;stroke-miterlimit:10" /><line
           stroke-miterlimit="10"
           x1="224"
           y1="0"
           x2="224"
           y2="512"
           id="line48"
           style="fill:none;stroke:#a9ccdb;stroke-miterlimit:10" /><line
           stroke-miterlimit="10"
           x1="256"
           y1="0"
           x2="256"
           y2="512"
           id="line50"
           style="fill:none;stroke:#a9ccdb;stroke-miterlimit:10" /><line
           stroke-miterlimit="10"
           x1="288"
           y1="0"
           x2="288"
           y2="512"
           id="line52"
           style="fill:none;stroke:#a9ccdb;stroke-miterlimit:10" /><line
           stroke-miterlimit="10"
           x1="320"
           y1="0"
           x2="320"
           y2="512"
           id="line54"
           style="fill:none;stroke:#a9ccdb;stroke-miterlimit:10" /><line
           stroke-miterlimit="10"
           x1="352"
           y1="0"
           x2="352"
           y2="512"
           id="line56"
           style="fill:none;stroke:#a9ccdb;stroke-miterlimit:10" /><line
           stroke-miterlimit="10"
           x1="384"
           y1="0"
           x2="384"
           y2="512"
           id="line58"
           style="fill:none;stroke:#a9ccdb;stroke-miterlimit:10" /><line
           stroke-miterlimit="10"
           x1="416"
           y1="0"
           x2="416"
           y2="512"
           id="line60"
           style="fill:none;stroke:#a9ccdb;stroke-miterlimit:10" /><line
           stroke-miterlimit="10"
           x1="448"
           y1="0"
           x2="448"
           y2="512"
           id="line62"
           style="fill:none;stroke:#a9ccdb;stroke-miterlimit:10" /><line
           stroke-miterlimit="10"
           x1="480"
           y1="0"
           x2="480"
           y2="512"
           id="line64"
           style="fill:none;stroke:#a9ccdb;stroke-miterlimit:10" /></g><g
         id="g5180"
         transform="translate(101.34448,27.123307)" /></g></g><flowRoot
     style="font-size:28px;font-style:normal;font-variant:normal;font-weight:normal;font-stretch:normal;text-align:start;line-height:100%;letter-spacing:0px;word-spacing:0px;writing-mode:lr-tb;text-anchor:start;fill:#000000;fill-opacity:1;stroke:none;font-family:Arial;-inkscape-font-specification:Arial"
     id="flowRoot4904"
     xml:space="preserve"><flowRegion
       id="flowRegion4906"><rect
         style="font-size:28px"
         y="186.87357"
         x="31.103449"
         height="32.045979"
         width="594.73566"
         id="rect4908" /></flowRegion><flowPara
       id="flowPara4910" /></flowRoot></g>
  
<path
   style="font-size:medium;font-style:normal;font-variant:normal;font-weight:normal;font-stretch:normal;text-indent:0;text-align:start;text-decoration:none;line-height:normal;letter-spacing:normal;word-spacing:normal;text-transform:none;direction:ltr;block-progression:tb;writing-mode:lr-tb;text-anchor:start;baseline-shift:baseline;color:#000000;fill-opacity:1;fill-rule:nonzero;stroke:#000000;stroke-width:10;marker:none;visibility:visible;display:inline;overflow:visible;enable-background:accumulate;font-family:Sans;-inkscape-font-specification:Sans;fill:#000000;stroke-opacity:1;stroke-miterlimit:4;stroke-dasharray:none"
   d="m 242.9375,67.625 c -0.70228,0.04065 -1.34872,0.386148 -2,0.90625 -0.65128,0.520102 -1.30426,1.238152 -2.09375,2.15625 -3.15798,3.672391 -8.20111,10.5409 -19.65625,20 l -0.0937,0.0625 -0.0312,0.09375 c -4.80817,8.979033 -9.70637,22.24748 -14.875,35.21875 -5.16435,12.96052 -10.61803,25.62598 -16.46875,33.3125 -0.005,0.006 0.005,0.0249 0,0.0312 C 129.84461,224.60094 92.305331,280.98088 67.6875,354.9375 51.211726,404.43384 43.448533,466.75712 49.90625,531.90625 c 5.996479,56.25447 22.229324,108.82796 47.75,155.03125 31.48373,56.91934 62.37699,108.67712 93.96875,149.15625 13.72641,17.58789 28.7937,33.81757 46.34375,48.84375 0.0116,0.0116 0.0197,0.0197 0.0312,0.0312 4.53987,4.54352 8.32192,5.90959 11.65625,5.03125 4.76788,-1.25595 8.31439,-6.77851 12.40625,-12.96875 10.10824,-15.48674 23.65784,-32.40809 37.09375,-49.4375 13.5127,-17.12672 20.4659,-38.39357 30.125,-54.25 25.48269,-41.83253 49.05741,-83.83649 67.59375,-124.65625 20.79608,-47.04321 38.17897,-104.69442 38.3125,-169.09375 -2.05856,-77.95573 -30.17868,-150.2491 -66.65625,-215.5625 L 368.5,264 c -9.77577,-17.16305 -26.30774,-40.25505 -42.65625,-64 -16.34851,-23.74495 -32.48697,-48.12528 -41.5,-67.71875 -4.61997,-10.04337 -4.69197,-15.52298 -5.75,-20.90625 -1.05803,-5.38327 -3.15698,-10.59861 -11.65625,-19.75 -10.78497,-10.849092 -16.11902,-17.671757 -19.46875,-21.15625 -0.91579,-0.952636 -1.68594,-1.67853 -2.40625,-2.15625 -0.72031,-0.47772 -1.42272,-0.728153 -2.125,-0.6875 z m 0.0625,1 c 0.43044,-0.02492 0.91946,0.125499 1.53125,0.53125 0.61179,0.405751 1.32643,1.071781 2.21875,2 3.26387,3.395187 8.65214,10.275322 19.46875,21.15625 8.42671,9.07328 10.34028,14.01657 11.375,19.28125 1.03472,5.26468 1.16755,10.92817 5.84375,21.09375 9.07102,19.71956 25.23861,44.12042 41.59375,67.875 16.35514,23.75458 32.89816,46.86037 42.625,63.9375 36.43117,65.23032 64.47861,137.3622 66.53125,215.09375 -0.13315,64.22055 -17.46147,121.73207 -38.21875,168.6875 -18.51122,40.76444 -42.06082,82.75011 -67.53125,124.5625 -9.75382,16.01191 -16.69598,37.18354 -30.0625,54.125 -13.43311,17.02587 -26.9757,33.98161 -37.125,49.53125 -4.09164,6.1899 -7.67753,11.4338 -11.84375,12.53125 -2.92098,0.76945 -6.28505,-0.33203 -10.71875,-4.78125 l -0.0312,-0.0312 C 221.14717,869.23192 206.1067,853.05463 192.40625,835.5 160.87451,795.09779 130.00524,743.33924 98.53125,686.4375 73.078886,640.35789 56.889509,587.94295 50.90625,531.8125 44.462471,466.80397 52.198976,404.59688 68.625,355.25 93.197051,281.43091 130.63297,225.18011 188.46875,160.03125 l 0.0312,0 0,-0.0312 c 5.99475,-7.86642 11.44979,-20.57471 16.625,-33.5625 5.15981,-12.94914 10.0472,-26.16613 14.78125,-35.03125 11.46077,-9.479 16.59857,-16.470405 19.6875,-20.0625 0.77438,-0.900524 1.41005,-1.585084 1.96875,-2.03125 0.5587,-0.446166 1.00706,-0.662583 1.4375,-0.6875 z m 0.625,113.40625 -0.4375,0.53125 c -46.56219,57.26615 -98.22951,114.84459 -119,180.65625 l 0,0.0312 c -15.81516,52.63082 -20.45083,117.10297 -14.5625,170.5625 4.6404,42.26573 16.96035,82.10463 35.5,118.78125 26.15534,51.7426 50.83915,121.04264 98,158.1875 l 0.40625,0.3125 0.3125,-0.375 c 48.75857,-59.43629 79.95846,-120.90353 113.75,-197 C 374.8783,570.53877 386.01704,520.94439 382.875,479.3125 377.58167,421.04269 351.78427,360.04804 321.0625,302.5625 298.61553,260.56048 265.60385,218.41339 244,182.625 l -0.375,-0.59375 z m -0.0937,1.75 c 21.66156,35.74534 54.39575,77.62814 76.65625,119.28125 30.68751,57.42145 56.40874,118.28099 61.6875,176.3125 7.7e-4,0.0102 -7.7e-4,0.0211 0,0.0312 3.11577,41.38034 -7.98765,90.85076 -25.21875,133.90625 -0.004,0.009 0.004,0.0223 0,0.0312 C 322.9571,689.23012 291.85751,750.48248 243.375,809.6875 196.80348,772.73785 172.16288,703.85194 146.03125,652.15625 127.54276,615.58081 115.2519,575.86154 110.625,533.71875 c -5.87249,-53.31571 -1.23457,-117.72088 14.53125,-170.1875 20.6115,-65.3079 71.90915,-122.63927 118.375,-179.75 z"
   id="path3874"
   inkscape:connector-curvature="0" /></svg>