<?xml version="1.0" encoding="UTF-8" standalone="no"?>
<svg
   xmlns:dc="http://purl.org/dc/elements/1.1/"
   xmlns:cc="http://creativecommons.org/ns#"
   xmlns:rdf="http://www.w3.org/1999/02/22-rdf-syntax-ns#"
   xmlns:svg="http://www.w3.org/2000/svg"
   xmlns="http://www.w3.org/2000/svg"
   xmlns:sodipodi="http://sodipodi.sourceforge.net/DTD/sodipodi-0.dtd"
   xmlns:inkscape="http://www.inkscape.org/namespaces/inkscape"
   version="1.1"
   id="Layer_1"
   x="0px"
   y="0px"
   width="500"
   height="512"
   viewBox="0 0 500 512"
   enable-background="new 0 0 512 512"
   xml:space="preserve"
   inkscape:version="0.48.0 r9654"
   sodipodi:docname="alefhebrew-x5d0.svg"><title
   id="title3743">Sinai 357</title><metadata
   id="metadata72"><rdf:RDF><cc:Work
       rdf:about=""><dc:format>image/svg+xml</dc:format><dc:type
         rdf:resource="http://purl.org/dc/dcmitype/StillImage" /><dc:title>Sinai 357</dc:title><dc:date>2017</dc:date><dc:creator><cc:Agent><dc:title>Celeste Claire Horner</dc:title></cc:Agent></dc:creator><dc:publisher><cc:Agent><dc:title>beitdina.net</dc:title></cc:Agent></dc:publisher></cc:Work></rdf:RDF></metadata><defs
   id="defs70" /><sodipodi:namedview
   pagecolor="#ffffff"
   bordercolor="#666666"
   borderopacity="1"
   objecttolerance="10"
   gridtolerance="10"
   guidetolerance="10"
   inkscape:pageopacity="0"
   inkscape:pageshadow="2"
   inkscape:window-width="1152"
   inkscape:window-height="814"
   id="namedview68"
   showgrid="false"
   inkscape:zoom="0.36045873"
   inkscape:cx="1.1499365"
   inkscape:cy="242.04266"
   inkscape:window-x="-8"
   inkscape:window-y="-8"
   inkscape:window-maximized="1"
   inkscape:current-layer="Layer_1" />
   
	<g
   id="Grid"
   transform="matrix(0.96755009,0,0,1.0000026,-0.01554274,-6.5563058e-4)">
		<rect
   x="0"
   stroke-miterlimit="10"
   width="512"
   height="512"
   id="rect4"
   y="0"
   style="fill:none;stroke:#a9ccdb;stroke-miterlimit:10" />
		<line
   stroke-miterlimit="10"
   x1="0"
   y1="32"
   x2="512"
   y2="32"
   id="line6"
   style="fill:none;stroke:#a9ccdb;stroke-miterlimit:10" />
		<line
   stroke-miterlimit="10"
   x1="0"
   y1="64"
   x2="512"
   y2="64"
   id="line8"
   style="fill:none;stroke:#a9ccdb;stroke-miterlimit:10" />
		<line
   stroke-miterlimit="10"
   x1="0"
   y1="96"
   x2="512"
   y2="96"
   id="line10"
   style="fill:none;stroke:#a9ccdb;stroke-miterlimit:10" />
		<line
   stroke-miterlimit="10"
   x1="0"
   y1="128"
   x2="512"
   y2="128"
   id="line12"
   style="fill:none;stroke:#a9ccdb;stroke-miterlimit:10" />
		<line
   stroke-miterlimit="10"
   x1="0"
   y1="160"
   x2="512"
   y2="160"
   id="line14"
   style="fill:none;stroke:#a9ccdb;stroke-miterlimit:10" />
		<line
   stroke-miterlimit="10"
   x1="0"
   y1="192"
   x2="512"
   y2="192"
   id="line16"
   style="fill:none;stroke:#a9ccdb;stroke-miterlimit:10" />
		<line
   stroke-miterlimit="10"
   x1="0"
   y1="224"
   x2="512"
   y2="224"
   id="line18"
   style="fill:none;stroke:#a9ccdb;stroke-miterlimit:10" />
		<line
   stroke-miterlimit="10"
   x1="0"
   y1="256"
   x2="512"
   y2="256"
   id="line20"
   style="fill:none;stroke:#a9ccdb;stroke-miterlimit:10" />
		<line
   stroke-miterlimit="10"
   x1="0"
   y1="288"
   x2="512"
   y2="288"
   id="line22"
   style="fill:none;stroke:#a9ccdb;stroke-miterlimit:10" />
		<line
   stroke-miterlimit="10"
   x1="0"
   y1="320"
   x2="512"
   y2="320"
   id="line24"
   style="fill:none;stroke:#a9ccdb;stroke-miterlimit:10" />
		<line
   stroke-miterlimit="10"
   x1="0"
   y1="352"
   x2="512"
   y2="352"
   id="line26"
   style="fill:none;stroke:#a9ccdb;stroke-miterlimit:10" />
		<line
   stroke-miterlimit="10"
   x1="0"
   y1="384"
   x2="512"
   y2="384"
   id="line28"
   style="fill:none;stroke:#a9ccdb;stroke-miterlimit:10" />
		<line
   stroke-miterlimit="10"
   x1="0"
   y1="416"
   x2="512"
   y2="416"
   id="line30"
   style="fill:none;stroke:#a9ccdb;stroke-miterlimit:10" />
		<line
   stroke-miterlimit="10"
   x1="0"
   y1="448"
   x2="512"
   y2="448"
   id="line32"
   style="fill:none;stroke:#ff0000;stroke-miterlimit:10" />
		<line
   stroke-miterlimit="10"
   x1="0"
   y1="480"
   x2="512"
   y2="480"
   id="line34"
   style="fill:none;stroke:#a9ccdb;stroke-miterlimit:10" />
		<line
   stroke-miterlimit="10"
   x1="32"
   y1="0"
   x2="32"
   y2="512"
   id="line36"
   style="fill:none;stroke:#a9ccdb;stroke-miterlimit:10" />
		<line
   stroke-miterlimit="10"
   x1="64"
   y1="0"
   x2="64"
   y2="512"
   id="line38"
   style="fill:none;stroke:#a9ccdb;stroke-miterlimit:10" />
		<line
   stroke-miterlimit="10"
   x1="96"
   y1="0"
   x2="96"
   y2="512"
   id="line40"
   style="fill:none;stroke:#a9ccdb;stroke-miterlimit:10" />
		<line
   stroke-miterlimit="10"
   x1="128"
   y1="0"
   x2="128"
   y2="512"
   id="line42"
   style="fill:none;stroke:#a9ccdb;stroke-miterlimit:10" />
		<line
   stroke-miterlimit="10"
   x1="160"
   y1="0"
   x2="160"
   y2="512"
   id="line44"
   style="fill:none;stroke:#a9ccdb;stroke-miterlimit:10" />
		<line
   stroke-miterlimit="10"
   x1="192"
   y1="0"
   x2="192"
   y2="512"
   id="line46"
   style="fill:none;stroke:#a9ccdb;stroke-miterlimit:10" />
		<line
   stroke-miterlimit="10"
   x1="224"
   y1="0"
   x2="224"
   y2="512"
   id="line48"
   style="fill:none;stroke:#a9ccdb;stroke-miterlimit:10" />
		<line
   stroke-miterlimit="10"
   x1="256"
   y1="0"
   x2="256"
   y2="512"
   id="line50"
   style="fill:none;stroke:#a9ccdb;stroke-miterlimit:10" />
		<line
   stroke-miterlimit="10"
   x1="288"
   y1="0"
   x2="288"
   y2="512"
   id="line52"
   style="fill:none;stroke:#a9ccdb;stroke-miterlimit:10" />
		<line
   stroke-miterlimit="10"
   x1="320"
   y1="0"
   x2="320"
   y2="512"
   id="line54"
   style="fill:none;stroke:#a9ccdb;stroke-miterlimit:10" />
		<line
   stroke-miterlimit="10"
   x1="352"
   y1="0"
   x2="352"
   y2="512"
   id="line56"
   style="fill:none;stroke:#a9ccdb;stroke-miterlimit:10" />
		<line
   stroke-miterlimit="10"
   x1="384"
   y1="0"
   x2="384"
   y2="512"
   id="line58"
   style="fill:none;stroke:#a9ccdb;stroke-miterlimit:10" />
		<line
   stroke-miterlimit="10"
   x1="416"
   y1="0"
   x2="416"
   y2="512"
   id="line60"
   style="fill:none;stroke:#a9ccdb;stroke-miterlimit:10" />
		<line
   stroke-miterlimit="10"
   x1="448"
   y1="0"
   x2="448"
   y2="512"
   id="line62"
   style="fill:none;stroke:#a9ccdb;stroke-miterlimit:10" />
		<line
   stroke-miterlimit="10"
   x1="480"
   y1="0"
   x2="480"
   y2="512"
   id="line64"
   style="fill:none;stroke:#a9ccdb;stroke-miterlimit:10" />
	</g>
	

<path
   sodipodi:nodetypes="sssssssssccscsccsccscscccsccsssccccsscscccccscccccsccscsccssccscsscsccsccsc"
   inkscape:connector-curvature="0"
   d="m 190.8165,159.30558 c 0,5.6102 1.97057,10.43141 5.91172,14.4637 3.94123,4.03233 8.76913,6.04845 14.4838,6.04845 5.71469,0 10.64116,-2.01612 14.7794,-6.04845 4.13825,-4.03229 6.20732,-8.8535 6.20732,-14.4637 0,-5.6097 -2.06907,-10.43089 -6.20732,-14.46324 -4.13824,-4.03229 -9.06471,-6.04841 -14.7794,-6.04841 -5.71467,0 -10.54257,2.01612 -14.4838,6.04841 -3.94115,4.03235 -5.91172,14.46324 -5.91172,14.46324 z m 20.06851,61.56407 -40.64904,-10.7704 c -12.09648,-13.36812 -24.05094,-29.01497 -40.11241,-39.28487 -16.31737,-10.43397 -21.81982,-19.88079 -29.20824,-36.62446 -3.859726,-8.23001 -20.750976,-22.45275 -25.748734,-34.696928 -7.42922,-18.20147 -8.476193,-43.05898 -6.55385,-55.12087 7.092878,0.14227 16.9373,1.79249 23.267435,0.30656 6.392617,-1.94622 13.271559,-2.49031 19.397149,-2.83268 5.94518,-0.33232 11.18065,-0.47396 14.57358,-1.52303 15.52192,-0.34091 42.9867,11.45693 60.44566,15.27161 6.44217,1.76351 13.05275,4.1895 19.65272,6.76442 10.09035,3.93639 20.15593,8.22043 29.55688,11.01601 8.90977,3.99864 18.79657,6.50444 28.53111,9.05479 11.56712,3.03048 22.91926,6.12313 32.16142,11.85545 8.1771,5.3623 9.9192,15.118778 12.405,23.359988 5.53527,19.87264 19.37501,27.68161 21.64408,30.28419 4.07907,3.99081 5.50593,14.43815 5.24081,17.66471 -0.44999,5.47842 -5.77769,3.29347 -11.28259,8.85871 -2.32298,2.24285 -4.43665,3.87771 -10.75243,8.02699 -7.10063,-0.61578 -55.7231,18.40227 -60.37753,17.60734 -8.78846,-1.50059 -10.27006,1.61323 -17.4411,4.16528 -5.7492,2.04639 -0.80625,7.91993 -12.41475,11.98937 -6.50931,2.28216 -7.31706,3.26279 -12.33517,4.62862 z m -13.13004,190.93696 c -1.15354,-13.72485 -1.08248,-27.73341 -3.01176,-39.74392 2.7484,-11.03117 4.68636,-22.0321 6.79601,-33.02616 2.58137,-13.45237 5.41984,-26.89389 10.3146,-40.36743 5.35485,-14.74007 13.72858,-28.96149 25.34425,-44.84802 3.81211,-2.90393 25.07896,-17.8534 30.19518,-20.21502 7.28838,-3.36427 55.22739,-26.39694 62.71794,-25.87964 37.42901,0.54569 45.05816,19.88085 63.06937,45.68747 12.9389,13.75466 9.61568,37.4104 18.19133,49.50681 6.36348,7.95323 5.36459,16.02044 5.4079,22.17769 0,8.06462 -14.21222,17.53952 -15.39455,25.95472 -2.16712,8.31117 -0.16201,16.71347 4.24748,23.11857 5.38574,7.82319 14.35848,12.66646 23.69658,10.72331 8.86757,-2.1876 11.59662,-4.08245 17.12104,-12.23205 9.45883,-16.47986 1.80547,-23.05768 1.80547,-46.90085 0,-21.21252 -5.6649,-23.24598 -10.0825,-29.85275 -10.25222,-17.99332 -17.87695,-37.28686 -25.98761,-54.77587 -3.40365,-11.86974 -9.67952,-20.89209 -17.18871,-28.60393 -10.87211,-11.16588 -24.32963,-19.58372 -35.39847,-29.91837 0.97552,-3.50898 -0.348,-12.84396 1.31027,-17.71612 0.42962,-11.65951 -3.01886,-14.42094 -5.90483,-22.70102 -1.66405,-24.35742 -15.20924,-11.42198 -20.06127,-25.47154 -13.15942,-33.462318 -15.68538,-40.672788 -31.7933,-47.305878 -4.96412,-2.04424 -11.21806,-4.0332 -19.47078,-6.71953 -11.25823,-3.71573 -27.12773,-10.51122 -43.43678,-14.8916 -19.45056,-5.54366 -33.61329,-11.61885 -42.86464,-12.96308 -25.25841,-3.95204 -81.04755,-14.66405 -101.474597,-10.34978 -17.066427,3.60479 -32.224781,-1.21561 -41.504709,3.18418 -5.925994,2.80982 -8.417731,12.99898 -10.855724,19.75474 -3.803361,11.8132 5.482218,21.64093 7.243154,38.97571 2.123215,18.109088 3.020914,22.036458 10.473045,33.485618 6.011796,9.23659 12.564547,17.6859 20.896819,27.57362 7.027887,8.9714 18.604222,31.194 34.575222,41.25746 14.76401,9.30261 26.29458,17.91563 28.28875,23.70024 7.6984,18.79518 23.95522,22.70397 34.61304,30.91111 6.25948,4.81992 19.34359,-1.10199 18.8723,10.57045 1.38267,14.9892 -5.40983,25.48577 -9.24222,36.87581 -6.21862,14.60402 -9.01779,30.37178 -12.02128,45.16883 -2.43279,11.98456 -4.99961,23.33228 -9.62617,32.9078 -6.66204,13.46918 -21.11769,26.58132 -18.69573,36.40859 4.15871,16.10627 10.65334,28.17295 22.94128,29.21406 11.24459,0.95258 22.15594,-7.72905 25.8946,-22.67423 z"
   id="path3917"
   inkscape:transform-center-x="-21.186847" /></svg>