<?xml version="1.0" encoding="UTF-8" standalone="no"?>
<svg
   xmlns:dc="http://purl.org/dc/elements/1.1/"
   xmlns:cc="http://creativecommons.org/ns#"
   xmlns:rdf="http://www.w3.org/1999/02/22-rdf-syntax-ns#"
   xmlns:svg="http://www.w3.org/2000/svg"
   xmlns="http://www.w3.org/2000/svg"
   xmlns:sodipodi="http://sodipodi.sourceforge.net/DTD/sodipodi-0.dtd"
   xmlns:inkscape="http://www.inkscape.org/namespaces/inkscape"
   version="1.1"
   id="Layer_1"
   x="0px"
   y="0px"
   width="1000"
   height="1024"
   viewBox="0 0 1000 1024"
   enable-background="new 0 0 512 512"
   xml:space="preserve"
   inkscape:version="0.48.0 r9654"
   sodipodi:docname="alefhebrew-x5d0.svg"><title
   id="title3743">Sinai 357</title><metadata
   id="metadata72"><rdf:RDF><cc:Work
       rdf:about=""><dc:format>image/svg+xml</dc:format><dc:type
         rdf:resource="http://purl.org/dc/dcmitype/StillImage" /><dc:title>Sinai 357</dc:title><dc:date>2017</dc:date><dc:creator><cc:Agent><dc:title>Celeste Claire Horner</dc:title></cc:Agent></dc:creator><dc:publisher><cc:Agent><dc:title>beitdina.net</dc:title></cc:Agent></dc:publisher></cc:Work></rdf:RDF></metadata><defs
   id="defs70" /><sodipodi:namedview
   pagecolor="#ffffff"
   bordercolor="#666666"
   borderopacity="1"
   objecttolerance="10"
   gridtolerance="10"
   guidetolerance="10"
   inkscape:pageopacity="0"
   inkscape:pageshadow="2"
   inkscape:window-width="1152"
   inkscape:window-height="814"
   id="namedview68"
   showgrid="false"
   inkscape:zoom="0.36045871"
   inkscape:cx="253.24536"
   inkscape:cy="876.78614"
   inkscape:window-x="-8"
   inkscape:window-y="-8"
   inkscape:window-maximized="1"
   inkscape:current-layer="Layer_1" />
   
	<g
   id="Grid"
   transform="matrix(1.9502951,0,0,1.9942504,1.456297,2.4527424)">
		<rect
   x="0"
   stroke-miterlimit="10"
   width="512"
   height="512"
   id="rect4"
   y="0"
   style="fill:none;stroke:#a9ccdb;stroke-miterlimit:10" />
		<line
   stroke-miterlimit="10"
   x1="0"
   y1="32"
   x2="512"
   y2="32"
   id="line6"
   style="fill:none;stroke:#a9ccdb;stroke-miterlimit:10" />
		<line
   stroke-miterlimit="10"
   x1="0"
   y1="64"
   x2="512"
   y2="64"
   id="line8"
   style="fill:none;stroke:#a9ccdb;stroke-miterlimit:10" />
		<line
   stroke-miterlimit="10"
   x1="0"
   y1="96"
   x2="512"
   y2="96"
   id="line10"
   style="fill:none;stroke:#a9ccdb;stroke-miterlimit:10" />
		<line
   stroke-miterlimit="10"
   x1="0"
   y1="128"
   x2="512"
   y2="128"
   id="line12"
   style="fill:none;stroke:#a9ccdb;stroke-miterlimit:10" />
		<line
   stroke-miterlimit="10"
   x1="0"
   y1="160"
   x2="512"
   y2="160"
   id="line14"
   style="fill:none;stroke:#a9ccdb;stroke-miterlimit:10" />
		<line
   stroke-miterlimit="10"
   x1="0"
   y1="192"
   x2="512"
   y2="192"
   id="line16"
   style="fill:none;stroke:#a9ccdb;stroke-miterlimit:10" />
		<line
   stroke-miterlimit="10"
   x1="0"
   y1="224"
   x2="512"
   y2="224"
   id="line18"
   style="fill:none;stroke:#a9ccdb;stroke-miterlimit:10" />
		<line
   stroke-miterlimit="10"
   x1="0"
   y1="256"
   x2="512"
   y2="256"
   id="line20"
   style="fill:none;stroke:#a9ccdb;stroke-miterlimit:10" />
		<line
   stroke-miterlimit="10"
   x1="0"
   y1="288"
   x2="512"
   y2="288"
   id="line22"
   style="fill:none;stroke:#a9ccdb;stroke-miterlimit:10" />
		<line
   stroke-miterlimit="10"
   x1="0"
   y1="320"
   x2="512"
   y2="320"
   id="line24"
   style="fill:none;stroke:#a9ccdb;stroke-miterlimit:10" />
		<line
   stroke-miterlimit="10"
   x1="0"
   y1="352"
   x2="512"
   y2="352"
   id="line26"
   style="fill:none;stroke:#a9ccdb;stroke-miterlimit:10" />
		<line
   stroke-miterlimit="10"
   x1="0"
   y1="384"
   x2="512"
   y2="384"
   id="line28"
   style="fill:none;stroke:#a9ccdb;stroke-miterlimit:10" />
		<line
   stroke-miterlimit="10"
   x1="0"
   y1="416"
   x2="512"
   y2="416"
   id="line30"
   style="fill:none;stroke:#a9ccdb;stroke-miterlimit:10" />
		<line
   stroke-miterlimit="10"
   x1="0"
   y1="448"
   x2="512"
   y2="448"
   id="line32"
   style="fill:none;stroke:#ff0000;stroke-miterlimit:10" />
		<line
   stroke-miterlimit="10"
   x1="0"
   y1="480"
   x2="512"
   y2="480"
   id="line34"
   style="fill:none;stroke:#a9ccdb;stroke-miterlimit:10" />
		<line
   stroke-miterlimit="10"
   x1="32"
   y1="0"
   x2="32"
   y2="512"
   id="line36"
   style="fill:none;stroke:#a9ccdb;stroke-miterlimit:10" />
		<line
   stroke-miterlimit="10"
   x1="64"
   y1="0"
   x2="64"
   y2="512"
   id="line38"
   style="fill:none;stroke:#a9ccdb;stroke-miterlimit:10" />
		<line
   stroke-miterlimit="10"
   x1="96"
   y1="0"
   x2="96"
   y2="512"
   id="line40"
   style="fill:none;stroke:#a9ccdb;stroke-miterlimit:10" />
		<line
   stroke-miterlimit="10"
   x1="128"
   y1="0"
   x2="128"
   y2="512"
   id="line42"
   style="fill:none;stroke:#a9ccdb;stroke-miterlimit:10" />
		<line
   stroke-miterlimit="10"
   x1="160"
   y1="0"
   x2="160"
   y2="512"
   id="line44"
   style="fill:none;stroke:#a9ccdb;stroke-miterlimit:10" />
		<line
   stroke-miterlimit="10"
   x1="192"
   y1="0"
   x2="192"
   y2="512"
   id="line46"
   style="fill:none;stroke:#a9ccdb;stroke-miterlimit:10" />
		<line
   stroke-miterlimit="10"
   x1="224"
   y1="0"
   x2="224"
   y2="512"
   id="line48"
   style="fill:none;stroke:#a9ccdb;stroke-miterlimit:10" />
		<line
   stroke-miterlimit="10"
   x1="256"
   y1="0"
   x2="256"
   y2="512"
   id="line50"
   style="fill:none;stroke:#a9ccdb;stroke-miterlimit:10" />
		<line
   stroke-miterlimit="10"
   x1="288"
   y1="0"
   x2="288"
   y2="512"
   id="line52"
   style="fill:none;stroke:#a9ccdb;stroke-miterlimit:10" />
		<line
   stroke-miterlimit="10"
   x1="320"
   y1="0"
   x2="320"
   y2="512"
   id="line54"
   style="fill:none;stroke:#a9ccdb;stroke-miterlimit:10" />
		<line
   stroke-miterlimit="10"
   x1="352"
   y1="0"
   x2="352"
   y2="512"
   id="line56"
   style="fill:none;stroke:#a9ccdb;stroke-miterlimit:10" />
		<line
   stroke-miterlimit="10"
   x1="384"
   y1="0"
   x2="384"
   y2="512"
   id="line58"
   style="fill:none;stroke:#a9ccdb;stroke-miterlimit:10" />
		<line
   stroke-miterlimit="10"
   x1="416"
   y1="0"
   x2="416"
   y2="512"
   id="line60"
   style="fill:none;stroke:#a9ccdb;stroke-miterlimit:10" />
		<line
   stroke-miterlimit="10"
   x1="448"
   y1="0"
   x2="448"
   y2="512"
   id="line62"
   style="fill:none;stroke:#a9ccdb;stroke-miterlimit:10" />
		<line
   stroke-miterlimit="10"
   x1="480"
   y1="0"
   x2="480"
   y2="512"
   id="line64"
   style="fill:none;stroke:#a9ccdb;stroke-miterlimit:10" />
	</g>
	

<path
   sodipodi:nodetypes="ssssssssscscscsscsccscscccsccsssscccccccccsscscccccscccccsccscsccssccccscsscsccscccccscsc"
   inkscape:connector-curvature="0"
   d="m 345.15252,645.62567 c 0,-12.87459 4.59031,-23.93861 13.7711,-33.19215 9.1809,-9.25364 20.42736,-13.88033 33.73947,-13.88033 13.31215,0 24.78818,4.62669 34.42806,13.88033 9.63985,9.25354 14.45967,20.31756 14.45967,33.19215 0,12.87347 -4.81982,23.93742 -14.45967,33.19111 -9.63988,9.25354 -21.11591,13.88025 -34.42806,13.88025 -13.31211,0 -24.55857,-4.62671 -33.73947,-13.88025 -9.18079,-9.25369 -13.7711,-33.19111 -13.7711,-33.19111 z m -47.94158,-116.5643 c -28.17831,30.67795 -56.02578,66.58525 -93.44037,90.15324 -38.01068,23.94447 -50.82843,45.62361 -68.03948,84.04796 -8.99107,18.88671 -48.338602,51.52593 -59.980686,79.62458 -17.306088,41.76982 -9.550556,89.36749 -5.07253,117.04783 9.515876,19.16837 14.428834,23.63229 26.401719,24.81849 2.856351,0.28301 6.477727,-0.2648 8.310457,-0.117 5.01692,0.40459 5.99223,1.2022 12.57273,1.76978 22.72577,1.52936 43.05471,-1.25694 64.39522,-3.70459 21.61514,-2.47916 43.14942,-7.99893 64.42751,-12.61037 31.0571,-6.79906 61.06206,-15.93488 87.83795,-26.46348 15.00678,-4.047 30.40587,-9.61428 45.78027,-15.52337 23.50508,-9.03348 46.95243,-18.86471 68.8516,-25.2802 20.755,-9.17634 43.78591,-14.92674 66.46215,-20.77946 26.94518,-6.95453 53.38953,-14.05171 74.91883,-27.20658 19.04824,-12.30574 23.10639,-34.69549 28.89694,-53.60789 12.89421,-45.60495 45.13335,-63.52541 50.41905,-69.49797 9.50206,-9.15836 12.82587,-33.13351 12.20824,-40.53802 -1.04817,-12.5722 -13.45886,-7.55805 -26.28233,-20.3295 -5.4113,-5.14703 -5.28903,-20.77416 -20.00139,-30.29617 -8.9062,0.76088 -31.43757,-14.1627 -65.34038,-29.57424 -16.68962,-7.58678 -89.75731,-22.39214 -101.26208,-25.71839 -8.52849,-2.46577 -14.61334,10.23918 -16.74378,10.59763 -20.47223,3.44445 -23.9237,-3.70213 -40.62836,-9.55873 -13.39254,-4.69617 6.4732,-7.9105 -20.56804,-17.25031 -6.09358,-0.70733 -10.09457,-4.77124 -14.80674,-8.26536 -8.5837,-6.61913 -12.67898,-2.80172 -22.61319,-0.34429 -8.60488,2.2705 -14.36685,3.73835 -21.17291,4.17658 -15.79722,-1.16149 -23.49458,12.91817 -35.5304,24.42983 z M 367.05256,79.070473 c 1.36976,10.87059 0.71912,21.392617 -1.08796,31.629867 -2.62805,15.00349 -14.64581,23.59057 -13.07315,37.61247 5.55192,27.9802 12.3552,59.71775 17.2392,84.85565 6.01319,30.87129 12.62536,61.71766 24.02746,92.63757 9.6371,26.13354 18.31176,47.01579 35.7062,81.38522 5.12029,10.11712 21.79416,40.30116 27.94778,48.59227 29.55155,3.35422 64.90281,16.2398 99.68334,28.61089 44.86269,15.95713 81.08286,33.17117 112.13872,50.11226 87.18946,-1.25229 104.96129,-45.62377 146.91772,-104.84632 30.14066,-31.565 22.39934,-85.85161 42.37597,-113.61117 14.82352,-18.25153 12.49665,-36.76465 12.59753,-50.89468 0,-18.50717 -33.1068,-40.25073 -35.86102,-59.56241 -5.04822,-19.07297 -0.37739,-38.35507 9.89435,-53.05386 12.54587,-17.95314 33.44751,-29.06775 55.20025,-24.60851 20.65672,5.02023 27.01392,9.36866 39.88283,28.07086 22.03399,37.81892 4.20579,52.9141 4.20579,107.63083 0,48.67976 -13.19619,53.34625 -23.4868,68.50786 -23.88213,41.29214 -41.64367,85.5681 -60.53715,125.70292 -7.92867,27.23939 -22.54811,47.94439 -40.04046,65.64199 -25.32616,25.62411 -56.67493,44.94187 -82.4594,68.65842 2.27245,8.05264 -0.81067,29.47509 3.05224,40.65604 1.00077,26.75693 -7.03235,33.09403 -13.75511,52.09561 -3.87631,55.89688 -35.42929,26.21188 -46.73198,58.45362 -30.65431,76.79131 -36.53848,93.33833 -74.06124,108.56035 -11.56372,4.69121 -26.13204,9.2556 -45.35644,15.42036 -26.2256,8.5271 -63.19302,24.12179 -101.18434,34.17413 -45.30933,12.72194 -78.33342,26.43165 -99.85155,29.74845 -32.13925,4.95394 -95.40541,20.7491 -148.75175,31.82419 -11.242,2.33392 -20.32546,4.45824 -29.81012,6.22731 -20.24756,3.53911 -44.03297,5.74806 -61.80554,2.16423 -15.08297,-3.13826 -23.669871,-2.84192 -29.699276,-1.81675 -34.006313,8.50607 -58.692207,-31.16578 -71.975087,-65.19 -8.8597853,-27.10963 -3.540444,-51.76217 0.561587,-91.54308 4.945951,-41.55781 7.037108,-50.57055 24.396562,-76.84478 14.004248,-21.19664 29.268637,-40.58664 48.678346,-63.27755 16.371198,-20.58813 43.337838,-71.58587 80.541658,-94.68006 34.3922,-21.34818 61.25221,-41.11386 65.8976,-54.38871 17.93313,-43.13231 55.80273,-52.10243 80.62975,-70.93667 14.5812,-11.06104 45.06014,2.52891 43.96228,-24.25769 3.22086,-34.39811 -12.60198,-58.48626 -21.52937,-84.6248 -14.48606,-33.51416 -21.00664,-69.69896 -28.00313,-103.65609 -5.66711,-27.50291 -9.12343,-63.93526 -19.90082,-85.90971 -17.48393,-5.01502 -26.40569,-18.15812 -34.52657,-31.4309 -6.53868,-10.75763 -11.45632,-22.52824 -14.02485,-34.127707 -2.48239,-18.21942 -0.50692,-34.20327 9.21226,-47.61701 10.30691,-15.35778 32.64038,-24.16006 49.48027,-25.98785 3.59228,-0.29984 7.16996,-0.18384 10.69193,0.32805 8.06589,1.17231 17.2814,4.42096 24.26947,9.50628 6.32486,5.66474 13.02123,11.21256 18.45861,20.25529 6.7903,11.29272 10.17546,24.3757 9.86341,33.80332 z"
   id="path3917" /></svg>