<?xml version="1.0" encoding="UTF-8" standalone="no"?>
<svg
   xmlns:dc="http://purl.org/dc/elements/1.1/"
   xmlns:cc="http://creativecommons.org/ns#"
   xmlns:rdf="http://www.w3.org/1999/02/22-rdf-syntax-ns#"
   xmlns:svg="http://www.w3.org/2000/svg"
   xmlns="http://www.w3.org/2000/svg"
   xmlns:sodipodi="http://sodipodi.sourceforge.net/DTD/sodipodi-0.dtd"
   xmlns:inkscape="http://www.inkscape.org/namespaces/inkscape"
   version="1.1"
   id="Layer_1"
   x="0px"
   y="0px"
   width="1000"
   height="1024"
   viewBox="0 0 1000 1024"
   enable-background="new 0 0 512 512"
   xml:space="preserve"
   inkscape:version="0.48.0 r9654"
   sodipodi:docname="alefhebrew-x5d0.svg"><title
   id="title3743">Sinai 357</title><metadata
   id="metadata72"><rdf:RDF><cc:Work
       rdf:about=""><dc:format>image/svg+xml</dc:format><dc:type
         rdf:resource="http://purl.org/dc/dcmitype/StillImage" /><dc:title>Sinai 357</dc:title><dc:date>2017</dc:date><dc:creator><cc:Agent><dc:title>Celeste Claire Horner</dc:title></cc:Agent></dc:creator><dc:publisher><cc:Agent><dc:title>beitdina.net</dc:title></cc:Agent></dc:publisher></cc:Work></rdf:RDF></metadata><defs
   id="defs70" /><sodipodi:namedview
   pagecolor="#ffffff"
   bordercolor="#666666"
   borderopacity="1"
   objecttolerance="10"
   gridtolerance="10"
   guidetolerance="10"
   inkscape:pageopacity="0"
   inkscape:pageshadow="2"
   inkscape:window-width="1152"
   inkscape:window-height="814"
   id="namedview68"
   showgrid="false"
   inkscape:zoom="0.2548828"
   inkscape:cx="87.56526"
   inkscape:cy="156.17431"
   inkscape:window-x="-8"
   inkscape:window-y="-8"
   inkscape:window-maximized="1"
   inkscape:current-layer="Layer_1" />
   
	<g
   id="Grid"
   transform="matrix(1.9502951,0,0,1.9942504,0.47545406,3.4335854)">
		<rect
   x="0"
   stroke-miterlimit="10"
   width="512"
   height="512"
   id="rect4"
   y="0"
   style="fill:none;stroke:#a9ccdb;stroke-miterlimit:10" />
		<line
   stroke-miterlimit="10"
   x1="0"
   y1="32"
   x2="512"
   y2="32"
   id="line6"
   style="fill:none;stroke:#a9ccdb;stroke-miterlimit:10" />
		<line
   stroke-miterlimit="10"
   x1="0"
   y1="64"
   x2="512"
   y2="64"
   id="line8"
   style="fill:none;stroke:#a9ccdb;stroke-miterlimit:10" />
		<line
   stroke-miterlimit="10"
   x1="0"
   y1="96"
   x2="512"
   y2="96"
   id="line10"
   style="fill:none;stroke:#a9ccdb;stroke-miterlimit:10" />
		<line
   stroke-miterlimit="10"
   x1="0"
   y1="128"
   x2="512"
   y2="128"
   id="line12"
   style="fill:none;stroke:#a9ccdb;stroke-miterlimit:10" />
		<line
   stroke-miterlimit="10"
   x1="0"
   y1="160"
   x2="512"
   y2="160"
   id="line14"
   style="fill:none;stroke:#a9ccdb;stroke-miterlimit:10" />
		<line
   stroke-miterlimit="10"
   x1="0"
   y1="192"
   x2="512"
   y2="192"
   id="line16"
   style="fill:none;stroke:#a9ccdb;stroke-miterlimit:10" />
		<line
   stroke-miterlimit="10"
   x1="0"
   y1="224"
   x2="512"
   y2="224"
   id="line18"
   style="fill:none;stroke:#a9ccdb;stroke-miterlimit:10" />
		<line
   stroke-miterlimit="10"
   x1="0"
   y1="256"
   x2="512"
   y2="256"
   id="line20"
   style="fill:none;stroke:#a9ccdb;stroke-miterlimit:10" />
		<line
   stroke-miterlimit="10"
   x1="0"
   y1="288"
   x2="512"
   y2="288"
   id="line22"
   style="fill:none;stroke:#a9ccdb;stroke-miterlimit:10" />
		<line
   stroke-miterlimit="10"
   x1="0"
   y1="320"
   x2="512"
   y2="320"
   id="line24"
   style="fill:none;stroke:#a9ccdb;stroke-miterlimit:10" />
		<line
   stroke-miterlimit="10"
   x1="0"
   y1="352"
   x2="512"
   y2="352"
   id="line26"
   style="fill:none;stroke:#a9ccdb;stroke-miterlimit:10" />
		<line
   stroke-miterlimit="10"
   x1="0"
   y1="384"
   x2="512"
   y2="384"
   id="line28"
   style="fill:none;stroke:#a9ccdb;stroke-miterlimit:10" />
		<line
   stroke-miterlimit="10"
   x1="0"
   y1="416"
   x2="512"
   y2="416"
   id="line30"
   style="fill:none;stroke:#a9ccdb;stroke-miterlimit:10" />
		<line
   stroke-miterlimit="10"
   x1="0"
   y1="448"
   x2="512"
   y2="448"
   id="line32"
   style="fill:none;stroke:#ff0000;stroke-miterlimit:10" />
		<line
   stroke-miterlimit="10"
   x1="0"
   y1="480"
   x2="512"
   y2="480"
   id="line34"
   style="fill:none;stroke:#a9ccdb;stroke-miterlimit:10" />
		<line
   stroke-miterlimit="10"
   x1="32"
   y1="0"
   x2="32"
   y2="512"
   id="line36"
   style="fill:none;stroke:#a9ccdb;stroke-miterlimit:10" />
		<line
   stroke-miterlimit="10"
   x1="64"
   y1="0"
   x2="64"
   y2="512"
   id="line38"
   style="fill:none;stroke:#a9ccdb;stroke-miterlimit:10" />
		<line
   stroke-miterlimit="10"
   x1="96"
   y1="0"
   x2="96"
   y2="512"
   id="line40"
   style="fill:none;stroke:#a9ccdb;stroke-miterlimit:10" />
		<line
   stroke-miterlimit="10"
   x1="128"
   y1="0"
   x2="128"
   y2="512"
   id="line42"
   style="fill:none;stroke:#a9ccdb;stroke-miterlimit:10" />
		<line
   stroke-miterlimit="10"
   x1="160"
   y1="0"
   x2="160"
   y2="512"
   id="line44"
   style="fill:none;stroke:#a9ccdb;stroke-miterlimit:10" />
		<line
   stroke-miterlimit="10"
   x1="192"
   y1="0"
   x2="192"
   y2="512"
   id="line46"
   style="fill:none;stroke:#a9ccdb;stroke-miterlimit:10" />
		<line
   stroke-miterlimit="10"
   x1="224"
   y1="0"
   x2="224"
   y2="512"
   id="line48"
   style="fill:none;stroke:#a9ccdb;stroke-miterlimit:10" />
		<line
   stroke-miterlimit="10"
   x1="256"
   y1="0"
   x2="256"
   y2="512"
   id="line50"
   style="fill:none;stroke:#a9ccdb;stroke-miterlimit:10" />
		<line
   stroke-miterlimit="10"
   x1="288"
   y1="0"
   x2="288"
   y2="512"
   id="line52"
   style="fill:none;stroke:#a9ccdb;stroke-miterlimit:10" />
		<line
   stroke-miterlimit="10"
   x1="320"
   y1="0"
   x2="320"
   y2="512"
   id="line54"
   style="fill:none;stroke:#a9ccdb;stroke-miterlimit:10" />
		<line
   stroke-miterlimit="10"
   x1="352"
   y1="0"
   x2="352"
   y2="512"
   id="line56"
   style="fill:none;stroke:#a9ccdb;stroke-miterlimit:10" />
		<line
   stroke-miterlimit="10"
   x1="384"
   y1="0"
   x2="384"
   y2="512"
   id="line58"
   style="fill:none;stroke:#a9ccdb;stroke-miterlimit:10" />
		<line
   stroke-miterlimit="10"
   x1="416"
   y1="0"
   x2="416"
   y2="512"
   id="line60"
   style="fill:none;stroke:#a9ccdb;stroke-miterlimit:10" />
		<line
   stroke-miterlimit="10"
   x1="448"
   y1="0"
   x2="448"
   y2="512"
   id="line62"
   style="fill:none;stroke:#a9ccdb;stroke-miterlimit:10" />
		<line
   stroke-miterlimit="10"
   x1="480"
   y1="0"
   x2="480"
   y2="512"
   id="line64"
   style="fill:none;stroke:#a9ccdb;stroke-miterlimit:10" />
	</g>
	

<path
   sodipodi:nodetypes="sssssssssccscsccsccscscccsccsssccccssscscccccscccccsccscsccssccscsscsccsccsc"
   inkscape:connector-curvature="0"
   d="m 344.48995,371.97233 c 0,12.03071 4.41652,22.36952 13.2497,31.01652 8.83329,8.6471 19.65393,12.97053 32.46201,12.97053 12.80812,0 23.84964,-4.32343 33.12453,-12.97053 9.27487,-8.647 13.9122,-18.98581 13.9122,-31.01652 0,-12.02965 -4.63733,-22.3684 -13.9122,-31.01554 -9.27489,-8.647 -20.31641,-12.97045 -33.12453,-12.97045 -12.80808,0 -23.62872,4.32345 -32.46201,12.97045 -8.83318,8.64714 -13.2497,31.01554 -13.2497,31.01554 z m 44.97878,132.0204 -91.10517,-23.09648 c -27.11141,-28.66711 -53.90451,-62.22082 -89.90249,-84.244 -36.57151,-22.375 -48.90395,-42.63315 -65.46335,-78.53892 -8.65065,-17.64875 -46.508388,-48.14858 -57.709674,-74.40546 -16.650839,-39.03195 -18.99738,-92.33735 -14.688902,-118.20334 15.897002,0.30507 44.870886,5.91767 59.058386,2.73118 14.32754,-4.17358 29.74506,-5.34033 43.47411,-6.07452 13.32472,-0.71266 25.05878,-1.01638 32.66321,-3.26605 34.78873,-0.73104 89.43457,22.49492 128.5647,30.67527 14.43859,3.78173 29.25463,8.9841 44.04692,14.50587 22.61512,8.44136 45.1747,17.6282 66.24471,23.62317 19.96917,8.57486 42.12808,13.94835 63.94574,19.41744 25.92497,6.49868 51.36808,13.13067 72.08222,25.42328 18.32703,11.49914 22.23153,32.42132 27.80284,50.09408 12.406,42.6157 43.42449,59.36154 48.51006,64.94262 9.14229,8.55805 12.34025,30.96172 11.74601,37.88089 -1.00848,11.74814 -12.94928,7.06265 -25.28722,18.99697 -5.20642,4.80966 -9.94369,8.31552 -24.09901,17.21339 -15.91438,-1.3205 -124.89012,39.46253 -135.32193,37.75788 -19.69723,-3.21793 -23.01789,3.45947 -39.09008,8.93219 -12.88546,4.38835 -1.80702,16.98381 -27.82473,25.71047 -14.58907,4.89395 -16.39945,6.99683 -27.64635,9.92578 z m -29.42787,409.45269 c -2.58538,-29.43211 -2.42614,-59.4726 -6.75014,-85.22842 6.15987,-23.65567 10.50336,-47.24649 15.23164,-70.8226 5.78551,-28.84778 12.14733,-57.67228 23.11772,-86.56549 9.27222,-24.42058 17.61843,-43.93407 34.35427,-76.0507 4.92643,-9.45398 13.41934,-37.65956 19.33997,-45.40722 28.43266,-3.13436 69.99508,-15.17534 103.45873,-26.73554 43.16409,-14.9112 78.01288,-30.99692 107.89289,-46.82758 83.88826,1.17021 100.9872,42.63329 141.35506,97.97401 28.99947,29.49602 21.55125,80.22433 40.77152,106.16435 14.26226,17.0552 12.02349,34.35485 12.12056,47.5587 0,17.2941 -31.8533,37.61244 -34.50324,55.65831 -4.85709,17.8228 -0.3631,35.84102 9.51973,49.57636 12.07085,16.77637 32.1811,27.16246 53.11023,22.9955 19.87461,-4.69117 25.99111,-8.75457 38.37278,-26.2309 21.19972,-35.34003 4.04654,-49.44577 4.04654,-100.57601 0,-45.48896 -12.69655,-49.84959 -22.59753,-64.0174 -22.9779,-38.58559 -40.06695,-79.95941 -58.24507,-117.46353 -7.62848,-25.45394 -21.69438,-44.8018 -38.52443,-61.33938 -24.36726,-23.94454 -54.52908,-41.99609 -79.3373,-64.15811 2.18641,-7.52481 -0.77997,-27.54309 2.93669,-37.99117 0.96287,-25.00311 -6.76609,-30.92484 -13.23432,-48.68093 -3.72954,-52.23303 -34.08785,-24.49378 -44.9626,-54.62218 -29.49366,-71.7579 -35.15504,-87.22032 -71.2571,-101.44459 -11.12589,-4.38373 -25.14262,-8.64894 -43.63914,-14.40961 -25.23263,-7.96818 -60.80038,-22.54069 -97.35325,-31.93414 -43.59382,-11.88806 -75.33624,-24.91593 -96.07093,-27.79854 -56.61073,-8.474913 -167.82899,-43.888883 -213.61137,-34.637203 -38.25035,7.73024 -86.044092,9.83595 -106.84285,19.271 -13.281709,6.02551 -18.86635,27.875543 -24.330532,42.362853 -8.5243329,25.33269 12.287093,46.40765 16.233811,83.58105 4.758685,38.83384 6.770666,47.25583 23.47285,71.80788 13.474014,19.80727 28.160457,37.92632 46.835271,59.12992 15.75134,19.23865 41.69696,66.89366 77.49215,88.47411 33.09004,19.94889 58.93306,38.419 63.40256,50.82373 17.25414,40.30513 53.68991,48.68729 77.57692,66.28701 14.02912,10.33602 43.35406,-2.36315 42.29777,22.66768 3.09891,32.14343 -12.12484,54.65269 -20.71422,79.07794 -13.93758,31.31742 -20.21128,65.13043 -26.94287,96.86179 -5.45254,25.70019 -11.20545,50.03467 -21.57479,70.56877 -14.93136,28.88385 -47.33027,57.00203 -41.90206,78.07602 9.32078,34.53891 23.87697,60.41518 51.41746,62.64777 25.20206,2.04276 49.65728,-16.57448 58.03662,-48.62351 z"
   id="path3917"
   inkscape:transform-center-x="-47.485297" /></svg>