<?xml version="1.0" encoding="UTF-8" standalone="no"?>
<svg
   xmlns:dc="http://purl.org/dc/elements/1.1/"
   xmlns:cc="http://creativecommons.org/ns#"
   xmlns:rdf="http://www.w3.org/1999/02/22-rdf-syntax-ns#"
   xmlns:svg="http://www.w3.org/2000/svg"
   xmlns="http://www.w3.org/2000/svg"
   xmlns:sodipodi="http://sodipodi.sourceforge.net/DTD/sodipodi-0.dtd"
   xmlns:inkscape="http://www.inkscape.org/namespaces/inkscape"
   version="1.1"
   id="Layer_1"
   x="0px"
   y="0px"
   width="321px"
   height="512px"
   viewBox="0 0 321 512"
   enable-background="new 0 0 512 512"
   xml:space="preserve"
   inkscape:version="0.48.0 r9654"
   sodipodi:docname="alefhebrew-x5d0.svg"><title
   id="title3743">Sinai 357</title><metadata
   id="metadata72"><rdf:RDF><cc:Work
       rdf:about=""><dc:format>image/svg+xml</dc:format><dc:type
         rdf:resource="http://purl.org/dc/dcmitype/StillImage" /><dc:title>Sinai 357</dc:title><dc:date>2017</dc:date><dc:creator><cc:Agent><dc:title>Celeste Claire Horner</dc:title></cc:Agent></dc:creator><dc:publisher><cc:Agent><dc:title>beitdina.net</dc:title></cc:Agent></dc:publisher></cc:Work></rdf:RDF></metadata><defs
   id="defs70" /><sodipodi:namedview
   pagecolor="#ffffff"
   bordercolor="#666666"
   borderopacity="1"
   objecttolerance="10"
   gridtolerance="10"
   guidetolerance="10"
   inkscape:pageopacity="0"
   inkscape:pageshadow="2"
   inkscape:window-width="475"
   inkscape:window-height="455"
   id="namedview68"
   showgrid="false"
   inkscape:zoom="0.36045873"
   inkscape:cx="-207.37677"
   inkscape:cy="242.04266"
   inkscape:window-x="504"
   inkscape:window-y="91"
   inkscape:window-maximized="0"
   inkscape:current-layer="Layer_1" />
   
	<g
   id="Grid">
		<rect
   x="0"
   fill="none"
   stroke="#A9CCDB"
   stroke-miterlimit="10"
   width="512"
   height="512"
   id="rect4" />
		<line
   fill="none"
   stroke="#A9CCDB"
   stroke-miterlimit="10"
   x1="0"
   y1="32"
   x2="512"
   y2="32"
   id="line6" />
		<line
   fill="none"
   stroke="#A9CCDB"
   stroke-miterlimit="10"
   x1="0"
   y1="64"
   x2="512"
   y2="64"
   id="line8" />
		<line
   fill="none"
   stroke="#A9CCDB"
   stroke-miterlimit="10"
   x1="0"
   y1="96"
   x2="512"
   y2="96"
   id="line10" />
		<line
   fill="none"
   stroke="#A9CCDB"
   stroke-miterlimit="10"
   x1="0"
   y1="128"
   x2="512"
   y2="128"
   id="line12" />
		<line
   fill="none"
   stroke="#A9CCDB"
   stroke-miterlimit="10"
   x1="0"
   y1="160"
   x2="512"
   y2="160"
   id="line14" />
		<line
   fill="none"
   stroke="#A9CCDB"
   stroke-miterlimit="10"
   x1="0"
   y1="192"
   x2="512"
   y2="192"
   id="line16" />
		<line
   fill="none"
   stroke="#A9CCDB"
   stroke-miterlimit="10"
   x1="0"
   y1="224"
   x2="512"
   y2="224"
   id="line18" />
		<line
   fill="none"
   stroke="#A9CCDB"
   stroke-miterlimit="10"
   x1="0"
   y1="256"
   x2="512"
   y2="256"
   id="line20" />
		<line
   fill="none"
   stroke="#A9CCDB"
   stroke-miterlimit="10"
   x1="0"
   y1="288"
   x2="512"
   y2="288"
   id="line22" />
		<line
   fill="none"
   stroke="#A9CCDB"
   stroke-miterlimit="10"
   x1="0"
   y1="320"
   x2="512"
   y2="320"
   id="line24" />
		<line
   fill="none"
   stroke="#A9CCDB"
   stroke-miterlimit="10"
   x1="0"
   y1="352"
   x2="512"
   y2="352"
   id="line26" />
		<line
   fill="none"
   stroke="#A9CCDB"
   stroke-miterlimit="10"
   x1="0"
   y1="384"
   x2="512"
   y2="384"
   id="line28" />
		<line
   fill="none"
   stroke="#A9CCDB"
   stroke-miterlimit="10"
   x1="0"
   y1="416"
   x2="512"
   y2="416"
   id="line30" />
		<line
   fill="none"
   stroke="#FF0000"
   stroke-miterlimit="10"
   x1="0"
   y1="448"
   x2="512"
   y2="448"
   id="line32" />
		<line
   fill="none"
   stroke="#A9CCDB"
   stroke-miterlimit="10"
   x1="0"
   y1="480"
   x2="512"
   y2="480"
   id="line34" />
		<line
   fill="none"
   stroke="#A9CCDB"
   stroke-miterlimit="10"
   x1="32"
   y1="0"
   x2="32"
   y2="512"
   id="line36" />
		<line
   fill="none"
   stroke="#A9CCDB"
   stroke-miterlimit="10"
   x1="64"
   y1="0"
   x2="64"
   y2="512"
   id="line38" />
		<line
   fill="none"
   stroke="#A9CCDB"
   stroke-miterlimit="10"
   x1="96"
   y1="0"
   x2="96"
   y2="512"
   id="line40" />
		<line
   fill="none"
   stroke="#A9CCDB"
   stroke-miterlimit="10"
   x1="128"
   y1="0"
   x2="128"
   y2="512"
   id="line42" />
		<line
   fill="none"
   stroke="#A9CCDB"
   stroke-miterlimit="10"
   x1="160"
   y1="0"
   x2="160"
   y2="512"
   id="line44" />
		<line
   fill="none"
   stroke="#A9CCDB"
   stroke-miterlimit="10"
   x1="192"
   y1="0"
   x2="192"
   y2="512"
   id="line46" />
		<line
   fill="none"
   stroke="#A9CCDB"
   stroke-miterlimit="10"
   x1="224"
   y1="0"
   x2="224"
   y2="512"
   id="line48" />
		<line
   fill="none"
   stroke="#A9CCDB"
   stroke-miterlimit="10"
   x1="256"
   y1="0"
   x2="256"
   y2="512"
   id="line50" />
		<line
   fill="none"
   stroke="#A9CCDB"
   stroke-miterlimit="10"
   x1="288"
   y1="0"
   x2="288"
   y2="512"
   id="line52" />
		<line
   fill="none"
   stroke="#A9CCDB"
   stroke-miterlimit="10"
   x1="320"
   y1="0"
   x2="320"
   y2="512"
   id="line54" />
		<line
   fill="none"
   stroke="#A9CCDB"
   stroke-miterlimit="10"
   x1="352"
   y1="0"
   x2="352"
   y2="512"
   id="line56" />
		<line
   fill="none"
   stroke="#A9CCDB"
   stroke-miterlimit="10"
   x1="384"
   y1="0"
   x2="384"
   y2="512"
   id="line58" />
		<line
   fill="none"
   stroke="#A9CCDB"
   stroke-miterlimit="10"
   x1="416"
   y1="0"
   x2="416"
   y2="512"
   id="line60" />
		<line
   fill="none"
   stroke="#A9CCDB"
   stroke-miterlimit="10"
   x1="448"
   y1="0"
   x2="448"
   y2="512"
   id="line62" />
		<line
   fill="none"
   stroke="#A9CCDB"
   stroke-miterlimit="10"
   x1="480"
   y1="0"
   x2="480"
   y2="512"
   id="line64" />
	</g>
	

<path
   sodipodi:nodetypes="sssssssssccscsccsccscscccsccsssccccsscscccccscccccsccscsccssccscsscsccsccsc"
   inkscape:connector-curvature="0"
   d="m 128.67463,294.58451 c 0,-3.48966 1.18107,-6.48856 3.54323,-8.99673 2.3622,-2.5082 5.25583,-3.76227 8.68096,-3.76227 3.42514,0 6.37785,1.25407 8.85813,3.76227 2.48029,2.50817 3.7204,5.50707 3.7204,8.99673 0,3.48935 -1.24011,6.48824 -3.7204,8.99645 -2.48028,2.50817 -5.43299,3.76224 -8.85813,3.76224 -3.42513,0 -6.31876,-1.25407 -8.68096,-3.76224 -2.36216,-2.50821 -3.54323,-8.99645 -3.54323,-8.99645 z m 12.02819,-38.29418 -24.36327,6.69942 c -7.2501,8.31526 -14.41509,18.04794 -24.041633,24.43604 -9.779924,6.49015 -13.077852,12.36628 -17.50615,22.78121 -2.313354,5.11924 -12.437237,13.96608 -15.432677,21.58223 -4.452753,11.32171 -5.080266,26.78361 -3.928096,34.28637 4.251164,-0.0885 10.151484,-1.11497 13.945491,-0.19069 3.831459,1.21059 7.954402,1.54903 11.625813,1.76199 3.563279,0.20671 6.701193,0.29481 8.734767,0.94736 9.303167,0.21205 25.764365,-7.12646 36.228505,-9.49927 3.86116,-1.09694 7.82326,-2.60596 11.77899,-4.20762 6.04772,-2.44852 12.08059,-5.11328 17.71511,-6.8522 5.34013,-2.48723 11.26585,-4.0459 17.10031,-5.63227 6.93283,-1.88503 13.73681,-3.80872 19.27616,-7.37435 4.901,-3.33547 5.94514,-9.4042 7.43502,-14.53041 3.3176,-12.36121 11.61254,-17.21855 12.97252,-18.83741 2.44482,-2.48238 3.30002,-8.98085 3.14112,-10.98784 -0.26971,-3.4077 -3.4629,-2.04861 -6.7623,-5.51031 -1.39229,-1.3951 -2.65913,-2.41202 -6.44454,-4.99296 -4.25581,0.38303 -33.39801,-11.44661 -36.18767,-10.95215 -5.26742,0.9334 -6.15543,-1.00346 -10.45344,-2.59089 -3.44582,-1.2729 -0.48323,-4.92637 -7.44086,-7.45765 -3.9014,-1.41955 -4.38553,-2.02953 -7.39317,-2.8791 z m -7.86957,-118.76694 c -0.69138,8.53716 -0.64879,17.25078 -1.80512,24.72158 1.64727,6.86163 2.8088,13.70445 4.07323,20.543 1.54717,8.36766 3.24842,16.72858 6.18213,25.10941 3.20946,9.16865 8.22831,18.01468 15.19024,27.89644 2.28481,1.80631 15.03124,11.1052 18.09768,12.57418 4.36834,2.09265 33.1009,16.41947 37.59041,16.0977 22.43332,-0.33943 27.00591,-12.36632 37.80104,-28.4186 7.75502,-8.55569 5.76323,-23.27007 10.9031,-30.79431 3.81399,-4.94708 3.2153,-9.96506 3.24126,-13.79499 0,-5.01637 -8.51819,-10.90997 -9.22683,-16.14442 -1.29887,-5.16972 -0.0971,-10.39613 2.54576,-14.38025 3.22798,-4.86619 8.60585,-7.87881 14.2027,-6.67013 5.31484,1.36074 6.95051,2.53937 10.26161,7.6086 5.66921,10.25083 1.08212,14.34238 1.08212,29.17336 0,13.19465 -3.3953,14.4595 -6.04301,18.56906 -6.14474,11.19223 -10.71467,23.19323 -15.57585,34.07177 -2.04,7.38324 -5.80148,12.99534 -10.30217,17.79227 -6.51627,6.94541 -14.58212,12.1815 -21.2163,18.60987 0.58468,2.18266 -0.20858,7.98922 0.78532,11.01981 0.25749,7.25246 -1.80938,8.97014 -3.5391,14.12053 -0.99736,15.15084 -9.11576,7.10472 -12.02386,15.84385 -7.88718,20.81427 -9.40113,25.29934 -19.05552,29.42526 -2.97528,1.27157 -6.72362,2.50874 -11.66994,4.1797 -6.7477,2.31126 -16.25919,6.53821 -26.03412,9.26289 -11.65782,3.44828 -20.14635,7.22718 -25.69121,8.06332 -15.13879,2.45825 -48.576381,9.12136 -60.819471,6.43779 -10.228871,-2.24226 -19.314132,0.75613 -24.876117,-1.98063 -3.551785,-1.74777 -5.045224,-8.08564 -6.506452,-12.28788 -2.279569,-7.34807 3.285805,-13.46112 4.341233,-24.24374 1.272565,-11.26424 1.810603,-13.70715 6.277087,-20.82876 3.603212,-5.74536 7.530645,-11.00101 12.524651,-17.15139 4.212209,-5.5804 11.150558,-19.40334 20.722883,-25.66303 8.848909,-5.78643 15.759836,-11.14391 16.955046,-14.74207 4.61409,-11.69101 14.35772,-14.12236 20.74556,-19.22737 3.75166,-2.9981 11.59371,0.68546 11.31124,-6.57505 0.82871,-9.32361 -3.24242,-15.8527 -5.53939,-22.93755 -3.72717,-9.08402 -5.40487,-18.89191 -7.20503,-28.09599 -1.45811,-7.45467 -2.99655,-14.5132 -5.76951,-20.46938 -3.99294,-8.37812 -12.65703,-16.53416 -11.20541,-22.64693 2.49255,-10.01845 6.38515,-17.52419 13.75001,-18.17178 6.73952,-0.59252 13.27931,4.80764 15.5201,14.10386 z"
   id="path3917" /></svg>