<?xml version="1.0" encoding="UTF-8" standalone="no"?>
<svg
   xmlns:dc="http://purl.org/dc/elements/1.1/"
   xmlns:cc="http://creativecommons.org/ns#"
   xmlns:rdf="http://www.w3.org/1999/02/22-rdf-syntax-ns#"
   xmlns:svg="http://www.w3.org/2000/svg"
   xmlns="http://www.w3.org/2000/svg"
   xmlns:sodipodi="http://sodipodi.sourceforge.net/DTD/sodipodi-0.dtd"
   xmlns:inkscape="http://www.inkscape.org/namespaces/inkscape"
   version="1.1"
   id="Layer_1"
   x="0px"
   y="0px"
   width="1000"
   height="1024"
   viewBox="0 0 1000 1024"
   enable-background="new 0 0 512 512"
   xml:space="preserve"
   inkscape:version="0.48.0 r9654"
   sodipodi:docname="alfphoenician-x10900.svg"><title
   id="title3743">Sinai 357</title><metadata
   id="metadata72"><rdf:RDF><cc:Work
       rdf:about=""><dc:format>image/svg+xml</dc:format><dc:type
         rdf:resource="http://purl.org/dc/dcmitype/StillImage" /><dc:title>Sinai 357</dc:title><dc:date>2017</dc:date><dc:creator><cc:Agent><dc:title>Celeste Claire Horner</dc:title></cc:Agent></dc:creator><dc:publisher><cc:Agent><dc:title>beitdina.net</dc:title></cc:Agent></dc:publisher></cc:Work></rdf:RDF></metadata><defs
   id="defs70" /><sodipodi:namedview
   pagecolor="#ffffff"
   bordercolor="#666666"
   borderopacity="1"
   objecttolerance="10"
   gridtolerance="10"
   guidetolerance="10"
   inkscape:pageopacity="0"
   inkscape:pageshadow="2"
   inkscape:window-width="1152"
   inkscape:window-height="814"
   id="namedview68"
   showgrid="false"
   inkscape:zoom="0.50976562"
   inkscape:cx="476.07431"
   inkscape:cy="543.84183"
   inkscape:window-x="-8"
   inkscape:window-y="-8"
   inkscape:window-maximized="1"
   inkscape:current-layer="Layer_1" />
   
	<g
   id="Grid"
   transform="matrix(1.9414068,0,0,1.9961191,0.47797407,0.49070177)">
		<rect
   x="0"
   stroke-miterlimit="10"
   width="512"
   height="512"
   id="rect4"
   y="0"
   style="fill:none;stroke:#a9ccdb;stroke-miterlimit:10" />
		<line
   stroke-miterlimit="10"
   x1="0"
   y1="32"
   x2="512"
   y2="32"
   id="line6"
   style="fill:none;stroke:#a9ccdb;stroke-miterlimit:10" />
		<line
   stroke-miterlimit="10"
   x1="0"
   y1="64"
   x2="512"
   y2="64"
   id="line8"
   style="fill:none;stroke:#a9ccdb;stroke-miterlimit:10" />
		<line
   stroke-miterlimit="10"
   x1="0"
   y1="96"
   x2="512"
   y2="96"
   id="line10"
   style="fill:none;stroke:#a9ccdb;stroke-miterlimit:10" />
		<line
   stroke-miterlimit="10"
   x1="0"
   y1="128"
   x2="512"
   y2="128"
   id="line12"
   style="fill:none;stroke:#a9ccdb;stroke-miterlimit:10" />
		<line
   stroke-miterlimit="10"
   x1="0"
   y1="160"
   x2="512"
   y2="160"
   id="line14"
   style="fill:none;stroke:#a9ccdb;stroke-miterlimit:10" />
		<line
   stroke-miterlimit="10"
   x1="0"
   y1="192"
   x2="512"
   y2="192"
   id="line16"
   style="fill:none;stroke:#a9ccdb;stroke-miterlimit:10" />
		<line
   stroke-miterlimit="10"
   x1="0"
   y1="224"
   x2="512"
   y2="224"
   id="line18"
   style="fill:none;stroke:#a9ccdb;stroke-miterlimit:10" />
		<line
   stroke-miterlimit="10"
   x1="0"
   y1="256"
   x2="512"
   y2="256"
   id="line20"
   style="fill:none;stroke:#a9ccdb;stroke-miterlimit:10" />
		<line
   stroke-miterlimit="10"
   x1="0"
   y1="288"
   x2="512"
   y2="288"
   id="line22"
   style="fill:none;stroke:#a9ccdb;stroke-miterlimit:10" />
		<line
   stroke-miterlimit="10"
   x1="0"
   y1="320"
   x2="512"
   y2="320"
   id="line24"
   style="fill:none;stroke:#a9ccdb;stroke-miterlimit:10" />
		<line
   stroke-miterlimit="10"
   x1="0"
   y1="352"
   x2="512"
   y2="352"
   id="line26"
   style="fill:none;stroke:#a9ccdb;stroke-miterlimit:10" />
		<line
   stroke-miterlimit="10"
   x1="0"
   y1="384"
   x2="512"
   y2="384"
   id="line28"
   style="fill:none;stroke:#a9ccdb;stroke-miterlimit:10" />
		<line
   stroke-miterlimit="10"
   x1="0"
   y1="416"
   x2="512"
   y2="416"
   id="line30"
   style="fill:none;stroke:#a9ccdb;stroke-miterlimit:10" />
		<line
   stroke-miterlimit="10"
   x1="0"
   y1="448"
   x2="512"
   y2="448"
   id="line32"
   style="fill:none;stroke:#ff0000;stroke-miterlimit:10" />
		<line
   stroke-miterlimit="10"
   x1="0"
   y1="480"
   x2="512"
   y2="480"
   id="line34"
   style="fill:none;stroke:#a9ccdb;stroke-miterlimit:10" />
		<line
   stroke-miterlimit="10"
   x1="32"
   y1="0"
   x2="32"
   y2="512"
   id="line36"
   style="fill:none;stroke:#a9ccdb;stroke-miterlimit:10" />
		<line
   stroke-miterlimit="10"
   x1="64"
   y1="0"
   x2="64"
   y2="512"
   id="line38"
   style="fill:none;stroke:#a9ccdb;stroke-miterlimit:10" />
		<line
   stroke-miterlimit="10"
   x1="96"
   y1="0"
   x2="96"
   y2="512"
   id="line40"
   style="fill:none;stroke:#a9ccdb;stroke-miterlimit:10" />
		<line
   stroke-miterlimit="10"
   x1="128"
   y1="0"
   x2="128"
   y2="512"
   id="line42"
   style="fill:none;stroke:#a9ccdb;stroke-miterlimit:10" />
		<line
   stroke-miterlimit="10"
   x1="160"
   y1="0"
   x2="160"
   y2="512"
   id="line44"
   style="fill:none;stroke:#a9ccdb;stroke-miterlimit:10" />
		<line
   stroke-miterlimit="10"
   x1="192"
   y1="0"
   x2="192"
   y2="512"
   id="line46"
   style="fill:none;stroke:#a9ccdb;stroke-miterlimit:10" />
		<line
   stroke-miterlimit="10"
   x1="224"
   y1="0"
   x2="224"
   y2="512"
   id="line48"
   style="fill:none;stroke:#a9ccdb;stroke-miterlimit:10" />
		<line
   stroke-miterlimit="10"
   x1="256"
   y1="0"
   x2="256"
   y2="512"
   id="line50"
   style="fill:none;stroke:#a9ccdb;stroke-miterlimit:10" />
		<line
   stroke-miterlimit="10"
   x1="288"
   y1="0"
   x2="288"
   y2="512"
   id="line52"
   style="fill:none;stroke:#a9ccdb;stroke-miterlimit:10" />
		<line
   stroke-miterlimit="10"
   x1="320"
   y1="0"
   x2="320"
   y2="512"
   id="line54"
   style="fill:none;stroke:#a9ccdb;stroke-miterlimit:10" />
		<line
   stroke-miterlimit="10"
   x1="352"
   y1="0"
   x2="352"
   y2="512"
   id="line56"
   style="fill:none;stroke:#a9ccdb;stroke-miterlimit:10" />
		<line
   stroke-miterlimit="10"
   x1="384"
   y1="0"
   x2="384"
   y2="512"
   id="line58"
   style="fill:none;stroke:#a9ccdb;stroke-miterlimit:10" />
		<line
   stroke-miterlimit="10"
   x1="416"
   y1="0"
   x2="416"
   y2="512"
   id="line60"
   style="fill:none;stroke:#a9ccdb;stroke-miterlimit:10" />
		<line
   stroke-miterlimit="10"
   x1="448"
   y1="0"
   x2="448"
   y2="512"
   id="line62"
   style="fill:none;stroke:#a9ccdb;stroke-miterlimit:10" />
		<line
   stroke-miterlimit="10"
   x1="480"
   y1="0"
   x2="480"
   y2="512"
   id="line64"
   style="fill:none;stroke:#a9ccdb;stroke-miterlimit:10" />
	</g>
	

<path
   id="path7051"
   d="m 327.52078,637.18075 c -2.72863,-11.78454 -0.25092,-22.8532 7.43255,-33.2053 7.68334,-10.35218 18.51686,-16.89256 32.49981,-19.62111 13.98411,-2.72867 27.02059,-0.84543 39.10825,5.64827 12.08772,6.49402 19.49588,15.63356 22.22434,27.41825 2.72844,11.78378 0.007,22.89941 -8.15527,33.34569 -8.16525,10.44626 -19.24044,17.03392 -33.22453,19.7626 -13.98299,2.72853 -26.77777,0.79935 -38.38335,-5.78959 -11.60567,-6.58841 -21.5018,-27.55881 -21.5018,-27.55881 z m -126.33909,-2.48052 c -34.85452,29.70918 -47.6942,52.18082 -57.63045,90.88066 -5.44329,19.13127 -47.797109,78.93323 -54.072156,107.03984 49.044006,47.37739 49.099666,51.23962 69.066376,57.48681 25.12039,-0.0296 65.49352,-21.0084 98.8058,-21.27108 53.21224,-13.49145 97.96806,-38.99967 146.44301,-56.87023 33.81675,-12.4728 70.67951,-26.33746 98.245,-40.31404 36.41188,-18.46203 45.41633,-41.22578 49.68996,-46.56552 7.10338,-11.80729 11.87097,-25.02932 13.505,-40.19037 3.87971,-44.38851 30.62071,-69.38498 34.90701,-75.93546 8.0419,-10.33117 -25.321,-21.49077 -27.53867,-28.14199 -19.37545,-53.54617 -34.54347,-51.82055 -83.71451,-56.4527 -18.16123,-13.73806 -20.17867,-33.42462 -22.98987,-47.75178 -4.2888,-13.127 -1.59098,-25.71548 0.89344,-37.56838 3.67056,-21.52004 -0.0159,-31.72736 -7.1065,-34.499 -7.81033,-3.05246 -19.75078,2.91589 -30.53881,12.72476 -8.43362,11.55098 -42.27447,27.37567 -53.25664,35.6206 -36.51067,27.41286 -59.73233,35.13879 -93.61756,68.93188 -37.94275,38.16284 -33.05592,69.81961 -81.06872,112.87182 z M 311.49287,103.46201 c 5.30989,29.14991 22.24974,68.44072 35.92609,93.0487 14.28374,25.70087 25.31202,36.68496 30.45827,65.89358 -0.67656,37.33142 -36.49682,156.80854 -13.52431,145.29867 17.88022,-8.95848 21.77984,-11.36833 39.23729,-29.40457 10.90513,-11.26668 48.84735,-26.47917 69.51982,-25.28104 21.60444,1.25256 28.56835,22.62981 35.06921,25.15535 33.00698,12.82237 -0.76397,72.15934 16.0942,57.46244 27.27727,-24.99027 18.00782,-67.33431 46.98841,-73.11557 32.72911,-7.14916 79.10083,-8.46034 89.3473,-18.63204 36.1314,-35.86742 89.3828,-20.89165 108.53278,-43.18801 11.70333,-19.74506 21.20987,-25.28386 18.32105,-38.23858 -3.92226,-16.94048 -43.30914,-30.05736 -50.29549,-47.16967 -9.34481,-16.42384 -8.52762,-35.03064 -0.8497,-50.5915 9.37463,-19.00515 28.97571,-33.46336 52.77207,-33.84049 22.76425,0.36101 30.36405,3.03805 47.84681,17.51918 31.16178,30.10112 15.63284,47.57306 27.22931,97.65817 10.31724,44.55927 -6.124,73.30219 -13.72086,89.28996 -25.58698,36.85401 -48.93333,13.54123 -87.5664,40.10582 -8.24979,5.67268 -48.17844,7.39205 -56.13027,12.41261 -40.46647,50.34455 -59.87914,54.47908 -87.52973,52.80431 -21.92507,30.76024 -49.1439,29.59698 -36.88548,60.15325 36.57505,23.86982 80.80303,52.3199 84.58792,57.87907 6.71929,24.28732 -0.37409,31.73436 -3.40908,50.50556 -9.9535,8.92675 -24.58778,40.96837 -29.79994,67.17327 -6.0904,30.62235 -2.21671,55.93835 -7.08041,67.57738 -20.71886,31.65354 -49.88546,51.6986 -82.35064,68.32109 -35.95591,18.40928 -75.95906,32.62119 -113.01812,53.75593 -30.03078,3.92578 -60.01799,12.57679 -89.8442,22.39692 -58.05173,19.11415 -115.49411,42.66055 -171.47104,44.43312 -79.912207,3.67972 -133.234704,-56.22968 -133.766665,-61.0941 -3.61232,-39.05387 4.611717,-69.59243 17.27917,-97.20027 10.218635,-22.27368 22.144327,-43.15157 37.725088,-67.90037 -3.158673,-37.57343 31.633407,-59.6203 63.637277,-98.48249 26.1888,-31.80075 46.57711,-79.6762 75.70314,-116.23018 13.19143,-16.55619 52.38892,-28.27353 64.16331,-49.74473 17.45005,-31.82104 5.4123,-73.21351 8.65926,-87.37285 3.41609,-14.89693 5.31918,-46.60772 -1.63953,-68.17424 -22.53253,-57.49527 -91.69089,-92.79694 -102.68122,-144.57876 -4.91592,-31.40174 9.67522,-65.571749 38.06971,-73.869979 27.05359,-7.37036 57.97696,5.65618 74.39574,35.264619 z"
   inkscape:connector-curvature="0" />
</svg>