<?xml version="1.0" encoding="UTF-8" standalone="no"?>
<svg
   xmlns:dc="http://purl.org/dc/elements/1.1/"
   xmlns:cc="http://creativecommons.org/ns#"
   xmlns:rdf="http://www.w3.org/1999/02/22-rdf-syntax-ns#"
   xmlns:svg="http://www.w3.org/2000/svg"
   xmlns="http://www.w3.org/2000/svg"
   xmlns:sodipodi="http://sodipodi.sourceforge.net/DTD/sodipodi-0.dtd"
   xmlns:inkscape="http://www.inkscape.org/namespaces/inkscape"
   version="1.1"
   id="Layer_1"
   x="0px"
   y="0px"
   width="1000"
   height="1000"
   viewBox="0 0 1000 1000"
   enable-background="new 0 0 512 512"
   xml:space="preserve"
   inkscape:version="0.48.0 r9654"
   sodipodi:docname="alfphoenician-x10900.svg"><title
   id="title3743">Sinai 357</title><metadata
   id="metadata72"><rdf:RDF><cc:Work
       rdf:about=""><dc:format>image/svg+xml</dc:format><dc:type
         rdf:resource="http://purl.org/dc/dcmitype/StillImage" /><dc:title>Sinai 357</dc:title><dc:date>2017</dc:date><dc:creator><cc:Agent><dc:title>Celeste Claire Horner</dc:title></cc:Agent></dc:creator><dc:publisher><cc:Agent><dc:title>beitdina.net</dc:title></cc:Agent></dc:publisher></cc:Work></rdf:RDF></metadata><defs
   id="defs70" /><sodipodi:namedview
   pagecolor="#ffffff"
   bordercolor="#666666"
   borderopacity="1"
   objecttolerance="10"
   gridtolerance="10"
   guidetolerance="10"
   inkscape:pageopacity="0"
   inkscape:pageshadow="2"
   inkscape:window-width="1013"
   inkscape:window-height="710"
   id="namedview68"
   showgrid="false"
   inkscape:zoom="0.25488281"
   inkscape:cx="432.56593"
   inkscape:cy="100.81901"
   inkscape:window-x="23"
   inkscape:window-y="23"
   inkscape:window-maximized="0"
   inkscape:current-layer="Layer_1" />
   
	<g
   id="Grid"
   transform="matrix(1.949083,0,0,1.9463791,0.47454151,0.47318954)">
		<rect
   x="0"
   stroke-miterlimit="10"
   width="512"
   height="512"
   id="rect4"
   y="0"
   style="fill:none;stroke:#a9ccdb;stroke-miterlimit:10" />
		<line
   stroke-miterlimit="10"
   x1="0"
   y1="32"
   x2="512"
   y2="32"
   id="line6"
   style="fill:none;stroke:#a9ccdb;stroke-miterlimit:10" />
		<line
   stroke-miterlimit="10"
   x1="0"
   y1="64"
   x2="512"
   y2="64"
   id="line8"
   style="fill:none;stroke:#a9ccdb;stroke-miterlimit:10" />
		<line
   stroke-miterlimit="10"
   x1="0"
   y1="96"
   x2="512"
   y2="96"
   id="line10"
   style="fill:none;stroke:#a9ccdb;stroke-miterlimit:10" />
		<line
   stroke-miterlimit="10"
   x1="0"
   y1="128"
   x2="512"
   y2="128"
   id="line12"
   style="fill:none;stroke:#a9ccdb;stroke-miterlimit:10" />
		<line
   stroke-miterlimit="10"
   x1="0"
   y1="160"
   x2="512"
   y2="160"
   id="line14"
   style="fill:none;stroke:#a9ccdb;stroke-miterlimit:10" />
		<line
   stroke-miterlimit="10"
   x1="0"
   y1="192"
   x2="512"
   y2="192"
   id="line16"
   style="fill:none;stroke:#a9ccdb;stroke-miterlimit:10" />
		<line
   stroke-miterlimit="10"
   x1="0"
   y1="224"
   x2="512"
   y2="224"
   id="line18"
   style="fill:none;stroke:#a9ccdb;stroke-miterlimit:10" />
		<line
   stroke-miterlimit="10"
   x1="0"
   y1="256"
   x2="512"
   y2="256"
   id="line20"
   style="fill:none;stroke:#a9ccdb;stroke-miterlimit:10" />
		<line
   stroke-miterlimit="10"
   x1="0"
   y1="288"
   x2="512"
   y2="288"
   id="line22"
   style="fill:none;stroke:#a9ccdb;stroke-miterlimit:10" />
		<line
   stroke-miterlimit="10"
   x1="0"
   y1="320"
   x2="512"
   y2="320"
   id="line24"
   style="fill:none;stroke:#a9ccdb;stroke-miterlimit:10" />
		<line
   stroke-miterlimit="10"
   x1="0"
   y1="352"
   x2="512"
   y2="352"
   id="line26"
   style="fill:none;stroke:#a9ccdb;stroke-miterlimit:10" />
		<line
   stroke-miterlimit="10"
   x1="0"
   y1="384"
   x2="512"
   y2="384"
   id="line28"
   style="fill:none;stroke:#a9ccdb;stroke-miterlimit:10" />
		<line
   stroke-miterlimit="10"
   x1="0"
   y1="416"
   x2="512"
   y2="416"
   id="line30"
   style="fill:none;stroke:#a9ccdb;stroke-miterlimit:10" />
		<line
   stroke-miterlimit="10"
   x1="0"
   y1="448"
   x2="512"
   y2="448"
   id="line32"
   style="fill:none;stroke:#ff0000;stroke-miterlimit:10" />
		<line
   stroke-miterlimit="10"
   x1="0"
   y1="480"
   x2="512"
   y2="480"
   id="line34"
   style="fill:none;stroke:#a9ccdb;stroke-miterlimit:10" />
		<line
   stroke-miterlimit="10"
   x1="32"
   y1="0"
   x2="32"
   y2="512"
   id="line36"
   style="fill:none;stroke:#a9ccdb;stroke-miterlimit:10" />
		<line
   stroke-miterlimit="10"
   x1="64"
   y1="0"
   x2="64"
   y2="512"
   id="line38"
   style="fill:none;stroke:#a9ccdb;stroke-miterlimit:10" />
		<line
   stroke-miterlimit="10"
   x1="96"
   y1="0"
   x2="96"
   y2="512"
   id="line40"
   style="fill:none;stroke:#a9ccdb;stroke-miterlimit:10" />
		<line
   stroke-miterlimit="10"
   x1="128"
   y1="0"
   x2="128"
   y2="512"
   id="line42"
   style="fill:none;stroke:#a9ccdb;stroke-miterlimit:10" />
		<line
   stroke-miterlimit="10"
   x1="160"
   y1="0"
   x2="160"
   y2="512"
   id="line44"
   style="fill:none;stroke:#a9ccdb;stroke-miterlimit:10" />
		<line
   stroke-miterlimit="10"
   x1="192"
   y1="0"
   x2="192"
   y2="512"
   id="line46"
   style="fill:none;stroke:#a9ccdb;stroke-miterlimit:10" />
		<line
   stroke-miterlimit="10"
   x1="224"
   y1="0"
   x2="224"
   y2="512"
   id="line48"
   style="fill:none;stroke:#a9ccdb;stroke-miterlimit:10" />
		<line
   stroke-miterlimit="10"
   x1="256"
   y1="0"
   x2="256"
   y2="512"
   id="line50"
   style="fill:none;stroke:#a9ccdb;stroke-miterlimit:10" />
		<line
   stroke-miterlimit="10"
   x1="288"
   y1="0"
   x2="288"
   y2="512"
   id="line52"
   style="fill:none;stroke:#a9ccdb;stroke-miterlimit:10" />
		<line
   stroke-miterlimit="10"
   x1="320"
   y1="0"
   x2="320"
   y2="512"
   id="line54"
   style="fill:none;stroke:#a9ccdb;stroke-miterlimit:10" />
		<line
   stroke-miterlimit="10"
   x1="352"
   y1="0"
   x2="352"
   y2="512"
   id="line56"
   style="fill:none;stroke:#a9ccdb;stroke-miterlimit:10" />
		<line
   stroke-miterlimit="10"
   x1="384"
   y1="0"
   x2="384"
   y2="512"
   id="line58"
   style="fill:none;stroke:#a9ccdb;stroke-miterlimit:10" />
		<line
   stroke-miterlimit="10"
   x1="416"
   y1="0"
   x2="416"
   y2="512"
   id="line60"
   style="fill:none;stroke:#a9ccdb;stroke-miterlimit:10" />
		<line
   stroke-miterlimit="10"
   x1="448"
   y1="0"
   x2="448"
   y2="512"
   id="line62"
   style="fill:none;stroke:#a9ccdb;stroke-miterlimit:10" />
		<line
   stroke-miterlimit="10"
   x1="480"
   y1="0"
   x2="480"
   y2="512"
   id="line64"
   style="fill:none;stroke:#a9ccdb;stroke-miterlimit:10" />
	</g>
	

<path
   id="path7051"
   d="m 328.89841,586.41056 c -2.7415,-11.38448 -0.25212,-22.07742 7.4676,-32.07812 7.71955,-10.00076 18.60416,-16.31913 32.65304,-18.95504 14.05003,-2.63605 27.14796,-0.81674 39.29264,5.45653 12.1447,6.27358 19.58779,15.10287 22.3291,26.48752 2.7413,11.38377 0.008,22.12207 -8.19371,32.21375 -8.20375,10.09164 -19.33116,16.45568 -33.38117,19.09173 -14.04892,2.6359 -26.90403,0.77221 -38.56432,-5.59306 -11.66039,-6.36475 -21.60318,-26.62331 -21.60318,-26.62331 z m -126.93474,-2.3963 c -35.01886,28.70067 -47.91908,50.40951 -57.90217,87.79564 -5.46896,18.48183 -48.022465,76.25377 -54.327097,103.40628 49.275237,45.76914 49.331157,49.50025 69.392007,55.53539 25.23883,-0.0287 65.8023,-20.29527 99.27164,-20.54904 53.46314,-13.03347 98.42997,-37.67578 147.13345,-54.93971 33.9762,-12.04941 71.01276,-25.44341 98.70821,-38.94555 36.58355,-17.83532 45.63046,-39.82634 49.92423,-44.98481 7.13688,-11.40648 11.92694,-24.17969 13.56869,-38.82607 3.898,-42.88172 30.76506,-67.02967 35.07157,-73.35778 8.07982,-9.98047 -25.44039,-20.76124 -27.66851,-27.18669 -19.4668,-51.72849 -34.70632,-50.06147 -84.10919,-54.53637 -18.24687,-13.27171 -20.27381,-32.28998 -23.09826,-46.13081 -4.30903,-12.68139 -1.59848,-24.84255 0.89765,-36.29308 3.68787,-20.78953 -0.0152,-30.65036 -7.14,-33.3279 -7.84717,-2.94885 -19.84391,2.8169 -30.68281,12.29279 -8.47338,11.15888 -42.47378,26.4464 -53.50772,34.41144 -36.68282,26.48232 -60.01397,33.94597 -94.05895,66.59194 -38.12163,36.86735 -33.21176,67.44951 -81.45094,109.04028 z M 312.79492,70.809358 c 3.8708,28.38404 30.82851,56.778712 31.95395,82.041802 21.49569,28.14505 31.3126,51.54838 34.7434,71.50504 -0.67974,36.06418 -37.84069,139.26581 -15.96933,152.39672 13.99571,-9.40629 9.9761,-23.01274 41.80354,-40.43675 13.74624,-7.52531 49.07765,-25.58031 69.84759,-24.42285 21.7063,1.21005 28.70304,21.86162 35.23456,24.30145 33.16261,12.3871 -0.76758,69.70982 16.17008,55.51181 27.40587,-24.14194 18.09273,-65.04859 47.20994,-70.63359 32.88342,-6.90647 79.47379,-8.17315 89.76856,-17.99956 36.30175,-34.64987 89.80423,-20.18247 109.04448,-41.72195 11.75851,-19.07481 21.30987,-24.42558 18.40743,-36.94056 -3.94076,-16.36542 -43.51332,-29.03703 -50.53261,-45.56845 -9.38888,-15.86632 -8.56782,-33.84149 -0.85371,-48.87413 9.41882,-18.36 29.11233,-32.327422 53.02088,-32.691742 22.87157,0.34876 30.50719,2.934912 48.07239,16.924472 31.30871,29.07933 15.70656,45.95815 27.3577,94.34309 10.36588,43.04665 -6.15289,70.81389 -13.78557,86.25893 -25.70761,35.60297 -49.16403,13.08156 -87.97924,38.7444 -8.28869,5.48011 -48.4056,7.14113 -56.39492,11.99126 -40.65724,48.63556 -60.16145,52.62974 -87.94242,51.01181 -22.02844,29.71606 -49.37559,28.59229 -37.05937,58.11131 36.74748,23.05954 81.18399,50.54386 84.98672,55.91432 6.75098,23.46288 -0.37583,30.6571 -3.42514,48.79111 -10.00044,8.62371 -24.70371,39.57765 -29.94045,64.89302 -6.11911,29.58285 -2.22715,54.03947 -7.1138,65.28341 -20.81653,30.57904 -50.12065,49.94363 -82.73888,66.00186 -36.12545,17.78437 -76.3172,31.51384 -113.55097,51.93116 -30.17239,3.79252 -60.30098,12.14985 -90.2678,21.63663 -58.32544,18.46531 -116.03863,41.21241 -172.27949,42.9248 -80.288975,3.55482 -133.862874,-54.32092 -134.397343,-59.0202 -3.629352,-37.72817 4.63346,-67.23006 17.360636,-93.90073 10.266814,-21.51759 22.248733,-41.68676 37.902954,-65.59544 -3.173565,-36.29797 31.782553,-57.59644 63.937313,-95.13943 26.31227,-30.72125 46.7967,-76.97152 76.06006,-112.28465 32.89594,-39.6981 67.70244,-109.55462 73.16592,-132.46301 1.04394,-14.72075 5.34425,-45.02559 -1.64728,-65.86002 -8.7884,-26.18846 -30.79209,-43.53765 -47.27282,-65.34786 -22.96199,-24.25976 -60.92283,-54.75899 -59.77007,-75.81892 2.35412,-34.602902 12.4231,-62.085252 42.12676,-69.866522 27.18114,-7.12017 58.25032,5.46417 74.7465,34.06751 z"
   inkscape:connector-curvature="0"
   sodipodi:nodetypes="sssssssssccccccscccccccscsccccccsssccscccsccccscccccsccscscccsscsccsccc"
   inkscape:transform-center-x="-1307.7921"
   inkscape:transform-center-y="923.27228" /></svg>