<?xml version="1.0" encoding="UTF-8" standalone="no"?>
<svg
   xmlns:dc="http://purl.org/dc/elements/1.1/"
   xmlns:cc="http://creativecommons.org/ns#"
   xmlns:rdf="http://www.w3.org/1999/02/22-rdf-syntax-ns#"
   xmlns:svg="http://www.w3.org/2000/svg"
   xmlns="http://www.w3.org/2000/svg"
   xmlns:sodipodi="http://sodipodi.sourceforge.net/DTD/sodipodi-0.dtd"
   xmlns:inkscape="http://www.inkscape.org/namespaces/inkscape"
   version="1.1"
   id="Layer_1"
   x="0px"
   y="0px"
   width="321px"
   height="512px"
   viewBox="0 0 321 512"
   enable-background="new 0 0 512 512"
   xml:space="preserve"
   inkscape:version="0.48.0 r9654"
   sodipodi:docname="alfphoenician-x10900.svg"><title
   id="title3743">Sinai 357</title><metadata
   id="metadata72"><rdf:RDF><cc:Work
       rdf:about=""><dc:format>image/svg+xml</dc:format><dc:type
         rdf:resource="http://purl.org/dc/dcmitype/StillImage" /><dc:title>Sinai 357</dc:title><dc:date>2017</dc:date><dc:creator><cc:Agent><dc:title>Celeste Claire Horner</dc:title></cc:Agent></dc:creator><dc:publisher><cc:Agent><dc:title>beitdina.net</dc:title></cc:Agent></dc:publisher></cc:Work></rdf:RDF></metadata><defs
   id="defs70" /><sodipodi:namedview
   pagecolor="#ffffff"
   bordercolor="#666666"
   borderopacity="1"
   objecttolerance="10"
   gridtolerance="10"
   guidetolerance="10"
   inkscape:pageopacity="0"
   inkscape:pageshadow="2"
   inkscape:window-width="475"
   inkscape:window-height="455"
   id="namedview68"
   showgrid="false"
   inkscape:zoom="0.36045873"
   inkscape:cx="-207.37677"
   inkscape:cy="242.04266"
   inkscape:window-x="23"
   inkscape:window-y="23"
   inkscape:window-maximized="0"
   inkscape:current-layer="Layer_1" />
   
	<g
   id="Grid">
		<rect
   x="0"
   fill="none"
   stroke="#A9CCDB"
   stroke-miterlimit="10"
   width="512"
   height="512"
   id="rect4" />
		<line
   fill="none"
   stroke="#A9CCDB"
   stroke-miterlimit="10"
   x1="0"
   y1="32"
   x2="512"
   y2="32"
   id="line6" />
		<line
   fill="none"
   stroke="#A9CCDB"
   stroke-miterlimit="10"
   x1="0"
   y1="64"
   x2="512"
   y2="64"
   id="line8" />
		<line
   fill="none"
   stroke="#A9CCDB"
   stroke-miterlimit="10"
   x1="0"
   y1="96"
   x2="512"
   y2="96"
   id="line10" />
		<line
   fill="none"
   stroke="#A9CCDB"
   stroke-miterlimit="10"
   x1="0"
   y1="128"
   x2="512"
   y2="128"
   id="line12" />
		<line
   fill="none"
   stroke="#A9CCDB"
   stroke-miterlimit="10"
   x1="0"
   y1="160"
   x2="512"
   y2="160"
   id="line14" />
		<line
   fill="none"
   stroke="#A9CCDB"
   stroke-miterlimit="10"
   x1="0"
   y1="192"
   x2="512"
   y2="192"
   id="line16" />
		<line
   fill="none"
   stroke="#A9CCDB"
   stroke-miterlimit="10"
   x1="0"
   y1="224"
   x2="512"
   y2="224"
   id="line18" />
		<line
   fill="none"
   stroke="#A9CCDB"
   stroke-miterlimit="10"
   x1="0"
   y1="256"
   x2="512"
   y2="256"
   id="line20" />
		<line
   fill="none"
   stroke="#A9CCDB"
   stroke-miterlimit="10"
   x1="0"
   y1="288"
   x2="512"
   y2="288"
   id="line22" />
		<line
   fill="none"
   stroke="#A9CCDB"
   stroke-miterlimit="10"
   x1="0"
   y1="320"
   x2="512"
   y2="320"
   id="line24" />
		<line
   fill="none"
   stroke="#A9CCDB"
   stroke-miterlimit="10"
   x1="0"
   y1="352"
   x2="512"
   y2="352"
   id="line26" />
		<line
   fill="none"
   stroke="#A9CCDB"
   stroke-miterlimit="10"
   x1="0"
   y1="384"
   x2="512"
   y2="384"
   id="line28" />
		<line
   fill="none"
   stroke="#A9CCDB"
   stroke-miterlimit="10"
   x1="0"
   y1="416"
   x2="512"
   y2="416"
   id="line30" />
		<line
   fill="none"
   stroke="#FF0000"
   stroke-miterlimit="10"
   x1="0"
   y1="448"
   x2="512"
   y2="448"
   id="line32" />
		<line
   fill="none"
   stroke="#A9CCDB"
   stroke-miterlimit="10"
   x1="0"
   y1="480"
   x2="512"
   y2="480"
   id="line34" />
		<line
   fill="none"
   stroke="#A9CCDB"
   stroke-miterlimit="10"
   x1="32"
   y1="0"
   x2="32"
   y2="512"
   id="line36" />
		<line
   fill="none"
   stroke="#A9CCDB"
   stroke-miterlimit="10"
   x1="64"
   y1="0"
   x2="64"
   y2="512"
   id="line38" />
		<line
   fill="none"
   stroke="#A9CCDB"
   stroke-miterlimit="10"
   x1="96"
   y1="0"
   x2="96"
   y2="512"
   id="line40" />
		<line
   fill="none"
   stroke="#A9CCDB"
   stroke-miterlimit="10"
   x1="128"
   y1="0"
   x2="128"
   y2="512"
   id="line42" />
		<line
   fill="none"
   stroke="#A9CCDB"
   stroke-miterlimit="10"
   x1="160"
   y1="0"
   x2="160"
   y2="512"
   id="line44" />
		<line
   fill="none"
   stroke="#A9CCDB"
   stroke-miterlimit="10"
   x1="192"
   y1="0"
   x2="192"
   y2="512"
   id="line46" />
		<line
   fill="none"
   stroke="#A9CCDB"
   stroke-miterlimit="10"
   x1="224"
   y1="0"
   x2="224"
   y2="512"
   id="line48" />
		<line
   fill="none"
   stroke="#A9CCDB"
   stroke-miterlimit="10"
   x1="256"
   y1="0"
   x2="256"
   y2="512"
   id="line50" />
		<line
   fill="none"
   stroke="#A9CCDB"
   stroke-miterlimit="10"
   x1="288"
   y1="0"
   x2="288"
   y2="512"
   id="line52" />
		<line
   fill="none"
   stroke="#A9CCDB"
   stroke-miterlimit="10"
   x1="320"
   y1="0"
   x2="320"
   y2="512"
   id="line54" />
		<line
   fill="none"
   stroke="#A9CCDB"
   stroke-miterlimit="10"
   x1="352"
   y1="0"
   x2="352"
   y2="512"
   id="line56" />
		<line
   fill="none"
   stroke="#A9CCDB"
   stroke-miterlimit="10"
   x1="384"
   y1="0"
   x2="384"
   y2="512"
   id="line58" />
		<line
   fill="none"
   stroke="#A9CCDB"
   stroke-miterlimit="10"
   x1="416"
   y1="0"
   x2="416"
   y2="512"
   id="line60" />
		<line
   fill="none"
   stroke="#A9CCDB"
   stroke-miterlimit="10"
   x1="448"
   y1="0"
   x2="448"
   y2="512"
   id="line62" />
		<line
   fill="none"
   stroke="#A9CCDB"
   stroke-miterlimit="10"
   x1="480"
   y1="0"
   x2="480"
   y2="512"
   id="line64" />
	</g>
	

<path
   id="path7051"
   d="m 126.37634,301.78614 c -0.66891,-2.90522 -0.0615,-5.63396 1.82208,-8.18604 1.88354,-2.55211 4.53935,-4.1645 7.96724,-4.83716 3.42816,-0.6727 6.62401,-0.20842 9.58727,1.39246 2.96327,1.60096 4.77936,3.85411 5.44823,6.75937 0.66887,2.90504 0.002,5.64535 -1.99924,8.22065 -2.00169,2.5753 -4.71674,4.19934 -8.1449,4.87204 -3.42788,0.67266 -6.5645,0.19706 -9.40957,-1.4273 -2.8451,-1.62422 -5.27111,-6.79402 -5.27111,-6.79402 z m -30.97167,-0.61152 c -8.54449,7.32415 -11.6921,12.86404 -14.12794,22.40464 -1.33441,4.7164 -11.71733,19.45927 -13.25564,26.38834 12.023,11.67986 12.03665,12.632 16.93143,14.17212 6.1582,-0.007 16.05555,-5.17917 24.22196,-5.24393 13.04484,-3.32602 24.0166,-9.61451 35.9001,-14.02011 8.29008,-3.07489 17.32688,-6.49292 24.08448,-9.93854 8.92627,-4.55141 11.13369,-10.16332 12.18136,-11.47971 1.74137,-2.91083 2.91013,-6.17044 3.31071,-9.90806 0.9511,-10.94302 7.50658,-17.10536 8.55735,-18.72024 1.97146,-2.54692 -6.20737,-5.29807 -6.75102,-6.93779 -4.74984,-13.20063 -8.46823,-12.77522 -20.52238,-13.91718 -4.45218,-3.38682 -4.94675,-8.2401 -5.6359,-11.77216 -1.05139,-3.23617 -0.39002,-6.33959 0.21902,-9.26166 0.89983,-5.30529 -0.004,-7.82169 -1.74213,-8.50497 -1.91469,-0.75252 -4.84185,0.71885 -7.48651,3.13701 -2.06748,2.84764 -10.36347,6.74888 -13.05571,8.78148 -8.9505,6.75805 -14.64322,8.6627 -22.95008,16.99365 -9.30157,9.40821 -8.10357,17.2125 -19.87378,27.82608 z m 27.04247,-130.96518 c 0.94447,7.24335 7.52206,14.48941 7.79667,20.93632 5.24488,7.18236 7.64017,13.15467 8.47727,18.24743 -0.16585,9.20324 -9.233,35.53935 -3.89646,38.89024 3.41491,-2.4004 2.43413,-5.87264 10.19993,-10.31908 3.35404,-1.9204 11.97479,-6.52787 17.04259,-6.23249 5.29627,0.30879 7.00345,5.57888 8.59711,6.2015 8.09158,3.16108 -0.18728,17.78931 3.94546,14.16611 6.68694,-6.1608 4.41457,-16.5998 11.51907,-18.02505 8.02345,-1.76246 19.39135,-2.08571 21.90325,-4.59332 8.8575,-8.84233 21.91194,-5.15038 26.6065,-10.64706 2.86904,-4.86771 5.19954,-6.23318 4.49135,-9.42689 -0.96153,-4.1763 -10.6171,-7.40998 -12.32979,-11.62865 -2.29086,-4.04894 -2.09053,-8.63604 -0.2083,-12.47223 2.29816,-4.6853 7.10331,-8.24966 12.93692,-8.34263 5.58059,0.089 7.44365,0.74896 11.72951,4.31897 7.63922,7.42078 3.83235,11.7281 6.67519,24.07549 2.52924,10.98511 -1.50129,18.07106 -3.36364,22.01249 -6.27256,9.08555 -11.99586,3.33829 -21.46665,9.88722 -2.02241,1.39847 -11.81081,1.82234 -13.76017,3.06005 -9.92025,12.41135 -14.67921,13.43063 -21.45768,13.01775 -5.37487,7.58326 -12.04748,7.29649 -9.04236,14.82947 8.96626,5.88458 19.80863,12.89833 20.73648,14.26882 1.64722,5.98751 -0.0917,7.82341 -0.83572,12.45105 -2.44008,2.20069 -6.02763,10.09985 -7.30538,16.5601 -1.49304,7.54927 -0.54341,13.79037 -1.73574,16.65973 -5.07916,7.80348 -12.22928,12.74515 -20.18802,16.84306 -8.8145,4.53841 -18.62115,8.04205 -27.70608,13.25236 -7.36196,0.96782 -14.71324,3.10053 -22.02505,5.52147 -14.23122,4.71218 -28.31305,10.51702 -42.03565,10.95401 -19.59025,0.90716 -32.66211,-13.8622 -32.79252,-15.06141 -0.88555,-9.62788 1.13055,-17.15649 4.23594,-23.9626 2.50507,-5.4911 5.42862,-10.63808 9.2482,-16.73936 -0.77434,-9.26291 7.75484,-14.69808 15.6005,-24.27871 6.42011,-7.83978 11.41824,-19.64242 18.55841,-28.65401 8.02651,-10.13059 16.51918,-27.95733 17.85225,-33.80334 0.25472,-3.7566 1.30398,-11.49012 -0.40193,-16.80687 -2.14434,-6.68306 -7.51317,-11.11042 -11.53442,-16.67618 -5.60265,-6.19087 -14.86497,-13.97399 -14.5837,-19.34829 0.5744,-8.83035 3.03119,-15.84359 10.2788,-17.8293 6.63211,-1.817 14.21289,1.39441 18.2379,8.69372 z"
   inkscape:connector-curvature="0"
   sodipodi:nodetypes="sssssssssccccccscccccccscsccccccsssccscccsccccscccccsccscscccsscsccsccc"
   inkscape:transform-center-x="-319.09709"
   inkscape:transform-center-y="235.61061" /></svg>