<?xml version="1.0" encoding="UTF-8" standalone="no"?>
<svg
   xmlns:dc="http://purl.org/dc/elements/1.1/"
   xmlns:cc="http://creativecommons.org/ns#"
   xmlns:rdf="http://www.w3.org/1999/02/22-rdf-syntax-ns#"
   xmlns:svg="http://www.w3.org/2000/svg"
   xmlns="http://www.w3.org/2000/svg"
   xmlns:sodipodi="http://sodipodi.sourceforge.net/DTD/sodipodi-0.dtd"
   xmlns:inkscape="http://www.inkscape.org/namespaces/inkscape"
   version="1.1"
   id="Layer_1"
   x="0px"
   y="0px"
   width="500"
   height="512"
   viewBox="0 0 500 512"
   enable-background="new 0 0 512 512"
   xml:space="preserve"
   inkscape:version="0.48.0 r9654"
   sodipodi:docname="alfphoenician-x10900.svg"><title
   id="title3743">Sinai 357</title><metadata
   id="metadata72"><rdf:RDF><cc:Work
       rdf:about=""><dc:format>image/svg+xml</dc:format><dc:type
         rdf:resource="http://purl.org/dc/dcmitype/StillImage" /><dc:title>Sinai 357</dc:title><dc:date>2017</dc:date><dc:creator><cc:Agent><dc:title>Celeste Claire Horner</dc:title></cc:Agent></dc:creator><dc:publisher><cc:Agent><dc:title>beitdina.net</dc:title></cc:Agent></dc:publisher></cc:Work></rdf:RDF></metadata><defs
   id="defs70" /><sodipodi:namedview
   pagecolor="#ffffff"
   bordercolor="#666666"
   borderopacity="1"
   objecttolerance="10"
   gridtolerance="10"
   guidetolerance="10"
   inkscape:pageopacity="0"
   inkscape:pageshadow="2"
   inkscape:window-width="1013"
   inkscape:window-height="710"
   id="namedview68"
   showgrid="false"
   inkscape:zoom="0.50976562"
   inkscape:cx="-218.10938"
   inkscape:cy="151.50466"
   inkscape:window-x="23"
   inkscape:window-y="23"
   inkscape:window-maximized="0"
   inkscape:current-layer="Layer_1" />
   
	<g
   id="Grid"
   transform="matrix(0.97015073,0,0,0.99804103,-0.014585,-0.00130874)">
		<rect
   x="0"
   stroke-miterlimit="10"
   width="512"
   height="512"
   id="rect4"
   y="0"
   style="fill:none;stroke:#a9ccdb;stroke-miterlimit:10" />
		<line
   stroke-miterlimit="10"
   x1="0"
   y1="32"
   x2="512"
   y2="32"
   id="line6"
   style="fill:none;stroke:#a9ccdb;stroke-miterlimit:10" />
		<line
   stroke-miterlimit="10"
   x1="0"
   y1="64"
   x2="512"
   y2="64"
   id="line8"
   style="fill:none;stroke:#a9ccdb;stroke-miterlimit:10" />
		<line
   stroke-miterlimit="10"
   x1="0"
   y1="96"
   x2="512"
   y2="96"
   id="line10"
   style="fill:none;stroke:#a9ccdb;stroke-miterlimit:10" />
		<line
   stroke-miterlimit="10"
   x1="0"
   y1="128"
   x2="512"
   y2="128"
   id="line12"
   style="fill:none;stroke:#a9ccdb;stroke-miterlimit:10" />
		<line
   stroke-miterlimit="10"
   x1="0"
   y1="160"
   x2="512"
   y2="160"
   id="line14"
   style="fill:none;stroke:#a9ccdb;stroke-miterlimit:10" />
		<line
   stroke-miterlimit="10"
   x1="0"
   y1="192"
   x2="512"
   y2="192"
   id="line16"
   style="fill:none;stroke:#a9ccdb;stroke-miterlimit:10" />
		<line
   stroke-miterlimit="10"
   x1="0"
   y1="224"
   x2="512"
   y2="224"
   id="line18"
   style="fill:none;stroke:#a9ccdb;stroke-miterlimit:10" />
		<line
   stroke-miterlimit="10"
   x1="0"
   y1="256"
   x2="512"
   y2="256"
   id="line20"
   style="fill:none;stroke:#a9ccdb;stroke-miterlimit:10" />
		<line
   stroke-miterlimit="10"
   x1="0"
   y1="288"
   x2="512"
   y2="288"
   id="line22"
   style="fill:none;stroke:#a9ccdb;stroke-miterlimit:10" />
		<line
   stroke-miterlimit="10"
   x1="0"
   y1="320"
   x2="512"
   y2="320"
   id="line24"
   style="fill:none;stroke:#a9ccdb;stroke-miterlimit:10" />
		<line
   stroke-miterlimit="10"
   x1="0"
   y1="352"
   x2="512"
   y2="352"
   id="line26"
   style="fill:none;stroke:#a9ccdb;stroke-miterlimit:10" />
		<line
   stroke-miterlimit="10"
   x1="0"
   y1="384"
   x2="512"
   y2="384"
   id="line28"
   style="fill:none;stroke:#a9ccdb;stroke-miterlimit:10" />
		<line
   stroke-miterlimit="10"
   x1="0"
   y1="416"
   x2="512"
   y2="416"
   id="line30"
   style="fill:none;stroke:#a9ccdb;stroke-miterlimit:10" />
		<line
   stroke-miterlimit="10"
   x1="0"
   y1="448"
   x2="512"
   y2="448"
   id="line32"
   style="fill:none;stroke:#ff0000;stroke-miterlimit:10" />
		<line
   stroke-miterlimit="10"
   x1="0"
   y1="480"
   x2="512"
   y2="480"
   id="line34"
   style="fill:none;stroke:#a9ccdb;stroke-miterlimit:10" />
		<line
   stroke-miterlimit="10"
   x1="32"
   y1="0"
   x2="32"
   y2="512"
   id="line36"
   style="fill:none;stroke:#a9ccdb;stroke-miterlimit:10" />
		<line
   stroke-miterlimit="10"
   x1="64"
   y1="0"
   x2="64"
   y2="512"
   id="line38"
   style="fill:none;stroke:#a9ccdb;stroke-miterlimit:10" />
		<line
   stroke-miterlimit="10"
   x1="96"
   y1="0"
   x2="96"
   y2="512"
   id="line40"
   style="fill:none;stroke:#a9ccdb;stroke-miterlimit:10" />
		<line
   stroke-miterlimit="10"
   x1="128"
   y1="0"
   x2="128"
   y2="512"
   id="line42"
   style="fill:none;stroke:#a9ccdb;stroke-miterlimit:10" />
		<line
   stroke-miterlimit="10"
   x1="160"
   y1="0"
   x2="160"
   y2="512"
   id="line44"
   style="fill:none;stroke:#a9ccdb;stroke-miterlimit:10" />
		<line
   stroke-miterlimit="10"
   x1="192"
   y1="0"
   x2="192"
   y2="512"
   id="line46"
   style="fill:none;stroke:#a9ccdb;stroke-miterlimit:10" />
		<line
   stroke-miterlimit="10"
   x1="224"
   y1="0"
   x2="224"
   y2="512"
   id="line48"
   style="fill:none;stroke:#a9ccdb;stroke-miterlimit:10" />
		<line
   stroke-miterlimit="10"
   x1="256"
   y1="0"
   x2="256"
   y2="512"
   id="line50"
   style="fill:none;stroke:#a9ccdb;stroke-miterlimit:10" />
		<line
   stroke-miterlimit="10"
   x1="288"
   y1="0"
   x2="288"
   y2="512"
   id="line52"
   style="fill:none;stroke:#a9ccdb;stroke-miterlimit:10" />
		<line
   stroke-miterlimit="10"
   x1="320"
   y1="0"
   x2="320"
   y2="512"
   id="line54"
   style="fill:none;stroke:#a9ccdb;stroke-miterlimit:10" />
		<line
   stroke-miterlimit="10"
   x1="352"
   y1="0"
   x2="352"
   y2="512"
   id="line56"
   style="fill:none;stroke:#a9ccdb;stroke-miterlimit:10" />
		<line
   stroke-miterlimit="10"
   x1="384"
   y1="0"
   x2="384"
   y2="512"
   id="line58"
   style="fill:none;stroke:#a9ccdb;stroke-miterlimit:10" />
		<line
   stroke-miterlimit="10"
   x1="416"
   y1="0"
   x2="416"
   y2="512"
   id="line60"
   style="fill:none;stroke:#a9ccdb;stroke-miterlimit:10" />
		<line
   stroke-miterlimit="10"
   x1="448"
   y1="0"
   x2="448"
   y2="512"
   id="line62"
   style="fill:none;stroke:#a9ccdb;stroke-miterlimit:10" />
		<line
   stroke-miterlimit="10"
   x1="480"
   y1="0"
   x2="480"
   y2="512"
   id="line64"
   style="fill:none;stroke:#a9ccdb;stroke-miterlimit:10" />
	</g>
	

<path
   id="path7051"
   d="m 163.58284,166.59563 c -1.19771,5.25062 -0.11014,10.18228 3.26247,14.79468 3.37255,4.61243 8.12785,7.52651 14.26557,8.74222 6.13823,1.21576 11.8605,0.37668 17.1663,-2.5166 5.30582,-2.89342 8.55758,-6.96556 9.75522,-12.21625 1.19763,-5.25028 0.003,-10.20287 -3.5797,-14.85723 -3.58408,-4.65435 -8.44546,-7.58949 -14.58368,-8.80526 -6.13774,-1.2157 -11.75392,-0.35615 -16.84811,2.57956 -5.09423,2.93548 -9.43807,12.27888 -9.43807,12.27888 z m -55.45568,1.1052 C 92.828007,154.46385 87.192115,144.45157 82.830669,127.20879 80.441372,118.68482 61.850453,92.039952 59.096064,79.517002 c 21.527532,-21.10908 21.551962,-22.8299 30.316214,-25.61335 11.026422,0.0132 28.747932,9.36033 43.370132,9.47737 23.35715,6.01114 43.00241,17.37637 64.28016,25.33863 14.84363,5.55728 31.02429,11.734698 43.12397,17.961988 15.98275,8.22579 19.93519,18.36822 21.81107,20.74735 3.11798,5.26076 5.21068,11.15186 5.92793,17.90689 1.70297,19.77738 13.44075,30.9146 15.32219,33.83318 3.52994,4.60307 -11.11448,9.57525 -12.08791,12.53871 -8.50472,23.85759 -15.16262,23.08874 -36.74591,25.1526 -7.97175,6.12102 -8.85729,14.8924 -10.09125,21.27589 -1.88254,5.84876 -0.69835,11.45758 0.39217,16.73866 1.61117,9.58829 -0.007,14.13618 -3.11935,15.37109 -3.42829,1.36003 -8.66947,-1.29918 -13.4048,-5.66954 -3.70188,-5.14656 -18.55609,-12.19728 -23.37664,-15.87082 -16.02611,-12.21385 -26.2191,-15.65615 -41.09279,-30.71272 -16.65471,-17.00352 -14.50967,-31.10825 -35.58456,-50.29024 z m 48.42034,236.69412 c 2.33074,-12.98779 9.76637,-30.49388 15.76951,-41.45801 6.26975,-11.45107 11.11054,-16.34505 13.36945,-29.359 -0.29697,-16.63308 -16.02003,-69.86632 -5.9364,-64.73808 7.8484,3.99147 9.56011,5.06518 17.22294,13.10126 4.78673,5.01989 21.44121,11.79784 30.51525,11.26401 9.48312,-0.55808 12.53988,-10.08275 15.39339,-11.20801 14.48819,-5.71303 -0.33534,-32.15072 7.06444,-25.60249 11.97317,11.13446 7.90441,30.00092 20.62524,32.57677 14.36622,3.18532 34.72077,3.76952 39.21839,8.30154 15.85963,15.98079 39.23397,9.30831 47.63972,19.24249 5.1371,8.79745 9.30993,11.26527 8.0419,17.03727 -1.72165,7.54786 -19.01025,13.39211 -22.07686,21.01653 -4.10184,7.31767 -3.74314,15.60796 -0.37297,22.54113 4.11493,8.46778 12.71869,14.90966 23.16394,15.07769 9.99221,-0.16085 13.32809,-1.35361 21.00203,-7.8057 13.67825,-13.41161 6.86193,-21.19626 11.95212,-43.51177 4.52868,-19.85346 -2.68809,-32.65992 -6.02268,-39.7833 -11.23123,-16.42037 -21.47895,-6.03332 -38.43667,-17.86922 -3.62119,-2.52747 -21.1476,-3.29354 -24.638,-5.53046 -17.76248,-22.4311 -26.28354,-24.27325 -38.42058,-23.52705 -9.62386,-13.70528 -21.57138,-13.18699 -16.19063,-26.80139 16.05437,-10.63524 35.46794,-23.31122 37.12929,-25.78812 2.94939,-10.82126 -0.1642,-14.1393 -1.49639,-22.50284 -4.36902,-3.97733 -10.79264,-18.25353 -13.08048,-29.92917 -2.67334,-13.64384 -0.97301,-24.92343 -3.1079,-30.10922 -9.0944,-14.10329 -21.89688,-23.034398 -36.14725,-30.440578 -15.7826,-8.20229 -33.34171,-14.53443 -49.60853,-23.95105 -13.18181,-1.74914 -26.34449,-5.60361 -39.4365,-9.97899 -25.48141,-8.51634 -50.69535,-19.00748 -75.266043,-19.79725 -35.076918,-1.63951 -58.482464,25.05323 -58.715965,27.22058 -1.585603,17.40052 2.024282,31.00703 7.584574,43.307748 4.4854,9.92408 9.720101,19.22626 16.55917,30.25313 -1.386478,16.74091 13.885269,26.56393 27.933149,43.87905 11.495393,14.16888 20.444705,35.49987 33.229375,51.78656 5.79029,7.37664 22.99576,12.59732 28.16405,22.16385 7.65958,14.17792 2.37569,32.62041 3.80092,38.92913 1.49947,6.63735 2.33482,20.76615 -0.71966,30.37515 -9.8905,25.61712 -40.24709,41.34584 -45.07122,64.41732 -2.15781,13.9911 4.24687,29.21561 16.71044,32.9129 11.87499,3.28388 25.44859,-2.52012 32.6555,-15.71221 z" />
</svg>