<?xml version="1.0" encoding="UTF-8" standalone="no"?>
<svg
   xmlns:dc="http://purl.org/dc/elements/1.1/"
   xmlns:cc="http://creativecommons.org/ns#"
   xmlns:rdf="http://www.w3.org/1999/02/22-rdf-syntax-ns#"
   xmlns:svg="http://www.w3.org/2000/svg"
   xmlns="http://www.w3.org/2000/svg"
   xmlns:sodipodi="http://sodipodi.sourceforge.net/DTD/sodipodi-0.dtd"
   xmlns:inkscape="http://www.inkscape.org/namespaces/inkscape"
   version="1.1"
   id="Layer_1"
   x="0px"
   y="0px"
   width="321px"
   height="512px"
   viewBox="0 0 321 512"
   enable-background="new 0 0 512 512"
   xml:space="preserve"
   inkscape:version="0.48.0 r9654"
   sodipodi:docname="shenphoenician-x10914.svg"><title
   id="title3743">Sinai 357</title><metadata
   id="metadata72"><rdf:RDF><cc:Work
       rdf:about=""><dc:format>image/svg+xml</dc:format><dc:type
         rdf:resource="http://purl.org/dc/dcmitype/StillImage" /><dc:title>Sinai 357</dc:title><dc:date>2017</dc:date><dc:creator><cc:Agent><dc:title>Celeste Claire Horner</dc:title></cc:Agent></dc:creator><dc:publisher><cc:Agent><dc:title>beitdina.net</dc:title></cc:Agent></dc:publisher></cc:Work></rdf:RDF></metadata><defs
   id="defs70" /><sodipodi:namedview
   pagecolor="#ffffff"
   bordercolor="#666666"
   borderopacity="1"
   objecttolerance="10"
   gridtolerance="10"
   guidetolerance="10"
   inkscape:pageopacity="0"
   inkscape:pageshadow="2"
   inkscape:window-width="675"
   inkscape:window-height="455"
   id="namedview68"
   showgrid="false"
   inkscape:zoom="0.36045873"
   inkscape:cx="-207.37677"
   inkscape:cy="242.04266"
   inkscape:window-x="223"
   inkscape:window-y="117"
   inkscape:window-maximized="0"
   inkscape:current-layer="Layer_1" />
   
	<g
   id="Grid">
		<rect
   x="0"
   fill="none"
   stroke="#A9CCDB"
   stroke-miterlimit="10"
   width="512"
   height="512"
   id="rect4" />
		<line
   fill="none"
   stroke="#A9CCDB"
   stroke-miterlimit="10"
   x1="0"
   y1="32"
   x2="512"
   y2="32"
   id="line6" />
		<line
   fill="none"
   stroke="#A9CCDB"
   stroke-miterlimit="10"
   x1="0"
   y1="64"
   x2="512"
   y2="64"
   id="line8" />
		<line
   fill="none"
   stroke="#A9CCDB"
   stroke-miterlimit="10"
   x1="0"
   y1="96"
   x2="512"
   y2="96"
   id="line10" />
		<line
   fill="none"
   stroke="#A9CCDB"
   stroke-miterlimit="10"
   x1="0"
   y1="128"
   x2="512"
   y2="128"
   id="line12" />
		<line
   fill="none"
   stroke="#A9CCDB"
   stroke-miterlimit="10"
   x1="0"
   y1="160"
   x2="512"
   y2="160"
   id="line14" />
		<line
   fill="none"
   stroke="#A9CCDB"
   stroke-miterlimit="10"
   x1="0"
   y1="192"
   x2="512"
   y2="192"
   id="line16" />
		<line
   fill="none"
   stroke="#A9CCDB"
   stroke-miterlimit="10"
   x1="0"
   y1="224"
   x2="512"
   y2="224"
   id="line18" />
		<line
   fill="none"
   stroke="#A9CCDB"
   stroke-miterlimit="10"
   x1="0"
   y1="256"
   x2="512"
   y2="256"
   id="line20" />
		<line
   fill="none"
   stroke="#A9CCDB"
   stroke-miterlimit="10"
   x1="0"
   y1="288"
   x2="512"
   y2="288"
   id="line22" />
		<line
   fill="none"
   stroke="#A9CCDB"
   stroke-miterlimit="10"
   x1="0"
   y1="320"
   x2="512"
   y2="320"
   id="line24" />
		<line
   fill="none"
   stroke="#A9CCDB"
   stroke-miterlimit="10"
   x1="0"
   y1="352"
   x2="512"
   y2="352"
   id="line26" />
		<line
   fill="none"
   stroke="#A9CCDB"
   stroke-miterlimit="10"
   x1="0"
   y1="384"
   x2="512"
   y2="384"
   id="line28" />
		<line
   fill="none"
   stroke="#A9CCDB"
   stroke-miterlimit="10"
   x1="0"
   y1="416"
   x2="512"
   y2="416"
   id="line30" />
		<line
   fill="none"
   stroke="#FF0000"
   stroke-miterlimit="10"
   x1="0"
   y1="448"
   x2="512"
   y2="448"
   id="line32" />
		<line
   fill="none"
   stroke="#A9CCDB"
   stroke-miterlimit="10"
   x1="0"
   y1="480"
   x2="512"
   y2="480"
   id="line34" />
		<line
   fill="none"
   stroke="#A9CCDB"
   stroke-miterlimit="10"
   x1="32"
   y1="0"
   x2="32"
   y2="512"
   id="line36" />
		<line
   fill="none"
   stroke="#A9CCDB"
   stroke-miterlimit="10"
   x1="64"
   y1="0"
   x2="64"
   y2="512"
   id="line38" />
		<line
   fill="none"
   stroke="#A9CCDB"
   stroke-miterlimit="10"
   x1="96"
   y1="0"
   x2="96"
   y2="512"
   id="line40" />
		<line
   fill="none"
   stroke="#A9CCDB"
   stroke-miterlimit="10"
   x1="128"
   y1="0"
   x2="128"
   y2="512"
   id="line42" />
		<line
   fill="none"
   stroke="#A9CCDB"
   stroke-miterlimit="10"
   x1="160"
   y1="0"
   x2="160"
   y2="512"
   id="line44" />
		<line
   fill="none"
   stroke="#A9CCDB"
   stroke-miterlimit="10"
   x1="192"
   y1="0"
   x2="192"
   y2="512"
   id="line46" />
		<line
   fill="none"
   stroke="#A9CCDB"
   stroke-miterlimit="10"
   x1="224"
   y1="0"
   x2="224"
   y2="512"
   id="line48" />
		<line
   fill="none"
   stroke="#A9CCDB"
   stroke-miterlimit="10"
   x1="256"
   y1="0"
   x2="256"
   y2="512"
   id="line50" />
		<line
   fill="none"
   stroke="#A9CCDB"
   stroke-miterlimit="10"
   x1="288"
   y1="0"
   x2="288"
   y2="512"
   id="line52" />
		<line
   fill="none"
   stroke="#A9CCDB"
   stroke-miterlimit="10"
   x1="320"
   y1="0"
   x2="320"
   y2="512"
   id="line54" />
		<line
   fill="none"
   stroke="#A9CCDB"
   stroke-miterlimit="10"
   x1="352"
   y1="0"
   x2="352"
   y2="512"
   id="line56" />
		<line
   fill="none"
   stroke="#A9CCDB"
   stroke-miterlimit="10"
   x1="384"
   y1="0"
   x2="384"
   y2="512"
   id="line58" />
		<line
   fill="none"
   stroke="#A9CCDB"
   stroke-miterlimit="10"
   x1="416"
   y1="0"
   x2="416"
   y2="512"
   id="line60" />
		<line
   fill="none"
   stroke="#A9CCDB"
   stroke-miterlimit="10"
   x1="448"
   y1="0"
   x2="448"
   y2="512"
   id="line62" />
		<line
   fill="none"
   stroke="#A9CCDB"
   stroke-miterlimit="10"
   x1="480"
   y1="0"
   x2="480"
   y2="512"
   id="line64" />
	</g>
	

<path
   sodipodi:nodetypes="csccscccscscscccscscsscccccssscsccccscc"
   id="path6798"
   d="m 85.52091,211.7583 c 2.870126,8.87062 2.763196,15.0547 0.941574,19.7203 -5.534794,14.17565 -26.898794,14.33287 -28.682386,33.23359 0,7.48887 1.891593,16.01785 5.674737,25.58699 7.566117,11.64938 15.032764,17.47404 22.399941,17.47404 8.362606,0 16.625644,-7.17682 24.789134,-21.53047 9.15913,-20.38641 24.98843,-30.5796 47.48797,-30.5796 21.50381,3.12039 37.13395,13.31358 46.89037,30.5796 12.54401,14.97773 22.40002,22.4666 29.56805,22.4666 7.16794,0 13.63899,-5.92869 19.41324,-17.78608 2.78746,-8.94506 4.18119,-17.26607 4.18119,-24.96295 0,-19.3463 -10.35366,-33.80398 -31.06104,-43.37307 -0.19936,-1.45619 -0.29883,-3.27639 -0.29883,-5.46066 0,-2.18426 0.19894,-4.05647 0.59746,-5.61664 0.3983,-1.56022 1.2444,-3.01637 2.53857,-4.36853 1.29426,-1.35216 2.24008,-2.28829 2.83737,-2.8083 0.59729,-0.5201 2.04084,-1.30019 4.33061,-2.3403 2.28977,-1.04012 3.53422,-1.66421 3.73328,-1.87222 29.26935,10.40125 43.90402,30.5796 43.90402,60.53511 0,13.72961 -2.98666,29.7475 -8.95998,48.05364 -5.97336,10.40125 -11.64801,18.41017 -17.02395,24.02682 -5.37608,5.61665 -11.74762,8.425 -19.11466,8.425 -14.7341,0 -26.28252,-5.30461 -34.64529,-15.91387 -0.59729,-1.04011 -2.19017,-3.64045 -4.7787,-7.80095 -2.58831,-4.16042 -4.33048,-6.81272 -5.22648,-7.95691 -0.896,-1.14415 -2.63826,-3.32841 -5.22674,-6.55278 -2.58835,-3.22438 -4.8283,-5.40864 -6.71989,-6.55279 -1.8916,-1.14409 -4.4303,-2.54827 -7.61603,-4.21247 -3.18577,-1.66416 -6.57065,-2.8083 -10.15459,-3.43239 -3.58395,-0.62404 -7.56621,-0.93609 -11.94668,-0.93609 -6.76972,0 -12.24526,1.50816 -16.42663,4.52452 -4.18123,3.01637 -8.41233,8.06094 -12.6933,15.13374 -4.28092,7.07288 -7.41686,11.75345 -9.40793,14.04169 -12.94219,12.8975 -24.590111,19.45028 -34.943775,19.6583 -14.335963,0 -27.477305,-11.64938 -39.424026,-34.94812 -5.97336,-15.39381 -8.960019,-29.64347 -8.960019,-42.74899 4.580487,-31.21082 7.536061,-55.80094 28.326354,-59.82599 4.252623,-0.82333 9.251439,-0.78618 15.162974,0.23076 8.209496,1.85909 6.285918,5.10443 10.534082,7.88951 z"
   inkscape:connector-curvature="0" /></svg>