<?xml version="1.0" encoding="UTF-8" standalone="no"?>
<svg
   xmlns:dc="http://purl.org/dc/elements/1.1/"
   xmlns:cc="http://creativecommons.org/ns#"
   xmlns:rdf="http://www.w3.org/1999/02/22-rdf-syntax-ns#"
   xmlns:svg="http://www.w3.org/2000/svg"
   xmlns="http://www.w3.org/2000/svg"
   xmlns:sodipodi="http://sodipodi.sourceforge.net/DTD/sodipodi-0.dtd"
   xmlns:inkscape="http://www.inkscape.org/namespaces/inkscape"
   version="1.1"
   id="Layer_1"
   x="0px"
   y="0px"
   width="500"
   height="512"
   viewBox="0 0 500 512"
   enable-background="new 0 0 512 512"
   xml:space="preserve"
   inkscape:version="0.48.0 r9654"
   sodipodi:docname="dalhebrew-x5d3.svg"><title
   id="title3743">Sinai 357</title><metadata
   id="metadata72"><rdf:RDF><cc:Work
       rdf:about=""><dc:format>image/svg+xml</dc:format><dc:type
         rdf:resource="http://purl.org/dc/dcmitype/StillImage" /><dc:title>Sinai 357</dc:title><dc:date>2017</dc:date><dc:creator><cc:Agent><dc:title>Celeste Claire Horner</dc:title></cc:Agent></dc:creator><dc:publisher><cc:Agent><dc:title>beitdina.net</dc:title></cc:Agent></dc:publisher></cc:Work></rdf:RDF></metadata><defs
   id="defs70" /><sodipodi:namedview
   pagecolor="#ffffff"
   bordercolor="#666666"
   borderopacity="1"
   objecttolerance="10"
   gridtolerance="10"
   guidetolerance="10"
   inkscape:pageopacity="0"
   inkscape:pageshadow="2"
   inkscape:window-width="1152"
   inkscape:window-height="814"
   id="namedview68"
   showgrid="false"
   inkscape:zoom="0.18022937"
   inkscape:cx="165.44494"
   inkscape:cy="604.28429"
   inkscape:window-x="-8"
   inkscape:window-y="-8"
   inkscape:window-maximized="1"
   inkscape:current-layer="Layer_1" />
   
	<g
   id="Grid"
   transform="matrix(1.951787,0,0,1.9463791,0.47589348,0.47318954)">
		<rect
   x="0"
   stroke-miterlimit="10"
   width="512"
   height="512"
   id="rect4"
   y="0"
   style="fill:none;stroke:#a9ccdb;stroke-miterlimit:10" />
		<line
   stroke-miterlimit="10"
   x1="0"
   y1="32"
   x2="512"
   y2="32"
   id="line6"
   style="fill:none;stroke:#a9ccdb;stroke-miterlimit:10" />
		<line
   stroke-miterlimit="10"
   x1="0"
   y1="64"
   x2="512"
   y2="64"
   id="line8"
   style="fill:none;stroke:#a9ccdb;stroke-miterlimit:10" />
		<line
   stroke-miterlimit="10"
   x1="0"
   y1="96"
   x2="512"
   y2="96"
   id="line10"
   style="fill:none;stroke:#a9ccdb;stroke-miterlimit:10" />
		<line
   stroke-miterlimit="10"
   x1="0"
   y1="128"
   x2="512"
   y2="128"
   id="line12"
   style="fill:none;stroke:#a9ccdb;stroke-miterlimit:10" />
		<line
   stroke-miterlimit="10"
   x1="0"
   y1="160"
   x2="512"
   y2="160"
   id="line14"
   style="fill:none;stroke:#a9ccdb;stroke-miterlimit:10" />
		<line
   stroke-miterlimit="10"
   x1="0"
   y1="192"
   x2="512"
   y2="192"
   id="line16"
   style="fill:none;stroke:#a9ccdb;stroke-miterlimit:10" />
		<line
   stroke-miterlimit="10"
   x1="0"
   y1="224"
   x2="512"
   y2="224"
   id="line18"
   style="fill:none;stroke:#a9ccdb;stroke-miterlimit:10" />
		<line
   stroke-miterlimit="10"
   x1="0"
   y1="256"
   x2="512"
   y2="256"
   id="line20"
   style="fill:none;stroke:#a9ccdb;stroke-miterlimit:10" />
		<line
   stroke-miterlimit="10"
   x1="0"
   y1="288"
   x2="512"
   y2="288"
   id="line22"
   style="fill:none;stroke:#a9ccdb;stroke-miterlimit:10" />
		<line
   stroke-miterlimit="10"
   x1="0"
   y1="320"
   x2="512"
   y2="320"
   id="line24"
   style="fill:none;stroke:#a9ccdb;stroke-miterlimit:10" />
		<line
   stroke-miterlimit="10"
   x1="0"
   y1="352"
   x2="512"
   y2="352"
   id="line26"
   style="fill:none;stroke:#a9ccdb;stroke-miterlimit:10" />
		<line
   stroke-miterlimit="10"
   x1="0"
   y1="384"
   x2="512"
   y2="384"
   id="line28"
   style="fill:none;stroke:#a9ccdb;stroke-miterlimit:10" />
		<line
   stroke-miterlimit="10"
   x1="0"
   y1="416"
   x2="512"
   y2="416"
   id="line30"
   style="fill:none;stroke:#a9ccdb;stroke-miterlimit:10" />
		<line
   stroke-miterlimit="10"
   x1="0"
   y1="448"
   x2="512"
   y2="448"
   id="line32"
   style="fill:none;stroke:#ff0000;stroke-miterlimit:10" />
		<line
   stroke-miterlimit="10"
   x1="0"
   y1="480"
   x2="512"
   y2="480"
   id="line34"
   style="fill:none;stroke:#a9ccdb;stroke-miterlimit:10" />
		<line
   stroke-miterlimit="10"
   x1="32"
   y1="0"
   x2="32"
   y2="512"
   id="line36"
   style="fill:none;stroke:#a9ccdb;stroke-miterlimit:10" />
		<line
   stroke-miterlimit="10"
   x1="64"
   y1="0"
   x2="64"
   y2="512"
   id="line38"
   style="fill:none;stroke:#a9ccdb;stroke-miterlimit:10" />
		<line
   stroke-miterlimit="10"
   x1="96"
   y1="0"
   x2="96"
   y2="512"
   id="line40"
   style="fill:none;stroke:#a9ccdb;stroke-miterlimit:10" />
		<line
   stroke-miterlimit="10"
   x1="128"
   y1="0"
   x2="128"
   y2="512"
   id="line42"
   style="fill:none;stroke:#a9ccdb;stroke-miterlimit:10" />
		<line
   stroke-miterlimit="10"
   x1="160"
   y1="0"
   x2="160"
   y2="512"
   id="line44"
   style="fill:none;stroke:#a9ccdb;stroke-miterlimit:10" />
		<line
   stroke-miterlimit="10"
   x1="192"
   y1="0"
   x2="192"
   y2="512"
   id="line46"
   style="fill:none;stroke:#a9ccdb;stroke-miterlimit:10" />
		<line
   stroke-miterlimit="10"
   x1="224"
   y1="0"
   x2="224"
   y2="512"
   id="line48"
   style="fill:none;stroke:#a9ccdb;stroke-miterlimit:10" />
		<line
   stroke-miterlimit="10"
   x1="256"
   y1="0"
   x2="256"
   y2="512"
   id="line50"
   style="fill:none;stroke:#a9ccdb;stroke-miterlimit:10" />
		<line
   stroke-miterlimit="10"
   x1="288"
   y1="0"
   x2="288"
   y2="512"
   id="line52"
   style="fill:none;stroke:#a9ccdb;stroke-miterlimit:10" />
		<line
   stroke-miterlimit="10"
   x1="320"
   y1="0"
   x2="320"
   y2="512"
   id="line54"
   style="fill:none;stroke:#a9ccdb;stroke-miterlimit:10" />
		<line
   stroke-miterlimit="10"
   x1="352"
   y1="0"
   x2="352"
   y2="512"
   id="line56"
   style="fill:none;stroke:#a9ccdb;stroke-miterlimit:10" />
		<line
   stroke-miterlimit="10"
   x1="384"
   y1="0"
   x2="384"
   y2="512"
   id="line58"
   style="fill:none;stroke:#a9ccdb;stroke-miterlimit:10" />
		<line
   stroke-miterlimit="10"
   x1="416"
   y1="0"
   x2="416"
   y2="512"
   id="line60"
   style="fill:none;stroke:#a9ccdb;stroke-miterlimit:10" />
		<line
   stroke-miterlimit="10"
   x1="448"
   y1="0"
   x2="448"
   y2="512"
   id="line62"
   style="fill:none;stroke:#a9ccdb;stroke-miterlimit:10" />
		<line
   stroke-miterlimit="10"
   x1="480"
   y1="0"
   x2="480"
   y2="512"
   id="line64"
   style="fill:none;stroke:#a9ccdb;stroke-miterlimit:10" />
	</g>
	<path
   id="path4923"
   d="m 287.56071,557.74624 c -4.10867,10.70354 -6.06502,22.29894 -11.74749,36.7582 -5.58905,15.33078 -20.96135,24.72066 -25.21404,44.25833 -4.6887,11.05818 -8.40633,23.66066 -9.79996,36.68058 -2.06706,19.28869 0.95155,39.48544 13.4024,56.90068 6.72868,8.65173 72.2496,68.81046 83.28414,73.78445 11.42122,5.0045 53.7173,25.31506 67.02867,21.9189 16.30628,-7.95534 14.80197,-2.26665 22.89274,-9.23642 8.3081,-7.15604 13.1927,-16.66843 15.30758,-19.54622 3.99688,-3.38205 16.34882,-20.54973 17.74582,-24.24413 4.54421,-7.24661 26.57065,-34.69231 19.58474,-52.09351 -5.47851,-13.64814 -8.57073,-12.76338 -18.94404,-27.82275 -7.20051,-10.45325 -27.49831,-28.97415 -42.14306,-41.29624 -21.08678,-17.74267 -47.73359,-37.05196 -48.43063,-37.9062 -13.11193,-9.60141 -27.07483,-20.94401 -40.36707,-27.74698 -21.91279,-17.46021 -20.9129,-16.31308 -42.60066,-30.40908 z m 222.99971,147.45619 c 6.58018,-8.33619 17.87066,-27.9082 22.28052,-34.31637 9.06012,-13.16707 2.63876,-25.75751 8.83627,-47.29494 -4.96665,-15.38906 -11.9095,-43.0956 -12.5107,-52.40259 -1.07576,-16.65049 1.19363,-20.94115 1.12596,-33.42713 -0.0708,-13.40548 7.04422,-20.82818 12.11154,-35.00077 2.23213,-6.25521 -2.78907,-30.04367 0.38129,-37.28443 4.01585,-9.16803 29.95978,-27.88331 32.28562,-33.94232 11.83055,-34.24119 8.54026,-39.84588 18.98707,-60.17078 8.16338,-15.8821 11.83369,-34.8386 37.69789,-52.76535 15.93441,-11.52313 13.31756,-45.62985 32.04617,-56.5017 21.85163,-12.68464 43.69974,-7.71275 45.68037,-11.0117 2.21022,-4.38141 18.67668,-4.80998 17.74136,-10.82697 -4.62078,-4.47014 -8.72609,-7.31833 -13.41838,-11.09309 -5.01418,-4.03455 -10.58337,-9.01503 -14.45243,-14.56544 -6.29538,-8.87756 -6.65412,-16.64156 5.91386,-19.9975 5.40547,-1.17187 17.76722,5.52543 22.43042,8.01589 13.3326,7.11899 26.89085,16.20168 31.77829,13.71202 4.78899,-19.61864 2.51846,-28.5379 -3.06499,-38.33431 -12.33787,-12.01697 -25.7045,-22.75772 -40.22705,-32.32609 -11.49071,-5.1345 -42.63908,-22.56306 -65.82098,-33.16067 -18.92988,-8.65424 -29.82121,-17.467114 -36.76857,-13.330154 -2.30351,4.624684 -4.38788,9.476554 -6.31509,14.359464 -2.19626,5.44634 -4.1043,10.96719 -5.94674,16.23494 -2.24977,6.46647 -4.39937,12.83712 -7.2335,18.8216 1.36184,3.39731 19.87655,5.5606 34.84563,11.22668 7.46898,4.09724 19.31983,9.14685 25.18066,14.80195 4.4312,4.27583 5.43949,8.89685 -1.45632,13.71434 -1.68837,4.39827 -14.62788,3.82811 -28.58345,0.20938 -12.57155,-3.26046 -67.10816,-34.09063 -71.77499,-28.40464 -7.98169,9.7218 -7.85891,12.4739 -13.87132,27.37424 -3.20959,7.94839 -43.59868,21.82943 -47.09407,32.07759 -5.10526,14.97889 53.80654,65.52472 47.3887,74.80873 -10.85355,15.70042 -11.1244,9.07267 -20.38699,15.10677 -4.75637,3.09835 -21.45599,15.49943 -46.9537,28.29031 -23.3604,10.95292 -40.89922,21.02634 -63.43555,31.65212 -6.08762,2.63201 -11.70044,6.04248 -16.87693,9.94855 -13.14905,9.92375 -23.48246,23.04386 -31.63169,34.71894 -8.35624,12.13992 -12.13328,20.06344 -19.48182,32.38342 -15.38437,25.85178 -27.44076,56.23306 -42.36745,82.50008 10.44993,8.61673 24.70156,15.87671 34.37315,24.08772 8.69896,10.04559 19.08809,18.69402 29.62737,26.78332 12.01501,9.2217 24.22474,17.71616 34.34514,26.72324 6.29826,5.99362 26.34653,22.13675 34.35393,30.16036 8.52261,8.28087 18.28544,14.7127 27.9825,20.89191 11.72328,7.47127 23.35089,14.57249 32.57439,24.12688 3.41901,4.50145 5.15613,9.77271 5.42178,17.52866 2.74964,4.04301 3.38563,5.93428 14.28351,5.90504 z m 53.24548,-77.01671 c -9.12875,15.2013 -4.49,36.94431 -11.52872,55.08254 -1.89811,4.94483 -25.79527,29.14075 -27.52866,32.97645 -6.37199,14.09464 -2.95368,18.32543 -14.08246,32.32311 -6.25297,7.74244 -11.11167,14.75971 -15.7183,22.02289 -4.34208,6.84434 -8.46051,13.90641 -13.3115,21.99914 -3.64931,10.55262 -9.96798,18.90121 -17.04066,26.29631 -4.99397,4.31124 -10.68961,10.86343 -16.98703,16.47824 -7.81251,6.96633 -16.55013,12.48862 -26.02029,10.49697 -25.62754,10.84155 -72.43932,-13.60158 -89.85456,-20.44859 -19.03354,-8.59073 -87.34713,-73.61345 -96.29483,-86.88932 -13.59802,-21.02489 -18.2431,-41.90364 -17.99784,-62.50503 4.35638,-29.29335 11.31611,-42.04263 22.20971,-67.99351 3.42764,-8.15862 11.04924,-13.58974 15.3142,-25.34993 3.77444,-10.41065 4.2808,-27.25484 6.25269,-33.73506 5.11291,-8.35658 9.54799,-24.8454 14.23306,-33.73665 12.66123,-22.42192 28.56373,-58.8861 40.36181,-79.97582 7.57002,-13.52977 16.5742,-24.26657 24.79703,-36.84362 10.3796,-15.57747 28.42646,-23.40998 40.90615,-37.58773 3.05049,-3.46531 4.01565,-7.57354 7.26366,-10.57638 3.89078,-23.54953 -16.45706,-66.81595 -11.22334,-88.98093 3.42201,-14.49394 24.89591,-18.59465 44.97979,-2.94345 12.4149,11.75024 2.75516,50.48251 11.91363,60.33576 11.47949,12.34824 36.02084,-12.39724 42.3791,-12.16437 8.11272,-4.36228 22.65387,-10.68402 29.42135,-16.57662 19.7818,-17.98383 -49.44553,-55.58522 -42.24353,-78.42107 4.51173,-14.3135 50.6043,-18.92833 54.22372,-32.98988 2.90142,-10.00843 4.98875,-3.13054 16.46463,-44.07551 7.52838,-26.85423 28.00085,10.11966 30.06713,4.95158 2.20492,-7.25809 4.14076,-14.51702 6.06353,-21.66198 2.48975,-9.25255 4.95747,-18.315324 7.96616,-26.935234 4.17475,-11.42604 11.719,-20.17345 19.87082,-22.43003 16.79206,-3.60546 41.4723,7.22595 64.09671,17.83608 24.21759,11.38704 45.20668,22.012764 66.66137,35.026134 16.3497,10.34115 37.04558,20.96817 48.92437,34.97116 8.61546,10.15575 10.15468,22.94812 13.81395,34.54203 1.65686,8.50014 1.11748,16.60527 -0.53313,24.28553 -1.76491,8.20658 -4.79982,15.92831 -7.78149,23.12866 -8.31966,12.47959 -25.23951,23.25847 -35.19709,26.85823 -19.5985,6.4488 -58.3346,0.752 -71.74786,12.70994 -11.80641,11.20742 -15.99942,46.89083 -34.47531,61.16175 -26.00316,20.08371 -26.93705,37.15235 -27.88392,39.28884 -2.60474,5.87709 -8.21451,40.32671 -19.9449,64.23786 -1.6877,3.07533 -33.56879,19.57446 -31.09332,30.38217 1.8929,8.26785 3.45033,11.47757 4.7261,22.77075 -3.45158,6.54177 -21.13237,22.0474 -20.56552,41.93106 0.41058,14.40337 2.2378,23.04041 6.66773,36.49966 -3.16252,30.07036 -0.98932,27.49161 9.47406,54.22715 z"
   inkscape:connector-curvature="0"
   sodipodi:nodetypes="cccscccsccsssccccscscsscscccsccscccscscccscssssssccscccccsccscccccscsccscccccssccscscsccscscsccccscscccccsssscscc" /></svg>