<?xml version="1.0" encoding="UTF-8" standalone="no"?>
<svg
   xmlns:dc="http://purl.org/dc/elements/1.1/"
   xmlns:cc="http://creativecommons.org/ns#"
   xmlns:rdf="http://www.w3.org/1999/02/22-rdf-syntax-ns#"
   xmlns:svg="http://www.w3.org/2000/svg"
   xmlns="http://www.w3.org/2000/svg"
   xmlns:sodipodi="http://sodipodi.sourceforge.net/DTD/sodipodi-0.dtd"
   xmlns:inkscape="http://www.inkscape.org/namespaces/inkscape"
   version="1.1"
   id="Layer_1"
   x="0px"
   y="0px"
   width="1000"
   height="1000"
   viewBox="0 0 1000 1000"
   enable-background="new 0 0 512 512"
   xml:space="preserve"
   inkscape:version="0.48.0 r9654"
   sodipodi:docname="dalhebrew-x5d0.svg"><title
   id="title3743">Sinai 357</title><metadata
   id="metadata72"><rdf:RDF><cc:Work
       rdf:about=""><dc:format>image/svg+xml</dc:format><dc:type
         rdf:resource="http://purl.org/dc/dcmitype/StillImage" /><dc:title>Sinai 357</dc:title><dc:date>2017</dc:date><dc:creator><cc:Agent><dc:title>Celeste Claire Horner</dc:title></cc:Agent></dc:creator><dc:publisher><cc:Agent><dc:title>beitdina.net</dc:title></cc:Agent></dc:publisher></cc:Work></rdf:RDF></metadata><defs
   id="defs70" /><sodipodi:namedview
   pagecolor="#ffffff"
   bordercolor="#666666"
   borderopacity="1"
   objecttolerance="10"
   gridtolerance="10"
   guidetolerance="10"
   inkscape:pageopacity="0"
   inkscape:pageshadow="2"
   inkscape:window-width="1152"
   inkscape:window-height="814"
   id="namedview68"
   showgrid="false"
   inkscape:zoom="0.36045873"
   inkscape:cx="1.1499365"
   inkscape:cy="242.04266"
   inkscape:window-x="-8"
   inkscape:window-y="-8"
   inkscape:window-maximized="1"
   inkscape:current-layer="Layer_1" />
   
	<g
   id="Grid"
   transform="matrix(1.951787,0,0,1.9463791,0.47589348,0.47318954)">
		<rect
   x="0"
   stroke-miterlimit="10"
   width="512"
   height="512"
   id="rect4"
   y="0"
   style="fill:none;stroke:#a9ccdb;stroke-miterlimit:10" />
		<line
   stroke-miterlimit="10"
   x1="0"
   y1="32"
   x2="512"
   y2="32"
   id="line6"
   style="fill:none;stroke:#a9ccdb;stroke-miterlimit:10" />
		<line
   stroke-miterlimit="10"
   x1="0"
   y1="64"
   x2="512"
   y2="64"
   id="line8"
   style="fill:none;stroke:#a9ccdb;stroke-miterlimit:10" />
		<line
   stroke-miterlimit="10"
   x1="0"
   y1="96"
   x2="512"
   y2="96"
   id="line10"
   style="fill:none;stroke:#a9ccdb;stroke-miterlimit:10" />
		<line
   stroke-miterlimit="10"
   x1="0"
   y1="128"
   x2="512"
   y2="128"
   id="line12"
   style="fill:none;stroke:#a9ccdb;stroke-miterlimit:10" />
		<line
   stroke-miterlimit="10"
   x1="0"
   y1="160"
   x2="512"
   y2="160"
   id="line14"
   style="fill:none;stroke:#a9ccdb;stroke-miterlimit:10" />
		<line
   stroke-miterlimit="10"
   x1="0"
   y1="192"
   x2="512"
   y2="192"
   id="line16"
   style="fill:none;stroke:#a9ccdb;stroke-miterlimit:10" />
		<line
   stroke-miterlimit="10"
   x1="0"
   y1="224"
   x2="512"
   y2="224"
   id="line18"
   style="fill:none;stroke:#a9ccdb;stroke-miterlimit:10" />
		<line
   stroke-miterlimit="10"
   x1="0"
   y1="256"
   x2="512"
   y2="256"
   id="line20"
   style="fill:none;stroke:#a9ccdb;stroke-miterlimit:10" />
		<line
   stroke-miterlimit="10"
   x1="0"
   y1="288"
   x2="512"
   y2="288"
   id="line22"
   style="fill:none;stroke:#a9ccdb;stroke-miterlimit:10" />
		<line
   stroke-miterlimit="10"
   x1="0"
   y1="320"
   x2="512"
   y2="320"
   id="line24"
   style="fill:none;stroke:#a9ccdb;stroke-miterlimit:10" />
		<line
   stroke-miterlimit="10"
   x1="0"
   y1="352"
   x2="512"
   y2="352"
   id="line26"
   style="fill:none;stroke:#a9ccdb;stroke-miterlimit:10" />
		<line
   stroke-miterlimit="10"
   x1="0"
   y1="384"
   x2="512"
   y2="384"
   id="line28"
   style="fill:none;stroke:#a9ccdb;stroke-miterlimit:10" />
		<line
   stroke-miterlimit="10"
   x1="0"
   y1="416"
   x2="512"
   y2="416"
   id="line30"
   style="fill:none;stroke:#a9ccdb;stroke-miterlimit:10" />
		<line
   stroke-miterlimit="10"
   x1="0"
   y1="448"
   x2="512"
   y2="448"
   id="line32"
   style="fill:none;stroke:#ff0000;stroke-miterlimit:10" />
		<line
   stroke-miterlimit="10"
   x1="0"
   y1="480"
   x2="512"
   y2="480"
   id="line34"
   style="fill:none;stroke:#a9ccdb;stroke-miterlimit:10" />
		<line
   stroke-miterlimit="10"
   x1="32"
   y1="0"
   x2="32"
   y2="512"
   id="line36"
   style="fill:none;stroke:#a9ccdb;stroke-miterlimit:10" />
		<line
   stroke-miterlimit="10"
   x1="64"
   y1="0"
   x2="64"
   y2="512"
   id="line38"
   style="fill:none;stroke:#a9ccdb;stroke-miterlimit:10" />
		<line
   stroke-miterlimit="10"
   x1="96"
   y1="0"
   x2="96"
   y2="512"
   id="line40"
   style="fill:none;stroke:#a9ccdb;stroke-miterlimit:10" />
		<line
   stroke-miterlimit="10"
   x1="128"
   y1="0"
   x2="128"
   y2="512"
   id="line42"
   style="fill:none;stroke:#a9ccdb;stroke-miterlimit:10" />
		<line
   stroke-miterlimit="10"
   x1="160"
   y1="0"
   x2="160"
   y2="512"
   id="line44"
   style="fill:none;stroke:#a9ccdb;stroke-miterlimit:10" />
		<line
   stroke-miterlimit="10"
   x1="192"
   y1="0"
   x2="192"
   y2="512"
   id="line46"
   style="fill:none;stroke:#a9ccdb;stroke-miterlimit:10" />
		<line
   stroke-miterlimit="10"
   x1="224"
   y1="0"
   x2="224"
   y2="512"
   id="line48"
   style="fill:none;stroke:#a9ccdb;stroke-miterlimit:10" />
		<line
   stroke-miterlimit="10"
   x1="256"
   y1="0"
   x2="256"
   y2="512"
   id="line50"
   style="fill:none;stroke:#a9ccdb;stroke-miterlimit:10" />
		<line
   stroke-miterlimit="10"
   x1="288"
   y1="0"
   x2="288"
   y2="512"
   id="line52"
   style="fill:none;stroke:#a9ccdb;stroke-miterlimit:10" />
		<line
   stroke-miterlimit="10"
   x1="320"
   y1="0"
   x2="320"
   y2="512"
   id="line54"
   style="fill:none;stroke:#a9ccdb;stroke-miterlimit:10" />
		<line
   stroke-miterlimit="10"
   x1="352"
   y1="0"
   x2="352"
   y2="512"
   id="line56"
   style="fill:none;stroke:#a9ccdb;stroke-miterlimit:10" />
		<line
   stroke-miterlimit="10"
   x1="384"
   y1="0"
   x2="384"
   y2="512"
   id="line58"
   style="fill:none;stroke:#a9ccdb;stroke-miterlimit:10" />
		<line
   stroke-miterlimit="10"
   x1="416"
   y1="0"
   x2="416"
   y2="512"
   id="line60"
   style="fill:none;stroke:#a9ccdb;stroke-miterlimit:10" />
		<line
   stroke-miterlimit="10"
   x1="448"
   y1="0"
   x2="448"
   y2="512"
   id="line62"
   style="fill:none;stroke:#a9ccdb;stroke-miterlimit:10" />
		<line
   stroke-miterlimit="10"
   x1="480"
   y1="0"
   x2="480"
   y2="512"
   id="line64"
   style="fill:none;stroke:#a9ccdb;stroke-miterlimit:10" />
	</g>
	

<g
   id="g4931"
   transform="matrix(7.7337491,0,0,-7.8443655,-2273.2207,2351.0862)"><path
     id="path4923"
     d="m 332.91765,225.07456 c -1.58936,0 -3.18718,0.27501 -5.34065,0.26041 -2.26177,0.0325 -4.24059,-1.26456 -6.98038,-0.90666 -1.66401,-0.0494 -3.47975,0.0748 -5.23394,0.4719 -2.59891,0.58832 -5.06275,1.77564 -6.69802,3.88491 -0.7855,1.10772 -5.31604,10.87551 -5.41158,12.3023 -0.0803,1.47066 -0.60761,6.99226 0.49327,8.31584 1.83962,1.46082 1.02864,1.53574 2.33252,2.1327 1.33892,0.61299 2.81263,0.74887 3.29005,0.86018 0.63626,0.29754 3.47167,0.93259 4.01925,0.93028 1.1636,0.19434 5.80972,1.46091 7.71469,-0.0453 1.49416,-1.18138 1.22596,-1.48481 2.65957,-3.2654 0.99515,-1.236 2.38375,-4.25711 3.25087,-6.39268 1.24862,-3.07517 2.42382,-6.82936 2.49975,-6.94234 0.59118,-1.85159 1.36549,-3.8707 1.58549,-5.62367 1.17105,-3.15419 1.07234,-2.99548 1.81911,-5.98247 z m -8.005,30.82013 c 1.40575,0.37252 4.49955,0.78899 5.54799,1.00388 2.15411,0.44151 3.46458,-0.79905 6.55966,-1.02718 1.7449,-1.19859 4.98565,-3.13625 6.16028,-3.59635 2.10138,-0.82309 2.76946,-0.75446 4.38203,-1.29032 1.73135,-0.57497 3.04541,-0.10435 5.1313,-0.14585 0.92038,-0.0183 3.74963,-1.57869 4.84415,-1.53556 1.38602,0.0546 5.09696,2.12249 5.99665,2.12249 5.01905,-0.1447 5.58098,-0.74459 8.7303,-0.45306 2.46098,0.22781 5.0966,-0.16969 8.70145,1.92276 2.28294,1.26883 6.56683,-0.46275 8.90425,1.14163 2.72721,1.87193 3.16911,4.49059 3.69444,4.56936 0.67689,0.0581 1.55031,1.85521 2.28253,1.49752 0.34896,-0.69856 0.51367,-1.27161 0.76912,-1.94854 0.27297,-0.72338 0.64086,-1.548 1.16699,-2.20933 0.83611,-1.06956 1.82317,-1.43764 2.88185,-0.19431 0.42018,0.5463 0.16754,2.19229 0.0769,2.81169 -0.25901,1.77086 -0.76097,3.64969 -0.1959,4.0831 2.77684,-0.30234 3.8184,-0.93 4.8088,-1.9599 0.94232,-1.86852 1.66829,-3.79637 2.18517,-5.802 0.0932,-1.48381 0.80174,-5.65476 1.02163,-8.65846 0.17955,-2.45273 0.77907,-4.02615 -0.10132,-4.61694 -0.71296,-0.0582 -1.44444,-0.0831 -2.17213,-0.089 -0.81397,-0.007 -1.62319,0.0106 -2.39646,0.0316 -0.94864,0.0261 -1.87985,0.0579 -2.79514,-9.2e-4 -0.37202,0.29382 0.26779,2.42621 0.27807,4.31596 -0.15913,0.99669 -0.22397,2.51657 -0.66465,3.40193 -0.33317,0.66937 -0.88118,0.97606 -1.84718,0.41979 -0.65309,0 -1.22211,-1.45045 -1.44706,-3.14182 -0.20265,-1.52375 1.07808,-8.83972 0.11082,-9.11353 -1.65476,-0.46844 -2.00482,-0.3385 -4.23185,-0.3707 -1.18807,-0.0172 -4.99097,-3.88217 -6.49088,-3.83383 -2.19213,0.0707 -5.80697,8.70344 -7.32728,8.38888 -2.57115,-0.532 -1.7268,-0.84226 -2.96794,-1.60805 -0.63718,-0.39314 -3.07175,-1.70918 -5.99373,-3.97856 -2.57808,-2.11148 -4.75301,-3.61855 -7.24771,-5.65313 -0.64304,-0.55964 -1.36328,-1.03399 -2.12598,-1.43928 -1.93742,-1.02952 -4.14877,-1.6134 -6.06455,-2.01767 -1.98623,-0.40744 -3.1993,-0.48846 -5.15878,-0.77725 -4.10995,-0.60195 -8.64073,-0.64539 -12.78161,-1.17931 -0.59607,1.51648 -0.8276,3.3946 -1.40973,4.80811 -0.86795,1.38393 -1.47111,2.8951 -1.9944,4.3991 -0.59656,1.71456 -1.08932,3.4198 -1.75227,4.91656 -0.46274,0.94779 -1.55593,3.8408 -2.19651,5.06285 -0.64837,1.28986 -0.99577,2.63816 -1.31374,3.96849 -0.38443,1.60842 -0.72585,3.19058 -1.50416,4.61149 -0.41271,0.5674 -1.0086,0.98191 -1.99915,1.33931 -0.38659,0.47412 -0.5998,0.62427 -0.0543,1.82435 z m 12.61236,2.61039 c -2.4208,-0.36305 -5.00428,1.06822 -7.70131,1.05981 -0.73427,-0.002 -5.05279,-1.61032 -5.63526,-1.63908 -2.14058,-0.10568 -2.5184,0.44982 -4.88275,-0.18458 -1.31261,-0.36165 -2.46215,-0.60027 -3.63102,-0.80079 -1.10141,-0.18896 -2.21999,-0.3441 -3.50833,-0.5365 -1.54691,0.0442 -2.94131,-0.29887 -4.24971,-0.76564 -0.80601,-0.36801 -1.93696,-0.71862 -2.97642,-1.17517 -1.28965,-0.56644 -2.43845,-1.29594 -2.6511,-2.42406 -2.67628,-2.36612 -1.83841,-8.56036 -1.81753,-10.76969 0.16622,-2.46156 5.18756,-12.74295 6.46117,-14.291 2.0455,-2.38846 4.51672,-3.78395 7.19511,-4.62865 4.00743,-0.75921 6.00321,-0.53157 9.9028,-0.42882 1.22613,0.0323 2.30766,0.6429 4.04154,0.61542 1.53475,-0.0243 3.73988,-0.68132 4.67647,-0.73822 1.33547,0.21003 3.6897,0.001 5.0732,0.1414 3.53071,0.44693 9.03979,0.65692 12.3552,1.0651 2.1271,0.26188 3.96397,0.80008 6.00011,1.17434 2.53161,0.48506 4.44187,2.14286 6.89657,2.91859 0.60011,0.18965 1.17964,0.12218 1.72963,0.3531 3.24102,-0.56747 7.8295,-4.64114 10.95812,-5.00213 2.04569,-0.23604 3.64314,1.95748 2.61542,4.8335 -0.90394,1.86573 -6.39639,2.43974 -7.21655,3.86624 -1.02787,1.78777 3.39376,3.44594 3.67954,4.15662 0.96755,0.70963 2.50804,2.04505 3.60684,2.54164 3.31015,1.41959 4.73728,-7.80221 8.05046,-7.97465 2.07653,-0.10808 4.9635,4.77718 6.96314,4.58111 1.43942,-0.10375 0.65298,0.41749 6.52208,-0.0498 3.84934,-0.30645 0.0814,3.51462 0.8528,3.52377 1.04885,-0.0639 2.08447,-0.15778 3.10474,-0.24822 1.32111,-0.11711 2.6165,-0.22847 3.88158,-0.26163 1.68607,-0.0235 3.19296,0.43821 3.88993,1.24125 1.30081,1.69845 1.12515,4.8772 0.87599,7.81999 -0.27056,3.15124 -0.60303,5.91444 -1.22139,8.83003 -0.52604,2.2398 -0.87321,4.97063 -2.09532,6.87254 -0.88636,1.37942 -2.4654,2.09035 -3.78412,2.98428 -1.01772,0.5423 -2.0934,0.82583 -3.16935,0.96877 -1.14979,0.15276 -2.29989,0.14497 -3.37988,0.1209 -2.02831,-0.38898 -4.26382,-1.79797 -5.22441,-2.74325 -1.80821,-1.88743 -2.99533,-6.39831 -5.20918,-7.37088 -2.03692,-0.82713 -6.86332,0.22057 -9.628,-1.21218 -3.89099,-2.01646 -6.14637,-1.39721 -6.46991,-1.41114 -0.88993,-0.0383 -5.62703,0.80082 -9.30427,0.51952 -0.48176,-0.0561 -4.2009,-2.87193 -5.47662,-2.1418 -0.97591,0.55852 -1.31391,0.86593 -2.71213,1.48448 -1.01803,-0.10357 -3.90311,-1.39657 -6.44822,-0.49274 -1.84361,0.65471 -2.8706,1.22155 -4.39242,2.27936 -4.04867,0.92372 -3.60701,1.05421 -6.54724,3.33886 z"
     inkscape:connector-curvature="0"
     sodipodi:nodetypes="cccscccsccsssccccscscsscscccsccscccscscccscssssssccscccccsccscccccscsccscccccssccscscsccscscsccccscscccccsssscscc" /></g></svg>