<?xml version="1.0" encoding="UTF-8" standalone="no"?>
<svg
   xmlns:dc="http://purl.org/dc/elements/1.1/"
   xmlns:cc="http://creativecommons.org/ns#"
   xmlns:rdf="http://www.w3.org/1999/02/22-rdf-syntax-ns#"
   xmlns:svg="http://www.w3.org/2000/svg"
   xmlns="http://www.w3.org/2000/svg"
   xmlns:sodipodi="http://sodipodi.sourceforge.net/DTD/sodipodi-0.dtd"
   xmlns:inkscape="http://www.inkscape.org/namespaces/inkscape"
   version="1.1"
   id="Layer_1"
   x="0px"
   y="0px"
   width="1000"
   height="1000"
   viewBox="0 0 1000 1000"
   enable-background="new 0 0 512 512"
   xml:space="preserve"
   inkscape:version="0.48.0 r9654"
   sodipodi:docname="delphoenician-x10903.svg"><title
   id="title3743">Sinai 357</title><metadata
   id="metadata72"><rdf:RDF><cc:Work
       rdf:about=""><dc:format>image/svg+xml</dc:format><dc:type
         rdf:resource="http://purl.org/dc/dcmitype/StillImage" /><dc:title>Sinai 357</dc:title><dc:date>2017</dc:date><dc:creator><cc:Agent><dc:title>InkScape</dc:title></cc:Agent></dc:creator><dc:publisher><cc:Agent><dc:title>beitdina.net</dc:title></cc:Agent></dc:publisher><dc:contributor><cc:Agent><dc:title>FlorinCB</dc:title></cc:Agent></dc:contributor><dc:language>Sianitic</dc:language><cc:license
         rdf:resource="http://scripts.sil.org/OFL" /></cc:Work><cc:License
       rdf:about="http://scripts.sil.org/OFL"><cc:permits
         rdf:resource="http://scripts.sil.org/pub/OFL/Reproduction" /><cc:permits
         rdf:resource="http://scripts.sil.org/pub/OFL/Distribution" /><cc:permits
         rdf:resource="http://scripts.sil.org/pub/OFL/Embedding" /><cc:permits
         rdf:resource="http://scripts.sil.org/pub/OFL/DerivativeWorks" /><cc:requires
         rdf:resource="http://scripts.sil.org/pub/OFL/Notice" /><cc:requires
         rdf:resource="http://scripts.sil.org/pub/OFL/Attribution" /><cc:requires
         rdf:resource="http://scripts.sil.org/pub/OFL/ShareAlike" /><cc:requires
         rdf:resource="http://scripts.sil.org/pub/OFL/DerivativeRenaming" /><cc:requires
         rdf:resource="http://scripts.sil.org/pub/OFL/BundlingWhenSelling" /></cc:License></rdf:RDF></metadata><defs
   id="defs70" /><sodipodi:namedview
   pagecolor="#ffffff"
   bordercolor="#666666"
   borderopacity="1"
   objecttolerance="10"
   gridtolerance="10"
   guidetolerance="10"
   inkscape:pageopacity="0"
   inkscape:pageshadow="2"
   inkscape:window-width="1152"
   inkscape:window-height="814"
   id="namedview68"
   showgrid="false"
   inkscape:zoom="0.31999998"
   inkscape:cx="-165.18635"
   inkscape:cy="488.21346"
   inkscape:window-x="-8"
   inkscape:window-y="-8"
   inkscape:window-maximized="1"
   inkscape:current-layer="Layer_1"
   showguides="true"
   inkscape:guide-bbox="true"><sodipodi:guide
     orientation="0,1"
     position="310.93752,876.56255"
     id="guide3754" /></sodipodi:namedview>
   
	<g
   id="Grid"
   transform="matrix(1.9573183,0,0,1.9744844,-0.87603159,0.33844104)">
		<rect
   x="0"
   stroke-miterlimit="10"
   width="512"
   height="512"
   id="rect4"
   y="0"
   style="fill:none;stroke:#a9ccdb;stroke-miterlimit:10" />
		<line
   stroke-miterlimit="10"
   x1="0"
   y1="32"
   x2="512"
   y2="32"
   id="line6"
   style="fill:none;stroke:#a9ccdb;stroke-miterlimit:10" />
		<line
   stroke-miterlimit="10"
   x1="0"
   y1="64"
   x2="512"
   y2="64"
   id="line8"
   style="fill:none;stroke:#a9ccdb;stroke-miterlimit:10" />
		<line
   stroke-miterlimit="10"
   x1="0"
   y1="96"
   x2="512"
   y2="96"
   id="line10"
   style="fill:none;stroke:#a9ccdb;stroke-miterlimit:10" />
		<line
   stroke-miterlimit="10"
   x1="0"
   y1="128"
   x2="512"
   y2="128"
   id="line12"
   style="fill:none;stroke:#a9ccdb;stroke-miterlimit:10" />
		<line
   stroke-miterlimit="10"
   x1="0"
   y1="160"
   x2="512"
   y2="160"
   id="line14"
   style="fill:none;stroke:#a9ccdb;stroke-miterlimit:10" />
		<line
   stroke-miterlimit="10"
   x1="0"
   y1="192"
   x2="512"
   y2="192"
   id="line16"
   style="fill:none;stroke:#a9ccdb;stroke-miterlimit:10" />
		<line
   stroke-miterlimit="10"
   x1="0"
   y1="224"
   x2="512"
   y2="224"
   id="line18"
   style="fill:none;stroke:#a9ccdb;stroke-miterlimit:10" />
		<line
   stroke-miterlimit="10"
   x1="0"
   y1="256"
   x2="512"
   y2="256"
   id="line20"
   style="fill:none;stroke:#a9ccdb;stroke-miterlimit:10" />
		<line
   stroke-miterlimit="10"
   x1="0"
   y1="288"
   x2="512"
   y2="288"
   id="line22"
   style="fill:none;stroke:#a9ccdb;stroke-miterlimit:10" />
		<line
   stroke-miterlimit="10"
   x1="0"
   y1="320"
   x2="512"
   y2="320"
   id="line24"
   style="fill:none;stroke:#a9ccdb;stroke-miterlimit:10" />
		<line
   stroke-miterlimit="10"
   x1="0"
   y1="352"
   x2="512"
   y2="352"
   id="line26"
   style="fill:none;stroke:#a9ccdb;stroke-miterlimit:10" />
		<line
   stroke-miterlimit="10"
   x1="0"
   y1="384"
   x2="512"
   y2="384"
   id="line28"
   style="fill:none;stroke:#a9ccdb;stroke-miterlimit:10" />
		<line
   stroke-miterlimit="10"
   x1="0"
   y1="416"
   x2="512"
   y2="416"
   id="line30"
   style="fill:none;stroke:#a9ccdb;stroke-miterlimit:10" />
		<line
   stroke-miterlimit="10"
   x1="0"
   y1="448"
   x2="512"
   y2="448"
   id="line32"
   style="fill:none;stroke:#ff0000;stroke-miterlimit:10" />
		<line
   stroke-miterlimit="10"
   x1="0"
   y1="480"
   x2="512"
   y2="480"
   id="line34"
   style="fill:none;stroke:#a9ccdb;stroke-miterlimit:10" />
		<line
   stroke-miterlimit="10"
   x1="32"
   y1="0"
   x2="32"
   y2="512"
   id="line36"
   style="fill:none;stroke:#a9ccdb;stroke-miterlimit:10" />
		<line
   stroke-miterlimit="10"
   x1="64"
   y1="0"
   x2="64"
   y2="512"
   id="line38"
   style="fill:none;stroke:#a9ccdb;stroke-miterlimit:10" />
		<line
   stroke-miterlimit="10"
   x1="96"
   y1="0"
   x2="96"
   y2="512"
   id="line40"
   style="fill:none;stroke:#a9ccdb;stroke-miterlimit:10" />
		<line
   stroke-miterlimit="10"
   x1="128"
   y1="0"
   x2="128"
   y2="512"
   id="line42"
   style="fill:none;stroke:#a9ccdb;stroke-miterlimit:10" />
		<line
   stroke-miterlimit="10"
   x1="160"
   y1="0"
   x2="160"
   y2="512"
   id="line44"
   style="fill:none;stroke:#a9ccdb;stroke-miterlimit:10" />
		<line
   stroke-miterlimit="10"
   x1="192"
   y1="0"
   x2="192"
   y2="512"
   id="line46"
   style="fill:none;stroke:#a9ccdb;stroke-miterlimit:10" />
		<line
   stroke-miterlimit="10"
   x1="224"
   y1="0"
   x2="224"
   y2="512"
   id="line48"
   style="fill:none;stroke:#a9ccdb;stroke-miterlimit:10" />
		<line
   stroke-miterlimit="10"
   x1="256"
   y1="0"
   x2="256"
   y2="512"
   id="line50"
   style="fill:none;stroke:#a9ccdb;stroke-miterlimit:10" />
		<line
   stroke-miterlimit="10"
   x1="288"
   y1="0"
   x2="288"
   y2="512"
   id="line52"
   style="fill:none;stroke:#a9ccdb;stroke-miterlimit:10" />
		<line
   stroke-miterlimit="10"
   x1="320"
   y1="0"
   x2="320"
   y2="512"
   id="line54"
   style="fill:none;stroke:#a9ccdb;stroke-miterlimit:10" />
		<line
   stroke-miterlimit="10"
   x1="352"
   y1="0"
   x2="352"
   y2="512"
   id="line56"
   style="fill:none;stroke:#a9ccdb;stroke-miterlimit:10" />
		<line
   stroke-miterlimit="10"
   x1="384"
   y1="0"
   x2="384"
   y2="512"
   id="line58"
   style="fill:none;stroke:#a9ccdb;stroke-miterlimit:10" />
		<line
   stroke-miterlimit="10"
   x1="416"
   y1="0"
   x2="416"
   y2="512"
   id="line60"
   style="fill:none;stroke:#a9ccdb;stroke-miterlimit:10" />
		<line
   stroke-miterlimit="10"
   x1="448"
   y1="0"
   x2="448"
   y2="512"
   id="line62"
   style="fill:none;stroke:#a9ccdb;stroke-miterlimit:10" />
		<line
   stroke-miterlimit="10"
   x1="480"
   y1="0"
   x2="480"
   y2="512"
   id="line64"
   style="fill:none;stroke:#a9ccdb;stroke-miterlimit:10" />
	</g>


   <path
   sodipodi:nodetypes="cscsccssscscssssssssscccccsssssccssssssscccccsccsccscscscscscccsscccccscscc"
   inkscape:connector-curvature="0"
   id="path4777"
   d="m 828.37153,589.33385 c -8.1736,-2.84868 -22.87836,-9.55072 -32.67715,-14.89365 -22.60492,-12.32551 -46.83315,-26.97638 -100.9931,-38.16336 -28.46613,3.47877 -55.11688,16.89868 -80.76965,30.23131 -22.1245,11.49878 -43.5067,22.93274 -64.67091,27.8682 -28.3271,6.45709 -52.55144,14.04121 -77.19214,20.36284 -5.97294,1.77781 -21.69271,4.71107 -27.29277,12.44825 -14.80021,20.44837 -28.00347,21.99883 -50.61447,5.9446 -18.35,-13.02881 -23.82825,-9.40077 -56.59109,-2.96574 -19.66165,3.86175 -41.19622,2.16906 -48.85727,1.40729 -5.80976,-1.61299 -7.43822,-9.09128 -11.85674,-11.60244 -16.76323,-9.52745 -27.90801,-9.46628 -42.06547,-13.99547 -12.29914,-3.58961 -27.82118,0.14372 -37.10754,-4.60877 -7.97838,-4.08288 -14.32452,12.97684 -23.46041,13.64307 -8.37552,0.61088 -19.8808,-15.42387 -20.49299,-13.38175 -1.52493,5.08621 -11.22061,20.4305 -18.64907,18.08187 -3.22594,-1.01998 -1.90316,-18.5022 -6.16689,-19.7337 -8.24122,-2.38017 -22.2314,-1.82315 -27.73444,-5.43495 -4.348893,-2.85409 16.19682,-17.48845 13.69448,-20.46921 -11.24412,-13.39393 -23.435521,-13.32289 -28.046411,-31.69625 -7.712504,-30.73257 -1.588977,-62.12406 16.365881,-83.8973 13.18004,-15.98278 73.55561,-47.03527 108.41798,-55.76156 9.53554,-2.38694 33.39897,-9.18452 53.02985,-15.10544 19.07036,-8.05723 35.25404,-11.66456 55.93606,-17.51565 40.23025,-0.74445 35.06576,-7.19721 50.11946,-7.24566 10.59486,-4.05839 26.75272,-18.18066 38.07938,-19.55384 5.37954,-0.32425 10.33801,12.31143 19.12201,13.03233 15.59029,1.27953 16.30204,-13.18255 23.73406,-12.92935 2.60262,0.0893 10.41551,0.34076 16.09864,6.90436 4.53444,5.23697 6.00928,16.8432 14.83602,18.42709 9.31093,1.67077 35.00916,-13.24196 40.39952,-13.1165 28.01985,0.65228 29.16706,-9.66318 43.0955,-7.84625 43.46018,21.02879 -15.36694,31.50679 32.1205,52.3721 18.00453,7.73677 30.25242,11.57186 42.03051,12.09951 19.84321,0.88871 38.35334,-7.61077 80.8127,-22.65775 30.47335,-10.7994 64.33573,-23.39327 75.24971,-27.98647 50.74384,-21.35575 92.94761,-32.04716 102.97837,-26.0874 13.4265,7.97752 27.27796,51.3114 36.17275,113.16561 10.86935,75.58552 4.30773,77.72074 -16.27253,105.45361 -15.11019,20.36162 -21.68903,24.87025 -46.75291,32.0408 -18.6163,5.32601 -34.5444,6.47144 -44.02933,3.16562 z m 76.18007,-65.31946 c 6.18695,-23.56432 -6.8296,-150.84462 -15.56414,-158.00543 -9.49029,-6.66185 -28.31356,-2.54337 -41.94535,5.62455 -15.53369,9.72678 -33.85239,17.80674 -52.92044,24.52543 -26.65621,9.39252 -54.77697,16.12487 -78.80148,20.97751 -23.955,8.41476 -38.25296,17.35 -63.04865,21.9742 -8.00611,5.83999 -22.38839,5.08066 -36.97186,0.76962 -15.01107,-4.43731 -30.23531,-12.63758 -38.93824,-21.27699 -26.37459,-11.09983 -58.63391,-11.62423 -87.80402,-12.41442 -34.36798,-3.7386 -63.75513,-5.49152 -92.21286,-4.05094 -31.98883,1.61935 -52.6448,5.65621 -88.03934,17.06148 0.47232,6.48051 -1.47567,41.70628 -0.80835,78.9678 0.7822,43.68222 -3.00438,71.66937 -2.27793,83.59958 19.90831,3.68461 36.52117,6.46467 52.89177,8.76486 18.37132,2.58141 36.43737,4.55857 58.51336,6.53167 11.98139,0.24995 28.91336,-5.85245 46.80322,-9.89432 26.9201,-6.0821 56.00892,-11.58905 73.66188,-16.37321 22.14424,-2.94544 47.32752,-19.98852 70.92339,-36.10716 23.03387,-15.73499 44.5551,-30.58899 60.25974,-30.58818 6.36179,-0.0392 20.44281,-7.78386 81.3409,-7.26325 32.74498,-5.07552 27.72519,0.49733 32.21049,23.38122 7.41239,9.55749 35.84429,32.68903 52.08006,38.79237 18.35641,6.90057 25.0369,-3.91439 40.82345,-5.47379 19.31166,-1.9076 25.77604,-14.55912 29.8244,-29.5226 z M 273.99845,427.11034 c -35.00454,9.76237 -54.23135,11.30864 -95.00943,31.34967 -47.47337,24.13961 -69.81251,46.20245 -44.95455,83.61825 5.25774,4.07801 25.15177,18.47433 37.26662,23.02923 12.1622,0.20313 32.09519,4.06001 50.95984,7.58209 20.58183,3.84267 39.89202,7.2868 46.45091,5.15184 0.73789,-25.50616 1.98097,-52.17506 2.90126,-77.88408 0.98844,-27.61459 3.16745,-50.07774 2.38535,-72.847 z"
   style="fill:#000000;fill-opacity:1;stroke:none" />


</svg>