<?xml version="1.0" encoding="UTF-8" standalone="no"?>
<svg
   xmlns:dc="http://purl.org/dc/elements/1.1/"
   xmlns:cc="http://creativecommons.org/ns#"
   xmlns:rdf="http://www.w3.org/1999/02/22-rdf-syntax-ns#"
   xmlns:svg="http://www.w3.org/2000/svg"
   xmlns="http://www.w3.org/2000/svg"
   xmlns:sodipodi="http://sodipodi.sourceforge.net/DTD/sodipodi-0.dtd"
   xmlns:inkscape="http://www.inkscape.org/namespaces/inkscape"
   version="1.1"
   id="Layer_1"
   x="0px"
   y="0px"
   width="1000"
   height="1000"
   viewBox="0 0 1000 1000"
   enable-background="new 0 0 512 512"
   xml:space="preserve"
   inkscape:version="0.48.0 r9654"
   sodipodi:docname="delphoenician-x10900.svg"><title
   id="title3743">Sinai 357</title><metadata
   id="metadata72"><rdf:RDF><cc:Work
       rdf:about=""><dc:format>image/svg+xml</dc:format><dc:type
         rdf:resource="http://purl.org/dc/dcmitype/StillImage" /><dc:title>Sinai 357</dc:title><dc:date>2017</dc:date><dc:creator><cc:Agent><dc:title>Celeste Claire Horner</dc:title></cc:Agent></dc:creator><dc:publisher><cc:Agent><dc:title>beitdina.net</dc:title></cc:Agent></dc:publisher></cc:Work></rdf:RDF></metadata><defs
   id="defs70" /><sodipodi:namedview
   pagecolor="#ffffff"
   bordercolor="#666666"
   borderopacity="1"
   objecttolerance="10"
   gridtolerance="10"
   guidetolerance="10"
   inkscape:pageopacity="0"
   inkscape:pageshadow="2"
   inkscape:window-width="949"
   inkscape:window-height="710"
   id="namedview68"
   showgrid="false"
   inkscape:zoom="0.25488281"
   inkscape:cx="432.56593"
   inkscape:cy="100.81901"
   inkscape:window-x="213"
   inkscape:window-y="53"
   inkscape:window-maximized="0"
   inkscape:current-layer="Layer_1" />
   
	<g
   id="Grid"
   transform="matrix(1.949083,0,0,1.9463791,0.47454151,0.4731908)">
		<rect
   x="0"
   stroke-miterlimit="10"
   width="512"
   height="512"
   id="rect4"
   y="0"
   style="fill:none;stroke:#a9ccdb;stroke-miterlimit:10" />
		<line
   stroke-miterlimit="10"
   x1="0"
   y1="32"
   x2="512"
   y2="32"
   id="line6"
   style="fill:none;stroke:#a9ccdb;stroke-miterlimit:10" />
		<line
   stroke-miterlimit="10"
   x1="0"
   y1="64"
   x2="512"
   y2="64"
   id="line8"
   style="fill:none;stroke:#a9ccdb;stroke-miterlimit:10" />
		<line
   stroke-miterlimit="10"
   x1="0"
   y1="96"
   x2="512"
   y2="96"
   id="line10"
   style="fill:none;stroke:#a9ccdb;stroke-miterlimit:10" />
		<line
   stroke-miterlimit="10"
   x1="0"
   y1="128"
   x2="512"
   y2="128"
   id="line12"
   style="fill:none;stroke:#a9ccdb;stroke-miterlimit:10" />
		<line
   stroke-miterlimit="10"
   x1="0"
   y1="160"
   x2="512"
   y2="160"
   id="line14"
   style="fill:none;stroke:#a9ccdb;stroke-miterlimit:10" />
		<line
   stroke-miterlimit="10"
   x1="0"
   y1="192"
   x2="512"
   y2="192"
   id="line16"
   style="fill:none;stroke:#a9ccdb;stroke-miterlimit:10" />
		<line
   stroke-miterlimit="10"
   x1="0"
   y1="224"
   x2="512"
   y2="224"
   id="line18"
   style="fill:none;stroke:#a9ccdb;stroke-miterlimit:10" />
		<line
   stroke-miterlimit="10"
   x1="0"
   y1="256"
   x2="512"
   y2="256"
   id="line20"
   style="fill:none;stroke:#a9ccdb;stroke-miterlimit:10" />
		<line
   stroke-miterlimit="10"
   x1="0"
   y1="288"
   x2="512"
   y2="288"
   id="line22"
   style="fill:none;stroke:#a9ccdb;stroke-miterlimit:10" />
		<line
   stroke-miterlimit="10"
   x1="0"
   y1="320"
   x2="512"
   y2="320"
   id="line24"
   style="fill:none;stroke:#a9ccdb;stroke-miterlimit:10" />
		<line
   stroke-miterlimit="10"
   x1="0"
   y1="352"
   x2="512"
   y2="352"
   id="line26"
   style="fill:none;stroke:#a9ccdb;stroke-miterlimit:10" />
		<line
   stroke-miterlimit="10"
   x1="0"
   y1="384"
   x2="512"
   y2="384"
   id="line28"
   style="fill:none;stroke:#a9ccdb;stroke-miterlimit:10" />
		<line
   stroke-miterlimit="10"
   x1="0"
   y1="416"
   x2="512"
   y2="416"
   id="line30"
   style="fill:none;stroke:#a9ccdb;stroke-miterlimit:10" />
		<line
   stroke-miterlimit="10"
   x1="0"
   y1="448"
   x2="512"
   y2="448"
   id="line32"
   style="fill:none;stroke:#ff0000;stroke-miterlimit:10" />
		<line
   stroke-miterlimit="10"
   x1="0"
   y1="480"
   x2="512"
   y2="480"
   id="line34"
   style="fill:none;stroke:#a9ccdb;stroke-miterlimit:10" />
		<line
   stroke-miterlimit="10"
   x1="32"
   y1="0"
   x2="32"
   y2="512"
   id="line36"
   style="fill:none;stroke:#a9ccdb;stroke-miterlimit:10" />
		<line
   stroke-miterlimit="10"
   x1="64"
   y1="0"
   x2="64"
   y2="512"
   id="line38"
   style="fill:none;stroke:#a9ccdb;stroke-miterlimit:10" />
		<line
   stroke-miterlimit="10"
   x1="96"
   y1="0"
   x2="96"
   y2="512"
   id="line40"
   style="fill:none;stroke:#a9ccdb;stroke-miterlimit:10" />
		<line
   stroke-miterlimit="10"
   x1="128"
   y1="0"
   x2="128"
   y2="512"
   id="line42"
   style="fill:none;stroke:#a9ccdb;stroke-miterlimit:10" />
		<line
   stroke-miterlimit="10"
   x1="160"
   y1="0"
   x2="160"
   y2="512"
   id="line44"
   style="fill:none;stroke:#a9ccdb;stroke-miterlimit:10" />
		<line
   stroke-miterlimit="10"
   x1="192"
   y1="0"
   x2="192"
   y2="512"
   id="line46"
   style="fill:none;stroke:#a9ccdb;stroke-miterlimit:10" />
		<line
   stroke-miterlimit="10"
   x1="224"
   y1="0"
   x2="224"
   y2="512"
   id="line48"
   style="fill:none;stroke:#a9ccdb;stroke-miterlimit:10" />
		<line
   stroke-miterlimit="10"
   x1="256"
   y1="0"
   x2="256"
   y2="512"
   id="line50"
   style="fill:none;stroke:#a9ccdb;stroke-miterlimit:10" />
		<line
   stroke-miterlimit="10"
   x1="288"
   y1="0"
   x2="288"
   y2="512"
   id="line52"
   style="fill:none;stroke:#a9ccdb;stroke-miterlimit:10" />
		<line
   stroke-miterlimit="10"
   x1="320"
   y1="0"
   x2="320"
   y2="512"
   id="line54"
   style="fill:none;stroke:#a9ccdb;stroke-miterlimit:10" />
		<line
   stroke-miterlimit="10"
   x1="352"
   y1="0"
   x2="352"
   y2="512"
   id="line56"
   style="fill:none;stroke:#a9ccdb;stroke-miterlimit:10" />
		<line
   stroke-miterlimit="10"
   x1="384"
   y1="0"
   x2="384"
   y2="512"
   id="line58"
   style="fill:none;stroke:#a9ccdb;stroke-miterlimit:10" />
		<line
   stroke-miterlimit="10"
   x1="416"
   y1="0"
   x2="416"
   y2="512"
   id="line60"
   style="fill:none;stroke:#a9ccdb;stroke-miterlimit:10" />
		<line
   stroke-miterlimit="10"
   x1="448"
   y1="0"
   x2="448"
   y2="512"
   id="line62"
   style="fill:none;stroke:#a9ccdb;stroke-miterlimit:10" />
		<line
   stroke-miterlimit="10"
   x1="480"
   y1="0"
   x2="480"
   y2="512"
   id="line64"
   style="fill:none;stroke:#a9ccdb;stroke-miterlimit:10" />
	</g>
	

<g
   transform="matrix(-6.5443073,3.7841724,3.1291202,7.0077976,2286.9839,-2595.7394)"
   id="g4811"><path
     sodipodi:nodetypes="ccsccsscscssccscscccscccscscsccsscscccccsccscccscsscccscccsscscsscsscsccsccccssccsccccscscscscccccccscsccc"
     inkscape:connector-curvature="0"
     d="m 365.41681,262.20211 c 3.98846,1.25566 6.76944,3.14999 9.38844,4.05894 1.52148,0.3089 3.9842,1.07588 5.06228,2.15623 0.88267,0.88454 0.67465,2.03202 -0.37373,2.86627 -1.32271,0.95409 -4.97997,1.535 -6.47142,1.53194 -2.28446,-0.0516 -6.32803,-0.39223 -9.28271,-1.1949 -2.42776,-0.65952 -2.97772,-2.38959 -4.8947,-1.62999 -3.28504,1.30164 -6.94141,6.55122 -8.35901,6.66587 -0.48136,0.008 -1.46822,0.68026 -2.0266,0.26864 -0.95548,-0.70434 -1.50077,-2.72061 -2.22076,-3.19978 -0.91519,-0.7415 -2.9159,0.41154 -3.57702,-0.16368 -2.49991,-2.17509 -0.88353,-3.81087 -0.60845,-5.56424 0.34132,-2.17562 1.78098,-4.9743 2.57087,-9.65048 0.14898,-0.72157 2.12424,-8.6707 2.44884,-9.13937 1.98393,-3.28098 5.98971,-6.11879 9.17376,-7.00858 2.5489,-0.71232 4.17056,0.14028 6.78173,0.6628 1.07969,0.22457 1.63667,0.004 2.30384,0.91412 0.3753,0.51204 0.62485,1.12071 0.79267,1.76688 0.11128,3.35458 0.16162,4.3411 0.87973,5.40194 1.97947,4.01267 3.39996,3.76523 3.03022,4.44035 -0.88686,0.74649 -1.56455,1.62837 -2.15496,2.56272 -0.88036,1.39315 -1.56665,2.90295 -2.46302,4.25432 z M 360.122,234.84593 c 1.9884,-3.36743 0.71131,-4.67566 4.06484,-9.11331 0.55654,-0.77924 3.41058,-2.28779 4.0231,-3.25271 0.77567,-1.2219 3.07817,-3.23731 3.60861,-4.00957 1.52923,-3.12961 0.2893,-7.2 2.29666,-10.7891 2.74598,-4.90976 4.3549,-9.07395 7.09445,-11.42448 3.94208,-3.6423 7.28228,-8.1466 10.2103,-11.54123 2.35722,-2.73285 6.0767,-5.23347 7.99868,-5.49918 1.11712,-0.11155 -1.11764,4.8817 -1.70134,10.06848 -1.16478,5.0288 -1.19518,8.06258 0.44955,11.02004 1.41013,2.53559 4.45793,4.16723 7.32173,5.43372 3.35244,1.48259 6.7077,2.33393 10.72913,1.57795 1.74763,-0.39005 8.57608,-6.52334 11.64134,-7.06626 1.25393,-0.22211 1.26546,-0.28932 1.00146,2.57759 -0.30996,2.47966 -3.25464,5.05108 -6.91187,9.09598 -0.61958,1.69656 -0.81406,1.27489 -2.10259,3.20548 -2.28868,3.33318 -4.26815,5.11931 -5.74676,6.98098 -1.35913,3.05324 -2.31923,3.98058 -3.27279,4.15613 -1.14206,-0.0756 -3.27322,0.11967 -5.61788,0.51572 -4.34806,0.73445 -9.43035,2.15945 -10.30048,3.82845 -1.25206,3.05527 5.52843,3.07943 2.38931,4.12664 -1.16358,0.68989 -5.38644,-4.32945 -7.72846,-3.64147 -1.88834,0.55471 -3.68062,1.1089 -4.60417,1.66268 -3.19632,1.95097 -5.28141,4.20391 -5.69815,5.15816 -2.55299,5.77925 -0.82516,1.07158 -3.61299,6.31779 -0.90333,-0.22969 -1.85234,2.76584 -2.77346,5.12294 -0.61249,1.56742 -1.21265,2.85254 -1.77877,2.7193 -0.57052,-0.0259 -1.44257,-0.79598 -1.9863,-2.4918 -0.38933,-1.2142 -0.56549,-3.37083 -0.77963,-4.59466 -0.30645,-1.75142 -1.144,-3.09856 -1.68672,-3.26215 -1.02674,-0.24411 -1.88658,-1.04744 -2.93561,-1.18441 -1.36262,-0.20394 -2.59221,-0.70067 -3.79079,-1.21207 -0.91524,-0.17019 -1.50891,-0.31257 -1.84696,-0.48695 -1.00786,-0.51994 0.25671,-1.32438 2.04659,-3.99866 z m -17.21692,23.16346 c -0.58742,2.03092 -2.46109,6.39355 -3.10217,10.61661 -0.44662,2.94203 -0.29502,5.81632 1.30646,7.78729 0.71951,0.88551 2.41379,-0.92168 3.45247,-0.15102 1.04938,0.69744 2.06976,3.09656 3.22188,3.7037 1.00957,0.53201 2.15413,-0.67339 3.05432,-0.7577 1.60047,-1.08851 5.67261,-5.95917 8.30533,-6.9793 2.07737,-0.80495 2.77886,2.11744 3.97422,2.00589 5.53089,-0.51624 6.7461,3.13669 11.0155,1.41921 6.90197,-3.0159 8.98822,-2.81738 8.60323,-5.63161 -0.33529,-2.45088 -0.38345,-3.49329 -7.41846,-6.10043 -6.41864,-2.37873 -6.85971,-2.43904 -6.39934,-3.08873 0.92332,-1.30305 2.5137,-3.41139 3.10914,-4.18177 0.37426,-0.75727 0.9903,-1.92425 3.21794,-5.79981 1.50875,-2.62485 2.82471,-4.90893 3.11099,-5.42188 3.42185,-5.46284 1.13915,-1.41823 3.64261,-6.84072 0.47698,-1.0436 3.38737,-2.63146 6.64533,-4.30967 2.53138,0.44248 15.4011,7.27036 13.31715,0.44587 -0.20331,-0.67826 -0.38688,-1.44667 -0.39296,-2.29124 0.10438,-1.67821 -4.49814,0.52081 -3.78059,-0.86389 3.26485,-1.40865 5.76959,-1.92251 7.85981,-2.24245 2.10843,-0.32272 4.63378,0.0282 6.25334,-0.61922 1.67563,-0.66983 2.44076,-2.37479 4.36558,-4.95886 1.04251,-1.31632 2.27607,-2.43909 3.03814,-3.38693 1.30643,-1.71869 2.71117,-3.33034 4.03914,-4.93116 0.9275,-1.17437 1.922,-2.0932 2.84241,-3.085 0.52085,-0.56126 1.01799,-1.14589 1.46585,-1.81343 0.66694,-0.86262 1.34888,-1.69621 2.01915,-2.51865 0.86791,-1.06495 1.71628,-2.11121 2.48735,-3.17755 1.01193,-1.43341 1.61043,-3.01812 1.35,-4.0708 -0.0709,-0.28659 -0.062,-1.87815 -1.07283,-3.12225 -1.86157,-2.33154 -3.33675,-1.48576 -4.79925,-1.53543 -4.34335,-0.14749 -7.6312,5.64155 -13.08888,6.9048 -2.28607,0.39843 -5.22859,0.52632 -7.47136,-0.47414 -3.19588,-1.42563 -5.40235,-4.29093 -5.95557,-4.64376 -1.67471,-1.01981 -1.25173,-5.11929 -0.60406,-9.43192 0.71093,-4.73392 3.63007,-13.17108 1.75816,-13.15344 -3.86301,-0.0155 -6.66473,1.13805 -10.01029,3.07893 -5.34765,3.15518 -8.15478,10.25698 -13.52085,15.44557 -2.96142,2.77786 -4.95475,8.47919 -7.05521,12.8278 -1.82984,3.78835 -0.0549,6.61778 -2.41485,10.55867 -0.24139,0.44661 -1.67588,2.99206 -2.98295,3.65663 -2.17518,0.74999 -3.10097,1.98668 -4.18983,3.6311 -1.64127,2.5859 -2.56551,6.18771 -4.48887,9.21713 -0.76754,1.34191 -2.33616,3.16999 -2.85751,4.02828 -0.72411,1.19212 -1.24647,2.74968 -3.57433,4.30785 -1.35378,0.90618 -3.23054,1.3243 -4.15153,3.2217 -1.88996,4.00778 -3.3762,8.34731 -4.1238,12.72575 z"
     id="path4813" /></g></svg>