<?xml version="1.0" encoding="UTF-8" standalone="no"?>
<svg
   xmlns:dc="http://purl.org/dc/elements/1.1/"
   xmlns:cc="http://creativecommons.org/ns#"
   xmlns:rdf="http://www.w3.org/1999/02/22-rdf-syntax-ns#"
   xmlns:svg="http://www.w3.org/2000/svg"
   xmlns="http://www.w3.org/2000/svg"
   xmlns:sodipodi="http://sodipodi.sourceforge.net/DTD/sodipodi-0.dtd"
   xmlns:inkscape="http://www.inkscape.org/namespaces/inkscape"
   version="1.1"
   id="Layer_1"
   x="0px"
   y="0px"
   width="1000"
   height="1000"
   viewBox="0 0 1000 1000"
   enable-background="new 0 0 512 512"
   xml:space="preserve"
   inkscape:version="0.48.0 r9654"
   sodipodi:docname="delphoenician-x10903.svg.2021_05_17_16_54_45.0.svg"><title
   id="title3743">Sinai 357</title><metadata
   id="metadata72"><rdf:RDF><cc:Work
       rdf:about=""><dc:format>image/svg+xml</dc:format><dc:type
         rdf:resource="http://purl.org/dc/dcmitype/StillImage" /><dc:title>Sinai 357</dc:title><dc:date>2017</dc:date><dc:creator><cc:Agent><dc:title>Celeste Claire Horner</dc:title></cc:Agent></dc:creator><dc:publisher><cc:Agent><dc:title>beitdina.net</dc:title></cc:Agent></dc:publisher></cc:Work></rdf:RDF></metadata><defs
   id="defs70" /><sodipodi:namedview
   pagecolor="#ffffff"
   bordercolor="#666666"
   borderopacity="1"
   objecttolerance="10"
   gridtolerance="10"
   guidetolerance="10"
   inkscape:pageopacity="0"
   inkscape:pageshadow="2"
   inkscape:window-width="949"
   inkscape:window-height="710"
   id="namedview68"
   showgrid="false"
   inkscape:zoom="0.63999996"
   inkscape:cx="328.13846"
   inkscape:cy="558.92812"
   inkscape:window-x="45"
   inkscape:window-y="4"
   inkscape:window-maximized="0"
   inkscape:current-layer="Layer_1"
   showguides="true"
   inkscape:guide-bbox="true"><sodipodi:guide
     orientation="0,1"
     position="373.44079,936.91653"
     id="guide3754" /></sodipodi:namedview>
   
	<g
   id="Grid"
   transform="matrix(1.949083,0,0,1.9463791,0.47454151,0.4731908)">
		<rect
   x="0"
   stroke-miterlimit="10"
   width="512"
   height="512"
   id="rect4"
   y="0"
   style="fill:none;stroke:#a9ccdb;stroke-miterlimit:10" />
		<line
   stroke-miterlimit="10"
   x1="0"
   y1="32"
   x2="512"
   y2="32"
   id="line6"
   style="fill:none;stroke:#a9ccdb;stroke-miterlimit:10" />
		<line
   stroke-miterlimit="10"
   x1="0"
   y1="64"
   x2="512"
   y2="64"
   id="line8"
   style="fill:none;stroke:#a9ccdb;stroke-miterlimit:10" />
		<line
   stroke-miterlimit="10"
   x1="0"
   y1="96"
   x2="512"
   y2="96"
   id="line10"
   style="fill:none;stroke:#a9ccdb;stroke-miterlimit:10" />
		<line
   stroke-miterlimit="10"
   x1="0"
   y1="128"
   x2="512"
   y2="128"
   id="line12"
   style="fill:none;stroke:#a9ccdb;stroke-miterlimit:10" />
		<line
   stroke-miterlimit="10"
   x1="0"
   y1="160"
   x2="512"
   y2="160"
   id="line14"
   style="fill:none;stroke:#a9ccdb;stroke-miterlimit:10" />
		<line
   stroke-miterlimit="10"
   x1="0"
   y1="192"
   x2="512"
   y2="192"
   id="line16"
   style="fill:none;stroke:#a9ccdb;stroke-miterlimit:10" />
		<line
   stroke-miterlimit="10"
   x1="0"
   y1="224"
   x2="512"
   y2="224"
   id="line18"
   style="fill:none;stroke:#a9ccdb;stroke-miterlimit:10" />
		<line
   stroke-miterlimit="10"
   x1="0"
   y1="256"
   x2="512"
   y2="256"
   id="line20"
   style="fill:none;stroke:#a9ccdb;stroke-miterlimit:10" />
		<line
   stroke-miterlimit="10"
   x1="0"
   y1="288"
   x2="512"
   y2="288"
   id="line22"
   style="fill:none;stroke:#a9ccdb;stroke-miterlimit:10" />
		<line
   stroke-miterlimit="10"
   x1="0"
   y1="320"
   x2="512"
   y2="320"
   id="line24"
   style="fill:none;stroke:#a9ccdb;stroke-miterlimit:10" />
		<line
   stroke-miterlimit="10"
   x1="0"
   y1="352"
   x2="512"
   y2="352"
   id="line26"
   style="fill:none;stroke:#a9ccdb;stroke-miterlimit:10" />
		<line
   stroke-miterlimit="10"
   x1="0"
   y1="384"
   x2="512"
   y2="384"
   id="line28"
   style="fill:none;stroke:#a9ccdb;stroke-miterlimit:10" />
		<line
   stroke-miterlimit="10"
   x1="0"
   y1="416"
   x2="512"
   y2="416"
   id="line30"
   style="fill:none;stroke:#a9ccdb;stroke-miterlimit:10" />
		<line
   stroke-miterlimit="10"
   x1="0"
   y1="448"
   x2="512"
   y2="448"
   id="line32"
   style="fill:none;stroke:#ff0000;stroke-miterlimit:10" />
		<line
   stroke-miterlimit="10"
   x1="0"
   y1="480"
   x2="512"
   y2="480"
   id="line34"
   style="fill:none;stroke:#a9ccdb;stroke-miterlimit:10" />
		<line
   stroke-miterlimit="10"
   x1="32"
   y1="0"
   x2="32"
   y2="512"
   id="line36"
   style="fill:none;stroke:#a9ccdb;stroke-miterlimit:10" />
		<line
   stroke-miterlimit="10"
   x1="64"
   y1="0"
   x2="64"
   y2="512"
   id="line38"
   style="fill:none;stroke:#a9ccdb;stroke-miterlimit:10" />
		<line
   stroke-miterlimit="10"
   x1="96"
   y1="0"
   x2="96"
   y2="512"
   id="line40"
   style="fill:none;stroke:#a9ccdb;stroke-miterlimit:10" />
		<line
   stroke-miterlimit="10"
   x1="128"
   y1="0"
   x2="128"
   y2="512"
   id="line42"
   style="fill:none;stroke:#a9ccdb;stroke-miterlimit:10" />
		<line
   stroke-miterlimit="10"
   x1="160"
   y1="0"
   x2="160"
   y2="512"
   id="line44"
   style="fill:none;stroke:#a9ccdb;stroke-miterlimit:10" />
		<line
   stroke-miterlimit="10"
   x1="192"
   y1="0"
   x2="192"
   y2="512"
   id="line46"
   style="fill:none;stroke:#a9ccdb;stroke-miterlimit:10" />
		<line
   stroke-miterlimit="10"
   x1="224"
   y1="0"
   x2="224"
   y2="512"
   id="line48"
   style="fill:none;stroke:#a9ccdb;stroke-miterlimit:10" />
		<line
   stroke-miterlimit="10"
   x1="256"
   y1="0"
   x2="256"
   y2="512"
   id="line50"
   style="fill:none;stroke:#a9ccdb;stroke-miterlimit:10" />
		<line
   stroke-miterlimit="10"
   x1="288"
   y1="0"
   x2="288"
   y2="512"
   id="line52"
   style="fill:none;stroke:#a9ccdb;stroke-miterlimit:10" />
		<line
   stroke-miterlimit="10"
   x1="320"
   y1="0"
   x2="320"
   y2="512"
   id="line54"
   style="fill:none;stroke:#a9ccdb;stroke-miterlimit:10" />
		<line
   stroke-miterlimit="10"
   x1="352"
   y1="0"
   x2="352"
   y2="512"
   id="line56"
   style="fill:none;stroke:#a9ccdb;stroke-miterlimit:10" />
		<line
   stroke-miterlimit="10"
   x1="384"
   y1="0"
   x2="384"
   y2="512"
   id="line58"
   style="fill:none;stroke:#a9ccdb;stroke-miterlimit:10" />
		<line
   stroke-miterlimit="10"
   x1="416"
   y1="0"
   x2="416"
   y2="512"
   id="line60"
   style="fill:none;stroke:#a9ccdb;stroke-miterlimit:10" />
		<line
   stroke-miterlimit="10"
   x1="448"
   y1="0"
   x2="448"
   y2="512"
   id="line62"
   style="fill:none;stroke:#a9ccdb;stroke-miterlimit:10" />
		<line
   stroke-miterlimit="10"
   x1="480"
   y1="0"
   x2="480"
   y2="512"
   id="line64"
   style="fill:none;stroke:#a9ccdb;stroke-miterlimit:10" />
	</g>
<path
   style="fill:#484e58"
   d="m 758.2453,510.01225 c -7.78381,-2.10494 -21.7873,-7.05741 -31.11884,-11.00549 -21.5269,-9.10779 -92.22515,-25.91056 -143.80228,-34.17706 -17.47344,-2.80055 -16.16103,-8.62551 -21.31625,-4.47799 -4.09123,3.29152 -14.28033,15.75594 -26.78534,20.45466 -6.68754,2.51282 -25.92657,5.03902 -36.64672,7.3777 -17.19464,3.75114 -27.51798,9.53476 -42.0163,12.82298 -21.72167,4.92648 -45.03562,7.16881 -52.55297,11.95129 -9.22567,5.8693 -13.61523,-7.00323 -19.30317,-5.68901 -5.68809,1.31379 -14.70507,7.06726 -20.03806,12.78448 -14.09444,15.1101 -26.66798,16.25589 -48.20071,4.39277 -17.47493,-9.62752 -22.69185,-6.94661 -53.89225,-2.19149 -18.72404,2.85352 -39.23163,1.60276 -46.52734,1.03989 -5.53273,-1.19189 -5.59524,-6.7179 -9.80297,-8.57354 -15.96379,-7.04016 -28.80953,-13.56933 -42.29183,-16.91609 -11.71266,-2.6525 -25.75025,6.68047 -34.59384,3.16874 -7.59786,-3.01706 -13.64139,9.58903 -22.34151,10.08137 -7.97611,0.45136 -18.93276,-11.39726 -19.51579,-9.8883 -3.3018,8.54546 -17.61752,-4.58192 -31.81268,-11.81097 C 32.935099,477.76985 29.155561,473.98157 23.787383,457.38336 16.442696,434.67383 22.27422,411.47747 39.372819,395.3884 51.9243,383.57804 109.42062,360.63215 142.62037,354.18393 c 9.08082,-1.76382 31.80621,-6.78678 50.50093,-11.16193 25.11305,-8.23301 39.27801,-10.17844 76.83142,-18.9148 21.36058,4.26561 6.0041,-4.16479 21.18974,-8.94499 10.0896,-2.99887 28.45347,-3.87176 39.24004,-4.88648 5.12301,-0.23958 11.33323,7.90205 19.69839,8.43478 14.84679,0.94552 22.96607,-1.37384 30.0437,-1.18671 17.38557,0.45966 35.61548,-1.31503 40.51096,-3.94376 4.89545,-2.62873 13.39727,-7.22874 18.89297,-10.22223 5.49566,-2.99354 9.52767,-6.87892 8.95999,-8.63417 -0.56772,-1.75527 10.07607,-9.64091 23.65276,-17.52363 28.79692,-16.71972 38.71866,-15.72999 45.26643,4.51556 3.80008,11.7496 2.19931,14.04581 -19.56298,28.06277 -31.49002,20.28257 -28.98385,28.53233 12.91133,42.50154 46.03238,15.34864 76.3627,14.69795 140.79763,-3.02061 29.0201,-7.98009 61.26758,-17.28625 71.66115,-20.68033 48.32384,-15.78056 88.51501,-23.68086 98.06741,-19.27695 12.78618,5.89486 25.97704,37.91596 34.44768,83.62249 10.35099,55.85308 8.56717,70.57954 -11.03165,91.07235 -14.38959,15.04603 -20.65469,18.37762 -44.52325,23.67629 -17.7285,3.9356 -32.89707,4.78194 -41.92967,2.3392 z m 52.63833,-30.55246 c 22.99232,-12.73025 24.2752,-31.81527 8.59115,-127.81006 -3.58925,-21.96797 -2.10025,-25.22243 -37.19415,-15.98451 -12.14422,11.06142 -34.86485,27.30733 -61.71308,39.14763 -25.10968,11.07359 -52.12208,20.38074 -71.29005,25.54177 -2.13915,0.57597 -2.79954,5.51972 -4.72974,5.98911 -3.29276,0.80073 -5.66653,2.84529 -7.80231,2.92109 -5.17076,0.18354 -7.6038,-3.11577 -8.57118,-5.13588 -0.86746,-1.81146 -2.59911,-5.57411 1.4343,-8.67129 1.28353,-0.9856 3.86764,-2.37582 6.23746,-3.65854 l 6.4243,-4.83572 8.7996,-2.62459 14.32317,-0.87094 18.57263,-4.67733 c 27.83312,-10.19733 52.86978,-27.11987 78.66512,-41.59887 l -116.51041,32.42861 c -65.55953,18.24734 -66.6545,15.55703 -102.3485,9.76295 -19.70799,-3.19913 -47.82505,-10.19232 -62.48237,-15.54035 -52.16228,-19.0325 -83.28684,-16.7824 -114.09878,-16.38438 -6.70228,0.0866 -14.13405,-7.35733 -20.93004,-6.784 -9.81875,0.82834 -21.39955,6.45921 -32.15845,7.12328 -29.01107,1.79065 -23.41936,16.02254 -36.77066,15.71696 -7.35399,-0.16831 -20.75304,9.36833 -22.81888,10.57368 -2.92901,1.70898 -6.34513,1.00256 -6.6366,6.06914 -0.14313,2.48804 -2.81007,-5.36293 -5.87967,-0.90372 -5.09184,7.39691 -30.62881,9.38992 -39.68603,16.44335 -12.87761,10.0286 -27.51898,14.40792 -31.28896,29.32691 -1.9698,7.79509 -26.76723,3.12526 -23.27346,12.08847 2.33528,5.99114 4.57779,22.55178 12.91035,30.75082 9.86367,9.70563 25.75321,10.82932 24.69002,13.51213 -2.14188,5.40475 0.44687,-2.26614 6.03765,-4.68036 5.53588,-2.39051 14.03038,0.51032 20.72588,-1.21474 9.64359,-2.48461 24.31272,-4.05453 33.96046,-6.21128 4.4001,-0.9842 12.89784,14.34728 4.92886,21.12341 -9.93946,8.45166 -46.53549,5.67846 -32.89738,4.80345 12.04809,-0.77299 -0.73183,13.21941 9.93924,17.59197 8.01364,3.28366 33.46311,-7.2926 42.14529,-6.6521 7.54912,0.55691 3.50421,-19.6367 10.02093,-23.1188 13.87913,-7.41609 15.69341,-1.64164 36.40629,-2.19542 20.15689,-0.5389 26.54854,12.55118 33.78667,7.04995 15.03111,-7.05553 22.60905,-10.43145 28.21261,-9.20352 3.24989,0.71216 5.83567,2.97287 8.82614,6.96243 2.64922,3.5343 19.4756,1.46959 25.03582,3.90155 4.21777,2.54719 4.63338,-16.94002 10.07268,-13.90913 8.30776,4.62924 17.3998,8.93618 25.31951,10.21283 4.92951,0.79464 -0.8119,-9.80146 4.54902,-10.19624 8.51026,-0.6267 20.93137,-16.39149 28.77731,-17.72653 7.4031,-1.25969 7.55477,11.90292 14.12517,7.75186 l 15.8548,-10.01677 29.70515,-10.52347 8.73268,-5.26668 c 5.95455,-9.39865 14.56605,-15.52834 23.53945,-19.6287 7.0553,-2.28393 17.61705,-7.0667 26.04305,-6.66011 4.49654,0.21697 8.38485,1.91178 10.80747,6.25283 2.5764,4.86312 -3.49326,9.15121 -11.1299,14.93175 -5.94581,4.50067 -12.64736,12.43017 -17.40534,16.42001 l 25.28753,-6.2499 c 22.86092,-5.65015 62.58786,14.2514 87.81393,21.18836 25.22612,6.93705 47.24847,12.31927 48.93857,11.96072 1.6901,-0.35852 4.06985,-6.50076 5.28837,-13.64907 3.20026,-18.77411 10.56437,-25.93905 22.24287,-21.64134 7.17093,2.63909 9.94672,7.63062 11.72427,21.08346 1.99327,15.08531 7.13065,25.01444 12.34361,23.8572 0.78205,-0.17357 7.8815,-3.89214 15.77654,-8.26346 z M 128.21108,412.60103 c 4.36014,-16.98793 42.84418,-10.00443 40.8055,-22.10973 -1.76685,-10.4912 6.89383,-2.28898 7.3884,-10.33646 1.05383,-17.14764 19.63464,-24.75532 15.95339,-22.88734 -33.33521,7.21378 -68.01638,14.93067 -106.84975,29.73971 -45.209387,17.83771 -62.762493,48.48476 -39.090001,76.13279 7.018381,8.19704 20.646041,9.81193 35.148421,5.31813 12.93738,-4.00886 26.25184,-13.83621 41.21576,-13.11527 14.8886,0.71732 22.19556,5.26404 33.64554,12.07814 29.61144,17.62249 -42.26943,-0.07 -28.21726,-54.81997 z"
   id="path3758"
   inkscape:connector-curvature="0"
   sodipodi:nodetypes="cssssssssssscscsssssscccccssssssssssssssscccscssssssccccccssssssssssssssssscsssssscsscsssssccccscscsscssssccsssccsssss" /></svg>