<?xml version="1.0" encoding="UTF-8" standalone="no"?>
<svg
   xmlns:dc="http://purl.org/dc/elements/1.1/"
   xmlns:cc="http://creativecommons.org/ns#"
   xmlns:rdf="http://www.w3.org/1999/02/22-rdf-syntax-ns#"
   xmlns:svg="http://www.w3.org/2000/svg"
   xmlns="http://www.w3.org/2000/svg"
   xmlns:sodipodi="http://sodipodi.sourceforge.net/DTD/sodipodi-0.dtd"
   xmlns:inkscape="http://www.inkscape.org/namespaces/inkscape"
   version="1.1"
   id="Layer_1"
   x="0px"
   y="0px"
   width="1000"
   height="1000"
   viewBox="0 0 1000 1000"
   enable-background="new 0 0 512 512"
   xml:space="preserve"
   inkscape:version="0.48.0 r9654"
   sodipodi:docname="delphoenician-x10903.svg"><title
   id="title3743">Sinai 357</title><metadata
   id="metadata72"><rdf:RDF><cc:Work
       rdf:about=""><dc:format>image/svg+xml</dc:format><dc:type
         rdf:resource="http://purl.org/dc/dcmitype/StillImage" /><dc:title>Sinai 357</dc:title><dc:date>2017</dc:date><dc:creator><cc:Agent><dc:title>Celeste Claire Horner</dc:title></cc:Agent></dc:creator><dc:publisher><cc:Agent><dc:title>beitdina.net</dc:title></cc:Agent></dc:publisher></cc:Work></rdf:RDF></metadata><defs
   id="defs70" /><sodipodi:namedview
   pagecolor="#ffffff"
   bordercolor="#666666"
   borderopacity="1"
   objecttolerance="10"
   gridtolerance="10"
   guidetolerance="10"
   inkscape:pageopacity="0"
   inkscape:pageshadow="2"
   inkscape:window-width="949"
   inkscape:window-height="710"
   id="namedview68"
   showgrid="false"
   inkscape:zoom="0.63999997"
   inkscape:cx="607.42688"
   inkscape:cy="522.80852"
   inkscape:window-x="389"
   inkscape:window-y="48"
   inkscape:window-maximized="0"
   inkscape:current-layer="Layer_1" />
   
	<g
   id="Grid"
   transform="matrix(1.949083,0,0,1.9463791,0.47454151,0.4731908)">
		<rect
   x="0"
   stroke-miterlimit="10"
   width="512"
   height="512"
   id="rect4"
   y="0"
   style="fill:none;stroke:#a9ccdb;stroke-miterlimit:10" />
		<line
   stroke-miterlimit="10"
   x1="0"
   y1="32"
   x2="512"
   y2="32"
   id="line6"
   style="fill:none;stroke:#a9ccdb;stroke-miterlimit:10" />
		<line
   stroke-miterlimit="10"
   x1="0"
   y1="64"
   x2="512"
   y2="64"
   id="line8"
   style="fill:none;stroke:#a9ccdb;stroke-miterlimit:10" />
		<line
   stroke-miterlimit="10"
   x1="0"
   y1="96"
   x2="512"
   y2="96"
   id="line10"
   style="fill:none;stroke:#a9ccdb;stroke-miterlimit:10" />
		<line
   stroke-miterlimit="10"
   x1="0"
   y1="128"
   x2="512"
   y2="128"
   id="line12"
   style="fill:none;stroke:#a9ccdb;stroke-miterlimit:10" />
		<line
   stroke-miterlimit="10"
   x1="0"
   y1="160"
   x2="512"
   y2="160"
   id="line14"
   style="fill:none;stroke:#a9ccdb;stroke-miterlimit:10" />
		<line
   stroke-miterlimit="10"
   x1="0"
   y1="192"
   x2="512"
   y2="192"
   id="line16"
   style="fill:none;stroke:#a9ccdb;stroke-miterlimit:10" />
		<line
   stroke-miterlimit="10"
   x1="0"
   y1="224"
   x2="512"
   y2="224"
   id="line18"
   style="fill:none;stroke:#a9ccdb;stroke-miterlimit:10" />
		<line
   stroke-miterlimit="10"
   x1="0"
   y1="256"
   x2="512"
   y2="256"
   id="line20"
   style="fill:none;stroke:#a9ccdb;stroke-miterlimit:10" />
		<line
   stroke-miterlimit="10"
   x1="0"
   y1="288"
   x2="512"
   y2="288"
   id="line22"
   style="fill:none;stroke:#a9ccdb;stroke-miterlimit:10" />
		<line
   stroke-miterlimit="10"
   x1="0"
   y1="320"
   x2="512"
   y2="320"
   id="line24"
   style="fill:none;stroke:#a9ccdb;stroke-miterlimit:10" />
		<line
   stroke-miterlimit="10"
   x1="0"
   y1="352"
   x2="512"
   y2="352"
   id="line26"
   style="fill:none;stroke:#a9ccdb;stroke-miterlimit:10" />
		<line
   stroke-miterlimit="10"
   x1="0"
   y1="384"
   x2="512"
   y2="384"
   id="line28"
   style="fill:none;stroke:#a9ccdb;stroke-miterlimit:10" />
		<line
   stroke-miterlimit="10"
   x1="0"
   y1="416"
   x2="512"
   y2="416"
   id="line30"
   style="fill:none;stroke:#a9ccdb;stroke-miterlimit:10" />
		<line
   stroke-miterlimit="10"
   x1="0"
   y1="448"
   x2="512"
   y2="448"
   id="line32"
   style="fill:none;stroke:#ff0000;stroke-miterlimit:10" />
		<line
   stroke-miterlimit="10"
   x1="0"
   y1="480"
   x2="512"
   y2="480"
   id="line34"
   style="fill:none;stroke:#a9ccdb;stroke-miterlimit:10" />
		<line
   stroke-miterlimit="10"
   x1="32"
   y1="0"
   x2="32"
   y2="512"
   id="line36"
   style="fill:none;stroke:#a9ccdb;stroke-miterlimit:10" />
		<line
   stroke-miterlimit="10"
   x1="64"
   y1="0"
   x2="64"
   y2="512"
   id="line38"
   style="fill:none;stroke:#a9ccdb;stroke-miterlimit:10" />
		<line
   stroke-miterlimit="10"
   x1="96"
   y1="0"
   x2="96"
   y2="512"
   id="line40"
   style="fill:none;stroke:#a9ccdb;stroke-miterlimit:10" />
		<line
   stroke-miterlimit="10"
   x1="128"
   y1="0"
   x2="128"
   y2="512"
   id="line42"
   style="fill:none;stroke:#a9ccdb;stroke-miterlimit:10" />
		<line
   stroke-miterlimit="10"
   x1="160"
   y1="0"
   x2="160"
   y2="512"
   id="line44"
   style="fill:none;stroke:#a9ccdb;stroke-miterlimit:10" />
		<line
   stroke-miterlimit="10"
   x1="192"
   y1="0"
   x2="192"
   y2="512"
   id="line46"
   style="fill:none;stroke:#a9ccdb;stroke-miterlimit:10" />
		<line
   stroke-miterlimit="10"
   x1="224"
   y1="0"
   x2="224"
   y2="512"
   id="line48"
   style="fill:none;stroke:#a9ccdb;stroke-miterlimit:10" />
		<line
   stroke-miterlimit="10"
   x1="256"
   y1="0"
   x2="256"
   y2="512"
   id="line50"
   style="fill:none;stroke:#a9ccdb;stroke-miterlimit:10" />
		<line
   stroke-miterlimit="10"
   x1="288"
   y1="0"
   x2="288"
   y2="512"
   id="line52"
   style="fill:none;stroke:#a9ccdb;stroke-miterlimit:10" />
		<line
   stroke-miterlimit="10"
   x1="320"
   y1="0"
   x2="320"
   y2="512"
   id="line54"
   style="fill:none;stroke:#a9ccdb;stroke-miterlimit:10" />
		<line
   stroke-miterlimit="10"
   x1="352"
   y1="0"
   x2="352"
   y2="512"
   id="line56"
   style="fill:none;stroke:#a9ccdb;stroke-miterlimit:10" />
		<line
   stroke-miterlimit="10"
   x1="384"
   y1="0"
   x2="384"
   y2="512"
   id="line58"
   style="fill:none;stroke:#a9ccdb;stroke-miterlimit:10" />
		<line
   stroke-miterlimit="10"
   x1="416"
   y1="0"
   x2="416"
   y2="512"
   id="line60"
   style="fill:none;stroke:#a9ccdb;stroke-miterlimit:10" />
		<line
   stroke-miterlimit="10"
   x1="448"
   y1="0"
   x2="448"
   y2="512"
   id="line62"
   style="fill:none;stroke:#a9ccdb;stroke-miterlimit:10" />
		<line
   stroke-miterlimit="10"
   x1="480"
   y1="0"
   x2="480"
   y2="512"
   id="line64"
   style="fill:none;stroke:#a9ccdb;stroke-miterlimit:10" />
	</g>
     <path
   glyph-name="DeltPhoenician"
   unicode="ð¤ƒ"
   horiz-adv-x="512"
   d="m 271.41791,429.03454 c 8.33619,-6.58018 27.9082,-17.87066 34.31637,-22.28052 13.16707,-9.06012 25.75751,-2.63876 47.29494,-8.83627 15.38906,4.96665 43.0956,11.9095 52.40259,12.5107 16.65049,1.07576 20.94115,-1.19363 33.42713,-1.12596 13.40548,0.0708 20.82818,-7.04422 35.00077,-12.11154 6.25521,-2.23213 30.04367,2.78907 37.28443,-0.38129 9.16803,-4.01585 27.88331,-29.95978 33.94232,-32.28562 34.24119,-11.83055 39.84588,-8.54026 60.17078,-18.98707 15.8821,-8.16338 34.8386,-11.83369 52.76535,-37.69789 11.52313,-15.93441 45.62985,-13.31756 56.5017,-32.04617 12.68464,-21.85163 7.71275,-43.69974 11.0117,-45.68037 4.38141,-2.21022 4.80998,-18.67668 10.82697,-17.74136 4.47014,4.62078 7.31833,8.72609 11.09309,13.41838 4.03455,5.01418 9.01503,10.58337 14.56544,14.45243 8.87756,6.29538 16.64156,6.65412 19.9975,-5.91386 1.17187,-5.40547 -5.52543,-17.76722 -8.01589,-22.43042 -7.11899,-13.3326 -16.20168,-26.89085 -13.71202,-31.77829 19.61864,-4.78899 28.5379,-2.51846 38.33431,3.06499 12.01697,12.33787 22.75772,25.7045 32.3261,40.22705 5.1345,11.49071 22.5631,42.63908 33.1607,65.82098 8.6542,18.92988 17.4671,29.82121 13.3301,36.76857 -4.6247,2.30351 -9.4765,4.38788 -14.3594,6.31509 -5.4464,2.19626 -10.9672,4.1043 -16.235,5.94674 -6.4665,2.24977 -12.8371,4.39937 -18.82159,7.2335 -3.39731,-1.36184 -5.5606,-19.87655 -11.22668,-34.84563 -4.09724,-7.46898 -9.14685,-19.31983 -14.80195,-25.18066 -4.27583,-4.4312 -8.89685,-5.43949 -13.71434,1.45632 -4.39827,1.68837 -3.82811,14.62788 -0.20938,28.58345 3.26046,12.57155 34.09063,67.10816 28.40464,71.77499 -9.7218,7.98169 -12.4739,7.85891 -27.37424,13.87132 -7.94839,3.20959 -21.82943,43.59868 -32.07759,47.09407 -14.97889,5.10526 -65.52472,-53.80654 -74.80873,-47.3887 -15.70042,10.85355 -9.07267,11.1244 -15.10677,20.38699 -3.09835,4.75637 -15.49943,21.45599 -28.29031,46.9537 -10.95292,23.3604 -21.02634,40.89922 -31.65212,63.43555 -2.63201,6.08762 -6.04248,11.70044 -9.94855,16.87693 -9.92375,13.14905 -23.04386,23.48246 -34.71894,31.63169 -12.13992,8.35624 -20.06344,12.13328 -32.38342,19.48182 -46.86968,13.40366 -110.52666,52.604 -169.97654,74.62892 -21.93995,8.12829 -43.30691,19.31609 -63.04561,18.27518 -14.89596,-0.78553 -28.86462,-4.97599 -41.45244,-13.7697 -60.45391,-44.52628 -88.57194,-86.37277 -106.20313,-136.07895 -2.44504,-19.04467 9.92139,-30.04249 21.35056,-38.12634 19.98594,-14.10564 53.30277,-36.25481 76.08212,-53.15413 1.86313,-1.3822 13.09,11.37134 28.87278,30.95521 15.59017,19.34487 35.62573,45.35439 55.47272,70.98735 13.43963,17.35767 26.79279,34.54268 38.6206,49.36864 16.6846,20.91389 30.33394,37.13362 36.9091,42.52212 9.9456,8.15066 27.19726,12.31081 15.40416,-10.34903 -11.07382,-21.27778 -34.93128,-56.33745 -62.94646,-94.29401 -16.04987,-21.74529 -33.46436,-44.44138 -50.6215,-66.04153 -12.7556,-16.0588 -25.36896,-31.51183 -37.17357,-45.51805 z m 77.01671,-53.24548 c -15.2013,9.12875 -36.94431,4.49 -55.08254,11.52872 -4.94483,1.89811 -29.14075,25.79527 -32.97645,27.52866 -14.09464,6.37199 -18.32543,2.95368 -32.32311,14.08246 -7.74244,6.25297 -14.75971,11.11167 -22.02289,15.7183 -6.84434,4.34208 -13.90641,8.46051 -21.99914,13.3115 -10.55262,3.64931 -18.90121,9.96798 -26.29631,17.04066 -4.31124,4.99397 -10.86343,10.68961 -16.47824,16.98703 -6.96633,7.81251 -12.48862,16.55013 -10.49697,26.02029 -10.84155,25.62754 13.60158,72.43932 20.44859,89.85456 8.59073,19.03354 73.61345,87.34713 86.88932,96.29483 21.02489,13.59802 41.90364,18.2431 62.50503,17.99784 29.29335,-4.35638 42.04263,-11.31611 67.99351,-22.20971 8.15862,-3.42764 13.58974,-11.04924 25.34993,-15.3142 10.41065,-3.77444 27.25484,-4.2808 33.73506,-6.25269 8.35658,-5.11291 24.8454,-9.54799 33.73665,-14.23306 22.42192,-12.66123 58.8861,-28.56373 79.97582,-40.36181 13.52977,-7.57002 24.26657,-16.5742 36.84362,-24.79703 15.57747,-10.3796 23.40998,-28.42646 37.58773,-40.90615 3.46531,-3.05049 7.57354,-4.01565 10.57638,-7.26366 23.54953,-3.89078 66.81595,16.45706 88.98093,11.22334 14.49394,-3.42201 18.59465,-24.89591 2.94345,-44.97979 -11.75024,-12.4149 -50.48251,-2.75516 -60.33576,-11.91363 -12.34824,-11.47949 12.39724,-36.02084 12.16437,-42.3791 4.36228,-8.11272 10.68402,-22.65387 16.57662,-29.42135 17.98383,-19.7818 55.58522,49.44553 78.42107,42.24353 14.3135,-4.51173 18.92833,-50.6043 32.98988,-54.22372 10.00843,-2.90142 3.13054,-4.98875 44.07552,-16.46463 26.8542,-7.52838 -10.11966,-28.00085 -4.9516,-30.06713 7.2581,-2.20492 14.517,-4.14076 21.662,-6.06353 9.2525,-2.48975 18.3153,-4.95747 26.9352,-7.96616 11.4261,-4.17475 20.1735,-11.719 22.4301,-19.87082 3.6054,-16.79206 -7.226,-41.4723 -17.8361,-64.09671 -11.3871,-24.21759 -22.0128,-45.20668 -35.0262,-66.66137 -10.3411,-16.3497 -20.9681,-37.04558 -34.97112,-48.92437 -10.15575,-8.61546 -22.94812,-10.15468 -34.54203,-13.81395 -8.50014,-1.65686 -16.60527,-1.11748 -24.28553,0.53313 -8.20658,1.76491 -15.92831,4.79982 -23.12866,7.78149 -12.47959,8.31966 -23.25847,25.23951 -26.85823,35.19709 -6.4488,19.5985 -0.752,58.3346 -12.70994,71.74786 -11.20742,11.80641 -46.89083,15.99942 -61.16175,34.47531 -20.08371,26.00316 -37.15235,26.93705 -39.28884,27.88392 -5.87709,2.60474 -40.32671,8.21451 -64.23786,19.9449 -3.07533,1.6877 -19.57446,33.56879 -30.38217,31.09332 -8.26785,-1.8929 -11.47757,-3.45033 -22.77075,-4.7261 -6.54177,3.45158 -22.0474,21.13237 -41.93106,20.56552 -14.40337,-0.41058 -23.04041,-2.2378 -36.49966,-6.66773 -30.07036,3.16252 -27.49161,0.98932 -54.22715,-9.47406 z"
   id="path39"
   inkscape:connector-curvature="0"
   sodipodi:nodetypes="ccccccccscscccccccccccccccccccccsccccccsscccsssssssscccccccccccccccccccccccccccccccccccccccccccscccsccc" /></svg>