<?xml version="1.0" encoding="UTF-8" standalone="no"?>
<svg
   xmlns:dc="http://purl.org/dc/elements/1.1/"
   xmlns:cc="http://creativecommons.org/ns#"
   xmlns:rdf="http://www.w3.org/1999/02/22-rdf-syntax-ns#"
   xmlns:svg="http://www.w3.org/2000/svg"
   xmlns="http://www.w3.org/2000/svg"
   xmlns:sodipodi="http://sodipodi.sourceforge.net/DTD/sodipodi-0.dtd"
   xmlns:inkscape="http://www.inkscape.org/namespaces/inkscape"
   version="1.1"
   id="Layer_1"
   x="0px"
   y="0px"
   width="500"
   height="512"
   viewBox="0 0 500 512"
   enable-background="new 0 0 512 512"
   xml:space="preserve"
   inkscape:version="0.48.0 r9654"
   sodipodi:docname="dolhebrew-x5d3.svg"><title
   id="title3743">Sinai 357</title><metadata
   id="metadata72"><rdf:RDF><cc:Work
       rdf:about=""><dc:format>image/svg+xml</dc:format><dc:type
         rdf:resource="http://purl.org/dc/dcmitype/StillImage" /><dc:title>Sinai 357</dc:title><dc:date>2017</dc:date><dc:creator><cc:Agent><dc:title>Celeste Claire Horner</dc:title></cc:Agent></dc:creator><dc:publisher><cc:Agent><dc:title>beitdina.net</dc:title></cc:Agent></dc:publisher></cc:Work></rdf:RDF></metadata><defs
   id="defs70" /><sodipodi:namedview
   pagecolor="#ffffff"
   bordercolor="#666666"
   borderopacity="1"
   objecttolerance="10"
   gridtolerance="10"
   guidetolerance="10"
   inkscape:pageopacity="0"
   inkscape:pageshadow="2"
   inkscape:window-width="1152"
   inkscape:window-height="814"
   id="namedview68"
   showgrid="false"
   inkscape:zoom="0.31999999"
   inkscape:cx="410.49123"
   inkscape:cy="571.95258"
   inkscape:window-x="-8"
   inkscape:window-y="-8"
   inkscape:window-maximized="1"
   inkscape:current-layer="Layer_1" />
   
	<g
   id="Grid"
   transform="matrix(1.949083,0,0,1.9463791,0.47454151,0.4731908)">
		<rect
   x="0"
   stroke-miterlimit="10"
   width="512"
   height="512"
   id="rect4"
   y="0"
   style="fill:none;stroke:#a9ccdb;stroke-miterlimit:10" />
		<line
   stroke-miterlimit="10"
   x1="0"
   y1="32"
   x2="512"
   y2="32"
   id="line6"
   style="fill:none;stroke:#a9ccdb;stroke-miterlimit:10" />
		<line
   stroke-miterlimit="10"
   x1="0"
   y1="64"
   x2="512"
   y2="64"
   id="line8"
   style="fill:none;stroke:#a9ccdb;stroke-miterlimit:10" />
		<line
   stroke-miterlimit="10"
   x1="0"
   y1="96"
   x2="512"
   y2="96"
   id="line10"
   style="fill:none;stroke:#a9ccdb;stroke-miterlimit:10" />
		<line
   stroke-miterlimit="10"
   x1="0"
   y1="128"
   x2="512"
   y2="128"
   id="line12"
   style="fill:none;stroke:#a9ccdb;stroke-miterlimit:10" />
		<line
   stroke-miterlimit="10"
   x1="0"
   y1="160"
   x2="512"
   y2="160"
   id="line14"
   style="fill:none;stroke:#a9ccdb;stroke-miterlimit:10" />
		<line
   stroke-miterlimit="10"
   x1="0"
   y1="192"
   x2="512"
   y2="192"
   id="line16"
   style="fill:none;stroke:#a9ccdb;stroke-miterlimit:10" />
		<line
   stroke-miterlimit="10"
   x1="0"
   y1="224"
   x2="512"
   y2="224"
   id="line18"
   style="fill:none;stroke:#a9ccdb;stroke-miterlimit:10" />
		<line
   stroke-miterlimit="10"
   x1="0"
   y1="256"
   x2="512"
   y2="256"
   id="line20"
   style="fill:none;stroke:#a9ccdb;stroke-miterlimit:10" />
		<line
   stroke-miterlimit="10"
   x1="0"
   y1="288"
   x2="512"
   y2="288"
   id="line22"
   style="fill:none;stroke:#a9ccdb;stroke-miterlimit:10" />
		<line
   stroke-miterlimit="10"
   x1="0"
   y1="320"
   x2="512"
   y2="320"
   id="line24"
   style="fill:none;stroke:#a9ccdb;stroke-miterlimit:10" />
		<line
   stroke-miterlimit="10"
   x1="0"
   y1="352"
   x2="512"
   y2="352"
   id="line26"
   style="fill:none;stroke:#a9ccdb;stroke-miterlimit:10" />
		<line
   stroke-miterlimit="10"
   x1="0"
   y1="384"
   x2="512"
   y2="384"
   id="line28"
   style="fill:none;stroke:#a9ccdb;stroke-miterlimit:10" />
		<line
   stroke-miterlimit="10"
   x1="0"
   y1="416"
   x2="512"
   y2="416"
   id="line30"
   style="fill:none;stroke:#a9ccdb;stroke-miterlimit:10" />
		<line
   stroke-miterlimit="10"
   x1="0"
   y1="448"
   x2="512"
   y2="448"
   id="line32"
   style="fill:none;stroke:#ff0000;stroke-miterlimit:10" />
		<line
   stroke-miterlimit="10"
   x1="0"
   y1="480"
   x2="512"
   y2="480"
   id="line34"
   style="fill:none;stroke:#a9ccdb;stroke-miterlimit:10" />
		<line
   stroke-miterlimit="10"
   x1="32"
   y1="0"
   x2="32"
   y2="512"
   id="line36"
   style="fill:none;stroke:#a9ccdb;stroke-miterlimit:10" />
		<line
   stroke-miterlimit="10"
   x1="64"
   y1="0"
   x2="64"
   y2="512"
   id="line38"
   style="fill:none;stroke:#a9ccdb;stroke-miterlimit:10" />
		<line
   stroke-miterlimit="10"
   x1="96"
   y1="0"
   x2="96"
   y2="512"
   id="line40"
   style="fill:none;stroke:#a9ccdb;stroke-miterlimit:10" />
		<line
   stroke-miterlimit="10"
   x1="128"
   y1="0"
   x2="128"
   y2="512"
   id="line42"
   style="fill:none;stroke:#a9ccdb;stroke-miterlimit:10" />
		<line
   stroke-miterlimit="10"
   x1="160"
   y1="0"
   x2="160"
   y2="512"
   id="line44"
   style="fill:none;stroke:#a9ccdb;stroke-miterlimit:10" />
		<line
   stroke-miterlimit="10"
   x1="192"
   y1="0"
   x2="192"
   y2="512"
   id="line46"
   style="fill:none;stroke:#a9ccdb;stroke-miterlimit:10" />
		<line
   stroke-miterlimit="10"
   x1="224"
   y1="0"
   x2="224"
   y2="512"
   id="line48"
   style="fill:none;stroke:#a9ccdb;stroke-miterlimit:10" />
		<line
   stroke-miterlimit="10"
   x1="256"
   y1="0"
   x2="256"
   y2="512"
   id="line50"
   style="fill:none;stroke:#a9ccdb;stroke-miterlimit:10" />
		<line
   stroke-miterlimit="10"
   x1="288"
   y1="0"
   x2="288"
   y2="512"
   id="line52"
   style="fill:none;stroke:#a9ccdb;stroke-miterlimit:10" />
		<line
   stroke-miterlimit="10"
   x1="320"
   y1="0"
   x2="320"
   y2="512"
   id="line54"
   style="fill:none;stroke:#a9ccdb;stroke-miterlimit:10" />
		<line
   stroke-miterlimit="10"
   x1="352"
   y1="0"
   x2="352"
   y2="512"
   id="line56"
   style="fill:none;stroke:#a9ccdb;stroke-miterlimit:10" />
		<line
   stroke-miterlimit="10"
   x1="384"
   y1="0"
   x2="384"
   y2="512"
   id="line58"
   style="fill:none;stroke:#a9ccdb;stroke-miterlimit:10" />
		<line
   stroke-miterlimit="10"
   x1="416"
   y1="0"
   x2="416"
   y2="512"
   id="line60"
   style="fill:none;stroke:#a9ccdb;stroke-miterlimit:10" />
		<line
   stroke-miterlimit="10"
   x1="448"
   y1="0"
   x2="448"
   y2="512"
   id="line62"
   style="fill:none;stroke:#a9ccdb;stroke-miterlimit:10" />
		<line
   stroke-miterlimit="10"
   x1="480"
   y1="0"
   x2="480"
   y2="512"
   id="line64"
   style="fill:none;stroke:#a9ccdb;stroke-miterlimit:10" />
	</g>
     <path
   style="fill:#484e58"
   d="m 550.84505,611.31677 c -4.95364,-3.22639 -13.60256,-10.01197 -19.21983,-15.07907 -12.95848,-11.68937 -58.47321,-39.0444 -92.5783,-55.64096 -25.62756,-12.4711 -27.38356,-12.80046 -69.2114,-12.98134 -32.07096,-0.13873 -46.48129,1.2924 -57.02173,5.66278 -7.75775,3.21659 -17.59306,5.88389 -21.85623,5.92728 -4.26317,0.0434 -11.84927,3.20109 -16.85799,7.01712 -13.23747,10.08535 -22.26463,8.70034 -34.6057,-5.30939 -10.01544,-11.36966 -13.0087,-12.57229 -35.84022,-14.39995 -13.70165,-1.09683 -28.97112,-3.49735 -33.93216,-5.33451 -4.96104,-1.83716 -15.2435,-3.34028 -22.84991,-3.34028 -18.31511,0 -59.776234,-18.61325 -79.908034,-35.87336 -8.8521,-7.58939 -18.11399,-13.79888 -20.58199,-13.79888 -2.468,0 -11.25291,-7.14907 -19.52203,-15.88681 -13.25336,-14.00445 -15.03475,-17.89957 -15.03475,-32.87451 0,-20.48859 9.29883,-38.92479 24.85221,-49.27287 11.41716,-7.59612 56.69025,-16.16707 81.298004,-15.39105 6.73074,0.21218 23.71224,0.23063 37.73665,0.0412 14.02442,-0.18982 39.43229,1.45121 56.46194,3.64644 17.02965,2.19527 35.06104,4.51464 40.06976,5.15417 32.4987,4.14955 59.34202,9.30645 78.31817,15.04572 12.02092,3.63572 25.13466,5.54839 29.14164,4.25042 4.00698,-1.29797 10.97365,-3.58141 15.4815,-5.07427 4.50785,-1.4929 8.19609,-4.01004 8.19609,-5.59363 0,-1.58362 9.20151,-6.23251 20.44778,-10.3309 23.85396,-8.69292 30.55009,-6.00576 30.55009,12.25982 0,10.60052 -1.63426,12.23427 -19.9727,19.96664 -26.53572,11.18874 -26.64868,18.60144 -0.58196,38.18905 28.64085,21.52188 49.93982,26.64184 98.87283,23.76766 22.03837,-1.29449 46.62663,-3.1021 54.64058,-4.01692 37.26011,-4.25343 67.07113,-3.39325 72.73962,2.09883 7.58743,7.35138 9.56429,36.77058 5.16252,76.82769 -5.37897,48.94944 -9.94455,61.01234 -28.23483,74.60018 -13.42887,9.97631 -18.54957,11.61 -36.39048,11.61 -13.25144,0 -24.02081,-2.12214 -29.76914,-5.86615 z m 43.60082,-15.8817 c 18.90604,-6.41936 24.10534,-22.24479 34.81905,-105.98076 2.45176,-19.16266 -1.09565,-21.8033 -27.65356,-20.58502 l -23.34588,1.07093 0.60924,12.41806 c 2.2266,45.38268 -14.7566,47.32203 -22.37535,2.5551 l -2.28241,-13.411 -49.90172,0.68477 c -49.70861,0.68214 -49.9934,0.63992 -73.57933,-10.90735 -13.02268,-6.37568 -31.05407,-17.51642 -40.06976,-24.75718 -49.1475,-39.47172 -68.33709,-49.8039 -105.63846,-56.87858 -32.00251,-6.06962 -96.12461,-13.55697 -100.94641,-11.78715 -2.4281,0.89123 -5.51602,5.06526 -6.86205,9.27565 -5.3199,16.64066 -38.07677,83.69237 -49.19181,100.69322 -9.26783,14.17546 -6.68641,18.73129 10.59635,18.70103 7.39484,-0.0142 27.75705,2.64756 45.24936,5.91227 26.90957,5.02229 33.99799,5.2306 46.05897,1.35357 11.35195,-3.6491 17.98046,-3.71165 32.55042,-0.30726 14.17885,3.31303 20.12156,3.32318 26.41022,0.0451 6.0929,-3.17604 11.38686,-3.24888 21.24896,-0.29235 7.22392,2.16563 37.72266,5.28441 67.77498,6.93066 l 54.64058,2.99314 27.32029,15.05739 c 15.02616,8.28157 40.43403,23.69189 56.46193,34.24511 16.02791,10.55322 30.17221,19.1991 31.43174,19.21304 1.25954,0.0142 4.30455,-4.71155 6.76666,-10.50107 6.46635,-15.20538 13.2181,-19.86052 20.39325,-14.06047 4.40574,3.56143 5.21573,8.28182 3.42108,19.93812 -2.01238,13.07079 -0.66916,22.38884 3.22736,22.38884 0.58455,0 6.37438,-1.8035 12.8663,-4.00777 z M 130.98492,446.87811 c 25.51955,-50.07493 35.0598,-74.73312 30.59629,-79.08061 -4.47792,-4.36151 -65.880684,-3.7031 -91.223814,0.97819 -35.55208,6.56706 -54.32117,32.00715 -44.04812,59.70393 5.7628,15.53684 11.08165,19.9296 32.87067,27.14748 10.22144,3.38594 20.285,10.18458 26.73323,18.06011 16.676114,20.36732 22.922964,16.65166 45.071744,-26.8091 z"
   id="path3758"
   inkscape:connector-curvature="0"
   sodipodi:nodetypes="csssssssssssssssccsssssssssssssssscccsscsscssssssscsssssscsscssssccsssssss" /></svg>