<?xml version="1.0" encoding="UTF-8" standalone="no"?>
<svg
   xmlns:dc="http://purl.org/dc/elements/1.1/"
   xmlns:cc="http://creativecommons.org/ns#"
   xmlns:rdf="http://www.w3.org/1999/02/22-rdf-syntax-ns#"
   xmlns:svg="http://www.w3.org/2000/svg"
   xmlns="http://www.w3.org/2000/svg"
   xmlns:sodipodi="http://sodipodi.sourceforge.net/DTD/sodipodi-0.dtd"
   xmlns:inkscape="http://www.inkscape.org/namespaces/inkscape"
   version="1.1"
   id="Layer_1"
   x="0px"
   y="0px"
   width="1024"
   height="1024"
   viewBox="0 0 1024 1024"
   enable-background="new 0 0 512 512"
   xml:space="preserve"
   inkscape:version="0.48.0 r9654"
   sodipodi:docname="finalnunhebrew-x5df.svg"><title
   id="title3743">Sinai 357</title><metadata
   id="metadata72"><rdf:RDF><cc:Work
       rdf:about=""><dc:format>image/svg+xml</dc:format><dc:type
         rdf:resource="http://purl.org/dc/dcmitype/StillImage" /><dc:title>Sinai 357</dc:title><dc:date>2017</dc:date><dc:creator><cc:Agent><dc:title>Celeste Claire Horner</dc:title></cc:Agent></dc:creator><dc:publisher><cc:Agent><dc:title>beitdina.net</dc:title></cc:Agent></dc:publisher></cc:Work></rdf:RDF></metadata><defs
   id="defs70" /><sodipodi:namedview
   pagecolor="#ffffff"
   bordercolor="#666666"
   borderopacity="1"
   objecttolerance="10"
   gridtolerance="10"
   guidetolerance="10"
   inkscape:pageopacity="0"
   inkscape:pageshadow="2"
   inkscape:window-width="1152"
   inkscape:window-height="814"
   id="namedview68"
   showgrid="false"
   inkscape:zoom="0.21648644"
   inkscape:cx="-815.64047"
   inkscape:cy="262.69421"
   inkscape:window-x="-8"
   inkscape:window-y="-8"
   inkscape:window-maximized="1"
   inkscape:current-layer="Layer_1" />
   
	<g
   id="Grid"
   transform="matrix(2.0004581,0,0,2.0004578,0.50019527,4.813853)">
		<rect
   x="0"
   stroke-miterlimit="10"
   width="512"
   height="512"
   id="rect4"
   y="0"
   style="fill:none;stroke:#a9ccdb;stroke-miterlimit:10" />
		<line
   stroke-miterlimit="10"
   x1="0"
   y1="32"
   x2="512"
   y2="32"
   id="line6"
   style="fill:none;stroke:#a9ccdb;stroke-miterlimit:10" />
		<line
   stroke-miterlimit="10"
   x1="0"
   y1="64"
   x2="512"
   y2="64"
   id="line8"
   style="fill:none;stroke:#a9ccdb;stroke-miterlimit:10" />
		<line
   stroke-miterlimit="10"
   x1="0"
   y1="96"
   x2="512"
   y2="96"
   id="line10"
   style="fill:none;stroke:#a9ccdb;stroke-miterlimit:10" />
		<line
   stroke-miterlimit="10"
   x1="0"
   y1="128"
   x2="512"
   y2="128"
   id="line12"
   style="fill:none;stroke:#a9ccdb;stroke-miterlimit:10" />
		<line
   stroke-miterlimit="10"
   x1="0"
   y1="160"
   x2="512"
   y2="160"
   id="line14"
   style="fill:none;stroke:#a9ccdb;stroke-miterlimit:10" />
		<line
   stroke-miterlimit="10"
   x1="0"
   y1="192"
   x2="512"
   y2="192"
   id="line16"
   style="fill:none;stroke:#a9ccdb;stroke-miterlimit:10" />
		<line
   stroke-miterlimit="10"
   x1="0"
   y1="224"
   x2="512"
   y2="224"
   id="line18"
   style="fill:none;stroke:#a9ccdb;stroke-miterlimit:10" />
		<line
   stroke-miterlimit="10"
   x1="0"
   y1="256"
   x2="512"
   y2="256"
   id="line20"
   style="fill:none;stroke:#a9ccdb;stroke-miterlimit:10" />
		<line
   stroke-miterlimit="10"
   x1="0"
   y1="288"
   x2="512"
   y2="288"
   id="line22"
   style="fill:none;stroke:#a9ccdb;stroke-miterlimit:10" />
		<line
   stroke-miterlimit="10"
   x1="0"
   y1="320"
   x2="512"
   y2="320"
   id="line24"
   style="fill:none;stroke:#a9ccdb;stroke-miterlimit:10" />
		<line
   stroke-miterlimit="10"
   x1="0"
   y1="352"
   x2="512"
   y2="352"
   id="line26"
   style="fill:none;stroke:#a9ccdb;stroke-miterlimit:10" />
		<line
   stroke-miterlimit="10"
   x1="0"
   y1="384"
   x2="512"
   y2="384"
   id="line28"
   style="fill:none;stroke:#a9ccdb;stroke-miterlimit:10" />
		<line
   stroke-miterlimit="10"
   x1="0"
   y1="416"
   x2="512"
   y2="416"
   id="line30"
   style="fill:none;stroke:#a9ccdb;stroke-miterlimit:10" />
		<line
   stroke-miterlimit="10"
   x1="0"
   y1="448"
   x2="512"
   y2="448"
   id="line32"
   style="fill:none;stroke:#ff0000;stroke-miterlimit:10" />
		<line
   stroke-miterlimit="10"
   x1="0"
   y1="480"
   x2="512"
   y2="480"
   id="line34"
   style="fill:none;stroke:#a9ccdb;stroke-miterlimit:10" />
		<line
   stroke-miterlimit="10"
   x1="32"
   y1="0"
   x2="32"
   y2="512"
   id="line36"
   style="fill:none;stroke:#a9ccdb;stroke-miterlimit:10" />
		<line
   stroke-miterlimit="10"
   x1="64"
   y1="0"
   x2="64"
   y2="512"
   id="line38"
   style="fill:none;stroke:#a9ccdb;stroke-miterlimit:10" />
		<line
   stroke-miterlimit="10"
   x1="96"
   y1="0"
   x2="96"
   y2="512"
   id="line40"
   style="fill:none;stroke:#a9ccdb;stroke-miterlimit:10" />
		<line
   stroke-miterlimit="10"
   x1="128"
   y1="0"
   x2="128"
   y2="512"
   id="line42"
   style="fill:none;stroke:#a9ccdb;stroke-miterlimit:10" />
		<line
   stroke-miterlimit="10"
   x1="160"
   y1="0"
   x2="160"
   y2="512"
   id="line44"
   style="fill:none;stroke:#a9ccdb;stroke-miterlimit:10" />
		<line
   stroke-miterlimit="10"
   x1="192"
   y1="0"
   x2="192"
   y2="512"
   id="line46"
   style="fill:none;stroke:#a9ccdb;stroke-miterlimit:10" />
		<line
   stroke-miterlimit="10"
   x1="224"
   y1="0"
   x2="224"
   y2="512"
   id="line48"
   style="fill:none;stroke:#a9ccdb;stroke-miterlimit:10" />
		<line
   stroke-miterlimit="10"
   x1="256"
   y1="0"
   x2="256"
   y2="512"
   id="line50"
   style="fill:none;stroke:#a9ccdb;stroke-miterlimit:10" />
		<line
   stroke-miterlimit="10"
   x1="288"
   y1="0"
   x2="288"
   y2="512"
   id="line52"
   style="fill:none;stroke:#a9ccdb;stroke-miterlimit:10" />
		<line
   stroke-miterlimit="10"
   x1="320"
   y1="0"
   x2="320"
   y2="512"
   id="line54"
   style="fill:none;stroke:#a9ccdb;stroke-miterlimit:10" />
		<line
   stroke-miterlimit="10"
   x1="352"
   y1="0"
   x2="352"
   y2="512"
   id="line56"
   style="fill:none;stroke:#a9ccdb;stroke-miterlimit:10" />
		<line
   stroke-miterlimit="10"
   x1="384"
   y1="0"
   x2="384"
   y2="512"
   id="line58"
   style="fill:none;stroke:#a9ccdb;stroke-miterlimit:10" />
		<line
   stroke-miterlimit="10"
   x1="416"
   y1="0"
   x2="416"
   y2="512"
   id="line60"
   style="fill:none;stroke:#a9ccdb;stroke-miterlimit:10" />
		<line
   stroke-miterlimit="10"
   x1="448"
   y1="0"
   x2="448"
   y2="512"
   id="line62"
   style="fill:none;stroke:#a9ccdb;stroke-miterlimit:10" />
		<line
   stroke-miterlimit="10"
   x1="480"
   y1="0"
   x2="480"
   y2="512"
   id="line64"
   style="fill:none;stroke:#a9ccdb;stroke-miterlimit:10" />
	</g>
	

<path
   style="fill:#4e5665"
   d="m 858.06741,131.46486 c -33.71067,18.36878 -78.42704,71.38703 -108.70298,128.88446 -24.76136,47.02454 -47.24125,86.32215 -73.50002,111.92544 -35.04208,34.16739 -71.55649,46.79614 -78.47951,48.34425 -20.48103,4.05408 -29.12726,10.38709 -40.44618,18.48674 -15.67447,11.21639 -41.13253,37.18508 -55.54972,57.988 -18.06173,25.91368 -24.88874,44.11488 -40.69861,48.75868 -9.50106,2.79069 -20.08015,-2.53258 -45.8693,-23.08096 -18.43596,-14.68952 -40.51379,-27.01827 -50.09032,-36.87354 -17.62441,-12.6375 -41.07261,-25.27418 -60.2439,-22.41767 -21.44693,3.19557 -39.22954,15.73336 -53.68168,31.02538 -10.26744,11.23567 -22.6124,39.48322 -28.71799,61.25532 -4.48987,16.01062 -16.63421,51.34131 -33.67328,91.33374 -33.63699,78.94942 -65.82868,123.7858 -93.531319,130.26986 -29.467467,6.89713 -63.676106,65.25582 -54.609949,93.16249 4.082981,12.56785 8.738436,14.84594 37.77622,18.4852 18.215632,2.28292 48.671348,2.84854 67.679328,1.25691 41.34069,-3.46161 55.55216,-15.76148 66.06107,-57.17505 9.83211,-38.7466 19.89574,-59.5195 44.61478,-92.09154 17.44019,-22.98078 15.93792,-35.64195 20.11502,-63.10512 3.76929,-24.78223 18.71064,-57.40744 31.40539,-76.81457 16.0121,-29.7413 45.56835,-10.48334 50.79067,10.2755 5.42395,23.57344 16.10708,37.79908 32.53563,43.32439 5.47231,1.84046 19.4588,7.43471 31.08104,12.43175 17.86502,7.68111 27.09286,8.05461 59.69792,2.41627 21.21164,-3.66808 43.8116,-10.66368 50.2222,-15.54577 6.41064,-4.88213 18.0994,-24.44439 25.97521,-43.47175 20.9812,-50.68941 38.03757,-73.92186 63.81357,-86.92077 63.59036,-32.06883 96.08792,-53.81763 132.37259,-88.58965 52.56125,-53.46524 75.99882,-112.39825 115.84065,-183.74423 3.28366,-8.00529 8.09053,-18.48493 10.68178,-23.28809 5.78476,-15.44412 25.15935,-53.8669 28.77032,-80.86163 1.537,-18.45494 -3.1891,-30.37218 -20.93353,-29.10934 -11.35673,0.94906 -22.61051,9.06783 -30.7051,13.4653 z m 30.11798,13.95919 c 2.72128,5.1529 0.59231,10.29922 -31.74083,76.72444 -30.02756,61.68879 -72.88285,137.84538 -95.80877,170.25858 -17.55919,24.82566 -99.96801,91.73271 -112.98626,91.73271 -2.68739,0 -17.01737,6.27863 -31.84449,13.95253 -33.52105,17.34919 -60.87291,50.68536 -80.28425,97.84924 -14.58944,35.44819 -15.59459,36.49927 -44.77347,46.81701 -53.10222,18.77715 -106.12515,-2.68984 -118.85544,-48.12014 -14.43114,-29.51833 -41.6059,-49.08225 -65.01904,-29.68715 -7.48682,6.30997 -14.68047,17.84022 -26.14191,41.32814 -11.53515,23.63885 -22.42669,54.32498 -24.2035,68.19148 -2.22038,17.32813 -10.84952,37.13987 -27.59576,63.3575 -13.40081,20.98014 -27.59326,47.18737 -31.53873,58.23823 -11.44516,40.75326 -0.16663,15.84703 -11.35792,40.01444 -14.62746,23.46169 -20.22093,26.38648 -44.94643,29.17659 -27.37697,2.98911 -62.771255,-0.13346 -71.010564,-14.97783 -3.812286,-8.33639 -2.384688,-13.41767 6.400758,-22.78251 6.219044,-6.62922 15.863451,-17.16892 21.431999,-23.42157 5.568527,-6.25265 15.426787,-11.36844 21.907187,-11.36844 19.74526,0 48.07345,-43.18901 81.98329,-124.9912 17.29765,-41.72783 32.85086,-82.8305 34.56267,-91.33918 1.71184,-8.50868 10.08354,-27.15388 15.51809,-41.99123 7.87083,-21.48885 11.67574,-29.7275 28.58902,-38.71159 32.1528,-17.07913 46.44276,-14.77316 77.99126,12.58551 15.29751,13.26588 35.01745,32.03777 43.82218,41.71523 12.73302,13.99516 21.57836,18.13589 43.22973,20.23721 35.92276,3.48629 53.8236,-12.83313 81.034,-62.07325 13.53582,-24.74118 26.93913,-40.94111 41.83702,-48.67136 37.84241,-19.63574 87.36291,-33.75 124.57282,-69.76545 14.8126,-14.61713 33.26342,-41.45236 45.09144,-65.58149 46.44183,-94.74179 79.27319,-142.11694 115.20002,-166.23175 27.57465,-18.50873 31.08297,-19.7605 34.93588,-12.4647 z M 134.07601,846.06356 c 11.27491,12.92738 29.89144,8.02449 25.68194,-12.38598 -10.29172,-11.00159 -25.52438,-1.53067 -25.68194,12.38598 z"
   id="path3760"
   inkscape:connector-curvature="0"
   sodipodi:nodetypes="csscscsscscsssssssssccssssssccccccsssssssccsssccccsssssssssscscsssccc" />
</svg>