<?xml version="1.0" encoding="UTF-8" standalone="no"?>
<svg
   xmlns:dc="http://purl.org/dc/elements/1.1/"
   xmlns:cc="http://creativecommons.org/ns#"
   xmlns:rdf="http://www.w3.org/1999/02/22-rdf-syntax-ns#"
   xmlns:svg="http://www.w3.org/2000/svg"
   xmlns="http://www.w3.org/2000/svg"
   xmlns:sodipodi="http://sodipodi.sourceforge.net/DTD/sodipodi-0.dtd"
   xmlns:inkscape="http://www.inkscape.org/namespaces/inkscape"
   version="1.1"
   id="Layer_1"
   x="0px"
   y="0px"
   width="1024"
   height="900"
   viewBox="0 0 1024 900"
   enable-background="new 0 0 512 512"
   xml:space="preserve"
   inkscape:version="0.48.0 r9654"
   sodipodi:docname="hephoenician-x10904.svg"><title
   id="title3743">Sinai 357</title><metadata
   id="metadata72"><rdf:RDF><cc:Work
       rdf:about=""><dc:format>image/svg+xml</dc:format><dc:type
         rdf:resource="http://purl.org/dc/dcmitype/StillImage" /><dc:title>Sinai 357</dc:title><dc:date>2017</dc:date><dc:creator><cc:Agent><dc:title>Celeste Claire Horner</dc:title></cc:Agent></dc:creator><dc:publisher><cc:Agent><dc:title>beitdina.net</dc:title></cc:Agent></dc:publisher></cc:Work></rdf:RDF></metadata><defs
   id="defs70" /><sodipodi:namedview
   pagecolor="#ffffff"
   bordercolor="#666666"
   borderopacity="1"
   objecttolerance="10"
   gridtolerance="10"
   guidetolerance="10"
   inkscape:pageopacity="0"
   inkscape:pageshadow="2"
   inkscape:window-width="1013"
   inkscape:window-height="710"
   id="namedview68"
   showgrid="false"
   inkscape:zoom="0.36045873"
   inkscape:cx="430.5762"
   inkscape:cy="541.70279"
   inkscape:window-x="41"
   inkscape:window-y="57"
   inkscape:window-maximized="0"
   inkscape:current-layer="Layer_1" />
   
	<g
   id="Grid"
   transform="matrix(1.9988492,0,0,1.7551819,2.4343167,-0.03627189)">
		<rect
   x="0"
   stroke-miterlimit="10"
   width="512"
   height="512"
   id="rect4"
   y="0"
   style="fill:none;stroke:#a9ccdb;stroke-miterlimit:10" />
		<line
   stroke-miterlimit="10"
   x1="0"
   y1="32"
   x2="512"
   y2="32"
   id="line6"
   style="fill:none;stroke:#a9ccdb;stroke-miterlimit:10" />
		<line
   stroke-miterlimit="10"
   x1="0"
   y1="64"
   x2="512"
   y2="64"
   id="line8"
   style="fill:none;stroke:#a9ccdb;stroke-miterlimit:10" />
		<line
   stroke-miterlimit="10"
   x1="0"
   y1="96"
   x2="512"
   y2="96"
   id="line10"
   style="fill:none;stroke:#a9ccdb;stroke-miterlimit:10" />
		<line
   stroke-miterlimit="10"
   x1="0"
   y1="128"
   x2="512"
   y2="128"
   id="line12"
   style="fill:none;stroke:#a9ccdb;stroke-miterlimit:10" />
		<line
   stroke-miterlimit="10"
   x1="0"
   y1="160"
   x2="512"
   y2="160"
   id="line14"
   style="fill:none;stroke:#a9ccdb;stroke-miterlimit:10" />
		<line
   stroke-miterlimit="10"
   x1="0"
   y1="192"
   x2="512"
   y2="192"
   id="line16"
   style="fill:none;stroke:#a9ccdb;stroke-miterlimit:10" />
		<line
   stroke-miterlimit="10"
   x1="0"
   y1="224"
   x2="512"
   y2="224"
   id="line18"
   style="fill:none;stroke:#a9ccdb;stroke-miterlimit:10" />
		<line
   stroke-miterlimit="10"
   x1="0"
   y1="256"
   x2="512"
   y2="256"
   id="line20"
   style="fill:none;stroke:#a9ccdb;stroke-miterlimit:10" />
		<line
   stroke-miterlimit="10"
   x1="0"
   y1="288"
   x2="512"
   y2="288"
   id="line22"
   style="fill:none;stroke:#a9ccdb;stroke-miterlimit:10" />
		<line
   stroke-miterlimit="10"
   x1="0"
   y1="320"
   x2="512"
   y2="320"
   id="line24"
   style="fill:none;stroke:#a9ccdb;stroke-miterlimit:10" />
		<line
   stroke-miterlimit="10"
   x1="0"
   y1="352"
   x2="512"
   y2="352"
   id="line26"
   style="fill:none;stroke:#a9ccdb;stroke-miterlimit:10" />
		<line
   stroke-miterlimit="10"
   x1="0"
   y1="384"
   x2="512"
   y2="384"
   id="line28"
   style="fill:none;stroke:#a9ccdb;stroke-miterlimit:10" />
		<line
   stroke-miterlimit="10"
   x1="0"
   y1="416"
   x2="512"
   y2="416"
   id="line30"
   style="fill:none;stroke:#a9ccdb;stroke-miterlimit:10" />
		<line
   stroke-miterlimit="10"
   x1="0"
   y1="448"
   x2="512"
   y2="448"
   id="line32"
   style="fill:none;stroke:#ff0000;stroke-miterlimit:10" />
		<line
   stroke-miterlimit="10"
   x1="0"
   y1="480"
   x2="512"
   y2="480"
   id="line34"
   style="fill:none;stroke:#a9ccdb;stroke-miterlimit:10" />
		<line
   stroke-miterlimit="10"
   x1="32"
   y1="0"
   x2="32"
   y2="512"
   id="line36"
   style="fill:none;stroke:#a9ccdb;stroke-miterlimit:10" />
		<line
   stroke-miterlimit="10"
   x1="64"
   y1="0"
   x2="64"
   y2="512"
   id="line38"
   style="fill:none;stroke:#a9ccdb;stroke-miterlimit:10" />
		<line
   stroke-miterlimit="10"
   x1="96"
   y1="0"
   x2="96"
   y2="512"
   id="line40"
   style="fill:none;stroke:#a9ccdb;stroke-miterlimit:10" />
		<line
   stroke-miterlimit="10"
   x1="128"
   y1="0"
   x2="128"
   y2="512"
   id="line42"
   style="fill:none;stroke:#a9ccdb;stroke-miterlimit:10" />
		<line
   stroke-miterlimit="10"
   x1="160"
   y1="0"
   x2="160"
   y2="512"
   id="line44"
   style="fill:none;stroke:#a9ccdb;stroke-miterlimit:10" />
		<line
   stroke-miterlimit="10"
   x1="192"
   y1="0"
   x2="192"
   y2="512"
   id="line46"
   style="fill:none;stroke:#a9ccdb;stroke-miterlimit:10" />
		<line
   stroke-miterlimit="10"
   x1="224"
   y1="0"
   x2="224"
   y2="512"
   id="line48"
   style="fill:none;stroke:#a9ccdb;stroke-miterlimit:10" />
		<line
   stroke-miterlimit="10"
   x1="256"
   y1="0"
   x2="256"
   y2="512"
   id="line50"
   style="fill:none;stroke:#a9ccdb;stroke-miterlimit:10" />
		<line
   stroke-miterlimit="10"
   x1="288"
   y1="0"
   x2="288"
   y2="512"
   id="line52"
   style="fill:none;stroke:#a9ccdb;stroke-miterlimit:10" />
		<line
   stroke-miterlimit="10"
   x1="320"
   y1="0"
   x2="320"
   y2="512"
   id="line54"
   style="fill:none;stroke:#a9ccdb;stroke-miterlimit:10" />
		<line
   stroke-miterlimit="10"
   x1="352"
   y1="0"
   x2="352"
   y2="512"
   id="line56"
   style="fill:none;stroke:#a9ccdb;stroke-miterlimit:10" />
		<line
   stroke-miterlimit="10"
   x1="384"
   y1="0"
   x2="384"
   y2="512"
   id="line58"
   style="fill:none;stroke:#a9ccdb;stroke-miterlimit:10" />
		<line
   stroke-miterlimit="10"
   x1="416"
   y1="0"
   x2="416"
   y2="512"
   id="line60"
   style="fill:none;stroke:#a9ccdb;stroke-miterlimit:10" />
		<line
   stroke-miterlimit="10"
   x1="448"
   y1="0"
   x2="448"
   y2="512"
   id="line62"
   style="fill:none;stroke:#a9ccdb;stroke-miterlimit:10" />
		<line
   stroke-miterlimit="10"
   x1="480"
   y1="0"
   x2="480"
   y2="512"
   id="line64"
   style="fill:none;stroke:#a9ccdb;stroke-miterlimit:10" />
	</g>
<path
   id="path7027"
   d="m 346.23644,786.59129 c 0.52587,9.19283 0.0116,16.12268 -6.58458,21.89643 -6.30531,4.76034 -12.14653,6.61511 -17.99533,6.72293 -10.76724,-0.7567 -17.13926,-3.28535 -21.59853,-7.21193 -4.25288,-3.74485 -6.76594,-8.76119 -9.69266,-14.72462 -0.94896,-7.29716 0.7198,-12.30409 4.31508,-16.21198 5.74,-5.31298 11.25082,-7.88928 17.07782,-8.81787 6.58924,-1.05006 13.58279,0.008 21.76924,1.5963 10.0521,3.9274 10.32324,9.4681 12.70896,16.75074 z m 95.28717,-189.16186 -6.33446,-36.27427 c -33.50801,5.2343 -53.58285,28.73267 -78.15215,31.42993 l 6.04446,-64.11693 c 20.27705,-3.54913 41.00282,-5.97857 61.60467,-7.24393 15.41471,-0.94676 16.67443,0.21817 31.71048,0.59342 14.05703,-0.36543 28.28824,-0.76335 42.50278,-0.9673 18.27599,-0.26221 41.15253,1.24254 58.96788,2.10306 18.67601,0.9021 32.24797,1.23935 49.50477,4.45887 32.36229,-0.34323 33.1993,7.82055 35.55902,23.15803 l -10.6086,183.97425 c -10.73381,11.4907 -26.23929,25.02363 -26.38749,36.60312 -0.1466,11.45382 4.71008,22.0352 14.22336,29.93231 9.82409,9.31543 24.54533,3.91144 35.60172,2.39183 11.44562,-5.84884 21.84917,-17.25688 23.57876,-28.47083 1.47983,-11.82842 -4.40955,-25.60985 -12.72297,-40.88652 L 692.9528,530.13746 c 0.94179,-4.32396 13.91701,-35.93303 -2.86748,-39.14666 -10.60851,-2.03114 -30.00424,-6.28821 -48.64495,-7.79817 -21.69393,-6.53502 -52.61892,-4.48308 -73.618,-6.73752 -23.34482,-2.05662 -37.89351,-6.78918 -59.40851,-6.48599 -18.08643,0.27028 -21.81741,-0.68863 -41.70723,-0.0632 -6.79248,0.15589 -17.40455,-2.42355 -27.49741,-1.79017 -11.28593,0.70826 -22.07286,4.64566 -29.17147,5.03085 -15.34923,1.0532 -29.74748,2.60179 -45.22313,4.27453 2.69374,-16.45025 1.78835,-42.34868 2.7592,-65.27414 3.96254,-44.44445 -9.75504,-45.53646 -0.80387,-78.65388 24.65224,-0.82859 47.0549,-1.75959 69.56158,-1.84146 24.01735,-0.69863 50.28293,-1.23681 71.76215,-2.3302 7.307,-0.19057 9.4139,-0.28023 15.55749,-0.6242 7.07415,-0.2076 11.38452,-0.39147 17.92983,-0.92016 6.59968,-0.0786 5.49322,-0.13943 13.45572,-0.69753 12.89484,-0.59517 26.09989,-1.20624 39.97186,-1.89351 6.39395,-2.68493 19.71597,-8.55151 24.84792,-16.18726 3.13427,-26.72103 2.42657,-52.60521 1.63109,-78.32557 -0.47876,-15.47945 -0.98932,-30.89956 -0.71331,-46.40705 -0.39535,-11.53067 -3.39055,-18.6842 -3.33286,-29.49619 -2.69638,-10.9712 -5.30784,-16.70455 -12.40555,-19.53165 -3.98863,-1.58872 -9.39403,-2.25965 -17.0274,-2.42657 -18.84174,4.59517 -26.00912,26.6496 -26.58868,38.80239 -2.38354,26.64253 0.12294,95.07111 -1.13349,111.88276 -47.72017,5.64867 -59.20602,2.05902 -86.66628,5.27785 -28.17426,3.30253 -55.3003,1.26946 -93.46696,3.98616 -11.11828,0.19194 -26.64959,0.59825 -39.91047,1.6163 -35.03915,3.01949 -28.66961,15.97374 -34.15561,37.72358 -5.4296,31.94268 -1.86575,54.88271 -6.35912,85.9841 -2.55172,19.12103 -0.34614,37.61161 1.60902,60.55354 -59.69673,0.69083 -211.264679,4.1181 -214.643716,6.84807 l -11.555484,254.14163 -9.407303,46.16136 -38.201563,30.27706 31.426585,43.24028 51.985431,-4.89586 16.33973,-112.6664 14.53003,-211.14844 153.50272,-3.64716 -2.02778,69.68886 c -27.46176,-8.16911 -2.20864,-31.20705 -29.62102,-40.12202 0.29355,2.48936 -24.63547,13.99334 -36.99071,24.61063 -14.99494,12.88567 -17.92894,25.13479 -17.38346,26.93993 11.50776,4.74522 27.76886,5.55197 76.18306,30.51054 3.793,8.62505 5.55274,22.51656 5.74067,38.41941 0.23816,20.15086 -2.04736,43.53111 -5.91772,63.51821 -2.3574,10.82389 -11.88717,11.31887 -12.70754,11.82889 -10.87032,6.75784 -22.46399,15.36116 -25.04292,24.65607 -4.16506,15.01165 1.42033,32.17918 16.87093,48.15298 13.03513,13.15097 28.54853,20.44329 46.54001,21.87678 17.99137,1.43287 33.28088,-3.3381 45.86871,-14.313 11.58933,-10.12425 16.76698,-23.20171 15.67002,-36.1973 -0.97488,-11.54697 -6.90355,-23.0294 -17.69023,-32.31831 -3.76092,-3.13454 -7.69136,-7.6163 -11.94387,-8.80371 l 3.58656,-14.34459 c -0.0169,-15.72654 1.00053,-38.16391 1.50136,-55.22491 -2.4073,-17.74178 10.631,-36.99778 16.19337,-47.05985 31.04118,-11.33218 52.61872,-24.61649 77.38086,-41.33814 z"
   inkscape:connector-curvature="0"
   sodipodi:nodetypes="cccsccsccccccscsscccscccccsccccscccccccccccsccscccsccccccccccccccccsccscsccccscccccc" />
</svg>