<?xml version="1.0" encoding="UTF-8" standalone="no"?>
<svg
   xmlns:dc="http://purl.org/dc/elements/1.1/"
   xmlns:cc="http://creativecommons.org/ns#"
   xmlns:rdf="http://www.w3.org/1999/02/22-rdf-syntax-ns#"
   xmlns:svg="http://www.w3.org/2000/svg"
   xmlns="http://www.w3.org/2000/svg"
   xmlns:sodipodi="http://sodipodi.sourceforge.net/DTD/sodipodi-0.dtd"
   xmlns:inkscape="http://www.inkscape.org/namespaces/inkscape"
   version="1.1"
   id="Layer_1"
   x="0px"
   y="0px"
   width="1024"
   height="900"
   viewBox="0 0 1024 900"
   enable-background="new 0 0 512 512"
   xml:space="preserve"
   inkscape:version="0.48.0 r9654"
   sodipodi:docname="hephoenician-x10904.svg"><title
   id="title3743">Sinai 357</title><metadata
   id="metadata72"><rdf:RDF><cc:Work
       rdf:about=""><dc:format>image/svg+xml</dc:format><dc:type
         rdf:resource="http://purl.org/dc/dcmitype/StillImage" /><dc:title>Sinai 357</dc:title><dc:date>2017</dc:date><dc:creator><cc:Agent><dc:title>Celeste Claire Horner</dc:title></cc:Agent></dc:creator><dc:publisher><cc:Agent><dc:title>beitdina.net</dc:title></cc:Agent></dc:publisher></cc:Work></rdf:RDF></metadata><defs
   id="defs70" /><sodipodi:namedview
   pagecolor="#ffffff"
   bordercolor="#666666"
   borderopacity="1"
   objecttolerance="10"
   gridtolerance="10"
   guidetolerance="10"
   inkscape:pageopacity="0"
   inkscape:pageshadow="2"
   inkscape:window-width="1013"
   inkscape:window-height="710"
   id="namedview68"
   showgrid="false"
   inkscape:zoom="0.72091746"
   inkscape:cx="287.87444"
   inkscape:cy="334.22057"
   inkscape:window-x="41"
   inkscape:window-y="57"
   inkscape:window-maximized="0"
   inkscape:current-layer="Layer_1" />
   
	<g
   id="Grid"
   transform="matrix(1.9988492,0,0,1.7551819,2.4343167,-0.03627189)">
		<rect
   x="0"
   stroke-miterlimit="10"
   width="512"
   height="512"
   id="rect4"
   y="0"
   style="fill:none;stroke:#a9ccdb;stroke-miterlimit:10" />
		<line
   stroke-miterlimit="10"
   x1="0"
   y1="32"
   x2="512"
   y2="32"
   id="line6"
   style="fill:none;stroke:#a9ccdb;stroke-miterlimit:10" />
		<line
   stroke-miterlimit="10"
   x1="0"
   y1="64"
   x2="512"
   y2="64"
   id="line8"
   style="fill:none;stroke:#a9ccdb;stroke-miterlimit:10" />
		<line
   stroke-miterlimit="10"
   x1="0"
   y1="96"
   x2="512"
   y2="96"
   id="line10"
   style="fill:none;stroke:#a9ccdb;stroke-miterlimit:10" />
		<line
   stroke-miterlimit="10"
   x1="0"
   y1="128"
   x2="512"
   y2="128"
   id="line12"
   style="fill:none;stroke:#a9ccdb;stroke-miterlimit:10" />
		<line
   stroke-miterlimit="10"
   x1="0"
   y1="160"
   x2="512"
   y2="160"
   id="line14"
   style="fill:none;stroke:#a9ccdb;stroke-miterlimit:10" />
		<line
   stroke-miterlimit="10"
   x1="0"
   y1="192"
   x2="512"
   y2="192"
   id="line16"
   style="fill:none;stroke:#a9ccdb;stroke-miterlimit:10" />
		<line
   stroke-miterlimit="10"
   x1="0"
   y1="224"
   x2="512"
   y2="224"
   id="line18"
   style="fill:none;stroke:#a9ccdb;stroke-miterlimit:10" />
		<line
   stroke-miterlimit="10"
   x1="0"
   y1="256"
   x2="512"
   y2="256"
   id="line20"
   style="fill:none;stroke:#a9ccdb;stroke-miterlimit:10" />
		<line
   stroke-miterlimit="10"
   x1="0"
   y1="288"
   x2="512"
   y2="288"
   id="line22"
   style="fill:none;stroke:#a9ccdb;stroke-miterlimit:10" />
		<line
   stroke-miterlimit="10"
   x1="0"
   y1="320"
   x2="512"
   y2="320"
   id="line24"
   style="fill:none;stroke:#a9ccdb;stroke-miterlimit:10" />
		<line
   stroke-miterlimit="10"
   x1="0"
   y1="352"
   x2="512"
   y2="352"
   id="line26"
   style="fill:none;stroke:#a9ccdb;stroke-miterlimit:10" />
		<line
   stroke-miterlimit="10"
   x1="0"
   y1="384"
   x2="512"
   y2="384"
   id="line28"
   style="fill:none;stroke:#a9ccdb;stroke-miterlimit:10" />
		<line
   stroke-miterlimit="10"
   x1="0"
   y1="416"
   x2="512"
   y2="416"
   id="line30"
   style="fill:none;stroke:#a9ccdb;stroke-miterlimit:10" />
		<line
   stroke-miterlimit="10"
   x1="0"
   y1="448"
   x2="512"
   y2="448"
   id="line32"
   style="fill:none;stroke:#ff0000;stroke-miterlimit:10" />
		<line
   stroke-miterlimit="10"
   x1="0"
   y1="480"
   x2="512"
   y2="480"
   id="line34"
   style="fill:none;stroke:#a9ccdb;stroke-miterlimit:10" />
		<line
   stroke-miterlimit="10"
   x1="32"
   y1="0"
   x2="32"
   y2="512"
   id="line36"
   style="fill:none;stroke:#a9ccdb;stroke-miterlimit:10" />
		<line
   stroke-miterlimit="10"
   x1="64"
   y1="0"
   x2="64"
   y2="512"
   id="line38"
   style="fill:none;stroke:#a9ccdb;stroke-miterlimit:10" />
		<line
   stroke-miterlimit="10"
   x1="96"
   y1="0"
   x2="96"
   y2="512"
   id="line40"
   style="fill:none;stroke:#a9ccdb;stroke-miterlimit:10" />
		<line
   stroke-miterlimit="10"
   x1="128"
   y1="0"
   x2="128"
   y2="512"
   id="line42"
   style="fill:none;stroke:#a9ccdb;stroke-miterlimit:10" />
		<line
   stroke-miterlimit="10"
   x1="160"
   y1="0"
   x2="160"
   y2="512"
   id="line44"
   style="fill:none;stroke:#a9ccdb;stroke-miterlimit:10" />
		<line
   stroke-miterlimit="10"
   x1="192"
   y1="0"
   x2="192"
   y2="512"
   id="line46"
   style="fill:none;stroke:#a9ccdb;stroke-miterlimit:10" />
		<line
   stroke-miterlimit="10"
   x1="224"
   y1="0"
   x2="224"
   y2="512"
   id="line48"
   style="fill:none;stroke:#a9ccdb;stroke-miterlimit:10" />
		<line
   stroke-miterlimit="10"
   x1="256"
   y1="0"
   x2="256"
   y2="512"
   id="line50"
   style="fill:none;stroke:#a9ccdb;stroke-miterlimit:10" />
		<line
   stroke-miterlimit="10"
   x1="288"
   y1="0"
   x2="288"
   y2="512"
   id="line52"
   style="fill:none;stroke:#a9ccdb;stroke-miterlimit:10" />
		<line
   stroke-miterlimit="10"
   x1="320"
   y1="0"
   x2="320"
   y2="512"
   id="line54"
   style="fill:none;stroke:#a9ccdb;stroke-miterlimit:10" />
		<line
   stroke-miterlimit="10"
   x1="352"
   y1="0"
   x2="352"
   y2="512"
   id="line56"
   style="fill:none;stroke:#a9ccdb;stroke-miterlimit:10" />
		<line
   stroke-miterlimit="10"
   x1="384"
   y1="0"
   x2="384"
   y2="512"
   id="line58"
   style="fill:none;stroke:#a9ccdb;stroke-miterlimit:10" />
		<line
   stroke-miterlimit="10"
   x1="416"
   y1="0"
   x2="416"
   y2="512"
   id="line60"
   style="fill:none;stroke:#a9ccdb;stroke-miterlimit:10" />
		<line
   stroke-miterlimit="10"
   x1="448"
   y1="0"
   x2="448"
   y2="512"
   id="line62"
   style="fill:none;stroke:#a9ccdb;stroke-miterlimit:10" />
		<line
   stroke-miterlimit="10"
   x1="480"
   y1="0"
   x2="480"
   y2="512"
   id="line64"
   style="fill:none;stroke:#a9ccdb;stroke-miterlimit:10" />
	</g>
<path
   id="path7027"
   d="m 358.37402,792.73747 c -2.22249,2.00345 -4.40178,3.6203 -6.12186,4.66935 -2.74608,1.67481 -6.38885,3.07872 -9.44353,3.30222 -4.6947,-0.39147 -8.99902,-2.5872 -12.6198,-5.61037 -3.75834,-3.13801 -6.78022,-7.16752 -8.73784,-10.9961 -2.60333,-5.19603 -3.96502,-10.99858 -3.52052,-16.38473 0.67186,-6.48849 3.26507,-9.73863 6.00066,-11.61026 8.12747,-3.59918 8.65062,-5.6364 11.17304,-13.69271 2.50944,-8.06441 3.84327,-15.21441 5.38066,-10.93284 2.99263,3.14607 7.55112,4.99563 11.65846,6.46732 6.44836,1.5115 10.11829,5.10051 12.86481,10.33076 1.35416,2.4055 2.307,4.985 2.93238,7.64124 1.60034,6.79722 1.05636,14.09693 -0.39412,20.26927 -1.55461,6.38647 -4.47771,12.2104 -9.17234,16.54685 z M 459.19208,567.38194 445.46161,520.91642 c -37.6513,20.29444 -13.03857,20.2472 -40.64588,23.29077 l -0.93449,-30.36829 c 14.20787,-2.98808 30.44578,0.6205 44.51994,-2.94914 5.18797,-0.82147 18.71459,-1.88839 35.32521,-2.88213 18.07668,1.61785 33.92737,-3.61854 50.72477,-4.60994 12.2434,2.01012 52.08038,0.95563 56.6899,7.93422 l -17.52553,223.63877 c -0.23513,3.00064 -6.43016,7.1205 -9.298,11.80859 -5.57007,9.10545 -9.59678,20.35217 -10.22115,29.49412 -0.16473,12.92441 5.90093,24.17586 15.98208,33.77541 3.06192,2.91563 8.02681,6.40239 13.68484,9.14458 10.63661,5.35861 29.73357,4.82976 39.97842,1.86628 4.33739,-1.28515 8.19284,-2.60278 10.83858,-2.96795 12.86087,-6.59979 24.55083,-19.47254 26.49428,-32.12628 1.66281,-13.34711 6.06645,-29.45137 -3.27494,-46.68946 l 6.74879,-231.5972 c 1.05825,-4.87912 21.87243,-67.93789 3.01252,-71.56413 -18.18146,-2.92449 -39.18872,-8.52728 -57.24033,-11.75797 -23.69892,-3.42084 -56.44409,-0.85963 -79.06813,-3.33138 -17.72806,-1.89572 -34.86146,-2.47866 -48.43504,-3.22892 -19.37929,-1.07925 -15.14698,4.8947 -43.47519,8.04836 -10.22873,1.275 -17.83952,0.22839 -23.50462,0.85536 3.72436,-37.59474 1.56569,-67.01541 2.49474,-102.94228 0.44503,-16.88309 1.10875,-33.38837 1.18266,-49.15691 10.30574,-0.76615 20.83202,0.64115 31.3513,0.0703 10.61906,-1.00023 21.29495,-1.19445 31.84533,-1.13709 11.5637,0.0629 22.97662,0.42794 33.99868,0.3652 11.80319,-0.10279 23.36824,-0.11422 34.67045,-0.12605 8.71832,-0.009 17.28024,-0.0185 25.67443,-0.0702 8.64611,-0.079 17.5989,-0.18041 26.34687,-0.27269 8.44464,-0.0891 16.69842,-0.16966 24.30121,-0.21333 12.55245,0.35144 19.27815,-5.2565 32.72113,-12.60697 6.10449,-3.53621 11.10273,-8.6704 14.92619,-15.03583 5.02252,-7.66549 7.01589,-14.84807 7.63372,-21.90544 1.00091,-11.4332 -0.82898,-13.9291 -0.0174,-26.22601 -0.74883,-7.16885 -1.22971,-15.2997 -1.58098,-23.90997 -1.05662,-25.90071 3.73554,-55.35695 1.25977,-76.798202 -1.11485,-9.65519 0.7937,-20.64464 -4.61257,-28.62949 -3.294,-4.86511 -4.7397,-8.12272 -11.14733,-10.71069 -9.33024,-3.77448 -27.77743,-5.13759 -38.73965,-4.61743 -11.62448,0.55158 -22.71922,3.22081 -30.21479,7.37802 -4.07779,2.74493 -6.60764,6.3982 -8.12632,10.59762 -1.67345,4.21723 -2.30962,13.89176 -2.41657,26.05901 -0.18811,21.398962 1.2607,50.508272 1.58234,71.200722 0.22925,14.74804 -1.50121,18.97844 -3.41785,19.33644 -4.625,0.54978 -5.30001,1.0828 -10.66421,1.49506 -5.3685,0.4126 -15.42593,0.70424 -19.3892,0.77068 -13.7091,0.1607 -28.23648,0.0543 -42.94348,-0.15672 -10.87747,-0.15606 -21.85319,-0.36932 -32.66876,-0.57401 -10.86732,-0.20567 -21.57296,-0.4027 -31.8548,-0.52437 -13.70031,-0.16212 -26.64816,-0.19044 -38.2234,0.0729 -23.10313,2.10862 -48.33673,2.27482 -71.14775,3.8393 -10.3412,1.70725 -15.09537,10.12156 -17.18429,21.41488 -1.58203,13.54152 -2.56995,27.52819 -3.33887,41.51897 -1.26995,23.10704 -1.94255,46.22525 -3.70787,67.36758 -0.93281,34.63347 4.46255,69.15539 5.80814,101.33919 -67.07826,0.77953 -241.607111,-2.21855 -251.638525,8.68802 L 59.247474,693.79417 58.80811,743.5345 31.194336,772.41968 c -3.590743,3.30884 -6.445467,9.71226 -2.401015,14.92188 l 21.6756,29.94964 c 8.316357,10.07788 8.331277,10.5236 19.343069,9.48215 l 33.00454,-3.12141 c 9.19171,-1.47361 12.70722,-2.75015 15.41771,-12.99904 l 22.1256,-114.64865 -1.59763,-183.47581 168.58682,-0.20239 -1.49921,44.20164 c -19.15126,-5.72102 -20.68327,-11.05491 -24.09093,-19.49937 -2.40724,-7.70058 -8.43867,-18.96059 -13.86143,-22.03613 -8.6715,-4.22285 -18.61292,7.5121 -36.89594,24.03256 -16.84907,14.5401 -20.14586,28.36192 -19.53293,30.39883 12.9307,5.35447 31.20249,6.2648 85.60313,34.42788 2.43748,2.30725 4.98648,5.15933 7.16376,8.10717 2.80329,3.79538 4.99041,7.7495 5.52999,10.90392 0.69117,4.41317 1.02218,11.17427 1.09342,17.22908 0.19168,16.2863 -0.72327,31.18841 -0.72122,39.6561 -0.34099,6.5946 -0.47688,14.54178 -0.84461,20.36396 0.2179,3.59737 -1.03498,3.14501 -3.65764,3.96702 -4.67026,1.48756 -10.2529,5.66565 -14.94963,9.3458 -12.75881,10.11791 -16.89764,26.16636 -21.26635,41.19125 -3.04328,11.01482 -5.24668,33.80157 -0.293,52.38137 2.99935,8.20415 6.65031,15.34772 10.91133,21.47592 7.89551,11.35524 17.88571,19.22421 29.70652,23.89446 12.04981,4.00909 22.18964,5.62868 31.65749,4.59253 9.79482,-1.07194 18.87045,-4.98623 28.59764,-12.03766 12.6738,-11.57316 21.66456,-24.33503 27.46355,-38.48097 4.00829,-9.77774 6.49168,-20.21675 7.61235,-31.38153 -0.0747,-10.58519 -1.39779,-20.8212 -3.66873,-30.51435 -3.38539,-14.45 -8.87716,-27.69362 -15.4796,-39.08935 -1.9535,-4.66946 1.255,-0.16119 2.05037,-25.56652 0.0864,-6.46375 -1.15725,-18.44717 1.13752,-39.64953 0.0164,-4.5706 0.64563,-9.94502 1.5494,-15.95542 1.90749,-5.16074 3.70781,-8.7964 6.07117,-11.64855 2.75655,-3.32667 6.27905,-5.58744 11.63094,-7.95901 29.67246,-12.93057 25.894,-14.18919 48.62137,-29.54778 z"
   inkscape:connector-curvature="0"
   sodipodi:nodetypes="cscscccccccsccccccccccsscsccccccsccccccccscscscccscssscsccsscscssscccscccccccccccccccccccscsccccccscsccscscccscccc" />
</svg>