<?xml version="1.0" encoding="UTF-8" standalone="no"?>
<svg
   xmlns:dc="http://purl.org/dc/elements/1.1/"
   xmlns:cc="http://creativecommons.org/ns#"
   xmlns:rdf="http://www.w3.org/1999/02/22-rdf-syntax-ns#"
   xmlns:svg="http://www.w3.org/2000/svg"
   xmlns="http://www.w3.org/2000/svg"
   xmlns:sodipodi="http://sodipodi.sourceforge.net/DTD/sodipodi-0.dtd"
   xmlns:inkscape="http://www.inkscape.org/namespaces/inkscape"
   version="1.1"
   id="Layer_1"
   x="0px"
   y="0px"
   width="1000"
   height="1024"
   viewBox="0 0 1000 1024"
   enable-background="new 0 0 512 512"
   xml:space="preserve"
   inkscape:version="0.48.0 r9654"
   sodipodi:docname="hethebrew-x5d7.svg"><title
   id="title3743">Sinai 357</title><metadata
   id="metadata72"><rdf:RDF><cc:Work
       rdf:about=""><dc:format>image/svg+xml</dc:format><dc:type
         rdf:resource="http://purl.org/dc/dcmitype/StillImage" /><dc:title>Sinai 357</dc:title><dc:date>2017</dc:date><dc:creator><cc:Agent><dc:title>Celeste Claire Horner</dc:title></cc:Agent></dc:creator><dc:publisher><cc:Agent><dc:title>beitdina.net</dc:title></cc:Agent></dc:publisher></cc:Work></rdf:RDF></metadata><defs
   id="defs70" /><sodipodi:namedview
   pagecolor="#ffffff"
   bordercolor="#666666"
   borderopacity="1"
   objecttolerance="10"
   gridtolerance="10"
   guidetolerance="10"
   inkscape:pageopacity="0"
   inkscape:pageshadow="2"
   inkscape:window-width="1152"
   inkscape:window-height="814"
   id="namedview68"
   showgrid="false"
   inkscape:zoom="0.25488281"
   inkscape:cx="840.83278"
   inkscape:cy="478.46422"
   inkscape:window-x="-8"
   inkscape:window-y="-8"
   inkscape:window-maximized="1"
   inkscape:current-layer="Layer_1" />
   
	<g
   id="Grid"
   transform="matrix(1.951787,0,0,2.0005106,3.2501362,4.7867761)">
		<rect
   x="0"
   stroke-miterlimit="10"
   width="512"
   height="512"
   id="rect4"
   y="0"
   style="fill:none;stroke:#a9ccdb;stroke-miterlimit:10" />
		<line
   stroke-miterlimit="10"
   x1="0"
   y1="32"
   x2="512"
   y2="32"
   id="line6"
   style="fill:none;stroke:#a9ccdb;stroke-miterlimit:10" />
		<line
   stroke-miterlimit="10"
   x1="0"
   y1="64"
   x2="512"
   y2="64"
   id="line8"
   style="fill:none;stroke:#a9ccdb;stroke-miterlimit:10" />
		<line
   stroke-miterlimit="10"
   x1="0"
   y1="96"
   x2="512"
   y2="96"
   id="line10"
   style="fill:none;stroke:#a9ccdb;stroke-miterlimit:10" />
		<line
   stroke-miterlimit="10"
   x1="0"
   y1="128"
   x2="512"
   y2="128"
   id="line12"
   style="fill:none;stroke:#a9ccdb;stroke-miterlimit:10" />
		<line
   stroke-miterlimit="10"
   x1="0"
   y1="160"
   x2="512"
   y2="160"
   id="line14"
   style="fill:none;stroke:#a9ccdb;stroke-miterlimit:10" />
		<line
   stroke-miterlimit="10"
   x1="0"
   y1="192"
   x2="512"
   y2="192"
   id="line16"
   style="fill:none;stroke:#a9ccdb;stroke-miterlimit:10" />
		<line
   stroke-miterlimit="10"
   x1="0"
   y1="224"
   x2="512"
   y2="224"
   id="line18"
   style="fill:none;stroke:#a9ccdb;stroke-miterlimit:10" />
		<line
   stroke-miterlimit="10"
   x1="0"
   y1="256"
   x2="512"
   y2="256"
   id="line20"
   style="fill:none;stroke:#a9ccdb;stroke-miterlimit:10" />
		<line
   stroke-miterlimit="10"
   x1="0"
   y1="288"
   x2="512"
   y2="288"
   id="line22"
   style="fill:none;stroke:#a9ccdb;stroke-miterlimit:10" />
		<line
   stroke-miterlimit="10"
   x1="0"
   y1="320"
   x2="512"
   y2="320"
   id="line24"
   style="fill:none;stroke:#a9ccdb;stroke-miterlimit:10" />
		<line
   stroke-miterlimit="10"
   x1="0"
   y1="352"
   x2="512"
   y2="352"
   id="line26"
   style="fill:none;stroke:#a9ccdb;stroke-miterlimit:10" />
		<line
   stroke-miterlimit="10"
   x1="0"
   y1="384"
   x2="512"
   y2="384"
   id="line28"
   style="fill:none;stroke:#a9ccdb;stroke-miterlimit:10" />
		<line
   stroke-miterlimit="10"
   x1="0"
   y1="416"
   x2="512"
   y2="416"
   id="line30"
   style="fill:none;stroke:#a9ccdb;stroke-miterlimit:10" />
		<line
   stroke-miterlimit="10"
   x1="0"
   y1="448"
   x2="512"
   y2="448"
   id="line32"
   style="fill:none;stroke:#ff0000;stroke-miterlimit:10" />
		<line
   stroke-miterlimit="10"
   x1="0"
   y1="480"
   x2="512"
   y2="480"
   id="line34"
   style="fill:none;stroke:#a9ccdb;stroke-miterlimit:10" />
		<line
   stroke-miterlimit="10"
   x1="32"
   y1="0"
   x2="32"
   y2="512"
   id="line36"
   style="fill:none;stroke:#a9ccdb;stroke-miterlimit:10" />
		<line
   stroke-miterlimit="10"
   x1="64"
   y1="0"
   x2="64"
   y2="512"
   id="line38"
   style="fill:none;stroke:#a9ccdb;stroke-miterlimit:10" />
		<line
   stroke-miterlimit="10"
   x1="96"
   y1="0"
   x2="96"
   y2="512"
   id="line40"
   style="fill:none;stroke:#a9ccdb;stroke-miterlimit:10" />
		<line
   stroke-miterlimit="10"
   x1="128"
   y1="0"
   x2="128"
   y2="512"
   id="line42"
   style="fill:none;stroke:#a9ccdb;stroke-miterlimit:10" />
		<line
   stroke-miterlimit="10"
   x1="160"
   y1="0"
   x2="160"
   y2="512"
   id="line44"
   style="fill:none;stroke:#a9ccdb;stroke-miterlimit:10" />
		<line
   stroke-miterlimit="10"
   x1="192"
   y1="0"
   x2="192"
   y2="512"
   id="line46"
   style="fill:none;stroke:#a9ccdb;stroke-miterlimit:10" />
		<line
   stroke-miterlimit="10"
   x1="224"
   y1="0"
   x2="224"
   y2="512"
   id="line48"
   style="fill:none;stroke:#a9ccdb;stroke-miterlimit:10" />
		<line
   stroke-miterlimit="10"
   x1="256"
   y1="0"
   x2="256"
   y2="512"
   id="line50"
   style="fill:none;stroke:#a9ccdb;stroke-miterlimit:10" />
		<line
   stroke-miterlimit="10"
   x1="288"
   y1="0"
   x2="288"
   y2="512"
   id="line52"
   style="fill:none;stroke:#a9ccdb;stroke-miterlimit:10" />
		<line
   stroke-miterlimit="10"
   x1="320"
   y1="0"
   x2="320"
   y2="512"
   id="line54"
   style="fill:none;stroke:#a9ccdb;stroke-miterlimit:10" />
		<line
   stroke-miterlimit="10"
   x1="352"
   y1="0"
   x2="352"
   y2="512"
   id="line56"
   style="fill:none;stroke:#a9ccdb;stroke-miterlimit:10" />
		<line
   stroke-miterlimit="10"
   x1="384"
   y1="0"
   x2="384"
   y2="512"
   id="line58"
   style="fill:none;stroke:#a9ccdb;stroke-miterlimit:10" />
		<line
   stroke-miterlimit="10"
   x1="416"
   y1="0"
   x2="416"
   y2="512"
   id="line60"
   style="fill:none;stroke:#a9ccdb;stroke-miterlimit:10" />
		<line
   stroke-miterlimit="10"
   x1="448"
   y1="0"
   x2="448"
   y2="512"
   id="line62"
   style="fill:none;stroke:#a9ccdb;stroke-miterlimit:10" />
		<line
   stroke-miterlimit="10"
   x1="480"
   y1="0"
   x2="480"
   y2="512"
   id="line64"
   style="fill:none;stroke:#a9ccdb;stroke-miterlimit:10" />
	</g>

<path
   style="fill:#3f3b3b"
   d="M 287.51067,108.08658 C 262.69047,77.20334 241.50418,56.12486 214.37495,78.04015 176.40351,117.94703 21.687379,271.00908 44.179449,308.03412 79.604337,292.4765 115.4608,280.9332 148.60466,271.91888 c 18.32462,-26.09849 36.08459,-50.68214 55.64448,-74.23067 20.82285,-23.436 26.07182,-22.29707 32.30902,-16.78821 22.45798,19.21162 41.97658,37.59469 60.35639,55.60128 -11.34966,18.23319 -25.51595,34.06747 -38.95427,49.56648 -26.53444,43.55883 -35.20411,103.69062 -27.92643,150.52225 8.08776,42.79924 27.47321,75.10571 53.73134,102.84367 9.70748,10.25457 24.99039,23.13783 35.61846,30.6068 -14.23514,11.09314 -30.38923,24.2335 -42.2812,37.31238 -19.81401,21.90888 -37.28373,49.0035 -47.84909,74.17889 -9.22971,22.30383 -14.81812,45.94248 -15.93054,70.50125 -1.84126,50.53875 12.2532,99.23986 51.96582,140.18583 73.37147,66.75948 156.46305,74.50322 220.31415,20.53189 37.36205,-42.85867 59.56969,-89.56825 65.39952,-137.44516 3.36399,-27.62651 1.27472,-55.64172 -6.5029,-83.52997 -9.59617,-34.01784 -26.71577,-65.22601 -52.9103,-84.72745 l -50.43654,-40.86474 34.20987,-34.67147 c 62.87885,-60.61685 69.58878,-157.97545 25.20867,-223.50706 -14.90198,-21.60326 -34.71316,-41.25763 -47.1272,-64.69832 21.92894,-19.39374 28.18761,-49.065 52.85588,-71.17851 25.63621,-22.97993 69.17543,-38.70323 63.83142,-75.24312 -9.44892,-0.9855 -23.64382,-13.12655 -33.53387,-17.29354 -11.8076,-4.97653 -19.11542,-2.24549 -27.30191,-5.68376 -15.47291,17.78957 -44.33755,34.01284 -57.73188,53.28604 -14.40767,20.72971 -13.47622,44.32201 -34.50249,57.5898 -25.00764,7.11761 -45.8895,2.134 -64.26638,-9.16841 -25.02923,-15.43979 -45.42061,-42.72911 -65.28365,-67.52847 z m 161.2229,350.99663 c -9.65347,26.39926 -62.45865,69.73455 -70.46303,68.17478 -18.84576,-8.78192 -34.23803,-24.43286 -46.36862,-42.40185 -14.47284,-22.71857 -24.67171,-46.09129 -29.41755,-69.5836 -4.55263,-22.5359 -4.08719,-45.18186 2.43715,-67.46595 17.56449,-36.8779 50.98393,-52.1061 82.42123,-48.10708 13.75426,1.74934 27.12905,7.17919 38.63068,16.08701 19.07659,18.48963 29.15257,38.25053 33.08337,58.73068 5.24827,27.34443 -0.45827,55.97106 -10.32323,84.56601 z m -7.92815,192.86893 c 10.27896,15.32738 26.96067,36.64064 34.70499,57.91591 11.40018,42.91396 13.24227,77.48683 -9.97872,111.77114 -14.33324,20.98576 -33.80084,38.69886 -55.16753,46.67727 -41.04596,11.42608 -69.3856,-4.77047 -94.14799,-28.08042 -36.60092,-34.15878 -35.38474,-94.50114 -21.86724,-134.92305 6.27289,-18.7566 26.44894,-44.44477 26.44894,-44.44477 21.58256,-23.32654 42.77408,-37.82589 63.90128,-51.999 21.6836,12.24442 43.20362,25.54202 56.1068,43.08292 z"
   id="path6883"
   inkscape:connector-curvature="0"
   sodipodi:nodetypes="cccccccccsccccccsccccccccccccccccccscccsccccccccccc" />
</svg>