<?xml version="1.0" encoding="UTF-8" standalone="no"?>
<svg
   xmlns:dc="http://purl.org/dc/elements/1.1/"
   xmlns:cc="http://creativecommons.org/ns#"
   xmlns:rdf="http://www.w3.org/1999/02/22-rdf-syntax-ns#"
   xmlns:svg="http://www.w3.org/2000/svg"
   xmlns="http://www.w3.org/2000/svg"
   xmlns:sodipodi="http://sodipodi.sourceforge.net/DTD/sodipodi-0.dtd"
   xmlns:inkscape="http://www.inkscape.org/namespaces/inkscape"
   version="1.1"
   id="Layer_1"
   x="0px"
   y="0px"
   width="500"
   height="512"
   viewBox="0 0 500 512"
   enable-background="new 0 0 512 512"
   xml:space="preserve"
   inkscape:version="0.48.0 r9654"
   sodipodi:docname="hetphoenician-x10907.svg"><title
   id="title3743">Sinai 357</title><metadata
   id="metadata72"><rdf:RDF><cc:Work
       rdf:about=""><dc:format>image/svg+xml</dc:format><dc:type
         rdf:resource="http://purl.org/dc/dcmitype/StillImage" /><dc:title>Sinai 357</dc:title><dc:date>2017</dc:date><dc:creator><cc:Agent><dc:title>Celeste Claire Horner</dc:title></cc:Agent></dc:creator><dc:publisher><cc:Agent><dc:title>beitdina.net</dc:title></cc:Agent></dc:publisher></cc:Work></rdf:RDF></metadata><defs
   id="defs70" /><sodipodi:namedview
   pagecolor="#ffffff"
   bordercolor="#666666"
   borderopacity="1"
   objecttolerance="10"
   gridtolerance="10"
   guidetolerance="10"
   inkscape:pageopacity="0"
   inkscape:pageshadow="2"
   inkscape:window-width="1013"
   inkscape:window-height="710"
   id="namedview68"
   showgrid="false"
   inkscape:zoom="0.36045873"
   inkscape:cx="133.79179"
   inkscape:cy="-7.4421494"
   inkscape:window-x="23"
   inkscape:window-y="23"
   inkscape:window-maximized="0"
   inkscape:current-layer="Layer_1" />
   
	<g
   id="Grid"
   transform="matrix(1.949083,0,0,1.9463791,0.47454151,0.47318954)">
		<rect
   x="0"
   stroke-miterlimit="10"
   width="512"
   height="512"
   id="rect4"
   y="0"
   style="fill:none;stroke:#a9ccdb;stroke-miterlimit:10" />
		<line
   stroke-miterlimit="10"
   x1="0"
   y1="32"
   x2="512"
   y2="32"
   id="line6"
   style="fill:none;stroke:#a9ccdb;stroke-miterlimit:10" />
		<line
   stroke-miterlimit="10"
   x1="0"
   y1="64"
   x2="512"
   y2="64"
   id="line8"
   style="fill:none;stroke:#a9ccdb;stroke-miterlimit:10" />
		<line
   stroke-miterlimit="10"
   x1="0"
   y1="96"
   x2="512"
   y2="96"
   id="line10"
   style="fill:none;stroke:#a9ccdb;stroke-miterlimit:10" />
		<line
   stroke-miterlimit="10"
   x1="0"
   y1="128"
   x2="512"
   y2="128"
   id="line12"
   style="fill:none;stroke:#a9ccdb;stroke-miterlimit:10" />
		<line
   stroke-miterlimit="10"
   x1="0"
   y1="160"
   x2="512"
   y2="160"
   id="line14"
   style="fill:none;stroke:#a9ccdb;stroke-miterlimit:10" />
		<line
   stroke-miterlimit="10"
   x1="0"
   y1="192"
   x2="512"
   y2="192"
   id="line16"
   style="fill:none;stroke:#a9ccdb;stroke-miterlimit:10" />
		<line
   stroke-miterlimit="10"
   x1="0"
   y1="224"
   x2="512"
   y2="224"
   id="line18"
   style="fill:none;stroke:#a9ccdb;stroke-miterlimit:10" />
		<line
   stroke-miterlimit="10"
   x1="0"
   y1="256"
   x2="512"
   y2="256"
   id="line20"
   style="fill:none;stroke:#a9ccdb;stroke-miterlimit:10" />
		<line
   stroke-miterlimit="10"
   x1="0"
   y1="288"
   x2="512"
   y2="288"
   id="line22"
   style="fill:none;stroke:#a9ccdb;stroke-miterlimit:10" />
		<line
   stroke-miterlimit="10"
   x1="0"
   y1="320"
   x2="512"
   y2="320"
   id="line24"
   style="fill:none;stroke:#a9ccdb;stroke-miterlimit:10" />
		<line
   stroke-miterlimit="10"
   x1="0"
   y1="352"
   x2="512"
   y2="352"
   id="line26"
   style="fill:none;stroke:#a9ccdb;stroke-miterlimit:10" />
		<line
   stroke-miterlimit="10"
   x1="0"
   y1="384"
   x2="512"
   y2="384"
   id="line28"
   style="fill:none;stroke:#a9ccdb;stroke-miterlimit:10" />
		<line
   stroke-miterlimit="10"
   x1="0"
   y1="416"
   x2="512"
   y2="416"
   id="line30"
   style="fill:none;stroke:#a9ccdb;stroke-miterlimit:10" />
		<line
   stroke-miterlimit="10"
   x1="0"
   y1="448"
   x2="512"
   y2="448"
   id="line32"
   style="fill:none;stroke:#ff0000;stroke-miterlimit:10" />
		<line
   stroke-miterlimit="10"
   x1="0"
   y1="480"
   x2="512"
   y2="480"
   id="line34"
   style="fill:none;stroke:#a9ccdb;stroke-miterlimit:10" />
		<line
   stroke-miterlimit="10"
   x1="32"
   y1="0"
   x2="32"
   y2="512"
   id="line36"
   style="fill:none;stroke:#a9ccdb;stroke-miterlimit:10" />
		<line
   stroke-miterlimit="10"
   x1="64"
   y1="0"
   x2="64"
   y2="512"
   id="line38"
   style="fill:none;stroke:#a9ccdb;stroke-miterlimit:10" />
		<line
   stroke-miterlimit="10"
   x1="96"
   y1="0"
   x2="96"
   y2="512"
   id="line40"
   style="fill:none;stroke:#a9ccdb;stroke-miterlimit:10" />
		<line
   stroke-miterlimit="10"
   x1="128"
   y1="0"
   x2="128"
   y2="512"
   id="line42"
   style="fill:none;stroke:#a9ccdb;stroke-miterlimit:10" />
		<line
   stroke-miterlimit="10"
   x1="160"
   y1="0"
   x2="160"
   y2="512"
   id="line44"
   style="fill:none;stroke:#a9ccdb;stroke-miterlimit:10" />
		<line
   stroke-miterlimit="10"
   x1="192"
   y1="0"
   x2="192"
   y2="512"
   id="line46"
   style="fill:none;stroke:#a9ccdb;stroke-miterlimit:10" />
		<line
   stroke-miterlimit="10"
   x1="224"
   y1="0"
   x2="224"
   y2="512"
   id="line48"
   style="fill:none;stroke:#a9ccdb;stroke-miterlimit:10" />
		<line
   stroke-miterlimit="10"
   x1="256"
   y1="0"
   x2="256"
   y2="512"
   id="line50"
   style="fill:none;stroke:#a9ccdb;stroke-miterlimit:10" />
		<line
   stroke-miterlimit="10"
   x1="288"
   y1="0"
   x2="288"
   y2="512"
   id="line52"
   style="fill:none;stroke:#a9ccdb;stroke-miterlimit:10" />
		<line
   stroke-miterlimit="10"
   x1="320"
   y1="0"
   x2="320"
   y2="512"
   id="line54"
   style="fill:none;stroke:#a9ccdb;stroke-miterlimit:10" />
		<line
   stroke-miterlimit="10"
   x1="352"
   y1="0"
   x2="352"
   y2="512"
   id="line56"
   style="fill:none;stroke:#a9ccdb;stroke-miterlimit:10" />
		<line
   stroke-miterlimit="10"
   x1="384"
   y1="0"
   x2="384"
   y2="512"
   id="line58"
   style="fill:none;stroke:#a9ccdb;stroke-miterlimit:10" />
		<line
   stroke-miterlimit="10"
   x1="416"
   y1="0"
   x2="416"
   y2="512"
   id="line60"
   style="fill:none;stroke:#a9ccdb;stroke-miterlimit:10" />
		<line
   stroke-miterlimit="10"
   x1="448"
   y1="0"
   x2="448"
   y2="512"
   id="line62"
   style="fill:none;stroke:#a9ccdb;stroke-miterlimit:10" />
		<line
   stroke-miterlimit="10"
   x1="480"
   y1="0"
   x2="480"
   y2="512"
   id="line64"
   style="fill:none;stroke:#a9ccdb;stroke-miterlimit:10" />
	</g>
	

<path
   sodipodi:nodetypes="ccsccccccsccscsccccsccsccscscscscccscscccscccccccccccc"
   inkscape:connector-curvature="0"
   id="path7102"
   d="M 286.24348,115.37569 C 260.79147,89.910816 239.06584,72.531606 211.24582,90.600396 184.19175,113.4635 107.04476,166.88712 62.222116,217.42403 42.532768,239.62349 27.876099,276.64994 29.826447,288.36266 66.34869,277.95014 86.65673,280.40591 122.51386,277.83922 c 11.65156,-20.90092 40.64634,-50.73445 60.52564,-71.48337 52.24159,-52.17458 43.0011,-29.86473 64.21103,-23.25283 l 48.63624,38.15617 c -14.32501,20.09809 -34.20735,31.43566 -46.31285,49.90719 -22.04436,33.73518 -28.1096,71.57343 -21.26458,106.98983 4.86767,25.18553 16.26463,49.1471 33.08704,69.53634 16.99425,24.31663 33.51958,31.85955 51.47782,48.12196 -21.87516,15.45174 -43.77852,29.84762 -61.90052,50.45563 -25.28845,28.75758 -43.21348,65.89545 -43.42308,101.99422 5.57792,42.02117 17.55755,75.34566 40.8839,102.06352 16.03859,18.3705 39.74184,37.54103 62.63862,50.34423 34.06899,16.92605 74.39727,20.3536 108.27776,13.29807 28.05265,-8.67667 69.54757,-25.69427 86.66861,-46.68616 22.53865,-28.72886 39.80463,-64.75349 45.35815,-97.66971 1.97097,-12.50741 2.48399,-24.37766 1.83373,-34.87397 -2.72695,-44.01729 -25.58956,-69.78165 -67.25254,-112.71365 l -32.99661,-25.15988 c 32.60691,-25.08673 60.53554,-60.75238 72.6166,-95.15825 7.63765,-21.75137 10.742,-44.72681 5.37144,-71.51541 -9.58732,-45.97125 -47.74621,-61.25701 -74.54918,-103.32242 22.48722,-15.98939 28.90548,-40.4556 54.20154,-58.6887 26.28894,-18.94885 70.93665,-31.91437 65.4565,-62.04248 -9.68945,-0.80352 -24.24576,-10.823204 -34.38753,-14.259244 -12.10841,-4.1031 -19.60208,-1.85152 -27.99702,-4.6862 -15.86685,14.667824 -45.46646,28.045324 -59.20186,43.937134 -14.77422,17.09286 -13.81912,36.54465 -35.38067,47.48477 -25.64432,5.86981 -47.0578,1.76011 -65.9026,-7.55999 -25.66633,-12.72977 -46.57703,-35.23179 -66.94548,-55.68033 z m 90.61824,347.09929 c -6.10068,0.0127 -35.95233,-21.41339 -48.34026,-33.33642 -18.30953,-17.62239 -35.49461,-35.37657 -38.77333,-52.12208 -7.61683,-30.57584 1.42576,-63.76593 20.02707,-82.27644 19.85484,-19.75791 50.46347,-23.74764 78.84346,-21.36919 14.10447,1.44976 27.81978,5.91891 39.61437,13.26398 22.34932,17.26297 33.58907,34.43049 38.43671,54.54359 5.39099,18.4014 7.92796,32.69274 2.0473,47.64982 -9.56086,24.31746 -33.45336,47.83648 -56.9615,62.15854 -12.62993,6.82511 -31.43211,10.608 -34.89382,11.4882 z m 61.18454,96.93272 c 6.1978,7.43056 22.51226,20.00107 30.05214,29.83521 16.90016,18.97744 26.62178,40.36792 25.79384,61.14562 -2.07862,24.54447 -11.71677,46.77329 -26.22855,64.94668 -45.17908,53.65903 -105.84974,53.21039 -154.14991,12.38488 -22.11259,-19.13541 -37.47307,-45.08797 -42.76694,-76.2787 -2.8894,-21.28559 6.0677,-41.75943 24.03671,-62.29401 15.21829,-16.99155 35.74167,-31.54146 57.11401,-41.35906 18.97516,-8.43473 31.1386,-15.21925 34.88962,-16.27383 19.81012,9.17717 28.04464,14.06348 51.25908,27.89321 z"
   style="fill:#3f3b3b" /></svg>