<?xml version="1.0" encoding="UTF-8" standalone="no"?>
<svg
   xmlns:dc="http://purl.org/dc/elements/1.1/"
   xmlns:cc="http://creativecommons.org/ns#"
   xmlns:rdf="http://www.w3.org/1999/02/22-rdf-syntax-ns#"
   xmlns:svg="http://www.w3.org/2000/svg"
   xmlns="http://www.w3.org/2000/svg"
   xmlns:sodipodi="http://sodipodi.sourceforge.net/DTD/sodipodi-0.dtd"
   xmlns:inkscape="http://www.inkscape.org/namespaces/inkscape"
   version="1.1"
   id="Layer_1"
   x="0px"
   y="0px"
   width="1000"
   height="1000"
   viewBox="0 0 1000 1000"
   enable-background="new 0 0 512 512"
   xml:space="preserve"
   inkscape:version="0.48.0 r9654"
   sodipodi:docname="hetphoenician-x10907.svg"><title
   id="title3743">Sinai 357</title><metadata
   id="metadata72"><rdf:RDF><cc:Work
       rdf:about=""><dc:format>image/svg+xml</dc:format><dc:type
         rdf:resource="http://purl.org/dc/dcmitype/StillImage" /><dc:title>Sinai 357</dc:title><dc:date>2017</dc:date><dc:creator><cc:Agent><dc:title>Celeste Claire Horner</dc:title></cc:Agent></dc:creator><dc:publisher><cc:Agent><dc:title>beitdina.net</dc:title></cc:Agent></dc:publisher></cc:Work></rdf:RDF></metadata><defs
   id="defs70" /><sodipodi:namedview
   pagecolor="#ffffff"
   bordercolor="#666666"
   borderopacity="1"
   objecttolerance="10"
   gridtolerance="10"
   guidetolerance="10"
   inkscape:pageopacity="0"
   inkscape:pageshadow="2"
   inkscape:window-width="1013"
   inkscape:window-height="710"
   id="namedview68"
   showgrid="false"
   inkscape:zoom="0.25488281"
   inkscape:cx="432.56593"
   inkscape:cy="100.81901"
   inkscape:window-x="23"
   inkscape:window-y="23"
   inkscape:window-maximized="0"
   inkscape:current-layer="Layer_1" />
   
	<g
   id="Grid"
   transform="matrix(1.949083,0,0,1.9463791,0.47454151,0.47318954)">
		<rect
   x="0"
   stroke-miterlimit="10"
   width="512"
   height="512"
   id="rect4"
   y="0"
   style="fill:none;stroke:#a9ccdb;stroke-miterlimit:10" />
		<line
   stroke-miterlimit="10"
   x1="0"
   y1="32"
   x2="512"
   y2="32"
   id="line6"
   style="fill:none;stroke:#a9ccdb;stroke-miterlimit:10" />
		<line
   stroke-miterlimit="10"
   x1="0"
   y1="64"
   x2="512"
   y2="64"
   id="line8"
   style="fill:none;stroke:#a9ccdb;stroke-miterlimit:10" />
		<line
   stroke-miterlimit="10"
   x1="0"
   y1="96"
   x2="512"
   y2="96"
   id="line10"
   style="fill:none;stroke:#a9ccdb;stroke-miterlimit:10" />
		<line
   stroke-miterlimit="10"
   x1="0"
   y1="128"
   x2="512"
   y2="128"
   id="line12"
   style="fill:none;stroke:#a9ccdb;stroke-miterlimit:10" />
		<line
   stroke-miterlimit="10"
   x1="0"
   y1="160"
   x2="512"
   y2="160"
   id="line14"
   style="fill:none;stroke:#a9ccdb;stroke-miterlimit:10" />
		<line
   stroke-miterlimit="10"
   x1="0"
   y1="192"
   x2="512"
   y2="192"
   id="line16"
   style="fill:none;stroke:#a9ccdb;stroke-miterlimit:10" />
		<line
   stroke-miterlimit="10"
   x1="0"
   y1="224"
   x2="512"
   y2="224"
   id="line18"
   style="fill:none;stroke:#a9ccdb;stroke-miterlimit:10" />
		<line
   stroke-miterlimit="10"
   x1="0"
   y1="256"
   x2="512"
   y2="256"
   id="line20"
   style="fill:none;stroke:#a9ccdb;stroke-miterlimit:10" />
		<line
   stroke-miterlimit="10"
   x1="0"
   y1="288"
   x2="512"
   y2="288"
   id="line22"
   style="fill:none;stroke:#a9ccdb;stroke-miterlimit:10" />
		<line
   stroke-miterlimit="10"
   x1="0"
   y1="320"
   x2="512"
   y2="320"
   id="line24"
   style="fill:none;stroke:#a9ccdb;stroke-miterlimit:10" />
		<line
   stroke-miterlimit="10"
   x1="0"
   y1="352"
   x2="512"
   y2="352"
   id="line26"
   style="fill:none;stroke:#a9ccdb;stroke-miterlimit:10" />
		<line
   stroke-miterlimit="10"
   x1="0"
   y1="384"
   x2="512"
   y2="384"
   id="line28"
   style="fill:none;stroke:#a9ccdb;stroke-miterlimit:10" />
		<line
   stroke-miterlimit="10"
   x1="0"
   y1="416"
   x2="512"
   y2="416"
   id="line30"
   style="fill:none;stroke:#a9ccdb;stroke-miterlimit:10" />
		<line
   stroke-miterlimit="10"
   x1="0"
   y1="448"
   x2="512"
   y2="448"
   id="line32"
   style="fill:none;stroke:#ff0000;stroke-miterlimit:10" />
		<line
   stroke-miterlimit="10"
   x1="0"
   y1="480"
   x2="512"
   y2="480"
   id="line34"
   style="fill:none;stroke:#a9ccdb;stroke-miterlimit:10" />
		<line
   stroke-miterlimit="10"
   x1="32"
   y1="0"
   x2="32"
   y2="512"
   id="line36"
   style="fill:none;stroke:#a9ccdb;stroke-miterlimit:10" />
		<line
   stroke-miterlimit="10"
   x1="64"
   y1="0"
   x2="64"
   y2="512"
   id="line38"
   style="fill:none;stroke:#a9ccdb;stroke-miterlimit:10" />
		<line
   stroke-miterlimit="10"
   x1="96"
   y1="0"
   x2="96"
   y2="512"
   id="line40"
   style="fill:none;stroke:#a9ccdb;stroke-miterlimit:10" />
		<line
   stroke-miterlimit="10"
   x1="128"
   y1="0"
   x2="128"
   y2="512"
   id="line42"
   style="fill:none;stroke:#a9ccdb;stroke-miterlimit:10" />
		<line
   stroke-miterlimit="10"
   x1="160"
   y1="0"
   x2="160"
   y2="512"
   id="line44"
   style="fill:none;stroke:#a9ccdb;stroke-miterlimit:10" />
		<line
   stroke-miterlimit="10"
   x1="192"
   y1="0"
   x2="192"
   y2="512"
   id="line46"
   style="fill:none;stroke:#a9ccdb;stroke-miterlimit:10" />
		<line
   stroke-miterlimit="10"
   x1="224"
   y1="0"
   x2="224"
   y2="512"
   id="line48"
   style="fill:none;stroke:#a9ccdb;stroke-miterlimit:10" />
		<line
   stroke-miterlimit="10"
   x1="256"
   y1="0"
   x2="256"
   y2="512"
   id="line50"
   style="fill:none;stroke:#a9ccdb;stroke-miterlimit:10" />
		<line
   stroke-miterlimit="10"
   x1="288"
   y1="0"
   x2="288"
   y2="512"
   id="line52"
   style="fill:none;stroke:#a9ccdb;stroke-miterlimit:10" />
		<line
   stroke-miterlimit="10"
   x1="320"
   y1="0"
   x2="320"
   y2="512"
   id="line54"
   style="fill:none;stroke:#a9ccdb;stroke-miterlimit:10" />
		<line
   stroke-miterlimit="10"
   x1="352"
   y1="0"
   x2="352"
   y2="512"
   id="line56"
   style="fill:none;stroke:#a9ccdb;stroke-miterlimit:10" />
		<line
   stroke-miterlimit="10"
   x1="384"
   y1="0"
   x2="384"
   y2="512"
   id="line58"
   style="fill:none;stroke:#a9ccdb;stroke-miterlimit:10" />
		<line
   stroke-miterlimit="10"
   x1="416"
   y1="0"
   x2="416"
   y2="512"
   id="line60"
   style="fill:none;stroke:#a9ccdb;stroke-miterlimit:10" />
		<line
   stroke-miterlimit="10"
   x1="448"
   y1="0"
   x2="448"
   y2="512"
   id="line62"
   style="fill:none;stroke:#a9ccdb;stroke-miterlimit:10" />
		<line
   stroke-miterlimit="10"
   x1="480"
   y1="0"
   x2="480"
   y2="512"
   id="line64"
   style="fill:none;stroke:#a9ccdb;stroke-miterlimit:10" />
	</g>
	

<path
   sodipodi:nodetypes="ccccccccscccscsssccscscscscsccccscscccccccsscsccccc"
   inkscape:connector-curvature="0"
   id="path7102"
   d="M 368.63429,124.55968 C 343.18228,99.094809 321.45665,81.715599 293.63663,99.784389 254.69845,132.69062 85.229253,273.88267 108.29388,304.41255 c 35.5414,-18.25926 84.29389,-35.42035 120.15102,-42.89126 11.65156,-20.90092 17.10611,-25.23253 36.98541,-45.98145 52.24159,-52.17458 43.0011,-29.86473 64.21103,-23.25283 l 48.63624,38.15617 c -11.6384,15.03451 -26.16576,28.0908 -39.94613,40.87117 -27.21008,35.91607 -35.09459,77.41051 -27.6313,116.02585 4.86757,25.18555 16.26463,49.1471 33.08704,69.53634 17.97509,21.3741 20.76862,38.72545 45.59276,52.04533 -21.77419,15.61399 -32.38884,30.89826 -52.62741,42.35855 -33.67977,35.58115 -49.09746,73.4523 -48.77282,109.60088 0.36717,40.8839 20.87118,79.56435 57.86668,110.2363 75.23949,55.04646 160.44662,61.43154 225.92298,16.92876 54.27976,-36.892 85.53363,-95.80772 72.36774,-152.55477 -8.86352,-38.20167 -47.85192,-75.42357 -75.78748,-104.28091 l -30.05408,-31.04494 55.9376,-51.68715 c 29.17672,-39.14975 24.35484,-83.94057 19.10791,-109.10145 -9.58732,-45.97125 -47.74621,-61.25701 -74.54918,-103.32242 22.48722,-15.98939 28.90548,-40.4556 54.20154,-58.6887 26.28894,-18.94885 70.93665,-31.91437 65.4565,-62.04248 -9.68945,-0.80352 -24.24576,-10.8232 -34.38753,-14.25924 -12.10841,-4.103101 -19.60208,-1.851521 -27.99702,-4.686201 -15.86685,14.667821 -45.46646,28.045321 -59.20186,43.937131 -14.77422,17.09286 -13.81912,36.54465 -35.38067,47.48477 -25.64432,5.86981 -47.0578,1.76011 -65.9026,-7.55999 -25.66633,-12.72977 -46.57703,-35.23179 -66.94548,-55.68033 z m 165.32758,289.41518 c -9.89923,21.76694 -64.04886,57.49956 -72.25723,56.21285 -6.16161,-0.17006 -37.97806,-23.9877 -45.88816,-35.78853 -14.79813,-18.37106 -25.68618,-34.88615 -31.417,-51.63166 -6.46466,-18.89123 -6.36564,-38.07582 2.09054,-60.54617 18.01169,-30.40764 52.28178,-42.9646 84.51945,-39.66651 14.10447,1.44976 27.81978,5.91891 39.61437,13.26398 18.94191,12.62689 30.12608,33.92935 35.12975,47.98241 6.00469,18.84425 -1.30838,46.16681 -11.79005,70.17363 z m -8.13016,159.03062 c 10.54074,12.63731 27.64709,30.21208 35.58852,47.75368 10.55629,23.31723 9.9741,47.50411 5.44738,68.95303 -12.80303,34.1126 -39.09892,55.5983 -74.96418,60.09424 -27.90374,3.53914 -57.21728,-3.29299 -84.78041,-23.97728 -37.53268,-28.16584 -45.33801,-75.49522 -31.47632,-108.82554 6.43237,-15.46561 27.1223,-36.64775 27.1223,-36.64775 5.99034,-6.43716 20.25148,-18.37447 31.51937,-23.38355 18.97516,-8.43473 34.08113,-14.72883 37.83215,-15.78341 22.23559,10.09684 40.48001,17.35305 53.71167,31.81658 z"
   style="fill:#3f3b3b" /></svg>