<?xml version="1.0" encoding="UTF-8" standalone="no"?>
<svg
   xmlns:dc="http://purl.org/dc/elements/1.1/"
   xmlns:cc="http://creativecommons.org/ns#"
   xmlns:rdf="http://www.w3.org/1999/02/22-rdf-syntax-ns#"
   xmlns:svg="http://www.w3.org/2000/svg"
   xmlns="http://www.w3.org/2000/svg"
   xmlns:sodipodi="http://sodipodi.sourceforge.net/DTD/sodipodi-0.dtd"
   xmlns:inkscape="http://www.inkscape.org/namespaces/inkscape"
   version="1.1"
   id="Layer_1"
   x="0px"
   y="0px"
   width="1024"
   height="1024"
   viewBox="0 0 1024 1024"
   enable-background="new 0 0 512 512"
   xml:space="preserve"
   inkscape:version="0.48.0 r9654"
   sodipodi:docname="kafhebrew-x5db.svg"><title
   id="title3743">Sinai 357</title><metadata
   id="metadata72"><rdf:RDF><cc:Work
       rdf:about=""><dc:format>image/svg+xml</dc:format><dc:type
         rdf:resource="http://purl.org/dc/dcmitype/StillImage" /><dc:title>Sinai 357</dc:title><dc:date>2017</dc:date><dc:creator><cc:Agent><dc:title>Celeste Claire Horner</dc:title></cc:Agent></dc:creator><dc:publisher><cc:Agent><dc:title>beitdina.net</dc:title></cc:Agent></dc:publisher></cc:Work></rdf:RDF></metadata><defs
   id="defs70" /><sodipodi:namedview
   pagecolor="#ffffff"
   bordercolor="#666666"
   borderopacity="1"
   objecttolerance="10"
   gridtolerance="10"
   guidetolerance="10"
   inkscape:pageopacity="0"
   inkscape:pageshadow="2"
   inkscape:window-width="1152"
   inkscape:window-height="814"
   id="namedview68"
   showgrid="false"
   inkscape:zoom="0.11043227"
   inkscape:cx="-525.88281"
   inkscape:cy="713.08403"
   inkscape:window-x="-8"
   inkscape:window-y="-8"
   inkscape:window-maximized="1"
   inkscape:current-layer="Layer_1" />
   
	<g
   id="Grid"
   transform="matrix(2.0004581,0,0,2.0004578,0.50019527,4.813853)">
		<rect
   x="0"
   stroke-miterlimit="10"
   width="512"
   height="512"
   id="rect4"
   y="0"
   style="fill:none;stroke:#a9ccdb;stroke-miterlimit:10" />
		<line
   stroke-miterlimit="10"
   x1="0"
   y1="32"
   x2="512"
   y2="32"
   id="line6"
   style="fill:none;stroke:#a9ccdb;stroke-miterlimit:10" />
		<line
   stroke-miterlimit="10"
   x1="0"
   y1="64"
   x2="512"
   y2="64"
   id="line8"
   style="fill:none;stroke:#a9ccdb;stroke-miterlimit:10" />
		<line
   stroke-miterlimit="10"
   x1="0"
   y1="96"
   x2="512"
   y2="96"
   id="line10"
   style="fill:none;stroke:#a9ccdb;stroke-miterlimit:10" />
		<line
   stroke-miterlimit="10"
   x1="0"
   y1="128"
   x2="512"
   y2="128"
   id="line12"
   style="fill:none;stroke:#a9ccdb;stroke-miterlimit:10" />
		<line
   stroke-miterlimit="10"
   x1="0"
   y1="160"
   x2="512"
   y2="160"
   id="line14"
   style="fill:none;stroke:#a9ccdb;stroke-miterlimit:10" />
		<line
   stroke-miterlimit="10"
   x1="0"
   y1="192"
   x2="512"
   y2="192"
   id="line16"
   style="fill:none;stroke:#a9ccdb;stroke-miterlimit:10" />
		<line
   stroke-miterlimit="10"
   x1="0"
   y1="224"
   x2="512"
   y2="224"
   id="line18"
   style="fill:none;stroke:#a9ccdb;stroke-miterlimit:10" />
		<line
   stroke-miterlimit="10"
   x1="0"
   y1="256"
   x2="512"
   y2="256"
   id="line20"
   style="fill:none;stroke:#a9ccdb;stroke-miterlimit:10" />
		<line
   stroke-miterlimit="10"
   x1="0"
   y1="288"
   x2="512"
   y2="288"
   id="line22"
   style="fill:none;stroke:#a9ccdb;stroke-miterlimit:10" />
		<line
   stroke-miterlimit="10"
   x1="0"
   y1="320"
   x2="512"
   y2="320"
   id="line24"
   style="fill:none;stroke:#a9ccdb;stroke-miterlimit:10" />
		<line
   stroke-miterlimit="10"
   x1="0"
   y1="352"
   x2="512"
   y2="352"
   id="line26"
   style="fill:none;stroke:#a9ccdb;stroke-miterlimit:10" />
		<line
   stroke-miterlimit="10"
   x1="0"
   y1="384"
   x2="512"
   y2="384"
   id="line28"
   style="fill:none;stroke:#a9ccdb;stroke-miterlimit:10" />
		<line
   stroke-miterlimit="10"
   x1="0"
   y1="416"
   x2="512"
   y2="416"
   id="line30"
   style="fill:none;stroke:#a9ccdb;stroke-miterlimit:10" />
		<line
   stroke-miterlimit="10"
   x1="0"
   y1="448"
   x2="512"
   y2="448"
   id="line32"
   style="fill:none;stroke:#ff0000;stroke-miterlimit:10" />
		<line
   stroke-miterlimit="10"
   x1="0"
   y1="480"
   x2="512"
   y2="480"
   id="line34"
   style="fill:none;stroke:#a9ccdb;stroke-miterlimit:10" />
		<line
   stroke-miterlimit="10"
   x1="32"
   y1="0"
   x2="32"
   y2="512"
   id="line36"
   style="fill:none;stroke:#a9ccdb;stroke-miterlimit:10" />
		<line
   stroke-miterlimit="10"
   x1="64"
   y1="0"
   x2="64"
   y2="512"
   id="line38"
   style="fill:none;stroke:#a9ccdb;stroke-miterlimit:10" />
		<line
   stroke-miterlimit="10"
   x1="96"
   y1="0"
   x2="96"
   y2="512"
   id="line40"
   style="fill:none;stroke:#a9ccdb;stroke-miterlimit:10" />
		<line
   stroke-miterlimit="10"
   x1="128"
   y1="0"
   x2="128"
   y2="512"
   id="line42"
   style="fill:none;stroke:#a9ccdb;stroke-miterlimit:10" />
		<line
   stroke-miterlimit="10"
   x1="160"
   y1="0"
   x2="160"
   y2="512"
   id="line44"
   style="fill:none;stroke:#a9ccdb;stroke-miterlimit:10" />
		<line
   stroke-miterlimit="10"
   x1="192"
   y1="0"
   x2="192"
   y2="512"
   id="line46"
   style="fill:none;stroke:#a9ccdb;stroke-miterlimit:10" />
		<line
   stroke-miterlimit="10"
   x1="224"
   y1="0"
   x2="224"
   y2="512"
   id="line48"
   style="fill:none;stroke:#a9ccdb;stroke-miterlimit:10" />
		<line
   stroke-miterlimit="10"
   x1="256"
   y1="0"
   x2="256"
   y2="512"
   id="line50"
   style="fill:none;stroke:#a9ccdb;stroke-miterlimit:10" />
		<line
   stroke-miterlimit="10"
   x1="288"
   y1="0"
   x2="288"
   y2="512"
   id="line52"
   style="fill:none;stroke:#a9ccdb;stroke-miterlimit:10" />
		<line
   stroke-miterlimit="10"
   x1="320"
   y1="0"
   x2="320"
   y2="512"
   id="line54"
   style="fill:none;stroke:#a9ccdb;stroke-miterlimit:10" />
		<line
   stroke-miterlimit="10"
   x1="352"
   y1="0"
   x2="352"
   y2="512"
   id="line56"
   style="fill:none;stroke:#a9ccdb;stroke-miterlimit:10" />
		<line
   stroke-miterlimit="10"
   x1="384"
   y1="0"
   x2="384"
   y2="512"
   id="line58"
   style="fill:none;stroke:#a9ccdb;stroke-miterlimit:10" />
		<line
   stroke-miterlimit="10"
   x1="416"
   y1="0"
   x2="416"
   y2="512"
   id="line60"
   style="fill:none;stroke:#a9ccdb;stroke-miterlimit:10" />
		<line
   stroke-miterlimit="10"
   x1="448"
   y1="0"
   x2="448"
   y2="512"
   id="line62"
   style="fill:none;stroke:#a9ccdb;stroke-miterlimit:10" />
		<line
   stroke-miterlimit="10"
   x1="480"
   y1="0"
   x2="480"
   y2="512"
   id="line64"
   style="fill:none;stroke:#a9ccdb;stroke-miterlimit:10" />
	</g>
<path
   sodipodi:nodetypes="csccscsccccccccccscccscccscccsccscccccccsccscsscccscscsc"
   inkscape:connector-curvature="0"
   d="m 472.02575,141.77504 c 19.97386,-26.73788 38.44758,-42.157221 51.14423,-47.684891 16.60325,-7.22836 30.66248,-7.61701 50.73185,1.6876 18.29849,74.013401 33.61294,141.918151 45.6513,210.203371 4.39805,25.97215 8.4202,52.64432 12.04234,79.63833 12.76031,95.09694 20.55595,194.18832 22.33277,280.73941 -15.83739,19.52419 -23.06863,28.38815 -39.67189,35.61663 -13.67334,5.95274 -30.9745,-5.08968 -55.18028,-7.18077 2.08834,-46.14997 0.4756,-92.05111 -3.69685,-137.37353 -14.2925,-147.65152 -52.73981,-282.35131 -83.35347,-415.64615 z m -191.59514,94.67254 c 19.97403,-26.73771 36.96439,-38.52089 50.63763,-44.47374 22.87535,-7.34536 42.00786,-15.93948 50.32505,-6.3865 29.14553,144.8739 67.61138,271.49966 97.73757,403.52941 8.74778,38.4976 16.56398,76.95373 22.90808,115.93664 -15.83739,19.52431 -18.55013,47.53849 -35.02886,55.61485 -13.67335,5.95274 -32.67514,7.45969 -57.0054,4.5207 C 389.72605,667.21478 367.39354,578.14645 344.62588,489.72443 338.34043,465.31366 332.02176,440.95212 325.70403,416.46606 309.3357,353.01352 293.3878,290.58609 280.43061,236.44758 z m 230.88135,739.97754 c -37.69758,4.58458 -72.87413,1.5563 -104.83473,-6.12765 C 341.9328,954.77973 290.504,920.27499 257.91477,891.13973 213.38622,850.53092 185.00353,800.66315 157.81414,744.33734 142.70422,712.81413 129.90578,680.16254 120.45167,645.98479 108.24663,607.48294 102.32555,567.29422 91.331188,522.97004 78.520498,471.32311 72.032608,413.53382 67.907508,368.42725 c 5.33457,-14.75523 20.84389,-21.63756 46.956612,-32.70332 31.13655,-10.26677 49.79605,-9.84204 62.59526,6.7025 6.05455,50.16152 12.32368,98.95338 20.62491,146.25404 10.38661,59.18348 23.9544,116.03226 44.2635,170.30827 16.20072,42.76308 36.13827,84.05735 61.10727,125.12013 20.72241,31.94349 46.88285,55.52584 76.47951,72.20114 20.20938,11.38633 42.0209,19.55223 64.79725,24.96064 28.79025,6.71804 59.4395,10.24109 86.29723,11.18436 13.94127,2.95156 22.6449,12.69383 26.11095,29.22681 3.8298,41.20233 -15.38996,50.98907 -45.82804,54.7433 z m 112.9125,-119.71048 c 56.25546,-32.28946 80.40347,-62.15538 107.83269,-102.52234 26.48034,-39.0425 34.79804,-86.22731 42.06123,-135.84749 5.58215,-65.31764 2.23113,-126.98315 -4.34498,-186.66082 -7.35622,-66.75619 -18.74799,-131.02506 -26.18587,-195.13596 -5.67848,-48.28707 -13.21584,-96.03955 -30.47248,-143.232461 5.82344,-28.11089 28.44284,-43.94339 52.1333,-49.83989 17.74167,-4.41583 36.08407,-3.25907 48.42231,2.48654 1.36926,9.32706 10.98448,21.16506 15.14457,45.96585 4.16007,24.800771 7.56935,53.108831 9.56081,66.675461 5.10318,34.76422 10.27273,61.48426 13.10185,91.37494 7.21271,40.98822 11.55493,83.5449 15.20802,122.66338 3.20711,63.17788 7.93063,132.90562 2.40907,194.34236 -0.82933,48.71916 -7.91607,94.55679 -26.07812,138.81112 -13.24745,32.27949 -35.74079,64.90377 -49.45623,91.3338 -18.52504,27.41111 -41.71936,53.16016 -68.7931,75.87958 -27.70338,23.24783 -59.46875,43.32356 -94.44991,58.76187 -10.40801,-7.19601 -16.57666,-17.36534 -18.50588,-30.50786 -1.92923,-13.14265 2.80881,-25.03125 12.41272,-44.54808 z"
   id="path6459" />
</svg>