<?xml version="1.0" encoding="UTF-8" standalone="no"?>
<svg
   xmlns:dc="http://purl.org/dc/elements/1.1/"
   xmlns:cc="http://creativecommons.org/ns#"
   xmlns:rdf="http://www.w3.org/1999/02/22-rdf-syntax-ns#"
   xmlns:svg="http://www.w3.org/2000/svg"
   xmlns="http://www.w3.org/2000/svg"
   xmlns:sodipodi="http://sodipodi.sourceforge.net/DTD/sodipodi-0.dtd"
   xmlns:inkscape="http://www.inkscape.org/namespaces/inkscape"
   version="1.1"
   id="Layer_1"
   x="0px"
   y="0px"
   width="1024"
   height="1024"
   viewBox="0 0 1024 1024"
   enable-background="new 0 0 512 512"
   xml:space="preserve"
   inkscape:version="0.48.0 r9654"
   sodipodi:docname="memhebrew-x5de.svg"><title
   id="title3743">Sinai 357</title><metadata
   id="metadata72"><rdf:RDF><cc:Work
       rdf:about=""><dc:format>image/svg+xml</dc:format><dc:type
         rdf:resource="http://purl.org/dc/dcmitype/StillImage" /><dc:title>Sinai 357</dc:title><dc:date>2017</dc:date><dc:creator><cc:Agent><dc:title>Celeste Claire Horner</dc:title></cc:Agent></dc:creator><dc:publisher><cc:Agent><dc:title>beitdina.net</dc:title></cc:Agent></dc:publisher></cc:Work></rdf:RDF></metadata><defs
   id="defs70" /><sodipodi:namedview
   pagecolor="#ffffff"
   bordercolor="#666666"
   borderopacity="1"
   objecttolerance="10"
   gridtolerance="10"
   guidetolerance="10"
   inkscape:pageopacity="0"
   inkscape:pageshadow="2"
   inkscape:window-width="978"
   inkscape:window-height="679"
   id="namedview68"
   showgrid="false"
   inkscape:zoom="0.16896503"
   inkscape:cx="-763.75944"
   inkscape:cy="570.18092"
   inkscape:window-x="136"
   inkscape:window-y="42"
   inkscape:window-maximized="0"
   inkscape:current-layer="Layer_1"
   showguides="true"
   inkscape:guide-bbox="true" />
   
	<g
   id="Grid"
   transform="matrix(2.0004581,0,0,2.0004578,0.50019527,4.813853)">
		<rect
   x="0"
   stroke-miterlimit="10"
   width="512"
   height="512"
   id="rect4"
   y="0"
   style="fill:none;stroke:#a9ccdb;stroke-miterlimit:10" />
		<line
   stroke-miterlimit="10"
   x1="0"
   y1="32"
   x2="512"
   y2="32"
   id="line6"
   style="fill:none;stroke:#a9ccdb;stroke-miterlimit:10" />
		<line
   stroke-miterlimit="10"
   x1="0"
   y1="64"
   x2="512"
   y2="64"
   id="line8"
   style="fill:none;stroke:#a9ccdb;stroke-miterlimit:10" />
		<line
   stroke-miterlimit="10"
   x1="0"
   y1="96"
   x2="512"
   y2="96"
   id="line10"
   style="fill:none;stroke:#a9ccdb;stroke-miterlimit:10" />
		<line
   stroke-miterlimit="10"
   x1="0"
   y1="128"
   x2="512"
   y2="128"
   id="line12"
   style="fill:none;stroke:#a9ccdb;stroke-miterlimit:10" />
		<line
   stroke-miterlimit="10"
   x1="0"
   y1="160"
   x2="512"
   y2="160"
   id="line14"
   style="fill:none;stroke:#a9ccdb;stroke-miterlimit:10" />
		<line
   stroke-miterlimit="10"
   x1="0"
   y1="192"
   x2="512"
   y2="192"
   id="line16"
   style="fill:none;stroke:#a9ccdb;stroke-miterlimit:10" />
		<line
   stroke-miterlimit="10"
   x1="0"
   y1="224"
   x2="512"
   y2="224"
   id="line18"
   style="fill:none;stroke:#a9ccdb;stroke-miterlimit:10" />
		<line
   stroke-miterlimit="10"
   x1="0"
   y1="256"
   x2="512"
   y2="256"
   id="line20"
   style="fill:none;stroke:#a9ccdb;stroke-miterlimit:10" />
		<line
   stroke-miterlimit="10"
   x1="0"
   y1="288"
   x2="512"
   y2="288"
   id="line22"
   style="fill:none;stroke:#a9ccdb;stroke-miterlimit:10" />
		<line
   stroke-miterlimit="10"
   x1="0"
   y1="320"
   x2="512"
   y2="320"
   id="line24"
   style="fill:none;stroke:#a9ccdb;stroke-miterlimit:10" />
		<line
   stroke-miterlimit="10"
   x1="0"
   y1="352"
   x2="512"
   y2="352"
   id="line26"
   style="fill:none;stroke:#a9ccdb;stroke-miterlimit:10" />
		<line
   stroke-miterlimit="10"
   x1="0"
   y1="384"
   x2="512"
   y2="384"
   id="line28"
   style="fill:none;stroke:#a9ccdb;stroke-miterlimit:10" />
		<line
   stroke-miterlimit="10"
   x1="0"
   y1="416"
   x2="512"
   y2="416"
   id="line30"
   style="fill:none;stroke:#a9ccdb;stroke-miterlimit:10" />
		<line
   stroke-miterlimit="10"
   x1="0"
   y1="448"
   x2="512"
   y2="448"
   id="line32"
   style="fill:none;stroke:#ff0000;stroke-miterlimit:10" />
		<line
   stroke-miterlimit="10"
   x1="0"
   y1="480"
   x2="512"
   y2="480"
   id="line34"
   style="fill:none;stroke:#a9ccdb;stroke-miterlimit:10" />
		<line
   stroke-miterlimit="10"
   x1="32"
   y1="0"
   x2="32"
   y2="512"
   id="line36"
   style="fill:none;stroke:#a9ccdb;stroke-miterlimit:10" />
		<line
   stroke-miterlimit="10"
   x1="64"
   y1="0"
   x2="64"
   y2="512"
   id="line38"
   style="fill:none;stroke:#a9ccdb;stroke-miterlimit:10" />
		<line
   stroke-miterlimit="10"
   x1="96"
   y1="0"
   x2="96"
   y2="512"
   id="line40"
   style="fill:none;stroke:#a9ccdb;stroke-miterlimit:10" />
		<line
   stroke-miterlimit="10"
   x1="128"
   y1="0"
   x2="128"
   y2="512"
   id="line42"
   style="fill:none;stroke:#a9ccdb;stroke-miterlimit:10" />
		<line
   stroke-miterlimit="10"
   x1="160"
   y1="0"
   x2="160"
   y2="512"
   id="line44"
   style="fill:none;stroke:#a9ccdb;stroke-miterlimit:10" />
		<line
   stroke-miterlimit="10"
   x1="192"
   y1="0"
   x2="192"
   y2="512"
   id="line46"
   style="fill:none;stroke:#a9ccdb;stroke-miterlimit:10" />
		<line
   stroke-miterlimit="10"
   x1="224"
   y1="0"
   x2="224"
   y2="512"
   id="line48"
   style="fill:none;stroke:#a9ccdb;stroke-miterlimit:10" />
		<line
   stroke-miterlimit="10"
   x1="256"
   y1="0"
   x2="256"
   y2="512"
   id="line50"
   style="fill:none;stroke:#a9ccdb;stroke-miterlimit:10" />
		<line
   stroke-miterlimit="10"
   x1="288"
   y1="0"
   x2="288"
   y2="512"
   id="line52"
   style="fill:none;stroke:#a9ccdb;stroke-miterlimit:10" />
		<line
   stroke-miterlimit="10"
   x1="320"
   y1="0"
   x2="320"
   y2="512"
   id="line54"
   style="fill:none;stroke:#a9ccdb;stroke-miterlimit:10" />
		<line
   stroke-miterlimit="10"
   x1="352"
   y1="0"
   x2="352"
   y2="512"
   id="line56"
   style="fill:none;stroke:#a9ccdb;stroke-miterlimit:10" />
		<line
   stroke-miterlimit="10"
   x1="384"
   y1="0"
   x2="384"
   y2="512"
   id="line58"
   style="fill:none;stroke:#a9ccdb;stroke-miterlimit:10" />
		<line
   stroke-miterlimit="10"
   x1="416"
   y1="0"
   x2="416"
   y2="512"
   id="line60"
   style="fill:none;stroke:#a9ccdb;stroke-miterlimit:10" />
		<line
   stroke-miterlimit="10"
   x1="448"
   y1="0"
   x2="448"
   y2="512"
   id="line62"
   style="fill:none;stroke:#a9ccdb;stroke-miterlimit:10" />
		<line
   stroke-miterlimit="10"
   x1="480"
   y1="0"
   x2="480"
   y2="512"
   id="line64"
   style="fill:none;stroke:#a9ccdb;stroke-miterlimit:10" />
	</g>
	<path
   style="fill:#000000;fill-opacity:1"
   d="m 23.53557,732.07986 c 2.528811,-33.02098 5.145764,-57.7708 8.674791,-82.23671 3.286336,-22.78341 7.363612,-45.32059 12.897189,-74.06165 9.131848,-47.43029 20.080151,-91.91098 32.414162,-139.13625 5.18442,-13.57818 7.83072,-38.72506 17.69313,-61.87372 13.774848,-27.75736 25.916368,-41.12072 37.532648,-43.76932 16.41937,-3.74371 31.78931,13.91993 49.23898,42.60063 12.88438,20.22567 24.23782,41.54265 34.906,62.82458 11.49114,22.92364 22.18723,45.8066 33.14514,67.24117 8.12757,18.0069 22.40875,46.55722 36.3862,72.70296 11.3834,21.29344 29.35469,47.91577 36.84709,59.02533 12.94088,-17.99379 21.1135,-37.29514 27.68966,-56.91798 7.80628,-23.29352 13.36298,-47.04006 21.97559,-69.59023 9.41788,-24.54247 19.67097,-47.8584 26.67369,-69.94526 7.34102,-23.62061 15.61695,-47.94427 23.76881,-68.73825 10.1565,-25.90746 15.59421,-49.16036 23.31755,-47.87712 11.27832,15.53099 24.18888,31.47555 35.25198,49.90277 10.39364,22.30906 22.42127,43.895 34.92647,64.73973 14.65017,24.4202 29.95581,47.82309 44.05748,70.17961 8.02287,12.75056 15.62237,25.31814 22.57773,37.71278 6.12082,-13.45131 16.58965,-31.67989 21.91763,-44.929 9.12266,-25.38519 15.1326,-37.90476 23.68891,-61.3934 9.21295,-25.2912 17.6675,-50.0553 24.43752,-75.52471 7.51183,-28.25147 15.67605,-57.61274 30.64404,-62.40656 13.91638,0 21.20898,4.79907 56.79447,67.50229 12.47881,22.28888 26.74979,47.4031 39.95807,69.85345 12.50917,21.26203 22.81689,44.51275 34.94685,64.39438 18.50123,30.30851 32.73631,53.2228 34.94673,57.98553 4.24573,9.1482 9.26117,14.23644 11.14543,11.3071 1.88426,-2.92936 19.07009,-66.3844 38.19071,-141.01119 31.75249,-123.9281 36.75255,-135.97958 57.70562,-139.08354 34.68582,-5.13836 49.84216,24.29064 35.701,69.32065 -6.19079,19.71289 -19.28529,71.45896 -29.09923,114.99124 -14.53495,64.47374 -34.69374,128.07892 -52.1092,173.64725 -14.55862,38.09343 -27.20031,63.58211 -33.03689,66.4364 -13.58069,6.64139 -21.40643,5.47601 -61.78221,-62.94479 -11.06987,-18.75888 -24.5864,-42.57328 -41.33917,-72.66837 -39.50994,-70.97674 -54.9324,-115.97618 -74.50556,-134.87415 -15.04687,31.87654 -12.83898,29.10605 -22.61179,63.56726 -4.32804,15.26176 -15.38566,34.16801 -28.01558,66.93875 -9.97001,25.86913 -24.84129,54.68119 -38.68043,74.17672 -10.14651,14.29361 -19.73821,23.57917 -26.43667,23.02502 -8.61099,-7.54872 -16.27881,-15.29723 -23.35548,-23.31324 -17.32565,-19.62533 -31.10807,-40.8539 -46.51362,-64.67899 -18.83911,-29.1352 -41.61357,-63.2206 -57.49843,-89.72502 -4.42846,11.00338 -8.7232,22.33798 -12.93888,33.86734 -13.5004,36.92188 -26.18993,75.84109 -39.86335,112.27603 -11.51766,30.6906 -23.73347,59.6185 -37.72003,84.10524 -11.22212,13.77974 -21.46709,21.15744 -31.19249,23.3555 -15.22571,3.44121 -29.17792,-5.81272 -43.61235,-23.07131 -10.77749,-16.7886 -30.94886,-41.46395 -45.5858,-69.00271 -11.66387,-21.94504 -26.38777,-52.63221 -38.96248,-75.67193 -19.8206,-36.3158 -30.87181,-63.90993 -48.58405,-86.67537 -14.64433,-2.99239 -16.9968,36.96872 -28.10508,93.11058 -4.96916,25.27367 -9.49418,47.98243 -13.60565,68.16986 -5.12592,25.16845 -9.60906,46.41784 -13.50868,63.83261 -3.18999,14.2457 -5.989549,25.92543 -8.431067,35.08536 -11.305991,42.41676 -18.606691,43.28396 -35.740742,43.28396 -11.845489,-1.78115 -25.253003,-6.35615 -32.05571,-14.54522 -5.734353,-6.90299 -5.793019,-16.70803 -6.140294,-26.21612 -0.198187,-7.47684 1.910901,-14.72164 0.979643,-25.27997 z"
   id="path3760"
   inkscape:connector-curvature="0"
   sodipodi:nodetypes="cssccscscscsccsccscccscccscsssssssssscssscsscsscscssccssscscc" />
</svg>