<?xml version="1.0" encoding="UTF-8" standalone="no"?>
<svg
   xmlns:dc="http://purl.org/dc/elements/1.1/"
   xmlns:cc="http://creativecommons.org/ns#"
   xmlns:rdf="http://www.w3.org/1999/02/22-rdf-syntax-ns#"
   xmlns:svg="http://www.w3.org/2000/svg"
   xmlns="http://www.w3.org/2000/svg"
   xmlns:sodipodi="http://sodipodi.sourceforge.net/DTD/sodipodi-0.dtd"
   xmlns:inkscape="http://www.inkscape.org/namespaces/inkscape"
   version="1.1"
   id="Layer_1"
   x="0px"
   y="0px"
   width="321px"
   height="512px"
   viewBox="0 0 321 512"
   enable-background="new 0 0 512 512"
   xml:space="preserve"
   inkscape:version="0.48.0 r9654"
   sodipodi:docname="nunhebrew-x5e0.svg"><title
   id="title3743">Sinai 357</title><metadata
   id="metadata72"><rdf:RDF><cc:Work
       rdf:about=""><dc:format>image/svg+xml</dc:format><dc:type
         rdf:resource="http://purl.org/dc/dcmitype/StillImage" /><dc:title>Sinai 357</dc:title><dc:date>2017</dc:date><dc:creator><cc:Agent><dc:title>Celeste Claire Horner</dc:title></cc:Agent></dc:creator><dc:publisher><cc:Agent><dc:title>beitdina.net</dc:title></cc:Agent></dc:publisher></cc:Work></rdf:RDF></metadata><defs
   id="defs70" /><sodipodi:namedview
   pagecolor="#ffffff"
   bordercolor="#666666"
   borderopacity="1"
   objecttolerance="10"
   gridtolerance="10"
   guidetolerance="10"
   inkscape:pageopacity="0"
   inkscape:pageshadow="2"
   inkscape:window-width="1152"
   inkscape:window-height="814"
   id="namedview68"
   showgrid="false"
   inkscape:zoom="0.72091746"
   inkscape:cx="8.8267059"
   inkscape:cy="252.64327"
   inkscape:window-x="-8"
   inkscape:window-y="-8"
   inkscape:window-maximized="1"
   inkscape:current-layer="Layer_1" />
   
	<g
   id="Grid">
		<rect
   x="0"
   fill="none"
   stroke="#A9CCDB"
   stroke-miterlimit="10"
   width="512"
   height="512"
   id="rect4" />
		<line
   fill="none"
   stroke="#A9CCDB"
   stroke-miterlimit="10"
   x1="0"
   y1="32"
   x2="512"
   y2="32"
   id="line6" />
		<line
   fill="none"
   stroke="#A9CCDB"
   stroke-miterlimit="10"
   x1="0"
   y1="64"
   x2="512"
   y2="64"
   id="line8" />
		<line
   fill="none"
   stroke="#A9CCDB"
   stroke-miterlimit="10"
   x1="0"
   y1="96"
   x2="512"
   y2="96"
   id="line10" />
		<line
   fill="none"
   stroke="#A9CCDB"
   stroke-miterlimit="10"
   x1="0"
   y1="128"
   x2="512"
   y2="128"
   id="line12" />
		<line
   fill="none"
   stroke="#A9CCDB"
   stroke-miterlimit="10"
   x1="0"
   y1="160"
   x2="512"
   y2="160"
   id="line14" />
		<line
   fill="none"
   stroke="#A9CCDB"
   stroke-miterlimit="10"
   x1="0"
   y1="192"
   x2="512"
   y2="192"
   id="line16" />
		<line
   fill="none"
   stroke="#A9CCDB"
   stroke-miterlimit="10"
   x1="0"
   y1="224"
   x2="512"
   y2="224"
   id="line18" />
		<line
   fill="none"
   stroke="#A9CCDB"
   stroke-miterlimit="10"
   x1="0"
   y1="256"
   x2="512"
   y2="256"
   id="line20" />
		<line
   fill="none"
   stroke="#A9CCDB"
   stroke-miterlimit="10"
   x1="0"
   y1="288"
   x2="512"
   y2="288"
   id="line22" />
		<line
   fill="none"
   stroke="#A9CCDB"
   stroke-miterlimit="10"
   x1="0"
   y1="320"
   x2="512"
   y2="320"
   id="line24" />
		<line
   fill="none"
   stroke="#A9CCDB"
   stroke-miterlimit="10"
   x1="0"
   y1="352"
   x2="512"
   y2="352"
   id="line26" />
		<line
   fill="none"
   stroke="#A9CCDB"
   stroke-miterlimit="10"
   x1="0"
   y1="384"
   x2="512"
   y2="384"
   id="line28" />
		<line
   fill="none"
   stroke="#A9CCDB"
   stroke-miterlimit="10"
   x1="0"
   y1="416"
   x2="512"
   y2="416"
   id="line30" />
		<line
   fill="none"
   stroke="#FF0000"
   stroke-miterlimit="10"
   x1="0"
   y1="448"
   x2="512"
   y2="448"
   id="line32" />
		<line
   fill="none"
   stroke="#A9CCDB"
   stroke-miterlimit="10"
   x1="0"
   y1="480"
   x2="512"
   y2="480"
   id="line34" />
		<line
   fill="none"
   stroke="#A9CCDB"
   stroke-miterlimit="10"
   x1="32"
   y1="0"
   x2="32"
   y2="512"
   id="line36" />
		<line
   fill="none"
   stroke="#A9CCDB"
   stroke-miterlimit="10"
   x1="64"
   y1="0"
   x2="64"
   y2="512"
   id="line38" />
		<line
   fill="none"
   stroke="#A9CCDB"
   stroke-miterlimit="10"
   x1="96"
   y1="0"
   x2="96"
   y2="512"
   id="line40" />
		<line
   fill="none"
   stroke="#A9CCDB"
   stroke-miterlimit="10"
   x1="128"
   y1="0"
   x2="128"
   y2="512"
   id="line42" />
		<line
   fill="none"
   stroke="#A9CCDB"
   stroke-miterlimit="10"
   x1="160"
   y1="0"
   x2="160"
   y2="512"
   id="line44" />
		<line
   fill="none"
   stroke="#A9CCDB"
   stroke-miterlimit="10"
   x1="192"
   y1="0"
   x2="192"
   y2="512"
   id="line46" />
		<line
   fill="none"
   stroke="#A9CCDB"
   stroke-miterlimit="10"
   x1="224"
   y1="0"
   x2="224"
   y2="512"
   id="line48" />
		<line
   fill="none"
   stroke="#A9CCDB"
   stroke-miterlimit="10"
   x1="256"
   y1="0"
   x2="256"
   y2="512"
   id="line50" />
		<line
   fill="none"
   stroke="#A9CCDB"
   stroke-miterlimit="10"
   x1="288"
   y1="0"
   x2="288"
   y2="512"
   id="line52" />
		<line
   fill="none"
   stroke="#A9CCDB"
   stroke-miterlimit="10"
   x1="320"
   y1="0"
   x2="320"
   y2="512"
   id="line54" />
		<line
   fill="none"
   stroke="#A9CCDB"
   stroke-miterlimit="10"
   x1="352"
   y1="0"
   x2="352"
   y2="512"
   id="line56" />
		<line
   fill="none"
   stroke="#A9CCDB"
   stroke-miterlimit="10"
   x1="384"
   y1="0"
   x2="384"
   y2="512"
   id="line58" />
		<line
   fill="none"
   stroke="#A9CCDB"
   stroke-miterlimit="10"
   x1="416"
   y1="0"
   x2="416"
   y2="512"
   id="line60" />
		<line
   fill="none"
   stroke="#A9CCDB"
   stroke-miterlimit="10"
   x1="448"
   y1="0"
   x2="448"
   y2="512"
   id="line62" />
		<line
   fill="none"
   stroke="#A9CCDB"
   stroke-miterlimit="10"
   x1="480"
   y1="0"
   x2="480"
   y2="512"
   id="line64" />
	</g>
	

<path
   style="fill:#4e5665"
   d="m 511.95242,43.00441 c -19.64454,9.8759 -45.70248,38.38096 -63.34547,69.29422 -33.6853,59.02195 -45.95142,70.73532 -91.2617,87.14921 -16.63755,6.02706 -30.70125,10.47116 -31.25265,9.87581 -2.19757,-2.37282 -14.06537,13.4248 -19.04805,25.35549 -6.72913,16.11247 -17.44617,28.62241 -26.65919,31.11912 -5.53664,1.50041 -11.70148,-1.36162 -26.72983,-12.40937 -10.74335,-7.89778 -24.09938,-18.69485 -29.68001,-23.9935 -9.25385,-8.78632 -11.46413,-9.4885 -25.12159,-7.98105 -32.166,3.55038 -45.22891,14.14787 -54.3242,44.07137 -2.61642,8.60803 -12.88113,33.2433 -22.81046,54.74507 -19.60158,42.44684 -38.360927,66.55295 -54.504337,70.03908 -17.171839,3.70822 -37.106546,35.08455 -31.823342,50.08847 2.379312,6.75706 5.092226,7.98186 22.013672,9.93849 10.61496,1.22741 28.36269,1.53151 39.43938,0.67578 24.090827,-1.86113 32.372407,-8.4741 38.496337,-30.73995 5.72956,-20.83197 11.59404,-32.00044 25.99877,-49.51267 10.16308,-12.35553 13.21102,-18.91755 15.64517,-33.68301 3.16599,-19.20479 15.93403,-47.41518 22.73561,-50.23331 9.32709,-3.86454 18.21465,2.08296 21.23987,14.21363 3.16075,12.67416 9.38624,20.32253 18.95978,23.29318 3.18893,0.98951 11.33939,3.99726 18.11212,6.68389 10.41064,4.12973 15.78808,4.33054 34.78832,1.2991 12.36084,-1.97213 25.53072,-5.73328 29.26643,-8.35813 3.73572,-2.62485 10.54724,-13.14243 15.13677,-23.37241 12.22655,-27.25297 22.16596,-39.7438 37.18664,-46.73262 37.05658,-17.24168 55.99418,-28.93484 77.13865,-47.62988 12.75571,-11.27805 25.14908,-20.53365 27.54074,-20.56801 7.59117,-0.10893 11.23542,-4.51174 12.99383,-15.69825 2.65893,-16.91512 4.44003,-21.74832 14.29798,-38.79794 5.05616,-8.74482 10.75871,-19.42114 12.67231,-23.72516 1.91353,-4.30402 4.71466,-9.93836 6.2247,-12.52076 4.85235,-8.29827 17.58975,-41.31078 17.58975,-45.58855 0,-3.72453 -10.61902,-13.93042 -14.41536,-13.85451 -0.84113,0.0156 -8.26636,3.41755 -16.50064,7.55717 z m 17.55091,7.50509 c 1.5858,2.77044 0.34516,5.53734 -18.49661,41.2506 -17.49823,33.16673 -42.47167,74.11204 -55.83151,91.53887 -10.23241,13.34742 -58.25524,49.31973 -65.84148,49.31973 -1.56605,0 -9.91669,3.37569 -18.55702,7.50152 -19.53402,9.32773 -35.47302,27.25079 -46.78477,52.60827 -8.50183,19.05859 -9.08758,19.62368 -26.09124,25.17098 -30.94473,10.09546 -61.84324,-1.44618 -69.26169,-25.8716 -4.37987,-14.42085 -18.25276,-23.07375 -31.2613,-19.49854 -8.02262,2.20491 -11.69056,6.52643 -21.86174,25.75727 -6.72196,12.70934 -13.0689,29.20762 -14.10432,36.66289 -1.2939,9.3164 -6.32243,19.96809 -16.08111,34.06391 -7.80919,11.27989 -16.07967,25.3701 -18.37884,31.31156 -8.40344,21.91084 -2.52455,8.17331 -9.04616,21.16684 -3.77335,5.0946 -6.17859,7.51395 -23.661437,13.56327 -14.83349,4.95079 -37.79432,1.86088 -41.48376,-5.58259 -2.221568,-4.48203 -1.389651,-7.21397 3.72997,-12.24893 3.62408,-3.56417 9.24425,-9.2308 12.48926,-12.59251 3.245,-3.36171 8.98979,-6.11221 12.76617,-6.11221 11.50633,0 28.014267,-23.2204 47.774857,-67.20104 10.08001,-22.43481 19.14346,-44.53348 20.141,-49.10814 0.99754,-4.57467 4.40482,-14.84439 7.57173,-22.82164 4.58665,-11.5534 8.27517,-15.73766 18.13119,-20.56793 18.7367,-9.18253 27.06402,-7.94274 45.44855,6.76655 8.91445,7.13236 20.40604,17.22498 25.53689,22.42803 7.42002,7.52444 12.57455,9.75071 25.19166,10.88046 20.93358,1.8744 31.85552,-5.42843 47.71206,-31.90218 9.53178,-15.91405 15.17609,-21.79118 27.07817,-28.19518 8.26994,-4.44972 17.52603,-8.09039 20.56895,-8.09039 8.66721,0 32.8,-14.26284 48.83595,-28.86277 8.63188,-7.85885 19.3839,-22.28671 26.27655,-35.25964 27.06348,-50.93756 46.19558,-76.40863 67.13154,-89.37387 16.06881,-9.95113 18.11325,-10.62415 20.35849,-6.70159 z M 87.280213,424.77816 c 3.22093,7.19507 11.31658,1.78689 10.11094,-3.19146 -2.98982,-4.20563 -10.20224,-2.53667 -10.11094,3.19146 z"
   id="path3760"
   inkscape:connector-curvature="0"
   sodipodi:nodetypes="ssssssssssssssssssssssssssscssssscssssssssssssscccssssssssssssssssssccc" />
</svg>