<?xml version="1.0" encoding="UTF-8" standalone="no"?>
<svg
   xmlns:dc="http://purl.org/dc/elements/1.1/"
   xmlns:cc="http://creativecommons.org/ns#"
   xmlns:rdf="http://www.w3.org/1999/02/22-rdf-syntax-ns#"
   xmlns:svg="http://www.w3.org/2000/svg"
   xmlns="http://www.w3.org/2000/svg"
   xmlns:sodipodi="http://sodipodi.sourceforge.net/DTD/sodipodi-0.dtd"
   xmlns:inkscape="http://www.inkscape.org/namespaces/inkscape"
   version="1.1"
   id="Layer_1"
   x="0px"
   y="0px"
   width="321px"
   height="512px"
   viewBox="0 0 321 512"
   enable-background="new 0 0 512 512"
   xml:space="preserve"
   inkscape:version="0.48.0 r9654"
   sodipodi:docname="nunphoenician-x1090d.svg"><title
   id="title3743">Sinai 357</title><metadata
   id="metadata72"><rdf:RDF><cc:Work
       rdf:about=""><dc:format>image/svg+xml</dc:format><dc:type
         rdf:resource="http://purl.org/dc/dcmitype/StillImage" /><dc:title>Sinai 357</dc:title><dc:date>2017</dc:date><dc:creator><cc:Agent><dc:title>Celeste Claire Horner</dc:title></cc:Agent></dc:creator><dc:publisher><cc:Agent><dc:title>beitdina.net</dc:title></cc:Agent></dc:publisher></cc:Work></rdf:RDF></metadata><defs
   id="defs70" /><sodipodi:namedview
   pagecolor="#ffffff"
   bordercolor="#666666"
   borderopacity="1"
   objecttolerance="10"
   gridtolerance="10"
   guidetolerance="10"
   inkscape:pageopacity="0"
   inkscape:pageshadow="2"
   inkscape:window-width="475"
   inkscape:window-height="455"
   id="namedview68"
   showgrid="false"
   inkscape:zoom="0.36045873"
   inkscape:cx="295.71779"
   inkscape:cy="152.99591"
   inkscape:window-x="69"
   inkscape:window-y="69"
   inkscape:window-maximized="0"
   inkscape:current-layer="Layer_1" />
   
	<g
   id="Grid">
		<rect
   x="0"
   fill="none"
   stroke="#A9CCDB"
   stroke-miterlimit="10"
   width="512"
   height="512"
   id="rect4" />
		<line
   fill="none"
   stroke="#A9CCDB"
   stroke-miterlimit="10"
   x1="0"
   y1="32"
   x2="512"
   y2="32"
   id="line6" />
		<line
   fill="none"
   stroke="#A9CCDB"
   stroke-miterlimit="10"
   x1="0"
   y1="64"
   x2="512"
   y2="64"
   id="line8" />
		<line
   fill="none"
   stroke="#A9CCDB"
   stroke-miterlimit="10"
   x1="0"
   y1="96"
   x2="512"
   y2="96"
   id="line10" />
		<line
   fill="none"
   stroke="#A9CCDB"
   stroke-miterlimit="10"
   x1="0"
   y1="128"
   x2="512"
   y2="128"
   id="line12" />
		<line
   fill="none"
   stroke="#A9CCDB"
   stroke-miterlimit="10"
   x1="0"
   y1="160"
   x2="512"
   y2="160"
   id="line14" />
		<line
   fill="none"
   stroke="#A9CCDB"
   stroke-miterlimit="10"
   x1="0"
   y1="192"
   x2="512"
   y2="192"
   id="line16" />
		<line
   fill="none"
   stroke="#A9CCDB"
   stroke-miterlimit="10"
   x1="0"
   y1="224"
   x2="512"
   y2="224"
   id="line18" />
		<line
   fill="none"
   stroke="#A9CCDB"
   stroke-miterlimit="10"
   x1="0"
   y1="256"
   x2="512"
   y2="256"
   id="line20" />
		<line
   fill="none"
   stroke="#A9CCDB"
   stroke-miterlimit="10"
   x1="0"
   y1="288"
   x2="512"
   y2="288"
   id="line22" />
		<line
   fill="none"
   stroke="#A9CCDB"
   stroke-miterlimit="10"
   x1="0"
   y1="320"
   x2="512"
   y2="320"
   id="line24" />
		<line
   fill="none"
   stroke="#A9CCDB"
   stroke-miterlimit="10"
   x1="0"
   y1="352"
   x2="512"
   y2="352"
   id="line26" />
		<line
   fill="none"
   stroke="#A9CCDB"
   stroke-miterlimit="10"
   x1="0"
   y1="384"
   x2="512"
   y2="384"
   id="line28" />
		<line
   fill="none"
   stroke="#A9CCDB"
   stroke-miterlimit="10"
   x1="0"
   y1="416"
   x2="512"
   y2="416"
   id="line30" />
		<line
   fill="none"
   stroke="#FF0000"
   stroke-miterlimit="10"
   x1="0"
   y1="448"
   x2="512"
   y2="448"
   id="line32" />
		<line
   fill="none"
   stroke="#A9CCDB"
   stroke-miterlimit="10"
   x1="0"
   y1="480"
   x2="512"
   y2="480"
   id="line34" />
		<line
   fill="none"
   stroke="#A9CCDB"
   stroke-miterlimit="10"
   x1="32"
   y1="0"
   x2="32"
   y2="512"
   id="line36" />
		<line
   fill="none"
   stroke="#A9CCDB"
   stroke-miterlimit="10"
   x1="64"
   y1="0"
   x2="64"
   y2="512"
   id="line38" />
		<line
   fill="none"
   stroke="#A9CCDB"
   stroke-miterlimit="10"
   x1="96"
   y1="0"
   x2="96"
   y2="512"
   id="line40" />
		<line
   fill="none"
   stroke="#A9CCDB"
   stroke-miterlimit="10"
   x1="128"
   y1="0"
   x2="128"
   y2="512"
   id="line42" />
		<line
   fill="none"
   stroke="#A9CCDB"
   stroke-miterlimit="10"
   x1="160"
   y1="0"
   x2="160"
   y2="512"
   id="line44" />
		<line
   fill="none"
   stroke="#A9CCDB"
   stroke-miterlimit="10"
   x1="192"
   y1="0"
   x2="192"
   y2="512"
   id="line46" />
		<line
   fill="none"
   stroke="#A9CCDB"
   stroke-miterlimit="10"
   x1="224"
   y1="0"
   x2="224"
   y2="512"
   id="line48" />
		<line
   fill="none"
   stroke="#A9CCDB"
   stroke-miterlimit="10"
   x1="256"
   y1="0"
   x2="256"
   y2="512"
   id="line50" />
		<line
   fill="none"
   stroke="#A9CCDB"
   stroke-miterlimit="10"
   x1="288"
   y1="0"
   x2="288"
   y2="512"
   id="line52" />
		<line
   fill="none"
   stroke="#A9CCDB"
   stroke-miterlimit="10"
   x1="320"
   y1="0"
   x2="320"
   y2="512"
   id="line54" />
		<line
   fill="none"
   stroke="#A9CCDB"
   stroke-miterlimit="10"
   x1="352"
   y1="0"
   x2="352"
   y2="512"
   id="line56" />
		<line
   fill="none"
   stroke="#A9CCDB"
   stroke-miterlimit="10"
   x1="384"
   y1="0"
   x2="384"
   y2="512"
   id="line58" />
		<line
   fill="none"
   stroke="#A9CCDB"
   stroke-miterlimit="10"
   x1="416"
   y1="0"
   x2="416"
   y2="512"
   id="line60" />
		<line
   fill="none"
   stroke="#A9CCDB"
   stroke-miterlimit="10"
   x1="448"
   y1="0"
   x2="448"
   y2="512"
   id="line62" />
		<line
   fill="none"
   stroke="#A9CCDB"
   stroke-miterlimit="10"
   x1="480"
   y1="0"
   x2="480"
   y2="512"
   id="line64" />
	</g>
	

<path
   style="fill:#4e5665"
   d="m 466.26731,27.969589 c -18.57103,9.41459 -43.20504,36.58815 -59.88389,66.05744 -13.6409,24.101591 -26.02495,44.242881 -40.49077,57.365391 -19.30449,17.51189 -39.42008,23.98453 -43.23394,24.77799 -11.28289,2.07784 -16.04605,5.32372 -22.28158,9.47505 -8.63498,5.74876 -22.65969,19.05855 -30.60204,29.72072 -9.95011,13.28159 -13.71108,22.61029 -22.42065,24.99039 -5.23408,1.43032 -11.06205,-1.29803 -25.26915,-11.82973 -10.15627,-7.52886 -22.31883,-13.84774 -27.59449,-18.89888 -9.70919,-6.47713 -22.62668,-12.95383 -33.18804,-11.48978 -11.815,1.63783 -21.61134,8.06385 -29.57295,15.90151 -5.65628,5.75864 -12.45705,20.23642 -15.82059,31.39532 -2.47344,8.20596 -9.16369,26.31408 -18.550422,46.81149 -18.530437,40.46412 -36.264667,63.44421 -51.525904,66.7675 -16.233469,3.535 -35.078825,33.44571 -30.084328,47.74878 2.249293,6.44143 4.813958,7.60902 20.810717,9.47426 10.034894,1.17007 26.812785,1.45997 37.284179,0.64421 22.774364,-1.77419 30.603388,-8.07827 36.392688,-29.30406 5.41646,-19.85888 10.96046,-30.50566 24.57804,-47.19988 9.60771,-11.77839 8.78012,-18.26765 11.08126,-32.34341 2.07648,-12.70169 10.30759,-29.42316 17.30106,-39.36994 8.82098,-15.24338 25.10336,-5.37305 27.98031,5.26652 2.98802,12.08215 8.8733,19.37325 17.9237,22.20515 3.01467,0.94329 10.71975,3.81053 17.12238,6.37167 9.84174,3.93682 14.92531,4.12825 32.88726,1.23842 11.68538,-1.88001 24.13558,-5.46548 27.66714,-7.96771 3.53159,-2.50225 9.97087,-12.52854 14.30961,-22.28067 11.55843,-25.97996 20.95469,-37.88734 35.15455,-44.5497 35.03159,-16.43631 52.93432,-27.58327 72.92335,-45.40505 28.95571,-27.40266 41.86734,-57.60773 63.81599,-94.174841 1.80895,-4.10297 4.45703,-9.47412 5.88454,-11.9359 3.18679,-7.91561 13.86015,-27.60852 15.84941,-41.44419 0.84673,-9.45875 -1.75686,-15.56672 -11.53217,-14.91947 -6.25636,0.48642 -12.45601,4.64755 -16.91527,6.9014 z m 16.59183,7.15453 c 1.49914,2.64103 0.3263,5.27868 -17.48585,39.32375 -16.54202,31.617491 -40.15077,70.650201 -52.78054,87.263011 -9.67326,12.72395 -55.07184,47.01597 -62.24352,47.01597 -1.48047,0 -9.37478,3.218 -17.54296,7.15112 -18.46657,8.89202 -33.53456,25.97788 -44.22816,50.15089 -8.03725,18.16834 -8.59098,18.70705 -24.66547,23.99523 -29.25373,9.62389 -58.46377,-1.37863 -65.47682,-24.66313 -7.95004,-15.12909 -22.92047,-25.15623 -35.81864,-15.21562 -4.12445,3.23407 -8.08739,9.14369 -14.40144,21.18201 -6.35465,12.11567 -12.35474,27.8433 -13.33358,34.95033 -1.22319,8.88122 -5.97694,19.03538 -15.20235,32.47276 -7.38244,10.753 -15.20098,24.18505 -17.37452,29.84897 -6.305075,20.88736 -0.0918,8.12211 -6.257013,20.50869 -8.058192,12.02487 -11.139602,13.52392 -24.760752,14.95394 -15.081826,1.53202 -34.580347,-0.0684 -39.119338,-7.67662 -2.100168,-4.27267 -1.313712,-6.87699 3.526143,-11.67677 3.426038,-3.39769 8.73909,-8.79962 11.806773,-12.00431 3.067674,-3.20468 8.498535,-5.82669 12.068552,-5.82669 10.877556,0 26.483404,-22.13576 45.164155,-64.06202 9.52918,-21.38686 18.09736,-42.4533 19.04039,-46.81427 0.94304,-4.36098 5.55497,-13.91724 8.54883,-21.52186 4.336,-11.01373 6.4321,-15.2363 15.74954,-19.84094 17.7128,-8.7536 25.58507,-7.57172 42.96497,6.45048 8.42731,6.79919 19.29092,16.42039 24.1414,21.3804 7.01455,7.17297 11.8874,9.29523 23.81503,10.37222 19.78965,1.78684 29.65113,-6.57739 44.64119,-31.81454 7.45681,-12.68065 14.84062,-20.98364 23.04779,-24.94564 20.84718,-10.06395 48.12776,-17.29796 68.6265,-35.75704 8.16018,-7.49175 18.32464,-21.24567 24.84063,-33.61263 25.58456,-48.558221 43.67118,-72.839511 63.46307,-85.199131 15.19073,-9.48632 17.12344,-10.12789 19.24599,-6.38856 z M 67.42433,394.22445 c 6.211289,6.6257 16.467036,4.11281 14.148043,-6.34821 -5.669651,-5.63867 -14.061242,-0.78452 -14.148043,6.34821 z"
   id="path3760"
   inkscape:connector-curvature="0"
   sodipodi:nodetypes="csscscsscscsssssssssccssssssccccccsssssssccsssccccsssssssssscscsssccc" />
</svg>