<?xml version="1.0" encoding="UTF-8" standalone="no"?>
<svg
   xmlns:dc="http://purl.org/dc/elements/1.1/"
   xmlns:cc="http://creativecommons.org/ns#"
   xmlns:rdf="http://www.w3.org/1999/02/22-rdf-syntax-ns#"
   xmlns:svg="http://www.w3.org/2000/svg"
   xmlns="http://www.w3.org/2000/svg"
   xmlns:sodipodi="http://sodipodi.sourceforge.net/DTD/sodipodi-0.dtd"
   xmlns:inkscape="http://www.inkscape.org/namespaces/inkscape"
   version="1.1"
   id="Layer_1"
   x="0px"
   y="0px"
   width="1024"
   height="1024"
   viewBox="0 0 1024 1024"
   enable-background="new 0 0 512 512"
   xml:space="preserve"
   inkscape:version="0.48.0 r9654"
   sodipodi:docname="nunphoenician-x1090d.svg"><title
   id="title3743">Sinai 357</title><metadata
   id="metadata72"><rdf:RDF><cc:Work
       rdf:about=""><dc:format>image/svg+xml</dc:format><dc:type
         rdf:resource="http://purl.org/dc/dcmitype/StillImage" /><dc:title>Sinai 357</dc:title><dc:date>2017</dc:date><dc:creator><cc:Agent><dc:title>Celeste Claire Horner</dc:title></cc:Agent></dc:creator><dc:publisher><cc:Agent><dc:title>beitdina.net</dc:title></cc:Agent></dc:publisher></cc:Work></rdf:RDF></metadata><defs
   id="defs70" /><sodipodi:namedview
   pagecolor="#ffffff"
   bordercolor="#666666"
   borderopacity="1"
   objecttolerance="10"
   gridtolerance="10"
   guidetolerance="10"
   inkscape:pageopacity="0"
   inkscape:pageshadow="2"
   inkscape:window-width="942"
   inkscape:window-height="640"
   id="namedview68"
   showgrid="false"
   inkscape:zoom="0.31047324"
   inkscape:cx="357.20065"
   inkscape:cy="428.02845"
   inkscape:window-x="62"
   inkscape:window-y="80"
   inkscape:window-maximized="0"
   inkscape:current-layer="Layer_1" />
   
	<g
   id="Grid"
   transform="matrix(2.0138097,0,0,2.0045087,0.50690486,-2.8107114)">
		<rect
   x="0"
   stroke-miterlimit="10"
   width="512"
   height="512"
   id="rect4"
   y="0"
   style="fill:none;stroke:#a9ccdb;stroke-miterlimit:10" />
		<line
   stroke-miterlimit="10"
   x1="0"
   y1="32"
   x2="512"
   y2="32"
   id="line6"
   style="fill:none;stroke:#a9ccdb;stroke-miterlimit:10" />
		<line
   stroke-miterlimit="10"
   x1="0"
   y1="64"
   x2="512"
   y2="64"
   id="line8"
   style="fill:none;stroke:#a9ccdb;stroke-miterlimit:10" />
		<line
   stroke-miterlimit="10"
   x1="0"
   y1="96"
   x2="512"
   y2="96"
   id="line10"
   style="fill:none;stroke:#a9ccdb;stroke-miterlimit:10" />
		<line
   stroke-miterlimit="10"
   x1="0"
   y1="128"
   x2="512"
   y2="128"
   id="line12"
   style="fill:none;stroke:#a9ccdb;stroke-miterlimit:10" />
		<line
   stroke-miterlimit="10"
   x1="0"
   y1="160"
   x2="512"
   y2="160"
   id="line14"
   style="fill:none;stroke:#a9ccdb;stroke-miterlimit:10" />
		<line
   stroke-miterlimit="10"
   x1="0"
   y1="192"
   x2="512"
   y2="192"
   id="line16"
   style="fill:none;stroke:#a9ccdb;stroke-miterlimit:10" />
		<line
   stroke-miterlimit="10"
   x1="0"
   y1="224"
   x2="512"
   y2="224"
   id="line18"
   style="fill:none;stroke:#a9ccdb;stroke-miterlimit:10" />
		<line
   stroke-miterlimit="10"
   x1="0"
   y1="256"
   x2="512"
   y2="256"
   id="line20"
   style="fill:none;stroke:#a9ccdb;stroke-miterlimit:10" />
		<line
   stroke-miterlimit="10"
   x1="0"
   y1="288"
   x2="512"
   y2="288"
   id="line22"
   style="fill:none;stroke:#a9ccdb;stroke-miterlimit:10" />
		<line
   stroke-miterlimit="10"
   x1="0"
   y1="320"
   x2="512"
   y2="320"
   id="line24"
   style="fill:none;stroke:#a9ccdb;stroke-miterlimit:10" />
		<line
   stroke-miterlimit="10"
   x1="0"
   y1="352"
   x2="512"
   y2="352"
   id="line26"
   style="fill:none;stroke:#a9ccdb;stroke-miterlimit:10" />
		<line
   stroke-miterlimit="10"
   x1="0"
   y1="384"
   x2="512"
   y2="384"
   id="line28"
   style="fill:none;stroke:#a9ccdb;stroke-miterlimit:10" />
		<line
   stroke-miterlimit="10"
   x1="0"
   y1="416"
   x2="512"
   y2="416"
   id="line30"
   style="fill:none;stroke:#a9ccdb;stroke-miterlimit:10" />
		<line
   stroke-miterlimit="10"
   x1="0"
   y1="448"
   x2="512"
   y2="448"
   id="line32"
   style="fill:none;stroke:#ff0000;stroke-miterlimit:10" />
		<line
   stroke-miterlimit="10"
   x1="0"
   y1="480"
   x2="512"
   y2="480"
   id="line34"
   style="fill:none;stroke:#a9ccdb;stroke-miterlimit:10" />
		<line
   stroke-miterlimit="10"
   x1="32"
   y1="0"
   x2="32"
   y2="512"
   id="line36"
   style="fill:none;stroke:#a9ccdb;stroke-miterlimit:10" />
		<line
   stroke-miterlimit="10"
   x1="64"
   y1="0"
   x2="64"
   y2="512"
   id="line38"
   style="fill:none;stroke:#a9ccdb;stroke-miterlimit:10" />
		<line
   stroke-miterlimit="10"
   x1="96"
   y1="0"
   x2="96"
   y2="512"
   id="line40"
   style="fill:none;stroke:#a9ccdb;stroke-miterlimit:10" />
		<line
   stroke-miterlimit="10"
   x1="128"
   y1="0"
   x2="128"
   y2="512"
   id="line42"
   style="fill:none;stroke:#a9ccdb;stroke-miterlimit:10" />
		<line
   stroke-miterlimit="10"
   x1="160"
   y1="0"
   x2="160"
   y2="512"
   id="line44"
   style="fill:none;stroke:#a9ccdb;stroke-miterlimit:10" />
		<line
   stroke-miterlimit="10"
   x1="192"
   y1="0"
   x2="192"
   y2="512"
   id="line46"
   style="fill:none;stroke:#a9ccdb;stroke-miterlimit:10" />
		<line
   stroke-miterlimit="10"
   x1="224"
   y1="0"
   x2="224"
   y2="512"
   id="line48"
   style="fill:none;stroke:#a9ccdb;stroke-miterlimit:10" />
		<line
   stroke-miterlimit="10"
   x1="256"
   y1="0"
   x2="256"
   y2="512"
   id="line50"
   style="fill:none;stroke:#a9ccdb;stroke-miterlimit:10" />
		<line
   stroke-miterlimit="10"
   x1="288"
   y1="0"
   x2="288"
   y2="512"
   id="line52"
   style="fill:none;stroke:#a9ccdb;stroke-miterlimit:10" />
		<line
   stroke-miterlimit="10"
   x1="320"
   y1="0"
   x2="320"
   y2="512"
   id="line54"
   style="fill:none;stroke:#a9ccdb;stroke-miterlimit:10" />
		<line
   stroke-miterlimit="10"
   x1="352"
   y1="0"
   x2="352"
   y2="512"
   id="line56"
   style="fill:none;stroke:#a9ccdb;stroke-miterlimit:10" />
		<line
   stroke-miterlimit="10"
   x1="384"
   y1="0"
   x2="384"
   y2="512"
   id="line58"
   style="fill:none;stroke:#a9ccdb;stroke-miterlimit:10" />
		<line
   stroke-miterlimit="10"
   x1="416"
   y1="0"
   x2="416"
   y2="512"
   id="line60"
   style="fill:none;stroke:#a9ccdb;stroke-miterlimit:10" />
		<line
   stroke-miterlimit="10"
   x1="448"
   y1="0"
   x2="448"
   y2="512"
   id="line62"
   style="fill:none;stroke:#a9ccdb;stroke-miterlimit:10" />
		<line
   stroke-miterlimit="10"
   x1="480"
   y1="0"
   x2="480"
   y2="512"
   id="line64"
   style="fill:none;stroke:#a9ccdb;stroke-miterlimit:10" />
	</g>
<path
   style="fill:#4e5665"
   d="M 927.34875,973.67348 C 890.59358,953.22821 841.83992,894.21942 808.8294,830.22422 c -8.39179,-16.26836 -16.07311,-30.8011 -23.28444,-43.85121 -17.95758,-32.49761 -33.00107,-55.80388 -48.8448,-73.84491 -18.68475,-21.27617 -38.48258,-35.22881 -65.48573,-48.29346 -19.68421,-9.71313 -48.04637,-20.47661 -72.12526,-35.45949 -22.4248,-9.22148 -34.88371,-23.15288 -44.60804,-38.91286 -9.94508,-17.35012 -13.61732,-44.21629 -20.52831,-66.11609 -2.07276,-6.56879 -2.77049,-12.69068 -6.11084,-17.97497 -8.5807,-10.89788 -20.72013,-17.39155 -32.9887,-18.71854 -11.63784,-1.25866 -23.39189,0.96303 -32.33511,9.65602 -7.27805,7.23726 -11.43151,19.02088 -17.93826,27.4193 -15.03212,19.1295 -38.87933,46.54209 -51.12209,59.37832 -23.39661,12.27745 -46.23307,16.77228 -69.65077,12.37034 -7.85207,-1.47585 -17.39467,-4.98754 -24.87062,-8.15546 -11.42003,-4.87107 -20.59475,-10.1476 -28.11984,-16.46544 -7.12445,-5.98199 -12.77016,-12.89559 -17.44251,-21.27842 -4.48757,-8.0524 -8.07718,-17.46094 -11.21671,-28.70032 -6.61263,-21.64456 -14.24255,-43.36634 -22.11868,-64.23711 -7.60767,-20.15967 -18.49694,-48.85894 -25.86916,-66.59765 C 183.42552,364.70043 173.07876,343.01896 163.05917,325.04513 138.87615,281.66417 116.59908,259.88755 95.242419,254.78459 78.132198,250.69628 68.027716,226.8289 54.112428,208.35227 41.898931,192.13536 24.367055,181.94641 28.987447,167.4282 c 3.967773,-12.46774 9.40099,-16.29969 32.950696,-19.85394 2.872942,-0.43673 5.583914,-2.51287 9.026331,-2.95291 15.195569,-2.27767 31.521846,-6.57655 45.534666,-7.64596 15.93593,-0.168 29.14634,2.54082 41.5996,6.85537 9.57665,3.318 18.70555,7.58554 28.28185,12.22479 14.20922,7.8352 23.17476,25.42166 25.94985,36.11794 10.71953,43.12556 25.35468,66.82938 52.30592,103.08171 19.01618,25.57836 22.88679,39.16261 27.44135,69.72858 5.9243,39.75716 38.35777,98.15678 51.08407,103.99096 17.45074,7.99981 34.07893,-4.31237 39.73954,-29.42492 5.91385,-26.2368 17.56214,-42.07069 35.47449,-48.21955 5.9665,-2.04916 21.2156,-8.27524 33.88796,-13.83731 19.47788,-8.54849 29.53843,-8.96397 65.08908,-2.68862 23.12661,4.08168 47.76722,11.86875 54.75659,17.30198 6.98945,5.43436 19.73454,27.20654 28.32098,48.38416 22.87596,56.41758 41.47263,82.27589 69.57692,96.74361 69.33314,35.69243 104.76541,59.89905 144.32697,98.60029 23.479,13.25842 18.5989,28.55591 29.04835,44.95648 22.19053,34.83012 44.96191,74.63324 73.54342,110.43763 9.46063,18.10258 20.12941,40.20398 23.71017,49.11425 3.57971,8.90905 8.8209,20.57289 11.64604,25.91985 9.07855,17.17768 32.91061,85.51885 32.91061,94.37419 0,7.7109 -19.86801,28.83816 -26.97118,28.68136 -1.57357,0 -15.46577,-7.07492 -30.87297,-15.64466 z m 32.83801,-15.53721 c 2.96682,-5.73443 0.64401,-11.46223 -34.60735,-85.39454 C 892.84095,804.08256 846.11547,719.31965 821.11862,683.24315 801.97353,655.61224 712.12331,581.14466 697.92881,581.14466 c -2.93056,0 -18.55457,-6.98751 -34.71986,-15.5293 -36.54908,-19.30979 -66.37101,-56.41313 -87.53507,-108.9058 -15.9064,-39.45483 -17.0031,-40.62391 -48.81711,-52.10747 -57.89689,-20.89985 -115.7082,2.99322 -129.58867,53.55764 -8.19516,29.8526 -34.15045,47.76602 -58.4898,40.36415 -15.01002,-4.56429 -21.8729,-13.51034 -40.90314,-53.32129 -12.57752,-26.30966 -24.45195,-60.46341 -26.38998,-75.89642 -2.42084,-19.28629 -11.82872,-41.33729 -30.08796,-70.51804 -14.61044,-23.35109 -30.08445,-52.51956 -34.38592,-64.81938 -15.7236,-45.35848 -4.72446,-16.91897 -16.9258,-43.81761 -7.05974,-10.54734 -11.5604,-15.55506 -44.27073,-28.07782 -27.75386,-10.24945 -79.258631,-7.35251 -86.161356,8.057 -4.157339,9.27858 4.724408,12.01648 14.30336,22.43959 6.780868,7.37828 18.516821,25.52569 24.587612,32.48526 6.071964,6.95956 16.820344,12.65255 23.885944,12.65255 15.91753,0 37.95105,32.97465 63.29918,86.96336 8.93512,19.03096 18.28209,40.67326 27.91822,64.40172 10.76203,26.50108 21.08904,44.12219 28.84431,67.14745 5.8358,17.32662 8.64895,31.03065 9.4504,35.09667 1.86689,9.47122 3.96952,14.39826 9.89382,30.91191 4.66328,17.61441 13.31376,26.48768 21.01871,33.72493 9.96211,9.35815 20.3936,14.80592 39.92959,20.6401 21.45468,6.60901 42.60023,7.03564 67.1659,-14.71077 11.17576,-9.11849 23.91724,-24.38472 33.833,-40.28136 12.64488,-20.27275 21.38491,-40.62279 38.31612,-47.18932 11.2571,-3.68413 21.23068,-6.87774 32.89128,-7.10616 12.88906,-0.25758 24.85628,4.15438 33.3193,11.49018 10.372,9.90795 18.9948,25.38692 24.22563,42.51194 7.14906,23.40488 10.0811,49.3774 21.95108,63.74998 8.64307,9.87661 18.93827,17.81148 28.42416,25.25809 21.12242,16.58086 41.23271,24.34442 66.214,33.43828 25.22823,9.38609 52.53697,25.818 68.78169,41.19618 34.83379,29.9467 64.58098,91.56569 69.2651,99.16238 4.43981,7.20139 63.55105,123.06449 114.92397,160.14982 30.06514,20.59979 33.89027,21.99398 38.09097,13.87317 z M 138.81815,193.29217 c -3.90187,-4.3471 -7.10351,-12.15767 -2.58355,-16.40276 9.8922,-5.79387 19.3856,2.66286 18.28407,12.05461 -2.1269,6.56984 -10.81331,7.8688 -15.70052,4.34815 z"
   id="path3760"
   inkscape:connector-curvature="0"
   sodipodi:nodetypes="sssscccscscccscsscscsssssccsccsssssssssscscssscssssssssssssscccsssssssscsccscscscsccscscccc" /></svg>