<?xml version="1.0" encoding="UTF-8" standalone="no"?>
<svg
   xmlns:dc="http://purl.org/dc/elements/1.1/"
   xmlns:cc="http://creativecommons.org/ns#"
   xmlns:rdf="http://www.w3.org/1999/02/22-rdf-syntax-ns#"
   xmlns:svg="http://www.w3.org/2000/svg"
   xmlns="http://www.w3.org/2000/svg"
   xmlns:sodipodi="http://sodipodi.sourceforge.net/DTD/sodipodi-0.dtd"
   xmlns:inkscape="http://www.inkscape.org/namespaces/inkscape"
   version="1.1"
   id="Layer_1"
   x="0px"
   y="0px"
   width="700"
   height="1024"
   viewBox="0 0 700 1024"
   enable-background="new 0 0 512 512"
   xml:space="preserve"
   inkscape:version="0.48.0 r9654"
   sodipodi:docname="pehebrew-x5e4.svg"><title
   id="title3743">Sinai 357</title><metadata
   id="metadata72"><rdf:RDF><cc:Work
       rdf:about=""><dc:format>image/svg+xml</dc:format><dc:type
         rdf:resource="http://purl.org/dc/dcmitype/StillImage" /><dc:title>Sinai 357</dc:title><dc:date>2017</dc:date><dc:creator><cc:Agent><dc:title>Celeste Claire Horner</dc:title></cc:Agent></dc:creator><dc:publisher><cc:Agent><dc:title>beitdina.net</dc:title></cc:Agent></dc:publisher></cc:Work></rdf:RDF></metadata><defs
   id="defs70" /><sodipodi:namedview
   pagecolor="#ffffff"
   bordercolor="#666666"
   borderopacity="1"
   objecttolerance="10"
   gridtolerance="10"
   guidetolerance="10"
   inkscape:pageopacity="0"
   inkscape:pageshadow="2"
   inkscape:window-width="1152"
   inkscape:window-height="814"
   id="namedview68"
   showgrid="false"
   inkscape:zoom="0.52007485"
   inkscape:cx="-119.87254"
   inkscape:cy="603.78299"
   inkscape:window-x="-8"
   inkscape:window-y="-8"
   inkscape:window-maximized="1"
   inkscape:current-layer="Layer_1"
   showguides="true"
   inkscape:guide-bbox="true" />
   
	
	


<g
   transform="matrix(4.4637923,0,0,4.9975799,-3306.2811,-1632.7003)"
   id="g2991"><g
     id="g4784" /><g
     id="g4634"><g
       id="g4519"
       transform="translate(477.65623,235.79285)"><g
         id="Grid"
         transform="matrix(0.30374688,0,0,0.40028531,263.75757,91.926833)"><rect
           x="0"
           stroke-miterlimit="10"
           width="512"
           height="512"
           id="rect4"
           y="0"
           style="fill:none;stroke:#a9ccdb;stroke-miterlimit:10" /><line
           stroke-miterlimit="10"
           x1="0"
           y1="32"
           x2="512"
           y2="32"
           id="line6"
           style="fill:none;stroke:#a9ccdb;stroke-miterlimit:10" /><line
           stroke-miterlimit="10"
           x1="0"
           y1="64"
           x2="512"
           y2="64"
           id="line8"
           style="fill:none;stroke:#a9ccdb;stroke-miterlimit:10" /><line
           stroke-miterlimit="10"
           x1="0"
           y1="96"
           x2="512"
           y2="96"
           id="line10"
           style="fill:none;stroke:#a9ccdb;stroke-miterlimit:10" /><line
           stroke-miterlimit="10"
           x1="0"
           y1="128"
           x2="512"
           y2="128"
           id="line12"
           style="fill:none;stroke:#a9ccdb;stroke-miterlimit:10" /><line
           stroke-miterlimit="10"
           x1="0"
           y1="160"
           x2="512"
           y2="160"
           id="line14"
           style="fill:none;stroke:#a9ccdb;stroke-miterlimit:10" /><line
           stroke-miterlimit="10"
           x1="0"
           y1="192"
           x2="512"
           y2="192"
           id="line16"
           style="fill:none;stroke:#a9ccdb;stroke-miterlimit:10" /><line
           stroke-miterlimit="10"
           x1="0"
           y1="224"
           x2="512"
           y2="224"
           id="line18"
           style="fill:none;stroke:#a9ccdb;stroke-miterlimit:10" /><line
           stroke-miterlimit="10"
           x1="0"
           y1="256"
           x2="512"
           y2="256"
           id="line20"
           style="fill:none;stroke:#a9ccdb;stroke-miterlimit:10" /><line
           stroke-miterlimit="10"
           x1="0"
           y1="288"
           x2="512"
           y2="288"
           id="line22"
           style="fill:none;stroke:#a9ccdb;stroke-miterlimit:10" /><line
           stroke-miterlimit="10"
           x1="0"
           y1="320"
           x2="512"
           y2="320"
           id="line24"
           style="fill:none;stroke:#a9ccdb;stroke-miterlimit:10" /><line
           stroke-miterlimit="10"
           x1="0"
           y1="352"
           x2="512"
           y2="352"
           id="line26"
           style="fill:none;stroke:#a9ccdb;stroke-miterlimit:10" /><line
           stroke-miterlimit="10"
           x1="0"
           y1="384"
           x2="512"
           y2="384"
           id="line28"
           style="fill:none;stroke:#a9ccdb;stroke-miterlimit:10" /><line
           stroke-miterlimit="10"
           x1="0"
           y1="416"
           x2="512"
           y2="416"
           id="line30"
           style="fill:none;stroke:#a9ccdb;stroke-miterlimit:10" /><line
           stroke-miterlimit="10"
           x1="0"
           y1="448"
           x2="512"
           y2="448"
           id="line32"
           style="fill:none;stroke:#ff0000;stroke-miterlimit:10" /><line
           stroke-miterlimit="10"
           x1="0"
           y1="480"
           x2="512"
           y2="480"
           id="line34"
           style="fill:none;stroke:#a9ccdb;stroke-miterlimit:10" /><line
           stroke-miterlimit="10"
           x1="32"
           y1="0"
           x2="32"
           y2="512"
           id="line36"
           style="fill:none;stroke:#a9ccdb;stroke-miterlimit:10" /><line
           stroke-miterlimit="10"
           x1="64"
           y1="0"
           x2="64"
           y2="512"
           id="line38"
           style="fill:none;stroke:#a9ccdb;stroke-miterlimit:10" /><line
           stroke-miterlimit="10"
           x1="96"
           y1="0"
           x2="96"
           y2="512"
           id="line40"
           style="fill:none;stroke:#a9ccdb;stroke-miterlimit:10" /><line
           stroke-miterlimit="10"
           x1="128"
           y1="0"
           x2="128"
           y2="512"
           id="line42"
           style="fill:none;stroke:#a9ccdb;stroke-miterlimit:10" /><line
           stroke-miterlimit="10"
           x1="160"
           y1="0"
           x2="160"
           y2="512"
           id="line44"
           style="fill:none;stroke:#a9ccdb;stroke-miterlimit:10" /><line
           stroke-miterlimit="10"
           x1="192"
           y1="0"
           x2="192"
           y2="512"
           id="line46"
           style="fill:none;stroke:#a9ccdb;stroke-miterlimit:10" /><line
           stroke-miterlimit="10"
           x1="224"
           y1="0"
           x2="224"
           y2="512"
           id="line48"
           style="fill:none;stroke:#a9ccdb;stroke-miterlimit:10" /><line
           stroke-miterlimit="10"
           x1="256"
           y1="0"
           x2="256"
           y2="512"
           id="line50"
           style="fill:none;stroke:#a9ccdb;stroke-miterlimit:10" /><line
           stroke-miterlimit="10"
           x1="288"
           y1="0"
           x2="288"
           y2="512"
           id="line52"
           style="fill:none;stroke:#a9ccdb;stroke-miterlimit:10" /><line
           stroke-miterlimit="10"
           x1="320"
           y1="0"
           x2="320"
           y2="512"
           id="line54"
           style="fill:none;stroke:#a9ccdb;stroke-miterlimit:10" /><line
           stroke-miterlimit="10"
           x1="352"
           y1="0"
           x2="352"
           y2="512"
           id="line56"
           style="fill:none;stroke:#a9ccdb;stroke-miterlimit:10" /><line
           stroke-miterlimit="10"
           x1="384"
           y1="0"
           x2="384"
           y2="512"
           id="line58"
           style="fill:none;stroke:#a9ccdb;stroke-miterlimit:10" /><line
           stroke-miterlimit="10"
           x1="416"
           y1="0"
           x2="416"
           y2="512"
           id="line60"
           style="fill:none;stroke:#a9ccdb;stroke-miterlimit:10" /><line
           stroke-miterlimit="10"
           x1="448"
           y1="0"
           x2="448"
           y2="512"
           id="line62"
           style="fill:none;stroke:#a9ccdb;stroke-miterlimit:10" /><line
           stroke-miterlimit="10"
           x1="480"
           y1="0"
           x2="480"
           y2="512"
           id="line64"
           style="fill:none;stroke:#a9ccdb;stroke-miterlimit:10" /></g><g
         id="g5180"
         transform="translate(101.34448,27.123307)" /></g></g><flowRoot
     style="font-size:28px;font-style:normal;font-variant:normal;font-weight:normal;font-stretch:normal;text-align:start;line-height:100%;letter-spacing:0px;word-spacing:0px;writing-mode:lr-tb;text-anchor:start;fill:#000000;fill-opacity:1;stroke:none;font-family:Arial;-inkscape-font-specification:Arial"
     id="flowRoot4904"
     xml:space="preserve"><flowRegion
       id="flowRegion4906"><rect
         style="font-size:28px"
         y="186.87357"
         x="31.103449"
         height="32.045979"
         width="594.73566"
         id="rect4908" /></flowRegion><flowPara
       id="flowPara4910" /></flowRoot></g>
 <path
   style="fill:#000000"
   d="m 238.89025,942.93528 c -28.58927,-20.71149 -35.28112,-25.99398 -37.37383,-29.50238 -1.31187,-2.19934 -1.27399,-2.55249 0.56698,-5.28782 3.76022,-5.58691 0.79753,-14.56783 -5.49514,-16.65767 -4.53332,-1.50558 -10.44856,-7.57009 -17.65084,-18.09621 -9.56548,-13.98003 -16.83281,-20.15898 -22.02589,-18.72724 -5.08434,1.40179 -7.07585,-2.63388 -8.72313,-17.67681 -1.23691,-11.2958 -14.72822,-14.33284 -14.72822,-14.33284 -11.03078,-1.79013 -15.08816,-8.66169 -20.18402,-30.79397 C 106.1696,760.99513 88.784078,766.58267 86.102294,754.99656 79.179371,742.4346 69.14721,706.05201 69.928518,694.78854 64.26127,675.89535 52.135875,644.27903 49.888711,632.21662 c -6.78817,-36.4374 -5.413056,-100.28058 -1.256939,-191.84528 1.191034,-26.23998 8.568521,-50.32776 11.596122,-60.82378 12.085042,-41.89589 14.518804,-72.09198 28.004877,-87.55063 2.814145,-3.22581 4.607746,-4.35373 8.240129,-5.18209 5.81105,-1.32518 7.47491,-3.32147 8.29389,-9.9511 0.77043,-6.23634 1.37186,-7.47505 4.20381,-8.65777 2.01361,-0.84098 2.1397,-1.3556 2.1397,-8.73282 0,-9.86165 -2.35362,-15.16218 4.28024,-25.28335 6.86854,-10.47915 19.20414,-11.56627 25.95496,-15.30443 7.56801,-4.19069 9.31724,-7.90378 10.55097,-22.39636 0.49236,-5.78387 1.51673,-11.83636 2.27635,-13.44997 1.20963,-2.56956 1.85646,-2.93379 5.21013,-2.93379 2.83024,0 4.31059,-0.57414 5.67511,-2.20094 1.01531,-1.21049 6.71508,-10.98228 12.6661,-21.71505 14.83074,-26.74749 8.8719,-27.2121 14.50059,-29.50431 6.91031,-2.81407 9.76378,-6.41251 10.52309,-13.27034 0.34224,-3.09044 1.2133,-6.89508 1.93587,-8.45477 2.27554,-4.91169 34.77581,-22.754947 40.97483,-26.712017 8.07568,-5.15515 14.04946,-6.9665 18.5675,-5.63012 6.05106,1.78988 13.48929,8.8303 23.90862,22.63003 6.58834,8.725837 13.37115,16.355997 20.26449,22.795957 13.1834,12.31636 19.94657,20.44226 23.91346,28.73194 4.95604,10.35655 20.77713,34.90332 27.79284,43.12129 8.34129,9.77052 8.84809,10.86617 7.12342,15.40042 -1.94047,5.10159 -1.67813,9.88751 0.79625,14.5255 2.24173,4.20203 2.97483,4.76378 11.46281,8.784 5.01942,2.3774 5.23855,2.64332 8.28869,10.05943 1.72309,4.18961 4.17107,9.81841 5.43985,12.50838 1.26878,2.69001 8.00231,17.05749 14.96339,31.92777 6.96107,14.87022 14.96497,30.80864 17.78643,35.41867 6.70315,10.95236 9.096,31.74651 9.38759,37.80789 1.48663,30.90031 2.49751,100.74366 1.58555,145.06498 -5.98912,58.02882 3.99116,110.30663 -0.0417,169.07635 -4.2378,11.05354 -16.54876,25.20085 -20.63536,32.20177 -29.53675,50.0212 -23.24753,57.52841 -24.63636,65.05029 -1.85303,10.03571 -4.08907,14.25017 -9.50164,17.90854 -3.88666,2.62705 -4.48024,3.41456 -3.94941,5.23987 0.34342,1.18156 0.83301,4.91586 1.08765,8.29842 0.41385,5.49779 0.15699,6.84669 -2.4202,12.71635 -2.32867,5.30337 -4.20736,9.51464 -13.58399,18.02919 l -10.70082,11.46302 0.60631,4.18786 c 1.74821,12.07508 3.72747,5.79234 -2.18259,19.83867 -7.71959,18.347 -36.4097,51.13248 -49.03013,66.11359 -6.01191,7.13651 -33.74044,30.37424 -36.09266,30.24738 -0.57999,-0.0293 -12.71555,-8.50477 -26.96801,-18.82998 z M 268.3657,833.11996 c 6.54368,-3.54819 18.058,-13.83199 22.93909,-20.48758 7.76251,-10.58446 14.78995,-29.30029 19.82707,-52.80435 1.26827,-5.91794 3.2457,-41.30015 6.1717,-57.14945 6.7661,-36.6498 9.14712,-23.07803 16.07834,-45.5594 11.32998,-36.74875 19.72034,-87.17755 20.56811,-149.77298 0.95875,-70.78773 -8.43846,-102.71604 -20.21552,-138.30087 -5.2922,-15.99049 -9.96711,-35.76132 -15.84376,-67.00533 -7.70768,-40.97909 -15.08536,-48.34782 -21.86073,-62.31117 -5.43929,-11.20979 -6.90064,-26.5102 -15.88382,-34.16369 -14.38515,-12.25587 -20.51174,-14.01639 -30.57591,-8.78629 -9.9475,5.16952 -20.66633,12.78072 -22.21439,24.7887 -0.98689,7.65496 -9.55227,7.13839 -21.17709,22.3027 -12.25959,15.99244 -10.0334,27.17706 -13.06661,37.0342 -1.42122,4.61867 -3.21287,9.1608 -3.98142,10.09368 -0.76855,0.93294 -3.16528,1.98739 -5.32608,2.34337 -4.66121,0.76783 -6.74889,3.24677 -8.94133,10.61705 -2.09175,7.03167 -3.25966,9.36618 -8.29936,16.58909 -7.67298,10.99694 -6.68851,23.25659 -12.48184,47.0304 -4.88248,20.03597 -7.01809,33.19463 -9.07942,55.9433 -1.67614,18.49742 -1.01189,21.03922 -6.19135,22.50573 -0.32554,3.04996 -5.37264,4.25771 -5.62468,8.08127 -0.11453,1.7389 1.44802,2.95215 2.1748,5.12944 0.99745,2.98826 1.15792,6.91835 -0.0239,8.55576 -2.86197,2.41635 -6.06374,2.04786 -9.2732,2.86591 -2.34026,0.62718 -5.21483,1.84259 -7.58454,2.57038 -1.2061,1.32494 5.13628,0.89143 8.76215,5.78103 4.56287,6.15309 8.74182,-0.31629 10.25694,9.38941 1.23278,7.89692 3.17887,32.5794 -0.49766,45.36404 -1.86534,6.48635 -10.23158,7.80899 -13.32867,10.93754 -14.20072,10.54598 15.50823,6.20909 10.27861,16.12321 l -2.41479,4.00845 2.1922,1.95258 c 1.45747,1.29814 2.19215,2.94773 2.19215,4.92208 0,2.47279 0.48133,3.14928 2.87744,4.04436 1.58256,0.59117 3.45069,1.97434 4.15137,3.07371 2.17614,3.4142 4.01258,12.20539 4.99741,23.92291 1.87631,22.32449 1.49555,41.71509 6.56645,61.7064 5.76102,22.71202 12.23227,37.6847 20.30696,46.98474 5.40963,6.23053 6.50361,8.98948 4.88328,12.31523 -1.0014,2.05539 -0.88892,2.62173 0.94685,4.76828 1.14577,1.33969 6.10262,4.70383 11.01525,7.47583 9.07651,5.12147 16.59181,11.76347 18.92992,16.73017 0.71075,1.50983 1.69482,5.26524 2.18683,8.34531 1.65293,10.34789 4.2508,15.50034 9.73135,19.30084 4.76996,3.30773 7.73435,10.46468 8.84308,21.34993 1.75483,17.22918 8.92093,28.16428 21.69126,33.09984 5.45144,2.10697 9.01728,1.70986 15.3163,-1.70576 z M 369.45116,671.36612 c 19.48069,-17.75117 23.64523,-24.02443 24.64306,-37.12071 0.87248,-11.45167 -5.34847,-40.86962 -10.11047,-47.81095 -4.80386,-7.00233 -16.85727,-8.41844 -19.82402,-2.3291 -0.6089,1.24985 -0.3474,3.59307 0.88731,7.95105 1.92264,6.78588 1.70274,8.7433 -1.3602,12.10792 -3.81092,4.1863 -6.67735,21.80377 -8.93421,54.9112 -1.55924,22.87323 -1.62832,26.19807 -0.53527,25.75874 0.44618,-0.17941 7.30142,-6.23996 15.2338,-13.46815 z m 10.20582,-240.97609 c 1.96921,-1.22517 4.40495,-3.89127 5.48202,-6.00053 4.43696,-8.68892 9.7275,-35.87251 8.98924,-46.18761 -0.51518,-7.19803 -3.56537,-14.83126 -8.33143,-20.84997 -3.56075,-4.49658 -31.61276,-30.57077 -32.19802,-29.92789 -0.18086,0.19849 0.1272,10.63525 0.685,23.19222 1.63448,36.80349 4.39663,54.38764 9.34565,59.49493 2.57991,2.66239 2.90077,6.52623 1.02692,12.36647 -1.44917,4.5167 -0.60764,7.8456 2.30854,9.13216 3.62216,1.59802 8.99256,1.08188 12.69208,-1.21978 z"
   id="path5182"
   inkscape:connector-curvature="0"
   sodipodi:nodetypes="cssssssssccssssssssssssscssccssssssscscsssscccsscscscssscccssssssssssssssccsssscsscccssscccssscssssssssssssssssssscsssssccsssss" /> 
</svg>