<?xml version="1.0" encoding="UTF-8" standalone="no"?>
<svg
   xmlns:dc="http://purl.org/dc/elements/1.1/"
   xmlns:cc="http://creativecommons.org/ns#"
   xmlns:rdf="http://www.w3.org/1999/02/22-rdf-syntax-ns#"
   xmlns:svg="http://www.w3.org/2000/svg"
   xmlns="http://www.w3.org/2000/svg"
   xmlns:sodipodi="http://sodipodi.sourceforge.net/DTD/sodipodi-0.dtd"
   xmlns:inkscape="http://www.inkscape.org/namespaces/inkscape"
   version="1.1"
   id="Layer_1"
   x="0px"
   y="0px"
   width="1024"
   height="1024"
   viewBox="0 0 1024 1024"
   enable-background="new 0 0 512 512"
   xml:space="preserve"
   inkscape:version="0.48.0 r9654"
   sodipodi:docname="reshhebrew-x5e8.svg"><title
   id="title3743">Sinai 357</title><metadata
   id="metadata72"><rdf:RDF><cc:Work
       rdf:about=""><dc:format>image/svg+xml</dc:format><dc:type
         rdf:resource="http://purl.org/dc/dcmitype/StillImage" /><dc:title>Sinai 357</dc:title><dc:date>2017</dc:date><dc:creator><cc:Agent><dc:title>Celeste Claire Horner</dc:title></cc:Agent></dc:creator><dc:publisher><cc:Agent><dc:title>beitdina.net</dc:title></cc:Agent></dc:publisher></cc:Work></rdf:RDF></metadata><defs
   id="defs70" /><sodipodi:namedview
   pagecolor="#ffffff"
   bordercolor="#666666"
   borderopacity="1"
   objecttolerance="10"
   gridtolerance="10"
   guidetolerance="10"
   inkscape:pageopacity="0"
   inkscape:pageshadow="2"
   inkscape:window-width="1152"
   inkscape:window-height="814"
   id="namedview68"
   showgrid="false"
   inkscape:zoom="0.22086455"
   inkscape:cx="-824.70916"
   inkscape:cy="-86.549021"
   inkscape:window-x="-8"
   inkscape:window-y="-8"
   inkscape:window-maximized="1"
   inkscape:current-layer="Layer_1" />
   
	<g
   id="Grid"
   transform="matrix(2.0004581,0,0,2.0004578,0.50019527,4.813853)">
		<rect
   x="0"
   stroke-miterlimit="10"
   width="512"
   height="512"
   id="rect4"
   y="0"
   style="fill:none;stroke:#a9ccdb;stroke-miterlimit:10" />
		<line
   stroke-miterlimit="10"
   x1="0"
   y1="32"
   x2="512"
   y2="32"
   id="line6"
   style="fill:none;stroke:#a9ccdb;stroke-miterlimit:10" />
		<line
   stroke-miterlimit="10"
   x1="0"
   y1="64"
   x2="512"
   y2="64"
   id="line8"
   style="fill:none;stroke:#a9ccdb;stroke-miterlimit:10" />
		<line
   stroke-miterlimit="10"
   x1="0"
   y1="96"
   x2="512"
   y2="96"
   id="line10"
   style="fill:none;stroke:#a9ccdb;stroke-miterlimit:10" />
		<line
   stroke-miterlimit="10"
   x1="0"
   y1="128"
   x2="512"
   y2="128"
   id="line12"
   style="fill:none;stroke:#a9ccdb;stroke-miterlimit:10" />
		<line
   stroke-miterlimit="10"
   x1="0"
   y1="160"
   x2="512"
   y2="160"
   id="line14"
   style="fill:none;stroke:#a9ccdb;stroke-miterlimit:10" />
		<line
   stroke-miterlimit="10"
   x1="0"
   y1="192"
   x2="512"
   y2="192"
   id="line16"
   style="fill:none;stroke:#a9ccdb;stroke-miterlimit:10" />
		<line
   stroke-miterlimit="10"
   x1="0"
   y1="224"
   x2="512"
   y2="224"
   id="line18"
   style="fill:none;stroke:#a9ccdb;stroke-miterlimit:10" />
		<line
   stroke-miterlimit="10"
   x1="0"
   y1="256"
   x2="512"
   y2="256"
   id="line20"
   style="fill:none;stroke:#a9ccdb;stroke-miterlimit:10" />
		<line
   stroke-miterlimit="10"
   x1="0"
   y1="288"
   x2="512"
   y2="288"
   id="line22"
   style="fill:none;stroke:#a9ccdb;stroke-miterlimit:10" />
		<line
   stroke-miterlimit="10"
   x1="0"
   y1="320"
   x2="512"
   y2="320"
   id="line24"
   style="fill:none;stroke:#a9ccdb;stroke-miterlimit:10" />
		<line
   stroke-miterlimit="10"
   x1="0"
   y1="352"
   x2="512"
   y2="352"
   id="line26"
   style="fill:none;stroke:#a9ccdb;stroke-miterlimit:10" />
		<line
   stroke-miterlimit="10"
   x1="0"
   y1="384"
   x2="512"
   y2="384"
   id="line28"
   style="fill:none;stroke:#a9ccdb;stroke-miterlimit:10" />
		<line
   stroke-miterlimit="10"
   x1="0"
   y1="416"
   x2="512"
   y2="416"
   id="line30"
   style="fill:none;stroke:#a9ccdb;stroke-miterlimit:10" />
		<line
   stroke-miterlimit="10"
   x1="0"
   y1="448"
   x2="512"
   y2="448"
   id="line32"
   style="fill:none;stroke:#ff0000;stroke-miterlimit:10" />
		<line
   stroke-miterlimit="10"
   x1="0"
   y1="480"
   x2="512"
   y2="480"
   id="line34"
   style="fill:none;stroke:#a9ccdb;stroke-miterlimit:10" />
		<line
   stroke-miterlimit="10"
   x1="32"
   y1="0"
   x2="32"
   y2="512"
   id="line36"
   style="fill:none;stroke:#a9ccdb;stroke-miterlimit:10" />
		<line
   stroke-miterlimit="10"
   x1="64"
   y1="0"
   x2="64"
   y2="512"
   id="line38"
   style="fill:none;stroke:#a9ccdb;stroke-miterlimit:10" />
		<line
   stroke-miterlimit="10"
   x1="96"
   y1="0"
   x2="96"
   y2="512"
   id="line40"
   style="fill:none;stroke:#a9ccdb;stroke-miterlimit:10" />
		<line
   stroke-miterlimit="10"
   x1="128"
   y1="0"
   x2="128"
   y2="512"
   id="line42"
   style="fill:none;stroke:#a9ccdb;stroke-miterlimit:10" />
		<line
   stroke-miterlimit="10"
   x1="160"
   y1="0"
   x2="160"
   y2="512"
   id="line44"
   style="fill:none;stroke:#a9ccdb;stroke-miterlimit:10" />
		<line
   stroke-miterlimit="10"
   x1="192"
   y1="0"
   x2="192"
   y2="512"
   id="line46"
   style="fill:none;stroke:#a9ccdb;stroke-miterlimit:10" />
		<line
   stroke-miterlimit="10"
   x1="224"
   y1="0"
   x2="224"
   y2="512"
   id="line48"
   style="fill:none;stroke:#a9ccdb;stroke-miterlimit:10" />
		<line
   stroke-miterlimit="10"
   x1="256"
   y1="0"
   x2="256"
   y2="512"
   id="line50"
   style="fill:none;stroke:#a9ccdb;stroke-miterlimit:10" />
		<line
   stroke-miterlimit="10"
   x1="288"
   y1="0"
   x2="288"
   y2="512"
   id="line52"
   style="fill:none;stroke:#a9ccdb;stroke-miterlimit:10" />
		<line
   stroke-miterlimit="10"
   x1="320"
   y1="0"
   x2="320"
   y2="512"
   id="line54"
   style="fill:none;stroke:#a9ccdb;stroke-miterlimit:10" />
		<line
   stroke-miterlimit="10"
   x1="352"
   y1="0"
   x2="352"
   y2="512"
   id="line56"
   style="fill:none;stroke:#a9ccdb;stroke-miterlimit:10" />
		<line
   stroke-miterlimit="10"
   x1="384"
   y1="0"
   x2="384"
   y2="512"
   id="line58"
   style="fill:none;stroke:#a9ccdb;stroke-miterlimit:10" />
		<line
   stroke-miterlimit="10"
   x1="416"
   y1="0"
   x2="416"
   y2="512"
   id="line60"
   style="fill:none;stroke:#a9ccdb;stroke-miterlimit:10" />
		<line
   stroke-miterlimit="10"
   x1="448"
   y1="0"
   x2="448"
   y2="512"
   id="line62"
   style="fill:none;stroke:#a9ccdb;stroke-miterlimit:10" />
		<line
   stroke-miterlimit="10"
   x1="480"
   y1="0"
   x2="480"
   y2="512"
   id="line64"
   style="fill:none;stroke:#a9ccdb;stroke-miterlimit:10" />
	</g>
	


<path
   id="path4208"
   d="m 225.15077,538.5161 c 1.45545,-8.94765 6.42284,-15.65504 14.89943,-20.12301 8.47828,-4.46809 18.48544,-5.81239 30.02607,-4.03412 11.53957,1.7784 12.00501,2.49746 18.64957,9.29686 6.64261,6.79855 8.22331,14.56975 7.78013,23.61859 -0.73295,8.68502 -6.18188,15.69838 -12.9924,20.51906 -7.65501,5.41996 -17.02057,8.06908 -23.30638,7.20741 -11.53958,-1.77924 -20.63172,-6.06681 -27.27629,-12.86621 -6.6426,-6.79855 -9.23571,-14.67177 -7.78013,-23.61858 z m 84.99198,-121.27008 c 13.3225,3.02709 26.28979,7.05025 39.99147,11.99019 17.73731,6.42937 35.15576,14.10597 46.82335,27.00716 6.40714,5.74199 11.93826,11.86025 16.59231,18.35294 4.65406,6.49101 8.12424,13.98967 10.41134,22.49525 2.28711,8.50475 4.27395,15.09477 5.96029,19.77115 1.68647,4.67566 2.888,12.33395 3.60278,22.97427 0.71333,10.64128 1.05756,17.31715 1.02353,20.03015 0,2.71324 -0.20418,9.99081 -0.49083,21.83379 -0.29711,11.8431 -7.3185,22.52145 -7.42609,23.18376 10.53555,10.45618 88.69489,18.01545 118.93692,22.67747 78.59649,-101.50147 87.82396,-269.74222 14.16934,-364.78324 -32.1463,-41.48045 -83.75471,-57.19354 -146.11634,-67.14571 -27.05928,-4.17012 -78.03132,0.83071 -107.44929,6.14361 -23.61932,7.1669 -49.723,15.20598 -74.24321,25.74067 -21.11979,9.07378 -41.06488,19.99894 -57.236,33.81293 -8.09884,7.32942 -27.57156,25.91252 -34.02753,52.93165 -5.96173,39.34368 -8.1953,57.80082 0.5602,68.61649 9.03206,11.15688 29.68537,14.11025 65.17005,18.6847 20.1977,2.28063 36.47811,5.34907 53.71765,7.85118 15.77924,2.28995 32.54615,3.92324 50.03032,7.83159 z M 587.2442,237.6056 c 46.61,64.53526 64.00948,165.38684 55.7842,253.81473 -6.79954,73.10121 -31.82955,138.06789 -65.961,163.84825 l 41.89941,190.47652 c -26.9221,25.06299 -45.55584,36.79765 -55.90239,35.20256 -5.57,-0.8566 -14.18741,-9.32041 -25.84844,-25.38431 -11.6621,-16.06462 -17.7504,-27.5334 -18.26308,-34.40585 -0.93845,-4.22261 -1.89313,-12.18144 -2.84428,-23.87747 -0.94893,-11.69603 -1.87364,-19.8209 -2.76458,-24.37363 -0.89003,-4.55382 -2.17232,-11.71499 -3.84479,-21.48374 -1.67337,-9.76971 -3.60643,-16.69107 -5.79904,-20.76551 -2.19155,-4.07469 -4.96464,-9.59644 -8.31703,-16.56827 -3.35238,-6.97087 -7.2007,-12.14993 -11.54323,-15.53695 -4.34359,-3.38702 -10.13426,-6.65595 -17.37213,-9.81016 -7.23606,-3.15362 -14.8336,-5.34425 -22.79187,-6.57131 -21.51519,-4.60429 -35.42119,-21.36805 -31.89539,-40.3879 3.66848,-19.7866 -25.68314,-46.43925 -23.33936,-59.95884 4.46859,-19.43015 6.04275,-35.67976 2.71825,-50.49052 -3.88732,-17.31885 -14.47116,-32.66815 -34.95263,-48.83843 -19.92899,-14.89721 -35.29673,-25.14147 -51.22334,-29.19265 -20.01158,-5.09065 -40.90651,-0.40564 -72.84051,17.12037 -12.84412,7.21007 -25.56495,22.92464 -36.73556,33.29351 -8.73508,8.10675 -26.31021,12.58003 -34.9453,21.99426 -12.4203,14.33694 -28.11526,38.90558 -33.07519,60.39378 -2.91117,12.61192 55.64729,24.16353 62.96776,31.95984 11.33382,10.47718 25.50264,19.79034 40.36975,28.40593 21.81924,12.64247 45.14237,23.78172 63.21435,34.88427 25.22464,15.43745 43.3207,27.05873 54.28739,34.86409 19.43764,15.90415 31.28886,30.80873 35.55248,44.71435 4.40837,14.52906 4.77747,25.22902 2.31877,34.73067 -2.30661,8.90805 -7.09978,16.76123 -13.3818,25.72615 -5.32719,7.67109 -10.32142,14.54438 -14.98109,20.62025 -4.65955,6.07491 -8.97893,8.80614 -12.95813,8.19261 -10.34642,-1.59353 -19.21592,-9.75438 -26.60772,-24.4811 7.97673,-27.47737 19.8845,-48.53172 17.06599,-60.2269 -2.84886,-11.82765 -4.20249,-17.24121 -21.75067,-28.00795 -14.76971,-8.62912 -30.18928,-17.30798 -45.39184,-25.75959 -25.59178,-14.22863 -50.56511,-27.8139 -70.77957,-39.43048 -23.70414,-10.0548 -39.90706,-22.20558 -48.81753,-37.01609 -8.59792,-14.29106 -68.175328,-31.05506 -63.376647,-50.80194 6.679771,-27.21039 16.703687,-55.35732 43.128827,-82.92671 10.87951,-11.21423 30.25315,-14.88019 40.81003,-25.62882 9.75599,-9.93381 19.91512,-20.24761 27.09737,-32.01127 5.96736,-10.46808 -27.43361,-6.95695 -47.06706,-14.35919 -25.2766,-10.25503 -35.4318,-18.66786 -43.13837,-31.05396 -11.101632,-30.2208 -11.336185,-61.19649 -2.91797,-86.43705 7.96048,-23.86842 18.10482,-42.13284 35.71948,-65.89433 20.2884,-25.26714 44.77563,-43.85673 69.70461,-57.07003 26.88951,-10.96522 57.48651,-20.95498 88.77209,-27.66064 40.3255,-7.86697 83.47252,-8.14612 125.59129,-0.98233 60.81522,10.34419 119.48664,36.2063 164.42549,77.15152 z"
   inkscape:connector-curvature="0"
   sodipodi:nodetypes="sssscscsscccssssccccsccsccscsccscsscssssssscscscscscscscccscsscscscsccsccccscccscc"
   inkscape:transform-center-x="354.03224"
   inkscape:transform-center-y="-188.75311" /></svg>