<?xml version="1.0" encoding="UTF-8" standalone="no"?>
<svg
   xmlns:dc="http://purl.org/dc/elements/1.1/"
   xmlns:cc="http://creativecommons.org/ns#"
   xmlns:rdf="http://www.w3.org/1999/02/22-rdf-syntax-ns#"
   xmlns:svg="http://www.w3.org/2000/svg"
   xmlns="http://www.w3.org/2000/svg"
   xmlns:sodipodi="http://sodipodi.sourceforge.net/DTD/sodipodi-0.dtd"
   xmlns:inkscape="http://www.inkscape.org/namespaces/inkscape"
   version="1.1"
   id="Layer_1"
   x="0px"
   y="0px"
   width="1024"
   height="1024"
   viewBox="0 0 1024 1024"
   enable-background="new 0 0 512 512"
   xml:space="preserve"
   inkscape:version="0.48.0 r9654"
   sodipodi:docname="roshphenician-x1091.svg"><title
   id="title3743">Sinai 357</title><metadata
   id="metadata72"><rdf:RDF><cc:Work
       rdf:about=""><dc:format>image/svg+xml</dc:format><dc:type
         rdf:resource="http://purl.org/dc/dcmitype/StillImage" /><dc:title>Sinai 357</dc:title><dc:date>2017</dc:date><dc:creator><cc:Agent><dc:title>Celeste Claire Horner</dc:title></cc:Agent></dc:creator><dc:publisher><cc:Agent><dc:title>beitdina.net</dc:title></cc:Agent></dc:publisher></cc:Work></rdf:RDF></metadata><defs
   id="defs70" /><sodipodi:namedview
   pagecolor="#ffffff"
   bordercolor="#666666"
   borderopacity="1"
   objecttolerance="10"
   gridtolerance="10"
   guidetolerance="10"
   inkscape:pageopacity="0"
   inkscape:pageshadow="2"
   inkscape:window-width="1057"
   inkscape:window-height="623"
   id="namedview68"
   showgrid="false"
   inkscape:zoom="0.21107483"
   inkscape:cx="-608.69118"
   inkscape:cy="570.90142"
   inkscape:window-x="46"
   inkscape:window-y="46"
   inkscape:window-maximized="0"
   inkscape:current-layer="Layer_1" />
   
	<g
   id="Grid"
   transform="matrix(2.0004581,0,0,2.0004578,0.50019527,4.813853)">
		<rect
   x="0"
   stroke-miterlimit="10"
   width="512"
   height="512"
   id="rect4"
   y="0"
   style="fill:none;stroke:#a9ccdb;stroke-miterlimit:10" />
		<line
   stroke-miterlimit="10"
   x1="0"
   y1="32"
   x2="512"
   y2="32"
   id="line6"
   style="fill:none;stroke:#a9ccdb;stroke-miterlimit:10" />
		<line
   stroke-miterlimit="10"
   x1="0"
   y1="64"
   x2="512"
   y2="64"
   id="line8"
   style="fill:none;stroke:#a9ccdb;stroke-miterlimit:10" />
		<line
   stroke-miterlimit="10"
   x1="0"
   y1="96"
   x2="512"
   y2="96"
   id="line10"
   style="fill:none;stroke:#a9ccdb;stroke-miterlimit:10" />
		<line
   stroke-miterlimit="10"
   x1="0"
   y1="128"
   x2="512"
   y2="128"
   id="line12"
   style="fill:none;stroke:#a9ccdb;stroke-miterlimit:10" />
		<line
   stroke-miterlimit="10"
   x1="0"
   y1="160"
   x2="512"
   y2="160"
   id="line14"
   style="fill:none;stroke:#a9ccdb;stroke-miterlimit:10" />
		<line
   stroke-miterlimit="10"
   x1="0"
   y1="192"
   x2="512"
   y2="192"
   id="line16"
   style="fill:none;stroke:#a9ccdb;stroke-miterlimit:10" />
		<line
   stroke-miterlimit="10"
   x1="0"
   y1="224"
   x2="512"
   y2="224"
   id="line18"
   style="fill:none;stroke:#a9ccdb;stroke-miterlimit:10" />
		<line
   stroke-miterlimit="10"
   x1="0"
   y1="256"
   x2="512"
   y2="256"
   id="line20"
   style="fill:none;stroke:#a9ccdb;stroke-miterlimit:10" />
		<line
   stroke-miterlimit="10"
   x1="0"
   y1="288"
   x2="512"
   y2="288"
   id="line22"
   style="fill:none;stroke:#a9ccdb;stroke-miterlimit:10" />
		<line
   stroke-miterlimit="10"
   x1="0"
   y1="320"
   x2="512"
   y2="320"
   id="line24"
   style="fill:none;stroke:#a9ccdb;stroke-miterlimit:10" />
		<line
   stroke-miterlimit="10"
   x1="0"
   y1="352"
   x2="512"
   y2="352"
   id="line26"
   style="fill:none;stroke:#a9ccdb;stroke-miterlimit:10" />
		<line
   stroke-miterlimit="10"
   x1="0"
   y1="384"
   x2="512"
   y2="384"
   id="line28"
   style="fill:none;stroke:#a9ccdb;stroke-miterlimit:10" />
		<line
   stroke-miterlimit="10"
   x1="0"
   y1="416"
   x2="512"
   y2="416"
   id="line30"
   style="fill:none;stroke:#a9ccdb;stroke-miterlimit:10" />
		<line
   stroke-miterlimit="10"
   x1="0"
   y1="448"
   x2="512"
   y2="448"
   id="line32"
   style="fill:none;stroke:#ff0000;stroke-miterlimit:10" />
		<line
   stroke-miterlimit="10"
   x1="0"
   y1="480"
   x2="512"
   y2="480"
   id="line34"
   style="fill:none;stroke:#a9ccdb;stroke-miterlimit:10" />
		<line
   stroke-miterlimit="10"
   x1="32"
   y1="0"
   x2="32"
   y2="512"
   id="line36"
   style="fill:none;stroke:#a9ccdb;stroke-miterlimit:10" />
		<line
   stroke-miterlimit="10"
   x1="64"
   y1="0"
   x2="64"
   y2="512"
   id="line38"
   style="fill:none;stroke:#a9ccdb;stroke-miterlimit:10" />
		<line
   stroke-miterlimit="10"
   x1="96"
   y1="0"
   x2="96"
   y2="512"
   id="line40"
   style="fill:none;stroke:#a9ccdb;stroke-miterlimit:10" />
		<line
   stroke-miterlimit="10"
   x1="128"
   y1="0"
   x2="128"
   y2="512"
   id="line42"
   style="fill:none;stroke:#a9ccdb;stroke-miterlimit:10" />
		<line
   stroke-miterlimit="10"
   x1="160"
   y1="0"
   x2="160"
   y2="512"
   id="line44"
   style="fill:none;stroke:#a9ccdb;stroke-miterlimit:10" />
		<line
   stroke-miterlimit="10"
   x1="192"
   y1="0"
   x2="192"
   y2="512"
   id="line46"
   style="fill:none;stroke:#a9ccdb;stroke-miterlimit:10" />
		<line
   stroke-miterlimit="10"
   x1="224"
   y1="0"
   x2="224"
   y2="512"
   id="line48"
   style="fill:none;stroke:#a9ccdb;stroke-miterlimit:10" />
		<line
   stroke-miterlimit="10"
   x1="256"
   y1="0"
   x2="256"
   y2="512"
   id="line50"
   style="fill:none;stroke:#a9ccdb;stroke-miterlimit:10" />
		<line
   stroke-miterlimit="10"
   x1="288"
   y1="0"
   x2="288"
   y2="512"
   id="line52"
   style="fill:none;stroke:#a9ccdb;stroke-miterlimit:10" />
		<line
   stroke-miterlimit="10"
   x1="320"
   y1="0"
   x2="320"
   y2="512"
   id="line54"
   style="fill:none;stroke:#a9ccdb;stroke-miterlimit:10" />
		<line
   stroke-miterlimit="10"
   x1="352"
   y1="0"
   x2="352"
   y2="512"
   id="line56"
   style="fill:none;stroke:#a9ccdb;stroke-miterlimit:10" />
		<line
   stroke-miterlimit="10"
   x1="384"
   y1="0"
   x2="384"
   y2="512"
   id="line58"
   style="fill:none;stroke:#a9ccdb;stroke-miterlimit:10" />
		<line
   stroke-miterlimit="10"
   x1="416"
   y1="0"
   x2="416"
   y2="512"
   id="line60"
   style="fill:none;stroke:#a9ccdb;stroke-miterlimit:10" />
		<line
   stroke-miterlimit="10"
   x1="448"
   y1="0"
   x2="448"
   y2="512"
   id="line62"
   style="fill:none;stroke:#a9ccdb;stroke-miterlimit:10" />
		<line
   stroke-miterlimit="10"
   x1="480"
   y1="0"
   x2="480"
   y2="512"
   id="line64"
   style="fill:none;stroke:#a9ccdb;stroke-miterlimit:10" />
	</g>
	


<path
   inkscape:transform-center-y="-188.21951"
   inkscape:transform-center-x="389.30095"
   sodipodi:nodetypes="cccsccscccccscscsscsscscccsccscccssssssssccscssssssscscccscccscsscccscscsccscscccccssscsccscsccscacsssccscccccc"
   inkscape:connector-curvature="0"
   d="m 296.08106,596.18403 c -8.7251,-11.47151 -11.07452,-18.26779 -10.07814,-26.14523 2.10946,-11.64915 9.93873,-20.57601 17.35225,-26.01738 11.94001,-6.88594 23.45994,-9.08767 33.91445,-7.42899 11.18455,1.77457 21.14973,7.96735 29.10539,17.56965 2.98096,9.51213 2.49503,17.97598 -0.14105,25.75984 -8.48546,20.35859 -24.04467,29.98951 -39.22948,29.6752 -10.34463,-0.21445 -19.0693,-5.47609 -30.92281,-13.41309 z M 411.46179,494.26585 c 19.50432,6.41116 21.18929,16.30675 34.0192,29.17154 7.04548,5.72595 13.12758,11.82681 18.24526,18.3011 11.45195,18.91446 27.56641,21.19547 27.54052,44.062 -0.56735,5.81568 -16.44726,7.65784 -14.87343,17.78855 2.13847,13.76534 6.77659,18.95999 12.64602,18.64995 14.46165,-3.36304 16.9056,-9.6371 26.06011,-15.68145 9.51843,-6.2847 -3.69735,-19.36124 1.67904,-31.78997 2.13398,-8.32074 10.07249,-12.56496 14.89385,-22.37221 4.20837,-8.56031 5.73892,-22.99089 2.89475,-26.88008 -9.74823,-13.32997 -31.79032,-8.66059 -24.58694,-23.26299 -3.0671,-21.4448 -0.64925,-30.09232 6.18535,-46.38538 4.11727,-9.81536 35.05141,-8.21485 44.41046,-16.83857 8.99399,-8.28751 -3.68829,-26.8032 5.44651,-35.94553 23.81836,-23.91762 20.54356,-16.61202 23.34791,-31.47508 3.74075,-19.82557 -5.90655,-32.19514 -14.78369,-38.707 -33.51538,-25.44371 -46.04386,-88.63668 -84.77345,-94.68889 -29.75498,-4.15846 -50.8676,-8.13485 -83.21609,-2.8367 -35.70556,6.89903 -60.89436,33.60025 -84.90093,57.18795 -14.67221,14.41631 -21.27613,10.37401 -24.05255,92.96457 2.65177,17.17199 -3.26617,42.19285 -1.42213,51.36278 14.47119,1.49681 30.50532,7.86715 43.37334,14.69545 26.38515,14.0015 47.6116,33.58958 71.86686,42.67996 z M 580.05625,217.32569 c 26.0228,6.41481 39.2884,24.273 50.45581,37.4739 11.07262,13.45987 19.96533,37.74141 32.78121,67.26293 5.04576,11.62301 6.58979,37.17578 12.3596,51.77765 12.88277,32.603 25.25805,27.24412 -4.11274,57.80435 -28.83972,30.00756 -42.42392,59.93242 -42.42392,59.93242 -4.50048,25.07673 -33.88021,20.24522 -20.60613,72.43242 3.24356,12.75195 -23.9738,54.63697 -20.24635,68.92661 2.61079,10.00863 -2.22645,20.36819 6.80624,27.72402 14.45026,11.76767 44.94153,19.34214 51.62694,31.81954 16.02298,29.9043 19.19518,69.97411 -4.41114,85.43832 l -20.05778,24.12534 c -8.93408,11.06501 -34.24836,18.0829 -57.76632,19.66264 -24.50951,1.64664 -47.06803,-2.61319 -47.10174,-14.35349 -12.82378,-16.01931 -19.51858,-27.45559 -20.08234,-34.30855 -1.03267,-4.21074 -2.08174,-12.14705 -3.1277,-23.80998 -1.04388,-11.66302 -2.06032,-19.76476 -3.04004,-24.30481 -0.97869,-4.54074 -2.3886,-11.68186 -4.22768,-21.423 -1.84014,-9.74193 -3.96571,-16.64374 -6.37673,-20.70683 -2.41001,-4.06308 -5.45921,-9.56925 -9.14557,-16.5213 -3.68637,-6.95126 -7.91814,-12.11547 -12.6933,-15.49307 -4.77617,-3.37751 -11.14372,-6.63704 -19.10264,-9.78248 -18.26859,-2.52564 -25.06599,-10.64736 -24.90818,-20.72994 0.15586,-9.95778 7.09584,-21.82801 16.46956,-32.10864 -0.20553,-13.57199 -6.56639,-28.14874 -19.20019,-38.56036 -22.35706,-22.15044 -49.22942,-44.47503 -74.32073,-58.39524 -28.69151,-12.64537 -60.3264,-14.8833 -83.6149,-9.17891 -17.15458,4.20202 -27.10603,12.15943 -41.7098,26.27841 -19.38923,18.97716 -33.23098,42.05264 -46.08499,63.30428 -14.10859,23.47656 -26.04975,47.8193 -32.80027,73.58866 -1.5836,6.22173 -1.97063,16.7108 -4.16426,30.74466 -2.24047,14.33309 10.41153,34.20896 14.47864,38.13713 4.18695,0.71592 36.35605,15.06853 45.11506,14.57665 5.43258,-0.30498 12.3096,-9.51902 15.50222,-10.92347 10.13248,-4.45762 8.51947,-11.19731 14.71599,-14.86332 7.85666,-10.2706 6.48963,-10.29746 18.00466,-10.99123 3.91706,1.19026 7.72458,4.18178 12.92229,9.0377 6.36871,-0.43936 20.73395,-7.99299 30.91293,-10.73326 10.88316,-2.92977 12.36556,1.57635 16.53955,3.86947 29.93244,17.69874 12.62838,57.81556 7.24858,74.84966 -1.60858,5.09331 -0.46905,8.26692 0.9771,12.36359 7.61138,2.50113 20.61205,-8.42121 25.52256,-11.03842 19.30153,-10.28587 7.71602,-46.50574 24.44275,-46.77932 14.51794,1.63399 24.88383,18.44666 41.94753,45.99573 12.43506,25.82603 -5.35886,10.14964 -0.33792,26.80786 3.98353,13.21635 -10.85321,13.82805 -10.77731,20.18775 1.54435,14.13327 -10.43144,17.58763 -16.23559,18.97778 -5.647,1.35238 -4.97632,0.90324 -14.06465,-4.38455 -2.57118,-3.92921 -7.34514,-8.39487 -2.42026,-17.95548 10.84737,-16.39311 24.48857,-34.45263 10.52591,-40.83423 -22.63631,21.49661 -25.70907,41.33691 -42.57436,50.00954 -11.58793,4.17707 -23.21312,-0.55963 -30.41805,-1.62719 -7.44433,-2.96281 -13.16099,-6.36205 -17.46017,-10.08772 -9.16709,-7.94424 -0.44027,-13.37444 0.27446,-23.21921 1.02705,-14.14566 3.17524,-20.41841 6.64509,-34.10579 3.55294,-14.01519 8.33745,-35.3338 1.37952,-40.10372 -24.10555,9.1672 -50.69215,40.41489 -64.76471,53.88423 -14.45781,13.83798 -16.37779,9.67182 -39.8803,1.41885 -24.64844,-9.33727 -64.01972,-35.70062 -67.57009,-41.05242 -7.6962,-5.48097 -17.721894,-20.76142 -34.767383,-38.32602 -14.234634,-14.66832 -1.653455,-43.61443 0.747546,-52.5753 2.900393,-7.81457 5.951948,-15.88561 9.27617,-24.07615 12.944558,-31.89523 26.206437,-70.17408 54.589317,-97.63157 6.07052,-8.8304 10.44073,-14.18473 19.09433,-24.38504 10.52844,-13.01803 17.24651,-25.96889 30.93392,-34.11111 16.63024,-9.89271 16.34907,-24.05504 31.29274,-26.1864 1.12952,-20.45206 2.31918,-24.4552 3.23686,-36.69877 3.02112,-40.30725 -6.06997,-104.79912 7.46925,-121.00977 7.22222,-8.64764 15.18924,-25.79068 29.77723,-42.59979 18.79331,-21.65482 57.07385,-46.5467 91.08319,-65.56705 9.14252,-5.11309 25.99418,-6.01588 40.75877,-28.3741 12.27828,-18.59311 10.87951,-75.768546 21.08248,-75.134276 13.55231,1.5271 24.9308,5.13194 37.4068,9.94741 12.74255,7.38689 11.14787,17.93871 12.72491,28.32577 2.15874,14.218186 -17.18953,47.722436 -13.56591,57.425866 10.90556,16.38925 46.91931,16.93046 62.56719,17.28364 17.28869,-22.91933 14.20077,-48.08583 41.71236,-52.93878 46.19247,-4.80384 16.16443,50.4369 11.55615,64.03389 -1.14781,13.77273 5.443,23.7942 13.19837,32.56139 z"
   id="path4212" /></svg>