<?xml version="1.0" encoding="UTF-8" standalone="no"?>
<svg
   xmlns:dc="http://purl.org/dc/elements/1.1/"
   xmlns:cc="http://creativecommons.org/ns#"
   xmlns:rdf="http://www.w3.org/1999/02/22-rdf-syntax-ns#"
   xmlns:svg="http://www.w3.org/2000/svg"
   xmlns="http://www.w3.org/2000/svg"
   xmlns:sodipodi="http://sodipodi.sourceforge.net/DTD/sodipodi-0.dtd"
   xmlns:inkscape="http://www.inkscape.org/namespaces/inkscape"
   version="1.1"
   id="Layer_1"
   x="0px"
   y="0px"
   width="1024"
   height="1024"
   viewBox="0 0 1024 1024"
   enable-background="new 0 0 512 512"
   xml:space="preserve"
   inkscape:version="0.48.0 r9654"
   sodipodi:docname="semkphoenician-x1090e.svg"><title
   id="title3743">Sinai 357</title><metadata
   id="metadata72"><rdf:RDF><cc:Work
       rdf:about=""><dc:format>image/svg+xml</dc:format><dc:type
         rdf:resource="http://purl.org/dc/dcmitype/StillImage" /><dc:title>Sinai 357</dc:title><dc:date>2017</dc:date><dc:creator><cc:Agent><dc:title /></cc:Agent></dc:creator><dc:publisher><cc:Agent><dc:title>beitdina.net</dc:title></cc:Agent></dc:publisher><cc:license
         rdf:resource="http://scripts.sil.org/OFL" /></cc:Work><cc:License
       rdf:about="http://scripts.sil.org/OFL"><cc:permits
         rdf:resource="http://scripts.sil.org/pub/OFL/Reproduction" /><cc:permits
         rdf:resource="http://scripts.sil.org/pub/OFL/Distribution" /><cc:permits
         rdf:resource="http://scripts.sil.org/pub/OFL/Embedding" /><cc:permits
         rdf:resource="http://scripts.sil.org/pub/OFL/DerivativeWorks" /><cc:requires
         rdf:resource="http://scripts.sil.org/pub/OFL/Notice" /><cc:requires
         rdf:resource="http://scripts.sil.org/pub/OFL/Attribution" /><cc:requires
         rdf:resource="http://scripts.sil.org/pub/OFL/ShareAlike" /><cc:requires
         rdf:resource="http://scripts.sil.org/pub/OFL/DerivativeRenaming" /><cc:requires
         rdf:resource="http://scripts.sil.org/pub/OFL/BundlingWhenSelling" /></cc:License></rdf:RDF></metadata><defs
   id="defs70" /><sodipodi:namedview
   pagecolor="#ffffff"
   bordercolor="#666666"
   borderopacity="1"
   objecttolerance="10"
   gridtolerance="10"
   guidetolerance="10"
   inkscape:pageopacity="0"
   inkscape:pageshadow="2"
   inkscape:window-width="1013"
   inkscape:window-height="710"
   id="namedview68"
   showgrid="false"
   inkscape:zoom="0.18022936"
   inkscape:cx="-445.62517"
   inkscape:cy="897.31227"
   inkscape:window-x="46"
   inkscape:window-y="46"
   inkscape:window-maximized="0"
   inkscape:current-layer="g3786" />
   
	<g
   id="Grid"
   transform="matrix(2.0026184,0,0,2.0030927,-3.4220811,0.83813843)">
		<rect
   x="0"
   stroke-miterlimit="10"
   width="512"
   height="512"
   id="rect4"
   y="0"
   style="fill:none;stroke:#a9ccdb;stroke-miterlimit:10" />
		<line
   stroke-miterlimit="10"
   x1="0"
   y1="32"
   x2="512"
   y2="32"
   id="line6"
   style="fill:none;stroke:#a9ccdb;stroke-miterlimit:10" />
		<line
   stroke-miterlimit="10"
   x1="0"
   y1="64"
   x2="512"
   y2="64"
   id="line8"
   style="fill:none;stroke:#a9ccdb;stroke-miterlimit:10" />
		<line
   stroke-miterlimit="10"
   x1="0"
   y1="96"
   x2="512"
   y2="96"
   id="line10"
   style="fill:none;stroke:#a9ccdb;stroke-miterlimit:10" />
		<line
   stroke-miterlimit="10"
   x1="0"
   y1="128"
   x2="512"
   y2="128"
   id="line12"
   style="fill:none;stroke:#a9ccdb;stroke-miterlimit:10" />
		<line
   stroke-miterlimit="10"
   x1="0"
   y1="160"
   x2="512"
   y2="160"
   id="line14"
   style="fill:none;stroke:#a9ccdb;stroke-miterlimit:10" />
		<line
   stroke-miterlimit="10"
   x1="0"
   y1="192"
   x2="512"
   y2="192"
   id="line16"
   style="fill:none;stroke:#a9ccdb;stroke-miterlimit:10" />
		<line
   stroke-miterlimit="10"
   x1="0"
   y1="224"
   x2="512"
   y2="224"
   id="line18"
   style="fill:none;stroke:#a9ccdb;stroke-miterlimit:10" />
		<line
   stroke-miterlimit="10"
   x1="0"
   y1="256"
   x2="512"
   y2="256"
   id="line20"
   style="fill:none;stroke:#a9ccdb;stroke-miterlimit:10" />
		<line
   stroke-miterlimit="10"
   x1="0"
   y1="288"
   x2="512"
   y2="288"
   id="line22"
   style="fill:none;stroke:#a9ccdb;stroke-miterlimit:10" />
		<line
   stroke-miterlimit="10"
   x1="0"
   y1="320"
   x2="512"
   y2="320"
   id="line24"
   style="fill:none;stroke:#a9ccdb;stroke-miterlimit:10" />
		<line
   stroke-miterlimit="10"
   x1="0"
   y1="352"
   x2="512"
   y2="352"
   id="line26"
   style="fill:none;stroke:#a9ccdb;stroke-miterlimit:10" />
		<line
   stroke-miterlimit="10"
   x1="0"
   y1="384"
   x2="512"
   y2="384"
   id="line28"
   style="fill:none;stroke:#a9ccdb;stroke-miterlimit:10" />
		<line
   stroke-miterlimit="10"
   x1="0"
   y1="416"
   x2="512"
   y2="416"
   id="line30"
   style="fill:none;stroke:#a9ccdb;stroke-miterlimit:10" />
		<line
   stroke-miterlimit="10"
   x1="0"
   y1="448"
   x2="512"
   y2="448"
   id="line32"
   style="fill:none;stroke:#ff0000;stroke-miterlimit:10" />
		<line
   stroke-miterlimit="10"
   x1="0"
   y1="480"
   x2="512"
   y2="480"
   id="line34"
   style="fill:none;stroke:#a9ccdb;stroke-miterlimit:10" />
		<line
   stroke-miterlimit="10"
   x1="32"
   y1="0"
   x2="32"
   y2="512"
   id="line36"
   style="fill:none;stroke:#a9ccdb;stroke-miterlimit:10" />
		<line
   stroke-miterlimit="10"
   x1="64"
   y1="0"
   x2="64"
   y2="512"
   id="line38"
   style="fill:none;stroke:#a9ccdb;stroke-miterlimit:10" />
		<line
   stroke-miterlimit="10"
   x1="96"
   y1="0"
   x2="96"
   y2="512"
   id="line40"
   style="fill:none;stroke:#a9ccdb;stroke-miterlimit:10" />
		<line
   stroke-miterlimit="10"
   x1="128"
   y1="0"
   x2="128"
   y2="512"
   id="line42"
   style="fill:none;stroke:#a9ccdb;stroke-miterlimit:10" />
		<line
   stroke-miterlimit="10"
   x1="160"
   y1="0"
   x2="160"
   y2="512"
   id="line44"
   style="fill:none;stroke:#a9ccdb;stroke-miterlimit:10" />
		<line
   stroke-miterlimit="10"
   x1="192"
   y1="0"
   x2="192"
   y2="512"
   id="line46"
   style="fill:none;stroke:#a9ccdb;stroke-miterlimit:10" />
		<line
   stroke-miterlimit="10"
   x1="224"
   y1="0"
   x2="224"
   y2="512"
   id="line48"
   style="fill:none;stroke:#a9ccdb;stroke-miterlimit:10" />
		<line
   stroke-miterlimit="10"
   x1="256"
   y1="0"
   x2="256"
   y2="512"
   id="line50"
   style="fill:none;stroke:#a9ccdb;stroke-miterlimit:10" />
		<line
   stroke-miterlimit="10"
   x1="288"
   y1="0"
   x2="288"
   y2="512"
   id="line52"
   style="fill:none;stroke:#a9ccdb;stroke-miterlimit:10" />
		<line
   stroke-miterlimit="10"
   x1="320"
   y1="0"
   x2="320"
   y2="512"
   id="line54"
   style="fill:none;stroke:#a9ccdb;stroke-miterlimit:10" />
		<line
   stroke-miterlimit="10"
   x1="352"
   y1="0"
   x2="352"
   y2="512"
   id="line56"
   style="fill:none;stroke:#a9ccdb;stroke-miterlimit:10" />
		<line
   stroke-miterlimit="10"
   x1="384"
   y1="0"
   x2="384"
   y2="512"
   id="line58"
   style="fill:none;stroke:#a9ccdb;stroke-miterlimit:10" />
		<line
   stroke-miterlimit="10"
   x1="416"
   y1="0"
   x2="416"
   y2="512"
   id="line60"
   style="fill:none;stroke:#a9ccdb;stroke-miterlimit:10" />
		<line
   stroke-miterlimit="10"
   x1="448"
   y1="0"
   x2="448"
   y2="512"
   id="line62"
   style="fill:none;stroke:#a9ccdb;stroke-miterlimit:10" />
		<line
   stroke-miterlimit="10"
   x1="480"
   y1="0"
   x2="480"
   y2="512"
   id="line64"
   style="fill:none;stroke:#a9ccdb;stroke-miterlimit:10" />
	</g>
	


<g
   id="g3786"><path
     id="path4769"
     d="m 190.02195,591.46192 c 4.51637,60.75345 18.18139,94.85089 47.31114,117.29318 28.60909,16.7498 61.30901,27.60249 96.44903,34.35854 53.14313,10.21731 108.33036,10.81755 166.92562,8.52246 61.23869,-2.3986 125.87362,-7.98254 180.31354,-10.13801 12.19561,-0.58941 80.91403,-35.59216 79.90999,-69.30362 L 750.4467,306.71356 C 755.04647,264.961 722.83177,251.91605 696.98606,252.26671 633.51602,211.8737 570.68129,203.43404 518.86823,201.55697 442.20226,198.77953 378.00098,219.70325 276.7445,248.6064 c -4.62929,13.06402 -15.46076,16.07618 -15.11976,27.65016 0.2271,7.71615 23.1383,2.72897 28.6011,17.95714 73.52718,-46.71297 144.74386,-43.85926 195.30132,-45.04021 68.01011,-1.58861 112.929,8.57936 211.35579,61.71101 -0.11275,88.28097 3.53813,215.27451 6.53667,330.26038 0.59501,22.81704 -0.97049,30.49595 -24.63125,43.95285 -86.90584,-0.96386 -172.81748,0.31482 -253.42097,0.9953 -72.69818,-7.13122 -122.20238,11.36231 -157.96707,-19.60472 -6.5543,-11.60059 -12.93398,-41.0871 -15.21062,-70.11389 -2.53619,-32.33589 0.0195,-64.10128 13.09792,-69.93377 5.63044,-1.56348 83.56393,-22.38182 91.42779,-4.61239 -8.58473,11.55778 -2.30075,27.97731 -3.18372,40.23349 -0.84392,11.71417 -9.08324,19.28575 -7.21301,29.5326 4.7187,25.85338 -4.2595,44.7823 -2.9882,51.53985 3.45552,16.68102 30.05105,7.17766 32.03382,3.8422 5.55472,-10.17464 7.86571,-32.70823 9.31455,-55.54243 1.16817,-19.30568 4.11881,-51.24764 8.11239,-64.40832 2.1603,-7.11917 6.70728,-1.80429 6.70728,-1.80429 7.06303,2.22085 -16.77356,122.8612 -8.82031,124.58453 4.41568,0.9568 9.12744,5.78499 15.25964,6.51845 3.69807,0.44231 8.53685,4.38853 12.37102,-9.04379 6.82918,-23.92478 16.53734,-115.19117 19.22372,-120.17315 4.16159,-7.71781 13.70155,-5.18232 13.97285,3.41023 0.92837,29.40343 -24.60227,123.84911 -15.04396,126.9611 4.29119,1.39712 24.8164,5.21327 24.8164,5.21327 -2.7737,-15.04155 17.42463,-138.1608 23.32395,-138.24011 2.50254,-0.0336 7.06811,-3.07789 6.71374,8.86294 -1.18265,39.8494 -21.3111,129.37073 -12.58842,129.51397 4.13613,0.0679 5.08578,5.612 19.39537,-1.00991 12.25424,-5.67077 9.49886,-12.7237 11.03235,-23.19469 3.96997,-27.10782 15.81057,-105.6556 19.69954,-106.5273 2.30663,-0.51702 19.10387,-16.23965 18.22032,-1.67895 -1.86558,30.74407 -13.15679,112.25735 -19.53598,139.01847 -28.79638,-7.61947 36.44547,2.68118 39.0208,-5.69684 7.06579,-31.35642 40.66287,-126.46358 17.09547,-132.59296 -2.0293,2.31422 22.53877,-1.70087 31.85195,-2.21425 73.0208,-4.02515 -15.45028,-37.06768 -20.58648,-44.81897 -5.18165,-38.41995 -0.92597,-75.79366 4.99832,-115.13333 2.84693,-18.9048 6.53014,-38.56491 1.90779,-56.69986 -3.74917,-14.04982 -40.71383,-3.7911 -37.37196,-2.87655 -4.55494,36.35611 -2.18648,124.10458 -16.93403,172.10239 -2.57777,8.20862 -8.44183,3.2227 -9.41921,2.92307 -3.09114,-0.94764 3.69098,-31.87129 5.84497,-65.71502 1.99535,-31.35119 2.06701,-63.22581 -2.75769,-87.41258 2.08653,-12.51967 -4.32982,-23.52002 -8.40445,-26.86823 -6.68776,-5.49548 -17.63635,-0.94593 -19.59044,6.07035 -5.14634,18.4782 -0.44599,37.10058 -1.71253,89.39782 -0.67259,29.20971 -2.21737,63.05592 -6.33591,77.5624 -2.03347,7.16239 -8.6206,5.39586 -9.79506,5.08891 2.35356,-15.95038 3.39675,-36.42869 3.52695,-58.05232 0.0878,-14.57456 -0.23923,-29.66944 -0.85931,-44.24887 -1.2484,-29.35292 2.2003,-56.61655 -0.43102,-73.33839 -16.5396,-24.32494 -27.42529,-1.1124 -28.51981,-1.70325 0.39891,6.62167 -0.88255,12.86293 -0.059,20.52906 0.92098,8.64091 -1.36586,20.34765 -0.90288,29.16418 0.82164,15.6466 -1.90619,29.49631 -1.89276,45.07582 0.0148,17.12762 -0.21373,33.97497 -0.14646,50.01495 0.05,9.70275 1.13161,17.05406 -1.45121,25.73503 -1.99762,5.83164 -7.67643,-2.65656 -9.0931,-2.96485 -5.74337,-1.24985 -8.88275,-122.42507 -6.85256,-161.96832 -32.45296,-26.78477 -32.98499,7.60995 -30.55925,40.1987 1.08875,14.62689 2.77334,28.88996 2.435,37.09423 -1.0006,26.10041 2.0222,53.29615 -3.89409,73.90042 -32.50163,20.60571 3.5558,-129.05622 -9.45805,-158.6679 -7.99003,-19.00656 -26.1327,-3.47785 -28.94566,11.43506 -6.74995,37.25402 -7.66168,112.77865 -15.53669,133.37052 -11.59348,25.81402 -100.34362,3.36894 -99.9462,1.65351 0.93673,-22.80202 7.1226,-44.74244 13.8496,-65.85129 6.18735,-19.41548 22.64091,-41.06999 26.08041,-59.10181 -5.21891,-31.60232 -36.00264,-31.48222 -46.56456,-23.4915 -15.70641,14.46538 -25.25119,34.19676 -32.45822,53.12323 -9.81126,26.01065 -12.68487,50.518 -21.12064,89.17532 -4.04587,18.6497 -7.57583,37.1377 -9.85522,55.76859 -3.86586,32.33889 -3.53453,63.72556 -2.67331,92.05906 z"
     inkscape:connector-curvature="0"
     sodipodi:nodetypes="ccssccccscscscscccsccsscccsssssssssssssssscccscscccsscsscscsscccssccscsccccccsccccccc" /></g></svg>