<?xml version="1.0" encoding="UTF-8" standalone="no"?>
<svg
   xmlns:dc="http://purl.org/dc/elements/1.1/"
   xmlns:cc="http://creativecommons.org/ns#"
   xmlns:rdf="http://www.w3.org/1999/02/22-rdf-syntax-ns#"
   xmlns:svg="http://www.w3.org/2000/svg"
   xmlns="http://www.w3.org/2000/svg"
   xmlns:sodipodi="http://sodipodi.sourceforge.net/DTD/sodipodi-0.dtd"
   xmlns:inkscape="http://www.inkscape.org/namespaces/inkscape"
   version="1.1"
   id="Layer_1"
   x="0px"
   y="0px"
   width="1024"
   height="1024"
   viewBox="0 0 1024 1024"
   enable-background="new 0 0 512 512"
   xml:space="preserve"
   inkscape:version="0.48.0 r9654"
   sodipodi:docname="tzadihebrew-x5e6.svg"><title
   id="title3743">Sinai 357</title><metadata
   id="metadata72"><rdf:RDF><cc:Work
       rdf:about=""><dc:format>image/svg+xml</dc:format><dc:type
         rdf:resource="http://purl.org/dc/dcmitype/StillImage" /><dc:title>Sinai 357</dc:title><dc:date>2017</dc:date><dc:creator><cc:Agent><dc:title>Celeste Claire Horner</dc:title></cc:Agent></dc:creator><dc:publisher><cc:Agent><dc:title>beitdina.net</dc:title></cc:Agent></dc:publisher></cc:Work></rdf:RDF></metadata><defs
   id="defs70" /><sodipodi:namedview
   pagecolor="#ffffff"
   bordercolor="#666666"
   borderopacity="1"
   objecttolerance="10"
   gridtolerance="10"
   guidetolerance="10"
   inkscape:pageopacity="0"
   inkscape:pageshadow="2"
   inkscape:window-width="723"
   inkscape:window-height="556"
   id="namedview68"
   showgrid="false"
   inkscape:zoom="0.17772102"
   inkscape:cx="444.22362"
   inkscape:cy="343.92664"
   inkscape:window-x="184"
   inkscape:window-y="184"
   inkscape:window-maximized="0"
   inkscape:current-layer="Layer_1" />
   
	<g
   id="Grid"
   transform="matrix(2.0004581,0,0,2.0004578,0.50019527,4.813853)">
		<rect
   x="0"
   stroke-miterlimit="10"
   width="512"
   height="512"
   id="rect4"
   y="0"
   style="fill:none;stroke:#a9ccdb;stroke-miterlimit:10" />
		<line
   stroke-miterlimit="10"
   x1="0"
   y1="32"
   x2="512"
   y2="32"
   id="line6"
   style="fill:none;stroke:#a9ccdb;stroke-miterlimit:10" />
		<line
   stroke-miterlimit="10"
   x1="0"
   y1="64"
   x2="512"
   y2="64"
   id="line8"
   style="fill:none;stroke:#a9ccdb;stroke-miterlimit:10" />
		<line
   stroke-miterlimit="10"
   x1="0"
   y1="96"
   x2="512"
   y2="96"
   id="line10"
   style="fill:none;stroke:#a9ccdb;stroke-miterlimit:10" />
		<line
   stroke-miterlimit="10"
   x1="0"
   y1="128"
   x2="512"
   y2="128"
   id="line12"
   style="fill:none;stroke:#a9ccdb;stroke-miterlimit:10" />
		<line
   stroke-miterlimit="10"
   x1="0"
   y1="160"
   x2="512"
   y2="160"
   id="line14"
   style="fill:none;stroke:#a9ccdb;stroke-miterlimit:10" />
		<line
   stroke-miterlimit="10"
   x1="0"
   y1="192"
   x2="512"
   y2="192"
   id="line16"
   style="fill:none;stroke:#a9ccdb;stroke-miterlimit:10" />
		<line
   stroke-miterlimit="10"
   x1="0"
   y1="224"
   x2="512"
   y2="224"
   id="line18"
   style="fill:none;stroke:#a9ccdb;stroke-miterlimit:10" />
		<line
   stroke-miterlimit="10"
   x1="0"
   y1="256"
   x2="512"
   y2="256"
   id="line20"
   style="fill:none;stroke:#a9ccdb;stroke-miterlimit:10" />
		<line
   stroke-miterlimit="10"
   x1="0"
   y1="288"
   x2="512"
   y2="288"
   id="line22"
   style="fill:none;stroke:#a9ccdb;stroke-miterlimit:10" />
		<line
   stroke-miterlimit="10"
   x1="0"
   y1="320"
   x2="512"
   y2="320"
   id="line24"
   style="fill:none;stroke:#a9ccdb;stroke-miterlimit:10" />
		<line
   stroke-miterlimit="10"
   x1="0"
   y1="352"
   x2="512"
   y2="352"
   id="line26"
   style="fill:none;stroke:#a9ccdb;stroke-miterlimit:10" />
		<line
   stroke-miterlimit="10"
   x1="0"
   y1="384"
   x2="512"
   y2="384"
   id="line28"
   style="fill:none;stroke:#a9ccdb;stroke-miterlimit:10" />
		<line
   stroke-miterlimit="10"
   x1="0"
   y1="416"
   x2="512"
   y2="416"
   id="line30"
   style="fill:none;stroke:#a9ccdb;stroke-miterlimit:10" />
		<line
   stroke-miterlimit="10"
   x1="0"
   y1="448"
   x2="512"
   y2="448"
   id="line32"
   style="fill:none;stroke:#ff0000;stroke-miterlimit:10" />
		<line
   stroke-miterlimit="10"
   x1="0"
   y1="480"
   x2="512"
   y2="480"
   id="line34"
   style="fill:none;stroke:#a9ccdb;stroke-miterlimit:10" />
		<line
   stroke-miterlimit="10"
   x1="32"
   y1="0"
   x2="32"
   y2="512"
   id="line36"
   style="fill:none;stroke:#a9ccdb;stroke-miterlimit:10" />
		<line
   stroke-miterlimit="10"
   x1="64"
   y1="0"
   x2="64"
   y2="512"
   id="line38"
   style="fill:none;stroke:#a9ccdb;stroke-miterlimit:10" />
		<line
   stroke-miterlimit="10"
   x1="96"
   y1="0"
   x2="96"
   y2="512"
   id="line40"
   style="fill:none;stroke:#a9ccdb;stroke-miterlimit:10" />
		<line
   stroke-miterlimit="10"
   x1="128"
   y1="0"
   x2="128"
   y2="512"
   id="line42"
   style="fill:none;stroke:#a9ccdb;stroke-miterlimit:10" />
		<line
   stroke-miterlimit="10"
   x1="160"
   y1="0"
   x2="160"
   y2="512"
   id="line44"
   style="fill:none;stroke:#a9ccdb;stroke-miterlimit:10" />
		<line
   stroke-miterlimit="10"
   x1="192"
   y1="0"
   x2="192"
   y2="512"
   id="line46"
   style="fill:none;stroke:#a9ccdb;stroke-miterlimit:10" />
		<line
   stroke-miterlimit="10"
   x1="224"
   y1="0"
   x2="224"
   y2="512"
   id="line48"
   style="fill:none;stroke:#a9ccdb;stroke-miterlimit:10" />
		<line
   stroke-miterlimit="10"
   x1="256"
   y1="0"
   x2="256"
   y2="512"
   id="line50"
   style="fill:none;stroke:#a9ccdb;stroke-miterlimit:10" />
		<line
   stroke-miterlimit="10"
   x1="288"
   y1="0"
   x2="288"
   y2="512"
   id="line52"
   style="fill:none;stroke:#a9ccdb;stroke-miterlimit:10" />
		<line
   stroke-miterlimit="10"
   x1="320"
   y1="0"
   x2="320"
   y2="512"
   id="line54"
   style="fill:none;stroke:#a9ccdb;stroke-miterlimit:10" />
		<line
   stroke-miterlimit="10"
   x1="352"
   y1="0"
   x2="352"
   y2="512"
   id="line56"
   style="fill:none;stroke:#a9ccdb;stroke-miterlimit:10" />
		<line
   stroke-miterlimit="10"
   x1="384"
   y1="0"
   x2="384"
   y2="512"
   id="line58"
   style="fill:none;stroke:#a9ccdb;stroke-miterlimit:10" />
		<line
   stroke-miterlimit="10"
   x1="416"
   y1="0"
   x2="416"
   y2="512"
   id="line60"
   style="fill:none;stroke:#a9ccdb;stroke-miterlimit:10" />
		<line
   stroke-miterlimit="10"
   x1="448"
   y1="0"
   x2="448"
   y2="512"
   id="line62"
   style="fill:none;stroke:#a9ccdb;stroke-miterlimit:10" />
		<line
   stroke-miterlimit="10"
   x1="480"
   y1="0"
   x2="480"
   y2="512"
   id="line64"
   style="fill:none;stroke:#a9ccdb;stroke-miterlimit:10" />
	</g>
	


<path
   style="fill:#000000;fill-opacity:1"
   d="m 159.75653,783.80904 c -0.8044,-46.2673 -0.34334,-105.218 -22.50423,-126.1401 -15.25582,-14.2039 -30.14586,-30.3317 -48.555749,-48.9239 -43.79044,-44.2238 -74.75186,-102.9912 -66.06953,-115.603 8.71029,-12.65316 12.00169,-27.83896 46.32711,-26.33274 11.49061,0.49925 35.671059,9.91624 52.211839,21.19434 30.02557,20.474 32.13564,25.3291 63.42213,49.627 19.02153,14.7735 17.20489,13.275 29.7395,2.9506 37.70315,-55.0018 61.14456,-79.48324 102.28687,-130.05323 26.19893,-24.51393 141.75896,-186.9943 166.6603,-189.37301 11.4705,28.45751 16.07077,72.36459 19.11153,118.70347 3.94032,60.05334 5.26132,124.19016 15.51995,164.08317 2.46543,2.2354 3.80065,10.2527 7.92294,20.731 3.59906,9.1492 7.43172,7.0308 17.88642,7.7504 18.97285,-12.6781 41.18192,-31.2335 64.48992,-49.9135 23.90689,-19.16087 48.97034,-38.45189 72.88483,-51.66824 17.97802,-9.9347 35.30675,-16.43493 51.00683,-16.86467 24.22154,0.39055 5.09958,19.94763 -0.13733,44.57671 -14.73468,22.7581 -34.54908,42.2694 -56.00844,59.5605 -25.82383,20.8082 -54.0297,38.4031 -78.63161,54.5765 -24.76168,16.2873 -45.08275,29.9724 -46.60154,35.2702 -7.80792,42.338 4.41205,124.953 5.31944,155.9314 0.79704,31.014 2.19481,71.7773 -12.88542,101.4308 -26.44466,5.3715 -47.33788,9.3573 -64.77821,12.3144 -83.20403,8.2886 -139.43343,12.2451 -223.6182,7.4802 -51.31265,-3.9458 -54.78259,-6.0727 -75.94791,-28.4565 -11.70801,-12.3818 -18.25943,-34.2208 -19.05108,-72.855 z m 313.09603,-173.1898 c -11.32347,-117.029 -43.84292,-224.02351 -54.51209,-224.02351 -21.38432,28.20131 -42.60371,54.82487 -63.24519,80.34261 -33.08841,40.9044 -64.692,78.9646 -93.10927,116.1208 -9.62505,12.5847 -18.88468,25.0664 -27.71269,37.5187 -3.66564,23.5287 -8.50576,53.4293 -9.31935,83.2336 -1.01162,37.0868 4.20935,74.0248 25.68613,98.3501 75.15933,11.0914 150.51645,24.8417 224.97488,-3.5898 7.83158,-16.9906 8.58914,-70.6337 -2.76242,-187.9525 z m -395.340439,-113.41 c -8.28602,-0.3577 -15.59217,7.1295 -18.21271,12.0377 -3.86061,7.2305 7.6376,23.43 11.39128,29.7891 24.09033,28.9404 60.343969,60.0999 88.349479,82.1419 7.52197,0.9656 7.40658,-7.5354 11.35217,-16.3015 3.31201,-7.3574 11.44769,-14.5108 10.17942,-20.2568 -30.4019,-27.393 -65.74213,-71.2739 -103.059639,-87.4104 z"
   id="path3798"
   inkscape:connector-curvature="0"
   sodipodi:nodetypes="scssssscccscscssccsccccccscscsscscccccccsccc" /></svg>