<?xml version="1.0" encoding="UTF-8" standalone="no"?>
<svg
   xmlns:dc="http://purl.org/dc/elements/1.1/"
   xmlns:cc="http://creativecommons.org/ns#"
   xmlns:rdf="http://www.w3.org/1999/02/22-rdf-syntax-ns#"
   xmlns:svg="http://www.w3.org/2000/svg"
   xmlns="http://www.w3.org/2000/svg"
   xmlns:sodipodi="http://sodipodi.sourceforge.net/DTD/sodipodi-0.dtd"
   xmlns:inkscape="http://www.inkscape.org/namespaces/inkscape"
   version="1.1"
   id="Layer_1"
   x="0px"
   y="0px"
   width="1159"
   height="1159"
   viewBox="0 0 1159 1159"
   enable-background="new 0 0 512 512"
   xml:space="preserve"
   inkscape:version="0.48.0 r9654"
   sodipodi:docname="yodhebrew-x5d9.svg"
   inkscape:export-filename="C:\Fonts\Proto-Sianitic\S2450776_Sianitic.png"
   inkscape:export-xdpi="90"
   inkscape:export-ydpi="90"><title
   id="title3743">Sinai 245/776</title><metadata
   id="metadata72"><rdf:RDF><cc:Work
       rdf:about=""><dc:format>image/svg+xml</dc:format><dc:type
         rdf:resource="http://purl.org/dc/dcmitype/StillImage" /><dc:title>Sinai 245/776</dc:title><dc:date>2021</dc:date><dc:creator><cc:Agent><dc:title>InkScape</dc:title></cc:Agent></dc:creator><dc:publisher><cc:Agent><dc:title>beitdina.net</dc:title></cc:Agent></dc:publisher><cc:license
         rdf:resource="http://scripts.sil.org/OFL" /></cc:Work><cc:License
       rdf:about="http://scripts.sil.org/OFL"><cc:permits
         rdf:resource="http://scripts.sil.org/pub/OFL/Reproduction" /><cc:permits
         rdf:resource="http://scripts.sil.org/pub/OFL/Distribution" /><cc:permits
         rdf:resource="http://scripts.sil.org/pub/OFL/Embedding" /><cc:permits
         rdf:resource="http://scripts.sil.org/pub/OFL/DerivativeWorks" /><cc:requires
         rdf:resource="http://scripts.sil.org/pub/OFL/Notice" /><cc:requires
         rdf:resource="http://scripts.sil.org/pub/OFL/Attribution" /><cc:requires
         rdf:resource="http://scripts.sil.org/pub/OFL/ShareAlike" /><cc:requires
         rdf:resource="http://scripts.sil.org/pub/OFL/DerivativeRenaming" /><cc:requires
         rdf:resource="http://scripts.sil.org/pub/OFL/BundlingWhenSelling" /></cc:License></rdf:RDF></metadata><defs
   id="defs70"><linearGradient
     id="linearGradient4617"><stop
       style="stop-color:#030303;stop-opacity:1;"
       offset="0"
       id="stop4619" /><stop
       style="stop-color:#030303;stop-opacity:0;"
       offset="1"
       id="stop4621" /></linearGradient><linearGradient
     id="linearGradient4587"><stop
       style="stop-color:#ee9751;stop-opacity:1;"
       offset="0"
       id="stop4589" /><stop
       style="stop-color:#ee9751;stop-opacity:0;"
       offset="1"
       id="stop4591" /></linearGradient></defs><sodipodi:namedview
   pagecolor="#ffffff"
   bordercolor="#666666"
   borderopacity="1"
   objecttolerance="10"
   gridtolerance="10"
   guidetolerance="10"
   inkscape:pageopacity="0"
   inkscape:pageshadow="2"
   inkscape:window-width="1152"
   inkscape:window-height="814"
   id="namedview68"
   showgrid="false"
   inkscape:zoom="0.53833633"
   inkscape:cx="713.83388"
   inkscape:cy="348.71053"
   inkscape:window-x="-8"
   inkscape:window-y="-8"
   inkscape:window-maximized="1"
   inkscape:current-layer="Layer_1" />
   
	<g
   id="Grid"
   transform="matrix(2.2469488,0,0,2.2533508,-1.4161501,12.931703)">
		<rect
   x="0"
   stroke-miterlimit="10"
   width="512"
   height="512"
   id="rect4"
   y="0"
   style="fill:none;stroke:#a9ccdb;stroke-miterlimit:10" />
		<line
   stroke-miterlimit="10"
   x1="0"
   y1="32"
   x2="512"
   y2="32"
   id="line6"
   style="fill:none;stroke:#a9ccdb;stroke-miterlimit:10" />
		<line
   stroke-miterlimit="10"
   x1="0"
   y1="64"
   x2="512"
   y2="64"
   id="line8"
   style="fill:none;stroke:#a9ccdb;stroke-miterlimit:10" />
		<line
   stroke-miterlimit="10"
   x1="0"
   y1="96"
   x2="512"
   y2="96"
   id="line10"
   style="fill:none;stroke:#a9ccdb;stroke-miterlimit:10" />
		<line
   stroke-miterlimit="10"
   x1="0"
   y1="128"
   x2="512"
   y2="128"
   id="line12"
   style="fill:none;stroke:#a9ccdb;stroke-miterlimit:10" />
		<line
   stroke-miterlimit="10"
   x1="0"
   y1="160"
   x2="512"
   y2="160"
   id="line14"
   style="fill:none;stroke:#a9ccdb;stroke-miterlimit:10" />
		<line
   stroke-miterlimit="10"
   x1="0"
   y1="192"
   x2="512"
   y2="192"
   id="line16"
   style="fill:none;stroke:#a9ccdb;stroke-miterlimit:10" />
		<line
   stroke-miterlimit="10"
   x1="0"
   y1="224"
   x2="512"
   y2="224"
   id="line18"
   style="fill:none;stroke:#a9ccdb;stroke-miterlimit:10" />
		<line
   stroke-miterlimit="10"
   x1="0"
   y1="256"
   x2="512"
   y2="256"
   id="line20"
   style="fill:none;stroke:#a9ccdb;stroke-miterlimit:10" />
		<line
   stroke-miterlimit="10"
   x1="0"
   y1="288"
   x2="512"
   y2="288"
   id="line22"
   style="fill:none;stroke:#a9ccdb;stroke-miterlimit:10" />
		<line
   stroke-miterlimit="10"
   x1="0"
   y1="320"
   x2="512"
   y2="320"
   id="line24"
   style="fill:none;stroke:#a9ccdb;stroke-miterlimit:10" />
		<line
   stroke-miterlimit="10"
   x1="0"
   y1="352"
   x2="512"
   y2="352"
   id="line26"
   style="fill:none;stroke:#a9ccdb;stroke-miterlimit:10" />
		<line
   stroke-miterlimit="10"
   x1="0"
   y1="384"
   x2="512"
   y2="384"
   id="line28"
   style="fill:none;stroke:#a9ccdb;stroke-miterlimit:10" />
		<line
   stroke-miterlimit="10"
   x1="0"
   y1="416"
   x2="512"
   y2="416"
   id="line30"
   style="fill:none;stroke:#a9ccdb;stroke-miterlimit:10" />
		<line
   stroke-miterlimit="10"
   x1="0"
   y1="448"
   x2="512"
   y2="448"
   id="line32"
   style="fill:none;stroke:#ff0000;stroke-miterlimit:10" />
		<line
   stroke-miterlimit="10"
   x1="0"
   y1="480"
   x2="512"
   y2="480"
   id="line34"
   style="fill:none;stroke:#a9ccdb;stroke-miterlimit:10" />
		<line
   stroke-miterlimit="10"
   x1="32"
   y1="0"
   x2="32"
   y2="512"
   id="line36"
   style="fill:none;stroke:#a9ccdb;stroke-miterlimit:10" />
		<line
   stroke-miterlimit="10"
   x1="64"
   y1="0"
   x2="64"
   y2="512"
   id="line38"
   style="fill:none;stroke:#a9ccdb;stroke-miterlimit:10" />
		<line
   stroke-miterlimit="10"
   x1="96"
   y1="0"
   x2="96"
   y2="512"
   id="line40"
   style="fill:none;stroke:#a9ccdb;stroke-miterlimit:10" />
		<line
   stroke-miterlimit="10"
   x1="128"
   y1="0"
   x2="128"
   y2="512"
   id="line42"
   style="fill:none;stroke:#a9ccdb;stroke-miterlimit:10" />
		<line
   stroke-miterlimit="10"
   x1="160"
   y1="0"
   x2="160"
   y2="512"
   id="line44"
   style="fill:none;stroke:#a9ccdb;stroke-miterlimit:10" />
		<line
   stroke-miterlimit="10"
   x1="192"
   y1="0"
   x2="192"
   y2="512"
   id="line46"
   style="fill:none;stroke:#a9ccdb;stroke-miterlimit:10" />
		<line
   stroke-miterlimit="10"
   x1="224"
   y1="0"
   x2="224"
   y2="512"
   id="line48"
   style="fill:none;stroke:#a9ccdb;stroke-miterlimit:10" />
		<line
   stroke-miterlimit="10"
   x1="256"
   y1="0"
   x2="256"
   y2="512"
   id="line50"
   style="fill:none;stroke:#a9ccdb;stroke-miterlimit:10" />
		<line
   stroke-miterlimit="10"
   x1="288"
   y1="0"
   x2="288"
   y2="512"
   id="line52"
   style="fill:none;stroke:#a9ccdb;stroke-miterlimit:10" />
		<line
   stroke-miterlimit="10"
   x1="320"
   y1="0"
   x2="320"
   y2="512"
   id="line54"
   style="fill:none;stroke:#a9ccdb;stroke-miterlimit:10" />
		<line
   stroke-miterlimit="10"
   x1="352"
   y1="0"
   x2="352"
   y2="512"
   id="line56"
   style="fill:none;stroke:#a9ccdb;stroke-miterlimit:10" />
		<line
   stroke-miterlimit="10"
   x1="384"
   y1="0"
   x2="384"
   y2="512"
   id="line58"
   style="fill:none;stroke:#a9ccdb;stroke-miterlimit:10" />
		<line
   stroke-miterlimit="10"
   x1="416"
   y1="0"
   x2="416"
   y2="512"
   id="line60"
   style="fill:none;stroke:#a9ccdb;stroke-miterlimit:10" />
		<line
   stroke-miterlimit="10"
   x1="448"
   y1="0"
   x2="448"
   y2="512"
   id="line62"
   style="fill:none;stroke:#a9ccdb;stroke-miterlimit:10" />
		<line
   stroke-miterlimit="10"
   x1="480"
   y1="0"
   x2="480"
   y2="512"
   id="line64"
   style="fill:none;stroke:#a9ccdb;stroke-miterlimit:10" />
	</g>
<path
   sodipodi:nodetypes="csccccccccsccccsccscsscsccscscccccsc"
   inkscape:connector-curvature="0"
   id="path4558-5"
   d="M 53.373583,754.6766 C 91.6304,733.91023 132.57993,720.67247 167.7764,700.29054 c 43.39059,-25.12696 75.33955,-61.49946 112.3613,-100.08447 32.74979,-67.82333 67.4726,-55.16369 110.36991,-90.25143 25.87715,-21.48076 40.74435,-44.89707 71.94392,-58.53082 30.00307,-7.87278 53.51604,-9.30322 82.7795,-3.24516 48.72963,13.11251 80.08574,18.42529 101.14543,19.91878 78.02134,-12.54922 87.8463,-7.35675 103.39065,-8.88326 24.01952,-2.65396 41.38471,-5.64739 68.79374,-13.00833 9.08225,-2.37439 20.834,5.39103 27.20871,7.30195 3.80855,5.25326 33.37554,5.78678 36.47258,10.01764 9.26859,12.66113 17.79395,12.87221 31.32162,27.63438 7.46605,7.72723 12.22883,2.82742 22.82839,10.24912 9.52888,9.02011 30.30402,27.29369 47.08344,24.61053 18.66771,-4.54507 13.07815,-25.49523 4.51992,-42.05784 -8.86664,-18.65212 -37.65319,-29.24459 -55.69488,-42.60814 -10.76101,-7.97082 -11.60135,-18.96234 -18.96314,-27.61513 -6.56589,-14.19268 -1.63013,-23.17555 -1.913,-35.02076 0.0687,-10.28219 -8.02108,-10.24433 22.26045,-24.5835 17.95569,-8.50246 61.78511,-28.14323 72.77176,-28.22143 13.7673,-2.61217 57.9375,20.56821 74.9883,14.45359 21.2667,-7.62673 20.2025,-55.80798 15.2255,-64.07632 -6.3444,-10.53985 -76.2344,-31.5037 -93.1619,-29.6166 -21.90267,2.74073 -94.03608,31.1726 -126.01473,51.20004 -26.62412,16.67414 -44.46162,24.04384 -62.90438,32.32864 -17.41864,2.12394 -37.10555,0.0299 -56.10126,1.30133 -24.19158,6.048 -47.5353,8.0193 -69.2012,7.65011 -49.99785,-0.85203 -91.06071,-14.16809 -112.98915,-18.61177 -53.55381,-16.48754 -102.29079,-26.52189 -148.14355,-22.91504 -40.57247,3.19148 -78.88675,17.06331 -116.2817,46.59514 -18.33643,14.71339 -33.64025,33.35554 -54.90929,64.98791 -19.30814,28.38766 -37.86368,49.45161 -61.00872,72.13073 -31.36155,30.18097 -69.73157,44.96 -125.871473,58.5213 -23.60402,5.77109 -42.975003,11.80506 -50.186203,21.91762 4.678455,14.95515 10.583806,75.32796 19.29382,124.06493 5.347023,29.91927 7.509777,67.77769 14.182819,68.83232 z"
   style="fill:#725400;fill-opacity:0.8;stroke:#000000;stroke-width:10.33047009;stroke-miterlimit:4;stroke-opacity:1;stroke-dasharray:none" />
</svg>