<?xml version="1.0" encoding="UTF-8" standalone="no"?>
<svg
   xmlns:dc="http://purl.org/dc/elements/1.1/"
   xmlns:cc="http://creativecommons.org/ns#"
   xmlns:rdf="http://www.w3.org/1999/02/22-rdf-syntax-ns#"
   xmlns:svg="http://www.w3.org/2000/svg"
   xmlns="http://www.w3.org/2000/svg"
   xmlns:sodipodi="http://sodipodi.sourceforge.net/DTD/sodipodi-0.dtd"
   xmlns:inkscape="http://www.inkscape.org/namespaces/inkscape"
   version="1.1"
   id="Layer_1"
   x="0px"
   y="0px"
   width="1024"
   height="1024"
   viewBox="0 0 1024 1024"
   enable-background="new 0 0 512 512"
   xml:space="preserve"
   inkscape:version="0.48.0 r9654"
   sodipodi:docname="yodhebrew-x5d9.svg"
   inkscape:export-filename="C:\Fonts\Proto-Sianitic\S2450776_Sianitic.png"
   inkscape:export-xdpi="90"
   inkscape:export-ydpi="90"><title
   id="title3743">Sinai 245/776</title><metadata
   id="metadata72"><rdf:RDF><cc:Work
       rdf:about=""><dc:format>image/svg+xml</dc:format><dc:type
         rdf:resource="http://purl.org/dc/dcmitype/StillImage" /><dc:title>Sinai 245/776</dc:title><dc:date>2021</dc:date><dc:creator><cc:Agent><dc:title>InkScape</dc:title></cc:Agent></dc:creator><dc:publisher><cc:Agent><dc:title>beitdina.net</dc:title></cc:Agent></dc:publisher><cc:license
         rdf:resource="http://scripts.sil.org/OFL" /></cc:Work><cc:License
       rdf:about="http://scripts.sil.org/OFL"><cc:permits
         rdf:resource="http://scripts.sil.org/pub/OFL/Reproduction" /><cc:permits
         rdf:resource="http://scripts.sil.org/pub/OFL/Distribution" /><cc:permits
         rdf:resource="http://scripts.sil.org/pub/OFL/Embedding" /><cc:permits
         rdf:resource="http://scripts.sil.org/pub/OFL/DerivativeWorks" /><cc:requires
         rdf:resource="http://scripts.sil.org/pub/OFL/Notice" /><cc:requires
         rdf:resource="http://scripts.sil.org/pub/OFL/Attribution" /><cc:requires
         rdf:resource="http://scripts.sil.org/pub/OFL/ShareAlike" /><cc:requires
         rdf:resource="http://scripts.sil.org/pub/OFL/DerivativeRenaming" /><cc:requires
         rdf:resource="http://scripts.sil.org/pub/OFL/BundlingWhenSelling" /></cc:License></rdf:RDF></metadata><defs
   id="defs70"><linearGradient
     id="linearGradient4617"><stop
       style="stop-color:#030303;stop-opacity:1;"
       offset="0"
       id="stop4619" /><stop
       style="stop-color:#030303;stop-opacity:0;"
       offset="1"
       id="stop4621" /></linearGradient><linearGradient
     id="linearGradient4587"><stop
       style="stop-color:#ee9751;stop-opacity:1;"
       offset="0"
       id="stop4589" /><stop
       style="stop-color:#ee9751;stop-opacity:0;"
       offset="1"
       id="stop4591" /></linearGradient></defs><sodipodi:namedview
   pagecolor="#ffffff"
   bordercolor="#666666"
   borderopacity="1"
   objecttolerance="10"
   gridtolerance="10"
   guidetolerance="10"
   inkscape:pageopacity="0"
   inkscape:pageshadow="2"
   inkscape:window-width="1082"
   inkscape:window-height="748"
   id="namedview68"
   showgrid="false"
   inkscape:zoom="0.22627417"
   inkscape:cx="-36.275545"
   inkscape:cy="1104.4922"
   inkscape:window-x="63"
   inkscape:window-y="56"
   inkscape:window-maximized="0"
   inkscape:current-layer="Layer_1" />
   
	<g
   id="Grid"
   transform="matrix(2.0004581,0,0,2.0004578,-1.5393954,7.5393672)">
		<rect
   x="0"
   stroke-miterlimit="10"
   width="512"
   height="512"
   id="rect4"
   y="0"
   style="fill:none;stroke:#a9ccdb;stroke-miterlimit:10" />
		<line
   stroke-miterlimit="10"
   x1="0"
   y1="32"
   x2="512"
   y2="32"
   id="line6"
   style="fill:none;stroke:#a9ccdb;stroke-miterlimit:10" />
		<line
   stroke-miterlimit="10"
   x1="0"
   y1="64"
   x2="512"
   y2="64"
   id="line8"
   style="fill:none;stroke:#a9ccdb;stroke-miterlimit:10" />
		<line
   stroke-miterlimit="10"
   x1="0"
   y1="96"
   x2="512"
   y2="96"
   id="line10"
   style="fill:none;stroke:#a9ccdb;stroke-miterlimit:10" />
		<line
   stroke-miterlimit="10"
   x1="0"
   y1="128"
   x2="512"
   y2="128"
   id="line12"
   style="fill:none;stroke:#a9ccdb;stroke-miterlimit:10" />
		<line
   stroke-miterlimit="10"
   x1="0"
   y1="160"
   x2="512"
   y2="160"
   id="line14"
   style="fill:none;stroke:#a9ccdb;stroke-miterlimit:10" />
		<line
   stroke-miterlimit="10"
   x1="0"
   y1="192"
   x2="512"
   y2="192"
   id="line16"
   style="fill:none;stroke:#a9ccdb;stroke-miterlimit:10" />
		<line
   stroke-miterlimit="10"
   x1="0"
   y1="224"
   x2="512"
   y2="224"
   id="line18"
   style="fill:none;stroke:#a9ccdb;stroke-miterlimit:10" />
		<line
   stroke-miterlimit="10"
   x1="0"
   y1="256"
   x2="512"
   y2="256"
   id="line20"
   style="fill:none;stroke:#a9ccdb;stroke-miterlimit:10" />
		<line
   stroke-miterlimit="10"
   x1="0"
   y1="288"
   x2="512"
   y2="288"
   id="line22"
   style="fill:none;stroke:#a9ccdb;stroke-miterlimit:10" />
		<line
   stroke-miterlimit="10"
   x1="0"
   y1="320"
   x2="512"
   y2="320"
   id="line24"
   style="fill:none;stroke:#a9ccdb;stroke-miterlimit:10" />
		<line
   stroke-miterlimit="10"
   x1="0"
   y1="352"
   x2="512"
   y2="352"
   id="line26"
   style="fill:none;stroke:#a9ccdb;stroke-miterlimit:10" />
		<line
   stroke-miterlimit="10"
   x1="0"
   y1="384"
   x2="512"
   y2="384"
   id="line28"
   style="fill:none;stroke:#a9ccdb;stroke-miterlimit:10" />
		<line
   stroke-miterlimit="10"
   x1="0"
   y1="416"
   x2="512"
   y2="416"
   id="line30"
   style="fill:none;stroke:#a9ccdb;stroke-miterlimit:10" />
		<line
   stroke-miterlimit="10"
   x1="0"
   y1="448"
   x2="512"
   y2="448"
   id="line32"
   style="fill:none;stroke:#ff0000;stroke-miterlimit:10" />
		<line
   stroke-miterlimit="10"
   x1="0"
   y1="480"
   x2="512"
   y2="480"
   id="line34"
   style="fill:none;stroke:#a9ccdb;stroke-miterlimit:10" />
		<line
   stroke-miterlimit="10"
   x1="32"
   y1="0"
   x2="32"
   y2="512"
   id="line36"
   style="fill:none;stroke:#a9ccdb;stroke-miterlimit:10" />
		<line
   stroke-miterlimit="10"
   x1="64"
   y1="0"
   x2="64"
   y2="512"
   id="line38"
   style="fill:none;stroke:#a9ccdb;stroke-miterlimit:10" />
		<line
   stroke-miterlimit="10"
   x1="96"
   y1="0"
   x2="96"
   y2="512"
   id="line40"
   style="fill:none;stroke:#a9ccdb;stroke-miterlimit:10" />
		<line
   stroke-miterlimit="10"
   x1="128"
   y1="0"
   x2="128"
   y2="512"
   id="line42"
   style="fill:none;stroke:#a9ccdb;stroke-miterlimit:10" />
		<line
   stroke-miterlimit="10"
   x1="160"
   y1="0"
   x2="160"
   y2="512"
   id="line44"
   style="fill:none;stroke:#a9ccdb;stroke-miterlimit:10" />
		<line
   stroke-miterlimit="10"
   x1="192"
   y1="0"
   x2="192"
   y2="512"
   id="line46"
   style="fill:none;stroke:#a9ccdb;stroke-miterlimit:10" />
		<line
   stroke-miterlimit="10"
   x1="224"
   y1="0"
   x2="224"
   y2="512"
   id="line48"
   style="fill:none;stroke:#a9ccdb;stroke-miterlimit:10" />
		<line
   stroke-miterlimit="10"
   x1="256"
   y1="0"
   x2="256"
   y2="512"
   id="line50"
   style="fill:none;stroke:#a9ccdb;stroke-miterlimit:10" />
		<line
   stroke-miterlimit="10"
   x1="288"
   y1="0"
   x2="288"
   y2="512"
   id="line52"
   style="fill:none;stroke:#a9ccdb;stroke-miterlimit:10" />
		<line
   stroke-miterlimit="10"
   x1="320"
   y1="0"
   x2="320"
   y2="512"
   id="line54"
   style="fill:none;stroke:#a9ccdb;stroke-miterlimit:10" />
		<line
   stroke-miterlimit="10"
   x1="352"
   y1="0"
   x2="352"
   y2="512"
   id="line56"
   style="fill:none;stroke:#a9ccdb;stroke-miterlimit:10" />
		<line
   stroke-miterlimit="10"
   x1="384"
   y1="0"
   x2="384"
   y2="512"
   id="line58"
   style="fill:none;stroke:#a9ccdb;stroke-miterlimit:10" />
		<line
   stroke-miterlimit="10"
   x1="416"
   y1="0"
   x2="416"
   y2="512"
   id="line60"
   style="fill:none;stroke:#a9ccdb;stroke-miterlimit:10" />
		<line
   stroke-miterlimit="10"
   x1="448"
   y1="0"
   x2="448"
   y2="512"
   id="line62"
   style="fill:none;stroke:#a9ccdb;stroke-miterlimit:10" />
		<line
   stroke-miterlimit="10"
   x1="480"
   y1="0"
   x2="480"
   y2="512"
   id="line64"
   style="fill:none;stroke:#a9ccdb;stroke-miterlimit:10" />
	</g>
   <path
   style="fill:#000302;fill-opacity:1"
   d="m 278.39253,451.90987 c -13.21326,12.44239 -26.00684,26.2028 -32.47982,35.61126 -6.47298,9.40851 -15.3557,10.54635 -19.73959,10.58087 -9.85133,15.74412 -23.53093,42.55309 -34.05383,58.60028 -11.19958,17.07872 -22.57565,34.09415 -33.69572,50.54613 -10.91279,13.51353 -28.08772,35.37432 -34.8757,49.75006 -8.4097,18.18718 -16.56184,33.39505 -31.663576,34.90365 -11.008742,1.0997 -21.308972,-2.89204 -27.276099,-12.9376 -12.330316,-20.75777 -36.881681,-11.04959 -36.881681,16.54394 1.258999,28.63793 15.263867,55.96195 33.068793,66.12643 7.650912,4.26388 24.492877,9.04573 33.193459,7.7033 6.392424,-0.98635 13.037274,-3.53209 19.976604,-7.64626 14.13108,-8.37798 29.4837,-23.25988 46.418,-44.72214 17.22777,-21.83408 36.09263,-50.47842 56.97321,-86.0136 41.19324,-70.10381 64.10853,-90.8437 81.37325,-105.73154 16.88913,-16.81436 46.32668,-23.2171 65.77483,-21.75838 6.98343,3.34162 16.54643,5.01397 27.15455,7.20829 9.88666,3.27093 19.58616,7.14212 32.59934,15.00939 2.86218,1.73053 5.43303,4.4259 8.61539,6.48112 9.22083,5.95518 15.1295,7.77256 29.16304,12.935 10.92768,4.01972 10.73785,4.89639 18.38318,7.97219 14.42139,4.74783 10.19294,3.82858 19.73182,6.4915 11.48691,3.20676 48.94677,10.00625 68.66737,13.8848 29.30978,4.49794 108.06396,5.45083 134.97019,3.02214 23.85877,-2.15362 46.88691,-11.66553 67.94911,-14.81567 23.81461,-0.2816 52.7986,4.55855 68.36875,10.19268 15.32182,10.24957 29.10615,34.18365 38.34844,54.18218 3.36141,7.27385 6.12209,13.53685 8.13726,17.40615 6.97522,13.54232 15.05452,23.65078 20.9021,31.25392 8.00344,10.40613 17.32943,16.30626 22.32742,14.18853 3.47013,-1.47064 4.85385,-6.80777 2.25682,-17.18752 -2.8084,-11.22509 -9.98166,-23.15568 -17.83159,-44.51445 -2.28763,-6.22535 -4.74255,-12.69152 -7.26817,-19.15318 -7.07585,-18.10397 -12.63255,-36.9975 -20.75127,-48.82108 -4.42656,-11.18074 -17.22677,-21.84722 -17.46743,-31.14975 0,-8.07318 20.42808,-24.47215 40.48834,-35.56208 11.89479,-6.57577 23.66021,-11.28493 30.96123,-11.28493 20.53476,-4.43645 24.09427,-20.34329 18.06861,-32.09101 -4.26281,-8.31147 -13.32356,-14.54109 -24.56465,-13.15392 -14.54355,2.02952 -33.921,11.05612 -55.08371,26.6029 -17.61924,12.94365 -29.44057,18.63067 -41.66008,25.03278 -21.15507,2.87213 -45.08258,2.74676 -68.07688,6.43081 -17.48533,2.14407 -48.47782,17.11253 -66.96303,17.43719 -22.84348,0.4012 -115.44138,-2.01671 -132.8431,-5.11689 -19.5103,-2.01307 -43.51117,-7.82846 -68.76843,-14.8258 -26.88469,-7.8805 -47.03311,-15.28557 -67.47918,-31.50052 -29.03991,-22.99842 -59.1536,-43.10987 -68.25691,-32.53442 -11.79115,6.98861 -16.25609,6.30477 -28.56793,3.1006 -11.54594,-3.00471 -34.26005,-7.70033 -43.72351,-2.46915 -5.03395,2.90072 -6.40632,16.73627 -13.89922,23.79202 z"
   id="path4558"
   inkscape:connector-curvature="0"
   sodipodi:nodetypes="cscsccssccsssscccssscscsccscsssssccscscsccsccccsccc" />
     </svg>